<svg width="43" height="37" viewBox="0 0 43 37" fill="none" xmlns="http://www.w3.org/2000/svg">
<path d="M41.721 31.6609C42.5128 29.847 46.5024 19.3248 34.6186 15.3665C31.6727 14.3837 28.6509 12.6487 33.1077 8.56905C35.5713 6.31538 32.3523 1.39551 26.2329 4.03744C22.1675 5.79366 22.5892 0.816167 16.1846 0.109429C4.55566 -1.17362 -1.48181 9.19389 3.64853 11.9662C7.39236 13.9924 2.90219 18.6666 2.90219 18.6666C-4.04545 25.0545 2.54722 36.6657 11.4517 36.9751C23.1414 37.3815 23.5145 32.7498 27.4647 28.1424C29.8493 25.3609 34.9645 27.3962 35.7108 31.4698C36.0931 33.5566 40.9746 33.3625 41.721 31.6609ZM12.4863 32.2069C11.5215 32.3221 10.5112 32.0673 9.63745 31.6669C7.64721 30.754 1.80088 27.475 5.32627 19.7464C6.03317 18.1995 6.86446 20.0862 6.29712 21.2964C5.79653 22.3641 5.67214 25.2638 6.48523 26.8472C7.48641 28.7945 9.57374 29.3587 10.1016 29.5012C13.1477 30.3111 13.7757 32.0552 12.4863 32.2069ZM19.1639 28.1272C16.7732 28.7611 13.8849 28.6368 11.7551 27.199C10.8753 26.6045 10.2169 25.7613 9.81645 24.7634C7.85958 19.9042 10.9269 16.8952 10.9875 14.3595C11.0088 13.4798 11.2909 11.7812 9.17326 10.0432C8.02645 9.09986 5.40212 9.11503 5.01985 8.68128C4.71343 8.33549 4.88636 7.81075 5.35358 7.69245C7.55619 7.13434 9.95905 7.4771 11.5913 9.16659C12.7715 10.389 13.4086 12.0421 13.5148 13.7285C13.5664 14.5384 13.4905 15.3756 13.2751 16.1612C12.9747 17.2683 12.4256 18.3026 12.101 19.4067C11.837 20.3015 11.3334 23.5228 12.638 25.0333C14.1458 26.7835 15.8752 27.2476 19.4946 27.1353C20.3532 27.108 19.8617 27.9391 19.1609 28.1242L19.1639 28.1272ZM17.3739 21.3116C16.0572 19.7343 16.0663 17.0438 16.8248 15.2148C17.6379 13.2493 18.2204 11.7054 18.3174 9.51541C18.3872 7.96544 18.1597 7.07975 17.0189 6.15462C14.0032 3.70378 11.473 5.25375 10.0076 4.15573C9.65565 3.89184 9.85893 3.25487 10.3413 3.1669C12.9596 2.68159 15.8782 2.71799 18.1627 4.26796C19.6342 5.26589 20.69 6.76429 20.9236 8.55085C21.2027 10.7044 20.3016 12.7852 19.3884 14.6719C18.6876 16.1187 17.7804 17.9932 18.9 19.4886C20.429 21.5269 26.0205 21.3783 25.1619 22.5552C25.0193 22.7493 23.6207 23.6471 21.8246 23.4924C20.0286 23.3378 18.3114 22.4339 17.3739 21.3116ZM37.7193 26.9776C38.1228 23.8079 36.3206 22.6977 36.1295 22.6037C30.8323 20.0194 27.9774 22.54 25.4077 19.5189C24.3306 18.2541 20.784 14.2412 27.3555 7.21927C28.0957 6.43064 29.6612 6.33661 29.998 6.80372C30.1679 7.04031 29.5217 7.94724 28.1473 9.33342C23.8786 13.6375 26.1692 18.4694 28.5629 18.6241C37.6313 19.2035 39.661 21.7271 39.9977 24.5146C40.1434 25.7097 40.0978 26.7592 39.9158 27.6995C39.7914 28.3425 39.3879 30.1837 38.147 29.6317C37.252 29.2343 37.6343 27.6449 37.7162 26.9776H37.7193Z" fill="#A1D8E6"/>
<path d="M24.8102 19.3341C24.8102 19.3341 24.8195 19.3435 24.8258 19.3528C24.8164 19.3435 24.8133 19.3372 24.8071 19.3279C24.8071 19.3279 24.8071 19.3279 24.8071 19.331L24.8102 19.3341Z" fill="#A1D8E6"/>
</svg>
