<svg width="18" height="18" viewBox="0 0 18 18" fill="none" xmlns="http://www.w3.org/2000/svg">
<path d="M0.75 4.5C0.75 11.4033 6.34667 17 13.25 17H15.125C15.6223 17 16.0992 16.8025 16.4508 16.4508C16.8025 16.0992 17 15.6223 17 15.125V13.9817C17 13.5517 16.7075 13.1767 16.29 13.0725L12.6042 12.1508C12.2375 12.0592 11.8525 12.1967 11.6267 12.4983L10.8183 13.5758C10.5833 13.8892 10.1775 14.0275 9.81 13.8925C8.44573 13.3909 7.20679 12.5988 6.17898 11.571C5.15118 10.5432 4.35906 9.30427 3.8575 7.94C3.7225 7.5725 3.86083 7.16667 4.17417 6.93167L5.25167 6.12333C5.55417 5.8975 5.69083 5.51167 5.59917 5.14583L4.6775 1.46C4.62678 1.25725 4.50977 1.07725 4.34504 0.948614C4.18032 0.819976 3.97734 0.750069 3.76833 0.75H2.625C2.12772 0.75 1.65081 0.947544 1.29917 1.29917C0.947544 1.65081 0.75 2.12772 0.75 2.625V4.5Z" stroke="white" stroke-width="1.5" stroke-linecap="round" stroke-linejoin="round"/>
</svg>
