<svg width="43" height="43" viewBox="0 0 43 43" fill="none" xmlns="http://www.w3.org/2000/svg">
<path d="M35.8871 5.17086C31.9288 1.90081 26.6773 0.0999756 21.1001 0.0999756C15.5228 0.0999756 10.2714 1.90081 6.31312 5.17086C2.30658 8.48073 0.100098 12.8948 0.100098 17.6C0.100098 22.0267 2.02177 26.1859 5.5111 29.3118C8.75332 32.2161 13.176 34.0738 18.0376 34.5873V41.6625C18.0376 41.9954 18.2265 42.2994 18.5249 42.4469C18.6478 42.5076 18.7805 42.5375 18.9125 42.5375C19.1012 42.5375 19.2885 42.4765 19.4441 42.3576L32.5648 32.3246C35.6723 29.9784 37.8155 27.9212 39.3096 25.8503C41.1873 23.2478 42.1001 20.5491 42.1001 17.6C42.1001 12.8948 39.8936 8.48073 35.8871 5.17086ZM31.5062 30.9312L19.7877 39.892V33.7876C19.7877 33.3294 19.4343 32.9488 18.9773 32.9149C14.1816 32.5592 9.81391 30.8167 6.67878 28.0083C3.56501 25.2189 1.8501 21.5225 1.8501 17.6C1.8501 8.91543 10.4856 1.84998 21.1001 1.84998C31.7146 1.84998 40.3501 8.91543 40.3501 17.6C40.3501 23.4478 36.1015 27.4616 31.5062 30.9312Z" fill="white" stroke="white" stroke-width="0.2"/>
<path d="M26.1057 13.8073C26.1023 13.1528 25.7596 12.7883 25.211 12.7946C24.6675 12.802 24.3403 13.1754 24.3369 13.8282C24.3274 15.0362 24.3342 16.2431 24.3317 17.45C24.3317 17.6243 24.3154 17.7965 24.3009 18.1255C24.0941 17.884 23.9771 17.7598 23.8728 17.6252C22.7534 16.172 21.6374 14.716 20.5189 13.2608C20.2454 12.9049 19.8994 12.6903 19.4456 12.8327C18.9936 12.974 18.7954 13.3431 18.7945 13.7889C18.7859 16.1213 18.7859 18.4523 18.7945 20.7837C18.7954 21.1662 18.95 21.4943 19.3226 21.6703C19.9806 21.98 20.6035 21.5131 20.6112 20.6777C20.6266 19.5379 20.6164 18.3963 20.6164 17.2547C20.6164 17.0345 20.6164 16.814 20.6164 16.5932C20.836 16.6932 20.9428 16.8099 21.0402 16.9347C22.1562 18.3709 23.2695 19.8082 24.383 21.2482C24.659 21.6094 24.9752 21.8737 25.4708 21.7052C25.9561 21.5405 26.11 21.1764 26.11 20.7043C26.1074 18.4045 26.1142 16.1062 26.1057 13.8073Z" fill="white" stroke="white" stroke-width="0.2"/>
<path d="M29.5292 14.6211C29.6976 14.6081 29.8898 14.5818 30.0854 14.5812C30.7452 14.5756 31.4083 14.5886 32.0671 14.5727C32.308 14.5658 32.572 14.5488 32.7848 14.4488C33.2018 14.2543 33.3257 13.8651 33.2137 13.4447C33.1044 13.0157 32.7848 12.7927 32.3328 12.7913C31.1595 12.7885 29.9863 12.7859 28.8131 12.7885C27.9722 12.7906 27.6356 13.1161 27.6339 13.9534C27.6253 16.1693 27.6253 18.3853 27.6339 20.6002C27.6356 21.4244 27.9953 21.7748 28.8165 21.7782C29.9103 21.7833 30.9997 21.7816 32.0901 21.7772C32.2694 21.7754 32.4523 21.7508 32.625 21.7002C33.0155 21.5858 33.2274 21.3192 33.2402 20.9036C33.2547 20.4677 33.0565 20.1673 32.6472 20.0422C32.4276 19.9752 32.1909 19.9585 31.9644 19.9567C31.1458 19.9461 30.3246 19.9519 29.4915 19.9519C29.4915 19.3332 29.4915 18.7966 29.4915 18.2331C29.6479 18.2186 29.7744 18.1978 29.9018 18.1966C30.6785 18.1923 31.4578 18.214 32.2337 18.1863C32.9095 18.161 33.2641 17.7907 33.2385 17.2177C33.2163 16.7027 32.8385 16.3848 32.2199 16.3732C31.7893 16.3655 31.3603 16.3718 30.9271 16.3714C29.3224 16.3714 29.3224 16.3714 29.4728 14.7624C29.4754 14.7304 29.4967 14.7009 29.5292 14.6211Z" fill="white" stroke="white" stroke-width="0.2"/>
<path d="M13.5598 19.9614C13.3795 19.9404 13.1975 19.9519 13.0164 19.9519C12.2584 19.9507 11.5039 19.9519 10.675 19.9519C10.675 19.6722 10.675 19.4748 10.675 19.2791C10.675 17.5112 10.6785 15.742 10.6725 13.9739C10.67 13.2195 10.3358 12.7991 9.76416 12.7947C9.17196 12.7892 8.85154 13.1911 8.85154 13.9561C8.84988 16.2038 8.84813 18.4502 8.85329 20.6987C8.85679 21.4131 9.20364 21.7627 9.91974 21.7771C10.5623 21.7884 12.9754 21.7986 13.5368 21.7695C14.0845 21.7387 14.4656 21.3337 14.4579 20.8539C14.4493 20.3933 14.0845 20.0237 13.5598 19.9614Z" fill="white" stroke="white" stroke-width="0.2"/>
<path d="M17.2584 13.686C17.2532 13.0048 17.0362 12.7892 16.3791 12.7883C15.71 12.7865 15.4836 12.9925 15.4818 13.6692C15.4741 16.0669 15.4741 18.4638 15.4818 20.8623C15.4836 21.5354 15.728 21.777 16.3611 21.778C17.0122 21.7815 17.255 21.5302 17.2584 20.8282C17.2619 19.6545 17.2601 18.4815 17.2601 17.3069C17.2601 16.0998 17.2619 14.8938 17.2584 13.686Z" fill="white" stroke="white" stroke-width="0.2"/>
</svg>
