<svg width="43" height="37" viewBox="0 0 43 37" fill="none" xmlns="http://www.w3.org/2000/svg">
<path d="M18.2727 14.0298C18.023 12.8681 20.0865 8.36169 18.1444 5.68264C16.9722 4.06411 15.5746 3.74432 14.5377 3.71168C12.6164 3.65621 10.9379 4.59274 9.9842 6.17211C9.59231 6.82148 8.79814 6.33853 8.49296 6.07421C7.50458 5.22905 7.08148 5.216 6.33586 4.94189C6.17633 4.88316 4.51516 4.70369 5.3232 5.91759C8.59353 10.8156 7.92767 15.8637 7.51845 17.8183C5.52781 27.2978 11.954 30.2053 13.7574 30.9069C16.4763 31.9674 22.7881 33.5468 28.271 30.9656C33.1817 28.6553 37.7941 20.9379 37.475 21.0945C35.4012 22.1029 32.1239 22.266 29.516 22.1975C24.4007 22.0604 19.2091 18.3992 18.2693 14.0298H18.2727ZM18.1964 21.026C18.7305 20.9151 19.0912 22.0735 20.357 22.7359C20.95 23.0459 21.2517 22.9741 22.7152 22.8142C23.499 22.7294 23.714 23.1764 23.7626 23.4897C23.8389 23.9955 23.5025 24.6873 23.1661 24.8048C21.2275 25.4802 18.623 25.056 17.645 22.8142C17.4543 22.377 17.2046 21.2349 18.1999 21.026H18.1964ZM12.9181 7.95706C13.0048 7.14453 14.9955 5.71853 15.7688 6.94221C16.2439 7.69274 15.2937 8.52811 14.9053 8.83159C14.3261 9.28517 12.7898 9.17422 12.9181 7.95706ZM26.0584 28.8119C23.2874 30.7796 17.7629 30.4402 15.5261 28.652C13.3031 26.8736 11.6939 24.1325 13.851 20.2298C14.392 19.2541 16.1052 20.6312 15.6683 21.5188C14.8567 23.1797 15.3527 25.3334 16.8508 26.4102C18.5848 27.6568 21.8898 28.515 24.4215 26.8247C25.8711 26.1785 26.7554 26.9682 26.8213 27.6111C26.8872 28.2539 26.1381 28.7532 26.0584 28.8087V28.8119Z" fill="#FBCB72"/>
<path d="M42.0459 16.1346C40.4367 16.4282 35.8069 19.3227 32.2488 18.9017C25.4445 18.0957 22.2366 14.193 22.3858 12.4504C22.6459 9.44508 24.8584 5.03981 19.816 1.36875C15.2382 -1.96293 8.62127 1.83538 8.62127 1.83538C8.62127 1.83538 4.79953 -0.390094 1.44597 0.794434C0.0657078 1.28065 -1.0926 3.83244 1.75809 8.29971C2.36499 9.24929 3.64469 12.4178 3.64815 15.0218C3.65509 18.9017 2.05287 20.654 2.4829 24.7004C2.91294 28.7434 4.77525 32.7277 11.2049 35.5895C17.7941 38.5231 26.9462 36.4575 32.7447 33.2564C37.0554 30.8775 39.0426 27.4414 39.216 27.2652C41.3557 25.0854 42.5557 19.2313 42.9857 17.0189C43.0897 16.4902 42.6111 16.0301 42.0493 16.1313L42.0459 16.1346ZM29.4119 32.6918C23.9152 35.5602 16.4485 35.6189 10.8997 32.9366C6.44683 30.7862 4.23425 26.2862 4.31054 21.7146C4.32788 20.6214 5.46885 18.0696 5.58677 15.1719C5.65959 13.3935 5.25037 9.92802 3.84583 7.45455C3.45394 6.76276 2.0286 3.72475 2.09449 3.01665C2.27136 1.07833 5.62838 2.19759 6.57168 2.70991C7.40747 3.16349 8.29874 3.88791 9.05824 4.46549C12.4707 0.68675 17.4473 1.60696 19.1328 3.00359C21.9419 5.3237 20.8182 11.4454 20.8113 12.0164C20.7905 14.7705 24.2585 18.0174 29.3669 19.6425C33.1886 20.8564 37.7143 19.4336 39.705 18.6341C40.0864 18.4808 40.4818 18.8234 40.3604 19.1921C37.1907 28.7695 29.4952 32.6429 29.4119 32.6886V32.6918Z" fill="#FBCB72"/>
</svg>
