<svg width="46" height="33" viewBox="0 0 46 33" fill="none" xmlns="http://www.w3.org/2000/svg">
<path d="M9.12305 10.3377C9.39875 9.44476 8.6432 5.29475 12.433 2.12876C15.0474 -0.0561138 18.4129 -0.627148 22.0512 0.732839C22.2989 0.824518 24.2768 1.92509 25.4525 3.30672C27.4935 5.70845 28.3396 8.9739 28.6312 9.25736C29.192 9.80525 34.3958 12.5404 35.3031 12.8772C37.367 13.6455 39.193 15.9407 39.9401 17.2846C41.0708 19.32 42.1198 24.0438 41.0735 26.4323C40.1514 28.5352 37.1112 28.3804 35.228 28.592C32.8803 28.8581 28.1963 28.1272 22.8745 28.4936C19.2977 28.7398 16.9753 27.9266 13.0126 28.1515C12.1489 28.1996 4.3845 27.7341 1.07657 26.8296C-1.18976 26.2088 0.654981 22.5018 1.76803 19.0344C2.35494 17.2109 3.984 15.5301 5.69216 13.9199C7.23191 12.4687 8.99086 10.7648 9.12248 10.3402L9.12305 10.3377Z" fill="#82A6A6"/>
<path d="M27.2328 3.37332C29.9383 3.40032 32.1076 4.61423 33.2521 6.76035C34.3965 8.90646 34.4911 10.7198 34.3034 11.8998C34.1158 13.0797 33.9868 13.5886 33.9868 13.5886L28.0362 9.30603L24.1177 3.86445C24.1177 3.86445 25.8582 3.35925 27.2305 3.37271L27.2328 3.37332Z" fill="#F4A466"/>
<path d="M2.45691 21.5952C2.55721 21.7315 2.72753 21.8295 2.88038 21.8343C3.0545 21.8423 3.18181 21.7362 3.21529 21.5606C3.56328 19.7586 4.24503 18.1714 5.24228 16.8463C5.9812 15.8649 6.89123 15.0832 7.60123 14.5102C8.05488 14.1462 8.48031 13.7565 8.98253 13.2782C9.55642 12.7335 10.1515 12.171 10.5521 11.4573C10.8725 10.8884 11.025 10.2429 11.0505 9.36556C11.0727 8.57575 11.2374 7.75155 11.5366 6.9168C12.1485 5.21981 13.2868 3.75065 14.6592 2.88301C15.4756 2.3673 16.4327 2.05599 17.426 1.98852C17.6668 1.97284 17.9196 1.96824 18.1736 1.97956C18.7712 2.00558 19.4075 2.10705 20.1153 2.29022C20.4033 2.36534 20.6891 2.45024 20.9726 2.53453L21.1462 2.58659C21.2445 2.61573 21.344 2.63996 21.4406 2.66602C21.6292 2.71691 21.8063 2.76469 21.9725 2.82774C22.5205 3.03544 23.0615 3.38946 23.5844 3.87384C24.6434 4.85917 25.449 6.10384 26.1821 7.29252C26.2767 7.44288 26.3684 7.59506 26.4601 7.74724C26.6793 8.10807 26.9077 8.48179 27.1442 8.84207L27.1603 8.86722C27.395 9.22443 27.6626 9.62953 28.0241 9.8935C28.1156 9.96241 28.2151 10.0179 28.3095 10.0745C28.3653 10.1078 28.4211 10.1411 28.4769 10.1743C28.6772 10.3012 28.8815 10.4421 29.0887 10.5917C29.5089 10.8975 29.9096 11.2241 30.2147 11.4781L30.5624 11.7695C31.1779 12.2867 31.8164 12.8205 32.4955 13.2742C32.9311 13.566 33.3903 13.8303 33.8574 14.0604C33.908 14.0844 33.9655 14.1 34.0235 14.1026C34.2051 14.11 34.352 14.004 34.3901 13.84C34.4464 13.5977 34.2678 13.3883 34.0791 13.2958C34.0112 13.2619 33.9433 13.2279 33.876 13.1916C34.1352 11.9819 34.151 10.9043 33.9303 9.90852C33.5314 8.12341 32.4353 6.74054 31.5857 5.89495C30.4644 4.77836 28.8097 4.11603 26.9272 4.03459C26.264 4.0065 25.5804 4.0561 24.9279 4.17133C24.8547 4.08657 24.7821 3.99936 24.7061 3.91643C24.1277 3.28183 23.5686 2.8059 22.9915 2.46032C22.6399 2.24842 22.3138 2.0954 21.9941 1.98833C21.806 1.92458 21.6128 1.87246 21.4242 1.82158C21.3001 1.78807 21.1759 1.75455 21.0545 1.71922C20.2886 1.49176 19.4693 1.26288 18.6158 1.17043C18.4348 1.15019 18.252 1.13729 18.0733 1.12807C17.1395 1.08677 16.2532 1.20912 15.4448 1.49034C13.7885 2.06551 12.3338 3.35045 11.3496 5.11347C10.8976 5.92256 10.5698 6.77557 10.3753 7.65416C10.2804 8.08367 10.2177 8.53228 10.1894 8.99019C10.1845 9.07467 10.1812 9.16222 10.1762 9.2467C10.1637 9.532 10.1505 9.79892 10.0949 10.07C9.9807 10.6347 9.69407 11.1634 9.19494 11.7335C8.91185 12.0576 8.60743 12.3474 8.2663 12.6688L8.1224 12.8043C7.87816 13.0348 7.62763 13.2715 7.3713 13.4911C7.21246 13.6276 7.04785 13.7575 6.88498 13.8904C6.72555 14.019 6.56668 14.1452 6.41128 14.2775C5.93933 14.6781 5.50478 15.0966 5.11909 15.5257C4.0388 16.7244 3.23599 18.1488 2.73185 19.7605C2.58356 20.2302 2.45948 20.7325 2.35786 21.2538C2.33572 21.3701 2.36589 21.4927 2.44371 21.5995L2.45691 21.5952ZM27.5307 4.84502C29.3552 4.9238 30.8276 5.56037 31.6771 6.63741C33.0534 8.38193 33.5029 10.4121 33.0181 12.6766C32.5767 12.3885 32.1179 12.0488 31.6194 11.6386C31.4202 11.4756 31.2221 11.3078 31.0235 11.1423C30.4835 10.6897 29.9227 10.2212 29.3368 9.80819C29.1371 9.66848 28.9328 9.53794 28.7285 9.4074C28.6221 9.33966 28.5156 9.27193 28.4097 9.20174L28.3855 9.17961C28.3561 9.14828 28.3245 9.11632 28.2974 9.08561C28.2703 9.05489 28.2438 9.02173 28.2167 8.99102L28.1372 8.89155L28.0576 8.78166C28.0207 8.73009 27.9861 8.67914 27.9493 8.62757C27.876 8.52199 27.8062 8.41214 27.7382 8.30535C27.5773 8.05128 27.4192 7.79538 27.2618 7.53703C26.7611 6.71534 26.2114 5.82061 25.5837 4.97766C26.2206 4.86604 26.8848 4.81637 27.5307 4.84502Z" fill="white"/>
<path d="M40.038 23.6771C39.9999 22.517 39.6976 21.2417 39.1119 19.776C38.8503 19.1243 38.5369 18.4534 38.1804 17.7891L38.14 17.7107C38.0106 17.4683 37.876 17.2167 37.7086 16.99C37.5084 16.7155 37.2824 16.4679 37.1083 16.2809C36.6638 15.8058 36.148 15.3219 35.4842 14.7593C35.4208 14.7059 35.2596 14.6003 35.1089 14.5961C35.0388 14.5928 34.9785 14.6104 34.9308 14.6469C34.8717 14.6907 34.8397 14.7547 34.8376 14.8269C34.8345 14.9662 34.9498 15.0803 35.038 15.1533C35.6505 15.6735 36.1576 16.1525 36.5883 16.6239C36.748 16.7992 36.932 17.007 37.0896 17.2441C37.2292 17.4529 37.3506 17.688 37.4662 17.9164L37.5321 18.0431C38.2521 19.4358 38.7314 20.6964 38.9927 21.8958C39.2872 23.2469 39.2734 24.3255 38.9555 25.1979C38.8687 25.4341 38.7612 25.6544 38.6301 25.8502C38.5694 25.9429 38.5035 26.0264 38.4371 26.1123C38.4268 26.1251 38.4199 26.1337 38.4164 26.1379L38.3952 26.1556C38.2966 26.2433 38.1766 26.3175 38.0227 26.3903C37.6495 26.5651 37.2312 26.6603 36.7181 26.7534C36.1595 26.8524 35.5607 26.925 34.7738 26.986C33.0207 27.1221 31.2685 27.1287 29.7846 27.1165C28.1812 27.1033 26.4707 27.0562 24.4031 26.9676L24.2939 26.9642C22.8852 26.9022 21.5128 26.8317 19.9914 26.7497C19.4819 26.7218 18.9737 26.6994 18.4631 26.6763C17.3614 26.6293 16.2915 26.5935 15.3911 26.5643C14.9495 26.5494 14.5097 26.5376 14.0676 26.5251C12.9844 26.4935 11.865 26.4599 10.7633 26.4129C10.2114 26.3891 9.65995 26.3629 9.10796 26.3287C8.39439 26.2848 7.64449 26.1974 6.74955 26.0503C5.72061 25.8801 4.79516 25.717 3.88603 25.4206L3.70304 25.3559C3.62881 25.3281 3.55745 25.2986 3.48435 25.2659C3.45327 25.2524 3.34965 25.2038 3.34965 25.2038C3.29553 25.1736 3.24084 25.146 3.18729 25.1134L3.10494 25.0575L3.03638 25.0053C3.03638 25.0053 2.95684 24.9268 2.93724 24.906L2.88704 24.838C2.87608 24.8221 2.86741 24.8068 2.85528 24.7853L2.73876 24.8552L2.84429 24.759C2.8281 24.7235 2.81364 24.6911 2.80032 24.6537C2.77078 24.5705 2.76555 24.551 2.75318 24.436C2.73316 24.2593 2.74011 24.0613 2.78084 23.8127C2.82211 23.5513 2.89157 23.2948 2.95705 23.0554C2.97356 22.995 2.97849 22.9002 2.90403 22.7894C2.79841 22.6338 2.55889 22.4967 2.3795 22.49C2.19782 22.4827 2.14871 22.6097 2.13732 22.6482L2.12993 22.6799C1.99553 23.1629 1.84349 23.7113 1.91043 24.2432C1.97383 24.7378 2.25669 25.1721 2.73243 25.5025C3.37866 25.9513 4.16051 26.1641 4.84392 26.3271C5.90931 26.5823 7.04011 26.7877 8.20697 26.9327C8.85337 27.013 9.5117 27.042 10.1505 27.071L10.787 27.0994C11.7386 27.1397 12.6872 27.1715 13.6388 27.2015C14.1217 27.2172 14.6024 27.2322 15.0859 27.2454C16.222 27.2808 17.3949 27.3158 18.5477 27.3636C18.8403 27.3773 19.1307 27.3905 19.4234 27.4043C19.9673 27.4311 20.5107 27.4604 21.0517 27.489C21.8509 27.5326 22.6507 27.5737 23.4511 27.6124C23.838 27.6307 24.2227 27.6485 24.6102 27.6644C26.1575 27.7299 27.5385 27.7742 28.8332 27.8004C30.2964 27.8277 32.2264 27.8456 34.1906 27.7481C35.0614 27.7045 35.7696 27.6457 36.4196 27.5634C36.9287 27.4979 37.5264 27.4094 38.1003 27.234C38.4846 27.1167 38.8815 26.9768 39.16 26.6727C39.9849 25.7653 40.0693 24.4045 40.0466 23.6716L40.038 23.6771Z" fill="white"/>
</svg>
