<svg width="43" height="45" viewBox="0 0 43 45" fill="none" xmlns="http://www.w3.org/2000/svg">
<path d="M5.1045 8.41385C5.05497 8.33401 4.93307 8.17052 5.0664 8.35682C5.07783 8.37583 5.09307 8.39484 5.1045 8.41385Z" fill="#EDD6A0"/>
<path d="M5.67345 9.12101C5.60107 9.04877 5.55916 9.01075 5.54773 8.99554C5.59344 9.05638 5.65059 9.12101 5.67345 9.12101Z" fill="#EDD6A0"/>
<path d="M36.8478 8.21614C36.8478 8.21614 36.863 8.22754 36.8706 8.23134C36.8706 8.23134 36.8706 8.23134 36.8668 8.22754C36.9011 8.26937 36.7601 8.07926 36.8478 8.21614Z" fill="#EDD6A0"/>
<path d="M36.9386 8.25038C36.9882 8.25038 37.0415 8.25038 37.072 8.26939C36.9805 8.20476 36.9234 8.23137 36.9386 8.25038Z" fill="#EDD6A0"/>
<path d="M41.929 7.28462C38.9105 3.04527 32.6119 5.89305 30.5603 5.95768C28.5088 6.02232 26.1805 1.15182 20.4999 0.243112C12.1156 -1.10283 11.0804 3.6498 9.2981 2.10234C7.68646 0.703168 4.4101 -0.0192331 1.83527 2.48636C-1.75584 5.97669 0.227416 12.3871 5.14576 13.5087C7.24657 13.9877 8.37283 16.4743 8.74066 19.3221C9.2488 23.2497 9.40049 27.3864 7.50065 29.6296C6.63985 30.6448 4.266 31.6409 4.92582 34.4735C5.72216 37.8954 8.75962 39.652 10.4016 41.0131C18.2398 47.5033 27.6784 44.0928 29.0852 42.8229C30.6969 41.3705 32.4602 38.2148 31.7359 33.8576C29.7488 21.8961 38.793 21.2574 41.8532 15.4439C43.1766 12.9308 43.5445 9.55068 41.9328 7.29222L41.929 7.28462ZM10.4736 37.0856C9.85554 36.732 9.54458 35.1389 9.74177 34.3518C10.1172 32.8386 10.8908 32.6827 11.6416 32.5534C11.8881 32.5116 13.4884 32.4242 13.2532 34.4507C13.1243 35.5343 11.7516 37.8156 10.4774 37.0894L10.4736 37.0856ZM12.0853 30.5193C11.2055 31.6067 9.64318 32.7968 8.3349 32.5572C6.71568 32.2645 9.41186 30.1429 10.0679 28.9719C11.2586 26.8427 11.0728 25.1051 11.0728 23.4246C11.0728 21.3258 9.29051 15.1474 10.9439 15.6303C11.6719 15.8432 12.5138 16.4287 12.6769 17.1055C13.1926 19.2461 13.6135 21.4323 13.7424 23.6375C13.8752 25.8845 13.5604 28.6943 12.0853 30.5193ZM15.0204 31.8006C14.8459 31.6485 14.2392 30.5687 14.1785 30.3824C13.6969 28.8084 15.7295 27.5727 16.6585 28.4434C16.7989 28.5726 17.0491 29.276 17.1098 29.4661C17.1705 29.6334 17.2236 29.8045 17.2198 29.9794C17.1781 31.7854 15.574 32.3177 15.0166 31.7968L15.0204 31.8006ZM21.4669 9.9461C22.7031 8.98036 24.6105 10.6343 24.7091 10.7293C25.3007 11.3149 25.1642 12.5011 24.766 12.9422C24.2617 13.5011 22.6159 13.5657 21.8272 12.9079C21.2204 12.3985 20.5568 10.4632 21.4669 9.9461ZM39.0584 16.212C38.2507 17.1321 37.2799 18.2385 36.2144 18.824C31.5235 21.4057 30.3821 23.9417 30.056 25.6032C29.6313 27.7666 29.1118 34.7397 30.0977 37.7775C30.5452 39.1577 27.3826 41.3021 26.389 35.9411C25.4031 30.6182 27.0678 23.3713 27.8907 21.9494C29.017 20.0027 29.9422 19.9494 34.4396 16.7291C37.1775 14.7672 38.1445 10.5392 35.5128 10.3263C34.6027 10.2503 30.8182 12.8889 28.5885 11.0259C27.4091 10.045 25.8923 6.90821 21.9864 5.64591C15.4944 3.54715 12.0815 7.69525 12.1118 7.7979C12.3014 8.47468 12.5441 9.28073 11.8198 9.4176C10.9173 9.5887 10.0224 9.2351 9.38153 8.60015C9.22984 8.44806 8.42592 7.01087 7.39068 6.28847C6.35544 5.56607 5.2178 5.29231 4.89548 5.85883C4.58453 6.40253 4.80827 7.51655 5.46051 8.30739C6.96217 10.1362 8.58897 10.2503 9.02127 10.3035C10.5267 10.4822 10.7315 12.8547 8.9606 12.6456C6.81048 12.3909 4.96374 11.889 3.62134 10.1172C2.66194 8.85109 1.88457 7.4367 2.0135 5.81701C2.08176 4.97294 2.32823 4.1783 2.91601 3.54715C3.56445 2.85516 4.46319 2.57761 5.38845 2.66125C6.69673 2.77532 7.87986 3.60798 8.88097 4.40262C9.39669 4.81325 9.79866 5.31133 10.2006 5.82461C11.5392 3.8209 14.0534 2.79433 16.4765 2.42552C19.9766 1.88943 23.0103 2.58521 25.915 4.56231C26.81 5.17445 27.6177 5.87784 28.3496 6.68008C28.7819 7.15155 29.6161 8.1439 30.0712 8.09827C30.2911 8.07546 30.5073 8.04124 30.7234 7.99942C31.6752 7.81311 32.6081 7.54316 33.5599 7.36446C35.6266 6.97665 38.3948 6.74092 40.0444 8.77885C41.7773 10.9232 40.6966 14.3603 39.066 16.2158L39.0584 16.212Z" fill="#F4E9DB"/>
<path d="M5.16517 8.35685C5.11564 8.277 4.99374 8.11351 5.12707 8.29981C5.1385 8.31883 5.15374 8.33784 5.16517 8.35685Z" fill="#82A6A6"/>
<path d="M5.73412 9.06401C5.66174 8.99177 5.61983 8.95375 5.6084 8.93854C5.65411 8.99937 5.71126 9.06401 5.73412 9.06401Z" fill="#82A6A6"/>
<path d="M36.9085 8.15913C36.9085 8.15913 36.9237 8.17054 36.9313 8.17434C36.9313 8.17434 36.9313 8.17434 36.9275 8.17054C36.9618 8.21236 36.8208 8.02225 36.9085 8.15913Z" fill="#82A6A6"/>
<path d="M36.9993 8.19331C37.0489 8.19331 37.1022 8.19331 37.1327 8.21232C37.0412 8.14769 36.9841 8.1743 36.9993 8.19331Z" fill="#82A6A6"/>
<path d="M10.5343 37.0285C9.91622 36.6749 9.60526 35.0819 9.80245 34.2948C10.1779 32.7816 10.9515 32.6257 11.7023 32.4964C11.9488 32.4546 13.549 32.3671 13.3139 34.3937C13.185 35.4773 11.8123 37.7585 10.5381 37.0323L10.5343 37.0285ZM12.146 30.4623C11.2662 31.5497 9.70386 32.7398 8.39559 32.5002C6.77636 32.2075 9.47254 30.0859 10.1286 28.9148C11.3193 26.7857 11.1335 25.0481 11.1335 23.3676C11.1335 21.2688 9.35119 15.0904 11.0045 15.5732C11.7326 15.7861 12.5745 16.3717 12.7375 17.0484C13.2533 19.189 13.6742 21.3752 13.8031 23.5805C13.9358 25.8275 13.6211 28.6373 12.146 30.4623ZM15.081 31.7436C14.9066 31.5915 14.2999 30.5117 14.2392 30.3254C13.7576 28.7513 15.7902 27.5157 16.7192 28.3863C16.8595 28.5156 17.1098 29.219 17.1705 29.4091C17.2312 29.5764 17.2842 29.7475 17.2804 29.9224C17.2387 31.7284 15.6347 32.2607 15.0772 31.7398L15.081 31.7436ZM21.5276 9.88907C22.7638 8.92334 24.6712 10.5773 24.7698 10.6723C25.3614 11.2578 25.2249 12.4441 24.8267 12.8851C24.3224 13.444 22.6766 13.5087 21.8878 12.8509C21.2811 12.3414 20.6175 10.4062 21.5276 9.88907ZM39.1191 16.155C38.3114 17.0751 37.3406 18.1815 36.275 18.767C31.5842 21.3486 30.4428 23.8846 30.1167 25.5462C29.692 27.7096 29.1725 34.6826 30.1584 37.7205C30.6059 39.1007 27.4433 41.2451 26.4497 35.8841C25.4638 30.5611 27.1285 23.3143 27.9514 21.8923C29.0776 19.9457 30.0029 19.8924 34.5003 16.672C37.2382 14.7101 38.2052 10.4822 35.5735 10.2693C34.6634 10.1932 30.8789 12.8319 28.6491 10.9689C27.4698 9.98793 25.953 6.85119 22.0471 5.58889C15.5551 3.49012 12.1422 7.63823 12.1725 7.74088C12.3621 8.41766 12.6048 9.22371 11.8805 9.36058C10.978 9.53168 10.0831 9.17808 9.44221 8.54313C9.29052 8.39104 8.4866 6.95385 7.45136 6.23144C6.41612 5.50904 5.27849 5.23529 4.95616 5.80181C4.63383 6.36832 4.86895 7.45953 5.52119 8.25036C7.02285 10.0792 8.64966 10.1932 9.08195 10.2465C10.5874 10.4252 10.7922 12.7977 9.02128 12.5886C6.87116 12.3338 5.02442 11.832 3.68202 10.0602C2.72262 8.79407 1.94525 7.37968 2.07418 5.75998C2.14244 4.91591 2.38891 4.12127 2.97669 3.49012C3.62513 2.79814 4.52387 2.52059 5.44914 2.60423C6.75741 2.7183 7.94054 3.55096 8.94165 4.3456C9.45737 4.75623 9.85934 5.2543 10.2613 5.76759C11.5999 3.76388 14.1141 2.73731 16.5372 2.3685C20.0373 1.8324 23.071 2.52819 25.9757 4.50529C26.8707 5.11743 27.6784 5.82082 28.4102 6.62306C28.8425 7.09452 29.6768 8.08687 30.1318 8.04125C30.3518 8.01844 30.5679 7.98422 30.7841 7.94239C31.7359 7.75609 32.6687 7.48614 33.6206 7.30744C35.6873 6.91963 38.4555 6.6839 40.105 8.72183C41.838 10.8662 40.7573 14.3033 39.1267 16.1588L39.1191 16.155Z" fill="#82A6A6"/>
</svg>
