<svg width="18" height="19" viewBox="0 0 18 19" fill="none" xmlns="http://www.w3.org/2000/svg">
<path d="M14.6913 13.5479L17.0291 16.034C17.3001 16.3016 17.5401 16.5983 17.7448 16.9188C17.9073 17.1535 17.996 17.4306 17.9999 17.7153C18.0037 18 17.9225 18.2795 17.7664 18.5184C17.6516 18.7314 17.4562 18.8905 17.2233 18.9607C16.9904 19.0309 16.7389 19.0064 16.5242 18.8926C16.0316 18.5547 15.5806 18.1606 15.1804 17.7185C13.9435 16.5287 12.9496 15.1153 11.655 13.9904C11.5287 13.874 11.5203 13.8907 11.2871 13.9944C7.89941 15.6959 3.33724 15.6696 1.09246 12.1543C0.0113358 10.278 -0.281545 8.05441 0.27727 5.96528C0.836084 3.87616 2.20159 2.0897 4.07797 0.99295C5.99462 -0.0728635 8.52459 -0.418804 10.4847 0.64741C12.0178 1.53954 13.1796 2.94586 13.7607 4.61298C14.5656 6.67665 14.5369 8.96915 13.6804 11.0123C13.5207 11.3627 13.3358 11.7048 13.2349 11.9384C13.161 12.1095 13.5423 12.4378 13.6357 12.5353C13.8761 12.7865 14.5913 13.4417 14.6913 13.5479ZM6.71465 12.7065C9.03503 12.9722 11.1116 11.1433 11.8605 9.07768C12.6494 6.4529 10.8305 2.3824 7.75534 2.38644C5.26015 2.38973 2.89885 4.48579 2.42372 6.86912C1.88838 9.55442 3.63894 12.9394 6.71465 12.7065Z" fill="#82A6A6"/>
</svg>
