<svg width="101" height="72" viewBox="0 0 101 72" fill="none" xmlns="http://www.w3.org/2000/svg">
<path d="M20.1466 23.3056C20.7555 21.3336 19.087 12.1691 27.4561 5.17756C33.2295 0.352658 40.6616 -0.90837 48.6961 2.09492C49.2431 2.29738 53.611 4.7278 56.2073 7.77887C60.7144 13.0827 62.5829 20.2939 63.227 20.9198C64.4653 22.1297 75.9571 28.1699 77.9606 28.9136C82.5185 30.6102 86.5509 35.6788 88.2006 38.6465C90.6976 43.1414 93.0142 53.5729 90.7036 58.8476C88.6671 63.4914 81.9534 63.1496 77.7947 63.6168C72.6103 64.2046 62.2664 62.5904 50.5143 63.3997C42.6155 63.9433 37.487 62.1475 28.7359 62.6442C26.8288 62.7505 9.68242 61.7224 2.37744 59.7251C-2.62734 58.354 1.44643 50.1677 3.9044 42.5107C5.20049 38.4838 8.79798 34.772 12.5701 31.2161C15.9704 28.0114 19.8547 24.2488 20.1454 23.311L20.1466 23.3056Z" fill="#82A6A6"/>
<path d="M60.1387 7.92604C66.1133 7.98567 70.904 10.6664 73.4312 15.4057C75.9585 20.145 76.1674 24.1495 75.753 26.7552C75.3386 29.361 75.0538 30.4848 75.0538 30.4848L61.9129 21.0274L53.2597 9.01062C53.2597 9.01062 57.1032 7.89497 60.1337 7.92469L60.1387 7.92604Z" fill="#F4A466"/>
<path d="M5.41307 56.1437C5.49182 56.4447 5.7296 56.6265 6.00779 56.5844C6.32275 56.5426 6.64029 56.2357 6.83897 55.7903C8.88575 51.2186 11.3807 47.0595 14.2533 43.4358C16.3814 40.752 18.6695 38.5007 20.4259 36.8352C21.5464 35.7765 22.635 34.664 23.9342 33.3059C25.4175 31.7584 26.9537 30.1597 28.249 28.2561C29.2836 26.7384 30.0681 25.0911 30.7991 22.916C31.456 20.9583 32.4023 18.8654 33.6048 16.6989C36.0567 12.2933 39.3017 8.26422 42.5096 5.63747C44.4176 4.07593 46.4258 2.96932 48.3107 2.4519C48.7669 2.32819 49.2369 2.22753 49.6966 2.16576C50.7787 2.0189 51.8733 2.04466 53.036 2.24688C53.5088 2.3306 53.9697 2.43928 54.4269 2.54724L54.7066 2.61444C54.8653 2.65163 55.0299 2.67633 55.1877 2.70656C55.4959 2.76557 55.7853 2.82097 56.0427 2.91793C56.8918 3.23711 57.6136 3.92004 58.2005 4.93118C59.3857 6.98971 59.9014 9.77796 60.327 12.4536C60.3842 12.7914 60.4348 13.1347 60.4853 13.478C60.6083 14.2914 60.7383 15.1333 60.8936 15.9393L60.9037 15.9957C61.0582 16.7947 61.2359 17.7002 61.6969 18.2243C61.812 18.3621 61.9523 18.4638 62.0822 18.5704C62.1592 18.6328 62.2363 18.6952 62.3133 18.7576C62.5838 19.0001 62.8508 19.2759 63.1164 19.5719C63.653 20.1785 64.1375 20.8432 64.5023 21.3625L64.9165 21.9592C65.6486 23.0186 66.4102 24.1109 67.3091 24.9911C67.8853 25.5576 68.5261 26.048 69.2084 26.451C69.283 26.4925 69.377 26.5105 69.4819 26.4966C69.8111 26.4507 70.1647 26.1371 70.3628 25.7188C70.6556 25.1008 70.4894 24.6468 70.2135 24.4851C70.1147 24.4253 70.0159 24.3655 69.9201 24.2995C71.3412 21.2217 72.2106 18.5557 72.5798 16.1752C73.2356 11.9091 72.2918 8.88226 71.384 7.09474C70.1861 4.73419 67.6503 3.68348 64.2412 4.14736C63.0399 4.31223 61.7402 4.67616 60.4468 5.19109C60.3779 5.00768 60.312 4.81802 60.2364 4.64013C59.6642 3.27775 59.004 2.30023 58.2089 1.65092C57.7256 1.25198 57.2433 0.989403 56.737 0.837987C56.4398 0.74704 56.1241 0.686595 55.8159 0.627581C55.6129 0.588718 55.41 0.549848 55.2137 0.505463C53.9783 0.214428 52.6454 -0.0612175 51.1431 0.0119936C50.825 0.0259664 50.4979 0.0586645 50.1755 0.0990469C48.4852 0.326899 46.7549 0.942008 45.0445 1.9218C41.5408 3.92678 37.8557 7.61284 34.6659 12.3129C33.2013 14.4701 31.9316 16.6917 30.888 18.9295C30.378 20.0233 29.9126 21.153 29.5035 22.2935C29.4285 22.5038 29.3542 22.7211 29.2792 22.9314C29.0336 23.6402 28.8012 24.3038 28.4872 24.9926C27.8364 26.4272 26.8955 27.8335 25.5304 29.4173C24.7555 30.3175 23.968 31.1404 23.0882 32.0545L22.7172 32.4397C22.0869 33.0952 21.4402 33.768 20.7963 34.4005C20.3968 34.7938 19.9919 35.1724 19.5879 35.5581C19.1935 35.9319 18.8021 36.2996 18.4123 36.6811C17.2294 37.8368 16.1016 39.0235 15.0556 40.219C12.1284 43.56 9.53702 47.3601 7.3506 51.517C6.71086 52.729 6.09041 54.0129 5.49652 55.3358C5.36505 55.6307 5.32514 55.9226 5.38541 56.1588L5.41307 56.1437ZM64.7226 5.93495C68.0267 5.48502 70.2465 6.53649 70.9738 8.89543C72.1523 12.7162 71.3987 17.5695 68.739 23.3312C68.1495 22.7757 67.5681 22.0993 66.9682 21.2627C66.7279 20.9307 66.4934 20.5862 66.256 20.248C65.6127 19.3213 64.9437 18.3625 64.1849 17.55C63.9254 17.2756 63.6503 17.0255 63.3753 16.7754C63.2317 16.6457 63.0882 16.5161 62.9475 16.3802L62.9202 16.3342C62.8904 16.2672 62.8569 16.1995 62.8309 16.1332C62.8049 16.067 62.7818 15.9945 62.7558 15.9282L62.6867 15.7107L62.6256 15.4675C62.5978 15.3532 62.5737 15.2397 62.5458 15.1254C62.4931 14.8906 62.45 14.644 62.4077 14.4045C62.309 13.834 62.217 13.2581 62.1279 12.6759C61.845 10.8242 61.5285 8.80946 61.0278 6.9501C62.2898 6.44957 63.5535 6.09238 64.7226 5.93495Z" fill="white"/>
<path d="M82.5448 47.0655C83.4651 44.0336 83.9516 40.7981 84.0302 37.1685C84.0629 35.5549 84.0075 33.9105 83.8596 32.2995L83.8453 32.1089C83.7927 31.5206 83.7375 30.9102 83.5949 30.3775C83.427 29.7317 83.184 29.1659 82.9935 28.74C82.5054 27.6585 81.881 26.5807 81.0258 25.3514C80.9438 25.2349 80.7094 25.0177 80.4091 25.0631C80.2705 25.0807 80.1337 25.1492 80.0063 25.2629C79.8494 25.4 79.7298 25.5802 79.6635 25.7703C79.5375 26.1373 79.672 26.3937 79.787 26.5525C80.5752 27.6898 81.1864 28.758 81.6499 29.8348C81.8214 30.2355 82.0138 30.7123 82.1278 31.2759C82.23 31.7721 82.2727 32.344 82.3095 32.9004L82.3335 33.2085C82.5885 36.5965 82.4717 39.7273 81.9677 42.7788C81.4003 46.2162 80.4451 49.0535 79.054 51.4627C78.676 52.1154 78.2698 52.734 77.837 53.2969C77.6349 53.563 77.4302 53.8069 77.2223 54.0574C77.1904 54.0949 77.1692 54.1199 77.1586 54.1323L77.1006 54.1866C76.8263 54.4537 76.5206 54.6933 76.1476 54.942C75.2445 55.5404 74.319 55.9466 73.204 56.3826C71.9923 56.8512 70.722 57.2656 69.0825 57.7197C65.4295 58.7318 61.8896 59.4034 58.9071 59.9257C55.6844 60.4901 52.2749 61.0052 48.1808 61.5448L47.9634 61.5766C45.1755 61.9399 42.4678 62.2675 39.4696 62.6205C38.4661 62.7375 37.4602 62.8684 36.4502 62.9986C34.2686 63.2867 32.1413 63.5922 30.3503 63.8518C29.4725 63.9777 28.5955 64.1109 27.7144 64.2434C25.5569 64.5649 23.3279 64.8948 21.1463 65.1829C20.0534 65.3266 18.9638 65.4637 17.8798 65.5801C16.4783 65.7314 15.0409 65.782 13.3623 65.7299C11.4332 65.6674 9.70687 65.5847 8.12789 65.1462L7.81448 65.0445C7.6886 64.9994 7.57008 64.9484 7.45069 64.8901C7.39965 64.8661 7.23246 64.7771 7.23246 64.7771C7.14919 64.7183 7.06268 64.666 6.98266 64.6005L6.86459 64.4845L6.77116 64.3732C6.77116 64.3732 6.6782 64.1968 6.65658 64.1494L6.6138 63.9896C6.60537 63.9518 6.60105 63.9149 6.59501 63.8632L6.2999 64.0902L6.59545 63.7982C6.59331 63.711 6.59204 63.6312 6.59726 63.5382C6.60921 63.3307 6.6155 63.2813 6.68935 62.9841C6.80087 62.5276 6.98508 62.0052 7.28096 61.3372C7.58896 60.6353 7.94953 59.936 8.28737 59.283C8.37264 59.1181 8.46399 58.8676 8.40912 58.6043C8.32983 58.2353 7.96455 57.9648 7.60848 58.0143C7.24831 58.0629 7.04013 58.4146 6.98407 58.5199L6.94187 58.606C6.25559 59.9244 5.47754 61.4209 5.1553 62.7926C4.85796 64.0677 5.05518 65.1022 5.73076 65.7919C6.64832 66.7291 8.04239 66.9958 9.28074 67.1684C11.2102 67.4407 13.3145 67.5576 15.5434 67.5024C16.7781 67.4719 18.081 67.3023 19.3445 67.1397L20.6039 66.9764C22.4885 66.727 24.3746 66.4562 26.2681 66.1795C27.2288 66.0402 28.1854 65.9001 29.1493 65.7541C31.4103 65.4229 33.7459 65.0766 36.03 64.7714C36.6085 64.6983 37.1828 64.6245 37.7613 64.5513C38.8353 64.4186 39.9061 64.2925 40.9728 64.1657C42.5474 63.9815 44.1252 63.7907 45.7063 63.5933C46.471 63.497 47.2316 63.3999 47.9995 63.297C51.0639 62.8911 53.8114 62.4914 56.4004 62.0766C59.3281 61.602 63.2055 60.9281 67.251 59.9384C69.045 59.4986 70.5238 59.0797 71.9055 58.621C72.9889 58.2587 74.2705 57.8031 75.5787 57.1282C76.4547 56.6767 77.3755 56.1611 78.1988 55.2587C80.6426 52.5682 81.9825 48.9637 82.5668 47.0479L82.5448 47.0655Z" fill="white"/>
</svg>
