<svg width="40" height="38" viewBox="0 0 40 38" fill="none" xmlns="http://www.w3.org/2000/svg">
<g clip-path="url(#clip0_2316_943)">
<path d="M29.1723 0H10.8276C4.85717 0 0 4.53336 0 10.1058V27.2278C0 32.7999 4.85717 37.3333 10.8276 37.3333H29.1726C35.1428 37.3333 39.9999 32.7999 39.9999 27.2278V10.1058C39.9999 4.53336 35.1428 0 29.1723 0ZM37.655 27.2278C37.655 31.5931 33.8497 35.1446 29.1723 35.1446H10.8276C6.1502 35.1446 2.34497 31.5931 2.34497 27.2278V10.1058C2.34497 5.74018 6.1502 2.18864 10.8276 2.18864H29.1726C33.8497 2.18864 37.655 5.74018 37.655 10.1058V27.2278Z" fill="white"/>
<path d="M19.9999 8.45862C13.969 8.45862 9.06274 13.0378 9.06274 18.6666C9.06274 24.2955 13.969 28.8747 19.9999 28.8747C26.0308 28.8747 30.9371 24.2955 30.9371 18.6666C30.9371 13.0378 26.0308 8.45862 19.9999 8.45862ZM19.9999 26.686C15.2624 26.686 11.4077 23.0886 11.4077 18.6666C11.4077 14.2449 15.2624 10.6473 19.9999 10.6473C24.7378 10.6473 28.5921 14.2449 28.5921 18.6666C28.5921 23.0886 24.7378 26.686 19.9999 26.686Z" fill="white"/>
<path d="M31.1986 4.83331C29.4164 4.83331 27.9668 6.18654 27.9668 7.84966C27.9668 9.51307 29.4164 10.8663 31.1986 10.8663C32.9808 10.8663 34.4307 9.51307 34.4307 7.84966C34.4307 6.18626 32.9808 4.83331 31.1986 4.83331ZM31.1986 8.67738C30.7097 8.67738 30.3118 8.30596 30.3118 7.84966C30.3118 7.39308 30.7097 7.02195 31.1986 7.02195C31.6878 7.02195 32.0857 7.39308 32.0857 7.84966C32.0857 8.30596 31.6878 8.67738 31.1986 8.67738Z" fill="white"/>
</g>
<defs>
<clipPath id="clip0_2316_943">
<rect width="40" height="37.3333" fill="white"/>
</clipPath>
</defs>
</svg>
