<svg width="160" height="133" viewBox="0 0 160 133" fill="none" xmlns="http://www.w3.org/2000/svg">
<path d="M139.292 52.6627C136.484 49.0489 130.332 42.6495 123.777 40.6218C123.173 40.4343 126.275 30.1593 119.755 21.4158C115.412 15.5946 106.55 11.0782 98.06 11.8127C94.3241 12.137 91.9157 13.4458 91.7356 13.2778C76.4357 -1.0877 57.5996 3.94432 49.607 10.6289C38.0155 20.3218 40.3652 32.5972 39.5859 35.246C39.2178 36.5001 34.5812 41.7861 29.8898 46.2086C24.6854 51.1156 19.3792 56.3977 17.4995 62.4416C15.0206 70.3959 18.2474 81.55 27.6263 87.1641C35.709 92.0008 43.0711 89.4223 53.6287 88.4534C57.5174 88.0979 58.3319 90.8288 61.637 92.2508C69.7902 95.7631 77.0623 91.5632 79.5959 90.9616C80.7042 90.6998 84.021 95.1068 95.2561 94.259C104.737 93.544 109.119 88.0627 109.444 87.5939C110.074 86.6758 115.717 89.8677 127.078 87.0547C146.184 82.3235 145.753 60.9687 139.288 52.6549L139.292 52.6627Z" fill="#82A6A6"/>
<path d="M5.84805 103.84C6.46679 105.141 7.81391 106.419 9.23935 106.778C9.66228 106.884 10.2614 106.735 10.5708 106.423C10.8567 106.138 10.7823 105.825 10.3828 105.724C9.31766 105.454 8.18984 104.301 7.73166 103.34C7.41055 102.668 5.5661 103.254 5.84805 103.844V103.84Z" fill="white"/>
<path d="M5.20596 108.451C5.84428 109.666 7.14441 110.486 8.49936 110.646C8.93795 110.697 9.41962 110.588 9.81514 110.4C9.94045 110.342 10.4848 109.99 10.054 109.939C8.83221 109.795 7.66134 109.041 7.0896 107.947C6.85855 107.509 5.0689 108.185 5.20596 108.451Z" fill="white"/>
<path d="M5.05705 113.518C5.91074 114.631 7.20694 115.37 8.60105 115.545C9.03573 115.6 9.59571 115.483 9.93248 115.19C10.2066 114.952 10.1831 114.67 9.77978 114.62C8.58147 114.467 7.53981 113.764 6.81534 112.818C6.47465 112.373 4.65761 112.998 5.05705 113.518Z" fill="white"/>
<path d="M11.6008 104.692C14.0052 104.942 16.4371 105.134 18.8533 105.173C19.6365 105.185 20.827 104.02 19.5582 104.001C17.142 103.962 14.7062 103.774 12.3057 103.52C11.5068 103.438 10.332 104.559 11.6008 104.692Z" fill="white"/>
<path d="M14.8154 100.543C14.7175 106.337 14.6509 112.131 14.553 117.925C14.5413 118.722 16.4288 118.343 16.4405 117.698C16.5384 111.904 16.605 106.11 16.7029 100.317C16.7147 99.5195 14.8271 99.8985 14.8154 100.543Z" fill="white"/>
<path d="M14.694 108.326C14.1262 109.888 12.6616 111.135 11.0482 111.494C10.825 111.545 10.1162 111.787 10.2102 112.127C10.3042 112.467 11.0521 112.299 11.2518 112.256C13.4722 111.764 15.7631 110.252 16.562 108.044C16.7382 107.556 14.8938 107.775 14.6901 108.33L14.694 108.326Z" fill="white"/>
<path d="M15.1598 109.611C16.7967 110.693 18.4845 111.697 20.1723 112.697C20.7949 113.068 22.4945 112.197 21.6447 111.693C19.953 110.693 18.2691 109.689 16.6322 108.607C16.0252 108.204 14.3256 109.06 15.1598 109.611Z" fill="white"/>
<path d="M26.9202 102.727C27.5977 103.587 28.7803 103.973 29.8376 103.821C30.1 103.782 30.8636 103.622 30.9419 103.305C31.0203 102.989 30.3232 103.098 30.1862 103.118C30.4877 103.075 30.1783 103.059 30.0373 103.008C29.8455 102.942 29.6653 102.848 29.4891 102.743C29.1915 102.567 28.9095 102.356 28.6942 102.082C28.4122 101.727 26.6304 102.356 26.9202 102.727Z" fill="white"/>
<path d="M26.8578 105.778C28.0483 105.727 29.2388 105.696 30.4293 105.645C30.813 105.63 31.4357 105.356 31.4748 104.915C31.5179 104.442 30.9775 104.333 30.6172 104.348C29.4267 104.399 28.2363 104.43 27.0458 104.481C26.662 104.497 26.0394 104.77 26.0002 105.212C25.9572 105.684 26.4976 105.794 26.8578 105.778Z" fill="white"/>
<path d="M26.9049 107.79C27.974 107.806 29.0431 107.857 30.1082 107.88C30.4763 107.888 31.146 107.735 31.3614 107.399C31.5885 107.04 31.1655 106.978 30.8836 106.974C29.8145 106.954 28.7454 106.899 27.6803 106.884C27.3122 106.88 26.6425 107.028 26.4271 107.364C26.2 107.72 26.623 107.786 26.9049 107.79Z" fill="white"/>
<path d="M27.1005 110.287C28.1226 110.33 29.1485 110.353 30.1706 110.427C30.5896 110.459 31.2005 110.287 31.4042 109.88C31.6078 109.478 31.228 109.232 30.8598 109.205C29.8378 109.13 28.8118 109.107 27.7897 109.064C27.3668 109.044 26.7637 109.197 26.5561 109.611C26.3486 110.025 26.7284 110.271 27.1005 110.287Z" fill="white"/>
<path d="M26.247 112.482C26.2979 114.346 26.294 116.213 26.3997 118.077C26.431 118.636 28.3225 118.265 28.2833 117.573C28.1776 115.709 28.1776 113.842 28.1306 111.978C28.1149 111.432 26.2274 111.787 26.247 112.482Z" fill="white"/>
<path d="M30.2528 116.674C30.6248 116.592 30.104 116.67 29.9826 116.674C29.6967 116.69 29.4069 116.698 29.121 116.706C28.6002 116.721 28.0755 116.729 27.5546 116.756C27.1826 116.776 26.56 117.03 26.5012 117.456C26.4386 117.913 27.026 117.983 27.3432 117.967C28.3966 117.917 29.5166 118.018 30.5543 117.792C30.8872 117.717 31.4472 117.397 31.3453 116.983C31.2435 116.569 30.5621 116.608 30.2528 116.678V116.674Z" fill="white"/>
<path d="M26.8419 112.838C27.5781 112.857 28.3143 112.787 29.0505 112.818C29.2072 112.826 29.4852 112.791 29.634 112.861C29.822 112.951 29.5283 112.611 29.6066 112.826C29.685 113.041 29.6262 113.424 29.6262 113.65C29.634 114.494 29.6262 115.342 29.5988 116.186C29.587 116.549 29.5792 116.913 29.5518 117.276C29.544 117.35 29.4891 117.604 29.5126 117.678C29.5635 117.842 29.2503 118.014 29.6262 117.596C28.8587 118.448 30.6718 118.581 31.1691 118.03C31.5842 117.569 31.4746 116.674 31.4902 116.108C31.5255 115.045 31.5372 113.978 31.5098 112.92C31.4863 112.107 31.3336 111.826 30.4721 111.67C29.5048 111.494 28.5023 111.646 27.5272 111.623C27.1395 111.611 26.4542 111.744 26.2937 112.166C26.1409 112.564 26.4268 112.83 26.838 112.838H26.8419Z" fill="white"/>
<path d="M33.6595 101.922C35.0223 101.91 36.4281 101.848 37.7713 101.613C38.0102 101.57 38.8521 101.395 38.8639 101.055C38.8756 100.695 38.3274 100.75 38.0885 100.793C36.8981 101 35.6528 101.043 34.4466 101.051C34.102 101.051 33.3815 101.187 33.1935 101.523C32.9938 101.875 33.3619 101.922 33.6634 101.922H33.6595Z" fill="white"/>
<path d="M34.9403 101.7C34.7758 103.84 34.4703 105.993 34.439 108.142C34.4312 108.552 36.3108 108.263 36.3226 107.638C36.3539 105.563 36.6515 103.477 36.8082 101.406C36.8552 100.805 34.9794 101.188 34.9403 101.696V101.7Z" fill="white"/>
<path d="M33.2253 105.27C34.0085 105.262 34.7957 105.208 35.5789 105.208C36.0958 105.208 36.8751 105.173 37.1884 105.669C37.6426 106.395 37.2628 107.888 36.6284 108.4C36.2877 108.673 36.9299 108.704 37.0709 108.697C37.4977 108.669 37.9951 108.521 38.3318 108.251C39.0955 107.638 39.6163 105.915 39.0015 105.051C38.6608 104.571 37.9285 104.505 37.392 104.465C36.4169 104.395 35.4261 104.501 34.4471 104.508C34.0281 104.508 33.4525 104.594 33.1157 104.864C32.8768 105.055 32.8063 105.27 33.2253 105.266V105.27Z" fill="white"/>
<path d="M32.9823 109.154C35.1126 109.236 37.2468 109.251 39.3771 109.204C40.4266 109.181 40.8456 107.853 39.5573 107.884C37.5836 107.931 35.6178 107.915 33.6441 107.837C33.2368 107.821 32.5789 107.954 32.4144 108.404C32.2696 108.81 32.5476 109.138 32.9784 109.154H32.9823Z" fill="white"/>
<path d="M32.9434 111.123C32.8533 113.444 32.8298 115.913 33.194 118.21C33.2449 118.538 35.1442 118.144 35.0776 117.706C34.7134 115.409 34.7408 112.936 34.827 110.619C34.8348 110.392 32.963 110.603 32.9434 111.123Z" fill="white"/>
<path d="M37.6072 116.655C38.0262 116.499 37.4153 116.624 37.239 116.631C36.9062 116.647 36.5772 116.647 36.2444 116.639C35.9232 116.631 35.5982 116.62 35.2771 116.596C35.0774 116.581 34.6936 116.53 34.6897 116.53C34.255 116.397 33.6598 116.538 33.3583 116.885C33.0841 117.202 33.1664 117.596 33.5854 117.725C34.3138 117.948 35.1636 117.917 35.9154 117.925C36.7495 117.932 37.6228 117.964 38.4178 117.671C38.7585 117.546 39.1305 117.12 38.8799 116.764C38.6057 116.381 37.9635 116.526 37.6111 116.659L37.6072 116.655Z" fill="white"/>
<path d="M34.1018 112.021C34.7362 111.92 35.3785 111.849 36.0246 111.838C36.287 111.834 36.5454 111.853 36.8039 111.853C37.0193 111.853 37.2816 112.037 37.1485 111.834C36.984 111.584 37.0624 112.283 37.0663 112.389C37.0819 112.787 37.0976 113.186 37.1054 113.58C37.1289 114.389 37.1446 115.201 37.1368 116.01C37.1368 116.381 37.1328 116.752 37.1054 117.12C37.0858 117.366 36.9096 117.776 37.1407 117.534C36.3379 118.37 38.1549 118.585 38.6993 118.018C39.1339 117.565 39.0243 116.651 39.036 116.084C39.0556 114.905 39.0243 113.721 38.9812 112.541C38.9538 111.845 39.1261 111.076 38.4251 110.728C37.3482 110.193 35.4098 110.552 34.2976 110.728C33.3069 110.888 32.8213 112.213 34.1058 112.01L34.1018 112.021Z" fill="white"/>
<path d="M46.2024 103.317C47.6748 104.251 50.0519 103.884 51.1601 102.536C51.8963 101.641 50.0949 101.493 49.6133 102.083C49.1316 102.673 48.3092 102.704 47.6787 102.305C47.0483 101.907 45.3605 102.782 46.2063 103.317H46.2024Z" fill="white"/>
<path d="M46.5155 103.469C46.68 106.141 47.0716 108.814 47.1107 111.494C47.1147 111.802 49.0022 111.525 48.9943 110.99C48.9552 108.314 48.5597 105.637 48.3991 102.965C48.3795 102.633 46.4842 102.95 46.5155 103.469Z" fill="white"/>
<path d="M47.5691 106.86C48.2231 106.903 48.8771 106.946 49.535 106.989C49.9892 107.02 50.557 106.86 50.7607 106.407C50.9447 105.997 50.5923 105.614 50.1772 105.587C49.5232 105.544 48.8692 105.501 48.2113 105.458C47.7571 105.426 47.1892 105.587 46.9856 106.04C46.8016 106.45 47.154 106.833 47.5691 106.86Z" fill="white"/>
<path d="M53.2393 104.009C54.6373 103.891 53.8306 106.755 53.6975 107.521C53.5761 108.208 53.4429 108.892 53.2589 109.564C53.1727 109.888 53.0591 110.197 52.9612 110.517C52.8829 110.767 52.4874 111.131 52.8555 110.951C51.7003 111.525 52.742 112.401 53.6583 111.943C55.3305 111.107 55.5028 108.083 55.7377 106.493C55.8513 105.72 56.1293 104.661 55.9178 103.884C55.6085 102.758 54.4298 102.669 53.4468 102.751C52.4365 102.837 51.9548 104.118 53.2471 104.009H53.2393Z" fill="white"/>
<path d="M51.5205 108.591H53.2279C53.6783 108.591 54.1795 108.486 54.5594 108.236C54.8374 108.052 54.8335 107.818 54.4458 107.818H52.7384C52.2881 107.818 51.7868 107.923 51.407 108.173C51.1289 108.357 51.1328 108.591 51.5205 108.591Z" fill="white"/>
<path d="M47.5453 111.033C49.3389 111.224 51.1285 111.498 52.9338 111.525C53.3293 111.529 53.9559 111.432 54.2652 111.17C54.4963 110.971 54.5863 110.818 54.1673 110.81C52.4717 110.787 50.7878 110.525 49.1 110.342C48.6731 110.295 48.1719 110.4 47.7881 110.595C47.6746 110.654 47.1107 110.986 47.5414 111.033H47.5453Z" fill="white"/>
<path d="M49.2921 111.459C49.2255 113.78 48.7556 117.425 45.8538 117.687C44.8161 117.78 44.3853 119.128 45.6737 119.015C49.7424 118.648 51.0895 114.881 51.1953 111.303C51.2227 110.353 49.3156 110.643 49.2921 111.459Z" fill="white"/>
<path d="M51.3133 113.154C51.3094 114.697 51.4504 116.44 52.4568 117.694C53.475 118.956 54.6889 118.659 56.1379 118.628C56.3807 118.624 57.4184 118.436 57.4693 118.069L57.6808 116.561C57.7512 116.065 55.8872 116.401 55.8206 116.877L55.6092 118.385C56.0517 118.198 56.4981 118.01 56.9406 117.827C56.3297 117.838 55.6053 118.057 55.0414 117.768C54.5166 117.499 54.1328 116.967 53.8744 116.459C53.2831 115.299 53.193 113.932 53.1969 112.654C53.1969 112.31 51.3172 112.588 51.3133 113.158V113.154Z" fill="white"/>
<path d="M67.6348 101.297C68.5511 101.394 69.4675 101.496 70.3799 101.594C70.7754 101.637 71.4176 101.437 71.6213 101.07C71.8445 100.668 71.4294 100.515 71.1004 100.48L68.3553 100.183C67.9598 100.14 67.3176 100.34 67.1139 100.707C66.8907 101.109 67.3058 101.262 67.6348 101.297Z" fill="white"/>
<path d="M66.0842 102.946C68.0892 103.086 70.0982 103.204 72.111 103.212C72.5104 103.212 73.1801 103.098 73.3445 102.657C73.4894 102.266 73.2153 101.95 72.7924 101.946C70.7796 101.938 68.7706 101.817 66.7656 101.68C65.9119 101.621 64.8154 102.856 66.0882 102.942L66.0842 102.946Z" fill="white"/>
<path d="M66.7694 102.497C66.9809 103.302 67.1884 104.106 67.3999 104.907C67.5409 105.446 69.4284 104.954 69.2835 104.403C69.072 103.598 68.8645 102.794 68.653 101.993C68.512 101.454 66.6245 101.946 66.7694 102.497Z" fill="white"/>
<path d="M70.713 102.879C70.6033 103.129 70.5329 103.395 70.4506 103.653C70.4115 103.778 70.3684 103.903 70.3175 104.024C70.2901 104.087 70.247 104.145 70.2274 104.208C70.2627 104.098 70.1373 104.305 70.2783 104.176C69.9885 104.438 69.7771 104.864 70.1765 105.145C70.5329 105.395 71.2064 105.321 71.5275 105.032C71.8487 104.743 72.0523 104.438 72.1933 104.036C72.3029 103.723 72.3734 103.395 72.5105 103.094C72.6984 102.672 72.3342 102.356 71.9348 102.305C71.504 102.25 70.901 102.45 70.7091 102.879H70.713Z" fill="white"/>
<path d="M63.7503 104.981C67.1416 105.169 70.5289 105.403 73.9163 105.692C74.3118 105.727 76.0584 105.028 75.142 104.95C71.7586 104.661 68.3712 104.426 64.976 104.239C64.5844 104.215 62.8378 104.934 63.7503 104.981Z" fill="white"/>
<path d="M65.3674 106.942C65.4575 108.951 65.622 110.951 65.712 112.959C65.7395 113.611 67.6309 113.221 67.5957 112.455C67.5056 110.447 67.3411 108.447 67.251 106.438C67.2236 105.786 65.3322 106.177 65.3674 106.942Z" fill="white"/>
<path d="M67.106 107.22C66.9297 107.251 67.4388 107.22 67.5172 107.22C67.8226 107.22 68.1281 107.228 68.4374 107.239C69.1893 107.267 69.9412 107.318 70.6891 107.411C71.0024 107.45 71.9736 107.486 72.1772 107.743C72.4592 108.095 72.1576 109.396 72.0989 109.814C71.9971 110.517 71.6603 111.334 71.6525 112.033C71.6525 112.092 71.5233 112.322 71.5546 112.365C71.4019 112.127 72.5571 112.252 72.1968 111.959C72.0715 111.857 71.5037 111.943 71.3235 111.932C69.8785 111.85 68.4453 111.654 67.0042 111.568C66.1896 111.521 65.0383 112.705 66.311 112.779C68.1751 112.889 70.1174 113.342 71.9853 113.158C73.8337 112.979 73.8533 110.806 74.0373 109.33C74.1196 108.685 74.3545 107.556 73.9277 106.978C73.5596 106.474 72.6746 106.396 72.1146 106.302C70.4385 106.024 68.504 105.798 66.8162 106.11C65.6414 106.325 65.9625 107.431 67.1138 107.216L67.106 107.22Z" fill="white"/>
<path d="M66.0099 109.892C68.1363 110.173 70.2862 110.252 72.4087 110.529C72.9373 110.599 74.6056 109.732 73.5874 109.599C71.461 109.318 69.3111 109.24 67.1886 108.962C66.6599 108.892 64.9917 109.759 66.0099 109.892Z" fill="white"/>
<path d="M66.6523 115.815C68.2539 115.916 69.8556 115.877 71.4533 116.026C72.4128 116.116 73.3604 114.725 72.0916 114.604C70.4939 114.455 68.8922 114.494 67.2906 114.393C66.8442 114.365 66.2489 114.518 66.0688 114.979C65.9043 115.393 66.2215 115.787 66.6562 115.815H66.6523Z" fill="white"/>
<path d="M64.0161 118.362C67.3291 118.452 70.6303 118.749 73.9393 118.897C74.6051 118.928 75.9561 117.963 74.6912 117.909C71.3822 117.76 68.081 117.463 64.768 117.374C64.1023 117.354 62.7513 118.327 64.0161 118.362Z" fill="white"/>
<path d="M68.7353 107.357C68.7235 110.97 68.6178 114.592 68.4181 118.198C68.3789 118.878 70.2625 118.487 70.2939 117.932C70.4975 114.244 70.6071 110.545 70.6189 106.853C70.6189 106.364 68.7392 106.689 68.7353 107.357Z" fill="white"/>
<path d="M82.4379 106.931C83.507 107.025 84.58 107.032 85.653 106.958C86.0172 106.935 86.6829 106.825 86.91 106.497C87.1371 106.169 86.7142 106.13 86.4558 106.149C85.5159 106.212 84.5878 106.204 83.648 106.122C83.2211 106.087 82.6611 106.22 82.3165 106.478C82.0346 106.689 82.0541 106.899 82.4379 106.931Z" fill="white"/>
<path d="M82.3676 109.404C83.5463 109.349 84.729 109.294 85.9077 109.24C86.2445 109.224 86.9729 109.103 87.1687 108.787C87.3645 108.47 86.9924 108.451 86.7183 108.462C85.5396 108.517 84.357 108.572 83.1782 108.626C82.8414 108.642 82.1131 108.763 81.9173 109.08C81.7215 109.396 82.0935 109.416 82.3676 109.404Z" fill="white"/>
<path d="M83.5268 109.4C83.7186 112.248 83.6364 115.12 83.5111 117.968C83.4719 118.819 85.3712 118.479 85.4025 117.768C85.5357 114.819 85.6101 111.846 85.4104 108.896C85.3634 108.193 83.4758 108.607 83.5268 109.4Z" fill="white"/>
<path d="M88.6055 100.18C88.1669 101.211 87.5482 102.164 86.8433 103.032C86.5496 103.395 87.094 103.618 87.3681 103.637C87.8302 103.673 88.3197 103.465 88.6055 103.11C89.3848 102.145 90.0114 101.102 90.4931 99.961C90.6654 99.5508 89.8822 99.4883 89.6668 99.5117C89.2321 99.5547 88.7778 99.7618 88.6055 100.176V100.18Z" fill="white"/>
<path d="M88.7074 102.25C90.2151 102.235 91.711 102 93.2187 101.985C93.5946 101.981 94.2721 101.86 94.464 101.473C94.6559 101.086 94.3073 100.926 93.9549 100.93C92.4472 100.946 90.9513 101.18 89.4436 101.196C89.0677 101.199 88.3902 101.321 88.1983 101.707C88.0143 102.078 88.355 102.254 88.7074 102.25Z" fill="white"/>
<path d="M88.4604 104.173C88.4252 106.157 88.5348 108.146 88.4252 110.127C88.3782 111.006 90.2814 110.678 90.3205 109.939C90.4302 107.954 90.3205 105.97 90.3558 103.985C90.3714 103.098 88.4722 103.438 88.4604 104.173Z" fill="white"/>
<path d="M89.2986 104.504C89.9604 104.485 90.6222 104.442 91.284 104.399C91.6208 104.379 91.9614 104.352 92.2982 104.344C92.4744 104.34 92.6507 104.34 92.8269 104.344C93.1049 104.387 93.1206 104.364 92.8739 104.274C93.3399 104.903 93.0814 106.231 93.0305 106.954C93.0031 107.329 92.5488 109.333 92.8073 109.599C92.7838 109.833 92.9091 109.767 93.1833 109.404C93.0658 109.415 92.9483 109.419 92.8308 109.415C92.5606 109.333 92.1612 109.388 91.8792 109.368C91.2957 109.329 90.7162 109.263 90.1327 109.255C89.7646 109.251 89.044 109.376 88.8952 109.783C88.7464 110.189 89.0205 110.392 89.4239 110.396C90.8493 110.415 92.6037 110.915 93.9547 110.271C95.0238 109.763 94.7966 108.259 94.8828 107.247C94.9611 106.309 95.3566 104.348 94.6518 103.551C94.268 103.117 93.5396 103.184 93.0149 103.192C92.0124 103.207 91.0177 103.324 90.0152 103.352C89.6432 103.364 88.9304 103.465 88.7777 103.879C88.6367 104.258 88.8991 104.504 89.3064 104.493L89.2986 104.504Z" fill="white"/>
<path d="M89.9012 107.692C90.8724 107.692 91.8436 107.692 92.8187 107.692C93.2259 107.692 93.8094 107.376 93.8564 106.931C93.9073 106.438 93.3591 106.309 92.987 106.309C92.0159 106.309 91.0447 106.309 90.0696 106.309C89.6623 106.309 89.0789 106.626 89.0319 107.071C88.981 107.564 89.5292 107.692 89.9012 107.692Z" fill="white"/>
<path d="M88.6486 111.264C88.2688 112.264 87.6579 112.928 86.8942 113.655C86.5927 113.94 87.1644 113.944 87.3289 113.928C87.7205 113.893 88.2923 113.776 88.5899 113.487C89.4044 112.713 90.0937 111.982 90.5009 110.916C90.6145 110.615 89.8704 110.744 89.7569 110.763C89.4906 110.81 88.7661 110.947 88.6486 111.26V111.264Z" fill="white"/>
<path d="M89.5301 112.306C90.3721 112.111 91.3354 112.26 92.2009 112.217C92.2792 112.213 92.6277 112.181 92.6708 112.232C92.5494 112.092 92.5142 112.088 92.4554 112.232C92.3301 112.545 92.1539 112.826 91.9737 113.107C90.9516 114.67 89.4009 116.803 87.6426 117.585C86.4365 118.12 87.5604 118.495 88.3318 118.151C90.7128 117.096 92.988 114.592 94.1589 112.291C94.5975 111.427 94.1041 111.357 93.2856 111.338C91.9894 111.306 90.607 111.283 89.3343 111.58C88.2143 111.842 88.4062 112.568 89.5301 112.306Z" fill="white"/>
<path d="M89.1299 114.322C90.3986 116.346 92.5955 117.565 94.8277 118.26C95.2271 118.385 95.7988 118.253 96.1513 118.042C96.3314 117.936 96.7857 117.604 96.3588 117.471C94.299 116.831 92.1883 115.694 91.0135 113.818C90.6884 113.303 88.9262 113.994 89.1299 114.322Z" fill="white"/>
<path d="M99.903 108.822C101.039 108.662 102.178 108.497 103.314 108.337C103.627 108.294 104.332 108.111 104.387 107.716C104.442 107.321 103.839 107.306 103.58 107.341C102.444 107.501 101.305 107.665 100.169 107.825C99.856 107.868 99.1511 108.052 99.0963 108.447C99.0415 108.841 99.6445 108.857 99.903 108.822Z" fill="white"/>
<path d="M101.168 108.654C101.25 111.779 101.246 114.924 101.121 118.05C101.082 119.003 102.993 118.718 103.024 117.897C103.153 114.772 103.153 111.627 103.071 108.501C103.047 107.54 101.144 107.841 101.168 108.654Z" fill="white"/>
<path d="M105.734 108.865C107.837 108.314 105.836 110.826 105.456 111.142C104.904 111.599 105.664 111.861 106.075 111.787C107.492 111.529 105.985 114.104 105.789 114.303C105.307 114.795 104.685 115.135 104.074 115.44C102.903 116.018 103.98 116.585 104.81 116.178C106.102 115.541 107.485 114.791 108.174 113.463C109 111.877 108.174 110.447 106.341 110.783L106.96 111.428C107.712 110.802 109.031 109.548 108.46 108.431C107.931 107.403 106.361 107.736 105.495 107.962C104.371 108.255 104.602 109.162 105.738 108.865H105.734Z" fill="white"/>
<path d="M104.395 113.904C107.316 116.456 111.416 118.092 115.258 118.452C116.049 118.526 117.232 117.401 115.963 117.284C112.532 116.963 108.75 115.42 106.134 113.139C105.589 112.666 103.819 113.404 104.395 113.904Z" fill="white"/>
<path d="M109.305 102.458C109.701 102.294 110.758 102.321 111.334 102.321C111.949 102.321 113.315 102.172 113.84 102.567C114.365 102.962 114.134 104.091 114.079 104.63C114.005 105.396 113.93 106.376 113.523 107.052C113.053 107.826 114.945 107.677 115.285 107.119C115.884 106.134 115.994 104.739 116.018 103.618C116.037 102.743 116.033 101.907 115.121 101.559C114.114 101.172 112.853 101.204 111.792 101.211C110.731 101.219 109.544 101.219 108.546 101.633C107.34 102.137 108.432 102.821 109.305 102.458Z" fill="white"/>
<path d="M106.921 105.321C110.05 105.352 113.178 105.458 116.307 105.493C117.38 105.505 117.752 104.137 116.476 104.126C113.347 104.094 110.218 103.989 107.089 103.954C106.016 103.942 105.644 105.309 106.921 105.321Z" fill="white"/>
<path d="M108.828 107.454H113.789C114.197 107.454 114.8 107.368 115.121 107.099C115.352 106.903 115.438 106.712 115.019 106.712H110.057C109.65 106.712 109.047 106.798 108.726 107.067C108.495 107.263 108.409 107.454 108.828 107.454Z" fill="white"/>
<path d="M108.996 109.892H113.437C113.856 109.892 114.436 109.818 114.768 109.537C115.003 109.337 115.074 109.103 114.651 109.103H110.21C109.791 109.103 109.212 109.177 108.879 109.458C108.644 109.658 108.573 109.892 108.996 109.892Z" fill="white"/>
<path d="M109.133 112.514C111.029 112.592 112.94 112.556 114.831 112.392C115.72 112.314 116.421 111.314 115.109 111.427C113.378 111.58 111.62 111.588 109.885 111.517C109.212 111.49 107.868 112.463 109.133 112.514Z" fill="white"/>
<path d="M110.868 100.113C110.868 105.591 110.782 111.064 110.778 116.542C110.778 117.042 112.661 116.714 112.661 116.038C112.661 110.56 112.748 105.087 112.752 99.6093C112.752 99.1093 110.868 99.4375 110.868 100.113Z" fill="white"/>
<path d="M122.201 103.606C123.094 104.098 123.944 104.411 124.978 104.352C125.373 104.329 125.992 104.227 126.227 103.864C126.462 103.5 126.031 103.387 125.742 103.403C124.978 103.446 124.375 103.125 123.717 102.766C123.243 102.504 121.5 103.223 122.201 103.606Z" fill="white"/>
<path d="M121.805 106.177C123.117 106.122 124.445 106.009 125.757 106.075C126.176 106.095 126.767 106.024 127.088 105.72C127.323 105.497 127.378 105.216 126.947 105.192C125.49 105.118 124.037 105.216 122.581 105.278C122.228 105.294 121.519 105.407 121.328 105.755C121.136 106.102 121.492 106.188 121.801 106.173L121.805 106.177Z" fill="white"/>
<path d="M122.248 108.282C123.372 108.243 124.488 108.154 125.612 108.189C126.008 108.2 126.638 108.048 126.857 107.681C127.081 107.306 126.666 107.157 126.352 107.149C125.228 107.114 124.112 107.204 122.988 107.243C122.585 107.259 121.97 107.368 121.743 107.751C121.528 108.114 121.927 108.294 122.248 108.282Z" fill="white"/>
<path d="M122.844 110.529C123.76 110.498 124.676 110.471 125.593 110.439C125.992 110.428 126.583 110.142 126.634 109.693C126.689 109.216 126.129 109.088 125.769 109.099C124.852 109.13 123.936 109.158 123.02 109.189C122.62 109.201 122.029 109.486 121.978 109.935C121.923 110.412 122.483 110.541 122.844 110.529Z" fill="white"/>
<path d="M121.535 112.346C121.586 114.158 121.535 115.967 121.563 117.78C121.578 118.788 123.485 118.526 123.474 117.651C123.446 115.838 123.497 114.029 123.446 112.217C123.419 111.209 121.512 111.471 121.535 112.346Z" fill="white"/>
<path d="M122.922 112.725C123.309 112.705 124.774 112.365 125.107 112.658C125.361 112.881 125.275 113.924 125.279 114.209C125.303 115.44 125.189 116.663 125.165 117.893C125.146 118.741 127.041 118.386 127.057 117.69C127.092 116.073 127.3 114.436 127.12 112.822C126.904 110.885 124.551 111.502 123.149 111.572C122.17 111.623 121.625 112.795 122.922 112.729V112.725Z" fill="white"/>
<path d="M122.601 118.159H125.746C126.153 118.159 126.768 118.03 126.987 117.639C127.206 117.249 126.807 117.061 126.47 117.061H123.325C122.918 117.061 122.303 117.19 122.084 117.581C121.865 117.972 122.264 118.159 122.601 118.159Z" fill="white"/>
<path d="M132.077 102.801C130.836 104.34 129.344 105.641 127.719 106.763C127.402 106.982 127.496 107.067 127.817 107.13C128.181 107.2 128.847 106.982 129.148 106.774C130.934 105.54 132.563 104.149 133.93 102.454C134.129 102.203 133.237 102.301 133.186 102.309C132.822 102.375 132.32 102.496 132.077 102.801Z" fill="white"/>
<path d="M131.032 105.665C132.281 106.122 133.546 106.532 134.819 106.919C135.257 107.052 135.845 106.919 136.15 106.564C136.42 106.243 136.342 105.825 135.919 105.696C134.646 105.31 133.382 104.899 132.132 104.442C131.369 104.161 129.928 105.259 131.032 105.665Z" fill="white"/>
<path d="M132.018 107.982C131.294 109.025 130.425 109.884 129.324 110.517C129.027 110.689 128.807 111.049 129.164 111.275C129.536 111.506 130.162 111.299 130.499 111.107C131.823 110.341 132.907 109.291 133.777 108.04C134.035 107.669 133.553 107.482 133.26 107.466C132.837 107.439 132.269 107.622 132.018 107.986V107.982Z" fill="white"/>
<path d="M132.798 110.455C132.105 111.428 130.875 112.612 129.967 113.096C128.839 113.694 129.849 114.795 130.82 114.28C132.163 113.565 133.515 112.299 134.388 111.068C135.089 110.084 133.327 109.713 132.798 110.459V110.455Z" fill="white"/>
<path d="M133.675 113.963C132.668 115.096 131.556 115.999 130.268 116.788C129.943 116.987 129.782 117.401 130.135 117.647C130.515 117.913 131.129 117.718 131.478 117.503C132.884 116.643 134.125 115.635 135.218 114.401C135.981 113.541 134.168 113.404 133.675 113.963Z" fill="white"/>
<path d="M140.935 104.212C142.905 104.243 145.086 103.676 146.794 102.707C147.142 102.508 147.252 102.071 146.915 101.817C146.531 101.528 145.924 101.75 145.572 101.953C144.491 102.571 142.862 102.969 141.617 102.95C141.202 102.942 140.571 103.067 140.383 103.504C140.215 103.899 140.532 104.208 140.935 104.212Z" fill="white"/>
<path d="M140.869 103.915C140.971 106.458 141.068 109.009 140.967 111.556C140.888 113.478 140.834 115.67 139.811 117.366C139.682 117.577 141.386 117.503 141.668 117.034C142.611 115.463 142.725 113.428 142.823 111.646C142.972 108.907 142.862 106.153 142.752 103.414C142.741 103.102 140.849 103.399 140.869 103.918V103.915Z" fill="white"/>
<path d="M142.008 106.313C142.944 106.278 143.892 106.212 144.831 106.243C144.961 106.247 145.184 106.313 145.305 106.274C145.07 106.349 145.2 105.938 145.086 106.181C145.035 106.29 145.18 106.813 145.188 106.931C145.286 108.239 145.223 109.58 145.117 110.884C145.039 111.845 146.958 111.584 147.024 110.74C147.15 109.185 147.396 107.267 146.981 105.743C146.813 105.13 146.398 104.962 145.795 104.903C144.608 104.782 143.367 104.907 142.176 104.95C141.111 104.989 140.724 106.364 142.008 106.317V106.313Z" fill="white"/>
<path d="M141.949 111.443C143.285 111.525 144.655 111.654 145.991 111.49C146.39 111.439 146.989 111.213 147.028 110.736C147.068 110.259 146.539 110.084 146.159 110.13C144.98 110.275 143.786 110.162 142.603 110.091C142.161 110.064 141.573 110.22 141.378 110.666C141.198 111.076 141.542 111.42 141.949 111.447V111.443Z" fill="white"/>
<path d="M148.023 105.212C149.899 105.243 151.943 104.591 153.533 103.618C153.897 103.395 153.968 102.903 153.631 102.633C153.239 102.321 152.648 102.516 152.28 102.743C151.121 103.454 149.542 103.841 148.188 103.817C147.103 103.798 146.75 105.188 148.027 105.212H148.023Z" fill="white"/>
<path d="M147.835 105.192C148.36 108.052 148.814 113.166 146.284 115.354C145.897 115.69 147.639 115.514 147.988 115.209C150.635 112.92 150.263 107.685 149.715 104.688C149.644 104.305 147.749 104.727 147.831 105.192H147.835Z" fill="white"/>
<path d="M149.202 107.411C150.882 107.376 152.57 107.267 154.223 106.966C154.614 106.896 155.1 106.478 154.982 106.04C154.853 105.556 154.246 105.544 153.858 105.614C152.382 105.884 150.847 105.942 149.351 105.974C148.258 105.997 147.922 107.439 149.202 107.411Z" fill="white"/>
<path d="M151.145 107.306C151.211 110.713 151.333 114.127 151.25 117.534C151.235 118.272 153.114 117.874 153.13 117.284C153.212 113.791 153.099 110.295 153.028 106.802C153.016 106.251 151.133 106.603 151.145 107.306Z" fill="white"/>
<path d="M9.73299 128.707H8.82837L9.54109 123.273L11.6675 126.785L13.8017 123.273L14.5144 128.707H13.6098L13.2457 125.558L11.6675 128.227L10.0893 125.558L9.73299 128.707Z" fill="white"/>
<path d="M16.2063 123.531V126.969C16.2063 127.289 16.2924 127.547 16.4608 127.742C16.6331 127.938 16.8838 128.035 17.2205 128.035C17.5573 128.035 17.804 127.938 17.9763 127.742C18.1486 127.547 18.2348 127.289 18.2348 126.969V123.531H19.108V127.008C19.108 127.293 19.0611 127.551 18.971 127.773C18.8809 127.996 18.7517 128.188 18.5833 128.348C18.4149 128.504 18.2152 128.625 17.9841 128.711C17.7531 128.797 17.4986 128.836 17.2205 128.836C16.9425 128.836 16.688 128.793 16.4569 128.711C16.2259 128.629 16.0222 128.508 15.8538 128.348C15.6815 128.192 15.5523 128 15.4661 127.773C15.38 127.547 15.333 127.293 15.333 127.008V123.531H16.2063Z" fill="white"/>
<path d="M24.0852 123.531L22.3191 126.527V128.707H21.4302V126.531L19.6719 123.527H20.6666L21.8766 125.746L23.0867 123.527H24.0892L24.0852 123.531Z" fill="white"/>
<path d="M25.5219 123.531V126.969C25.5219 127.289 25.6081 127.547 25.7765 127.742C25.9488 127.938 26.1994 128.035 26.5362 128.035C26.873 128.035 27.1197 127.938 27.292 127.742C27.4643 127.547 27.5505 127.289 27.5505 126.969V123.531H28.4237V127.008C28.4237 127.293 28.3767 127.551 28.2867 127.773C28.1966 127.996 28.0674 128.188 27.899 128.348C27.7306 128.504 27.5309 128.625 27.2998 128.711C27.0688 128.797 26.8142 128.836 26.5362 128.836C26.2582 128.836 26.0036 128.793 25.7726 128.711C25.5415 128.629 25.3379 128.508 25.1695 128.348C24.9972 128.192 24.868 128 24.7818 127.773C24.6957 127.547 24.6487 127.293 24.6487 127.008V123.531H25.5219Z" fill="white"/>
<path d="M32.6455 123.531V128.707H31.7722V123.531H32.6455ZM32.2891 123.531H33.3347C33.7106 123.531 34.0396 123.597 34.3176 123.726C34.5957 123.855 34.815 124.042 34.9677 124.281C35.1204 124.519 35.1987 124.804 35.1987 125.136C35.1987 125.468 35.1204 125.754 34.9677 125.996C34.815 126.238 34.5996 126.422 34.3176 126.555C34.0357 126.687 33.7106 126.75 33.3347 126.75H32.2891V125.98H33.3347C33.6362 125.98 33.879 125.91 34.0592 125.765C34.2432 125.621 34.3333 125.414 34.3333 125.136C34.3333 124.859 34.2432 124.652 34.0592 124.511C33.8751 124.371 33.6323 124.3 33.3347 124.3H32.2891V123.531Z" fill="white"/>
<path d="M36.9177 123.531V128.707H36.0562V123.531H36.9177ZM36.5966 123.531H39.2125V124.3H36.5966V123.531ZM36.5966 125.558H39.0637V126.312H36.5966V125.558ZM36.5966 127.938H39.2125V128.707H36.5966V127.938Z" fill="white"/>
<path d="M41.1785 123.531V128.707H40.2896V123.531H41.1785ZM40.83 128.707V127.887H41.9421C42.2006 127.887 42.4355 127.852 42.6548 127.777C42.8741 127.703 43.0621 127.594 43.2227 127.445C43.3832 127.297 43.5085 127.113 43.6025 126.891C43.6965 126.668 43.7396 126.414 43.7396 126.121C43.7396 125.828 43.6926 125.574 43.6025 125.351C43.5124 125.129 43.3832 124.945 43.2227 124.796C43.0621 124.648 42.8741 124.539 42.6548 124.464C42.4355 124.39 42.2006 124.355 41.9421 124.355H40.83V123.535H41.9656C42.4943 123.535 42.9603 123.64 43.3597 123.855C43.7592 124.07 44.0724 124.371 44.2956 124.757C44.5189 125.144 44.6324 125.601 44.6324 126.121C44.6324 126.64 44.5189 127.098 44.2956 127.484C44.0724 127.871 43.7592 128.172 43.3597 128.387C42.9603 128.602 42.4943 128.707 41.9656 128.707H40.83Z" fill="white"/>
<path d="M46.3672 123.531V128.707H45.4861V123.531H46.3672Z" fill="white"/>
<path d="M48.6894 126.899L48.6737 127.09L47.9532 128.711H46.9663L49.5 123.246L52.0336 128.711H51.0468L50.3419 127.137L50.3184 126.922L49.4961 125L48.6815 126.903L48.6894 126.899ZM48.3095 126.637H50.7179L50.8902 127.375H48.149L48.3134 126.637H48.3095Z" fill="white"/>
<path d="M51.6033 123.531H55.2217V124.335H53.8511V128.707H52.97V124.335H51.6072V123.531H51.6033Z" fill="white"/>
<path d="M56.7326 123.531V128.707H55.8594V123.531H56.7326ZM56.3763 123.531H57.4571C57.8331 123.531 58.1581 123.597 58.44 123.73C58.7181 123.863 58.9374 124.05 59.0901 124.289C59.2428 124.527 59.3211 124.808 59.3211 125.137C59.3211 125.465 59.2428 125.746 59.0901 125.988C58.9374 126.231 58.722 126.418 58.44 126.551C58.162 126.684 57.8331 126.75 57.4571 126.75H56.3763V126.031H57.4219C57.6177 126.031 57.7939 125.996 57.9427 125.926C58.0915 125.855 58.209 125.758 58.2951 125.625C58.3774 125.496 58.4204 125.34 58.4204 125.156C58.4204 124.973 58.3774 124.812 58.2951 124.683C58.2129 124.554 58.0954 124.457 57.9427 124.386C57.79 124.316 57.6177 124.281 57.4219 124.281H56.3763V123.527V123.531ZM57.8722 126.238L59.6305 128.707H58.5771L56.9245 126.238H57.8722Z" fill="white"/>
<path d="M61.1504 123.531V128.707H60.2693V123.531H61.1504Z" fill="white"/>
<path d="M63.1988 127.082C63.3633 127.36 63.5825 127.571 63.8527 127.723C64.123 127.875 64.4167 127.95 64.7299 127.95C64.9766 127.95 65.1999 127.918 65.3957 127.852C65.5915 127.785 65.7716 127.699 65.9322 127.59C66.0927 127.481 66.2337 127.356 66.3512 127.215V128.25C66.1319 128.426 65.9008 128.563 65.6463 128.657C65.3957 128.75 65.0785 128.797 64.6986 128.797C64.3188 128.797 63.9624 128.735 63.6335 128.606C63.3045 128.477 63.0186 128.293 62.7758 128.051C62.533 127.809 62.3451 127.524 62.208 127.196C62.071 126.867 62.0044 126.508 62.0044 126.121C62.0044 125.734 62.071 125.371 62.208 125.047C62.3451 124.719 62.533 124.433 62.7758 124.191C63.0186 123.949 63.3045 123.765 63.6335 123.636C63.9624 123.507 64.3149 123.445 64.6986 123.445C65.0824 123.445 65.3957 123.492 65.6463 123.586C65.8969 123.679 66.1319 123.816 66.3512 123.992V125.027C66.2337 124.89 66.0927 124.765 65.9322 124.652C65.7716 124.543 65.5915 124.453 65.3957 124.39C65.1999 124.328 64.9766 124.293 64.7299 124.293C64.4127 124.293 64.119 124.367 63.8527 124.519C63.5825 124.668 63.3672 124.883 63.1988 125.156C63.0343 125.43 62.9521 125.75 62.9521 126.121C62.9521 126.492 63.0343 126.805 63.1988 127.082Z" fill="white"/>
<path d="M70.5256 123.531V128.707H69.6523V123.531H70.5256ZM70.1732 123.531H71.254C71.6299 123.531 71.955 123.597 72.2369 123.73C72.5189 123.863 72.7343 124.05 72.887 124.289C73.0397 124.527 73.118 124.808 73.118 125.137C73.118 125.465 73.0397 125.746 72.887 125.988C72.7343 126.231 72.5189 126.418 72.2369 126.551C71.9589 126.684 71.6299 126.75 71.254 126.75H70.1732V126.031H71.2188C71.4146 126.031 71.5908 125.996 71.7396 125.926C71.8884 125.855 72.0059 125.758 72.092 125.625C72.1782 125.492 72.2174 125.34 72.2174 125.156C72.2174 124.973 72.1743 124.812 72.092 124.683C72.0098 124.554 71.8923 124.457 71.7396 124.386C71.5869 124.316 71.4146 124.281 71.2188 124.281H70.1732V123.527V123.531ZM71.6691 126.238L73.4274 128.707H72.374L70.7214 126.238H71.6691Z" fill="white"/>
<path d="M74.9231 123.531V128.707H74.0615V123.531H74.9231ZM74.6019 123.531H77.2178V124.3H74.6019V123.531ZM74.6019 125.558H77.069V126.312H74.6019V125.558ZM74.6019 127.938H77.2178V128.707H74.6019V127.938Z" fill="white"/>
<path d="M79.1719 123.531V128.707H78.2986V123.531H79.1719ZM78.6432 125.527H82.3438V126.332H78.6432V125.527ZM82.6532 123.531V128.707H81.7799V123.531H82.6532Z" fill="white"/>
<path d="M84.9757 126.899L84.9601 127.09L84.2395 128.711H83.2527L85.7863 123.246L88.32 128.711H87.3332L86.6283 127.137L86.6048 126.922L85.7824 125L84.9679 126.903L84.9757 126.899ZM84.5959 126.637H87.0042L87.1726 127.375H84.4314L84.5959 126.637Z" fill="white"/>
<path d="M89.5922 125.609H90.4302C90.5947 125.609 90.7357 125.582 90.861 125.527C90.9863 125.472 91.0803 125.394 91.1508 125.293C91.2213 125.191 91.2565 125.07 91.2565 124.925C91.2565 124.707 91.1782 124.543 91.0255 124.421C90.8728 124.304 90.673 124.246 90.4342 124.246H89.8037V127.988H90.5321C90.7279 127.988 90.9041 127.957 91.0568 127.891C91.2095 127.828 91.3309 127.731 91.421 127.602C91.5111 127.473 91.5541 127.312 91.5541 127.121C91.5541 126.984 91.5267 126.859 91.4758 126.754C91.4249 126.648 91.3505 126.558 91.2604 126.488C91.1704 126.418 91.0607 126.363 90.9393 126.332C90.8179 126.301 90.6809 126.285 90.5321 126.285H89.6V125.804H90.5869C90.8375 125.804 91.0764 125.832 91.2996 125.886C91.5228 125.941 91.7225 126.023 91.8949 126.137C92.0711 126.25 92.2081 126.394 92.306 126.574C92.4039 126.75 92.4548 126.965 92.4548 127.211C92.4548 127.551 92.3726 127.832 92.2121 128.055C92.0515 128.277 91.8322 128.442 91.5502 128.547C91.2722 128.653 90.9472 128.707 90.583 128.707H88.9304V123.531H90.4929C90.8179 123.531 91.1077 123.578 91.3583 123.671C91.609 123.765 91.8048 123.91 91.9457 124.101C92.0867 124.292 92.1572 124.539 92.1572 124.832C92.1572 125.089 92.0867 125.304 91.9457 125.488C91.8048 125.668 91.609 125.804 91.3583 125.898C91.1077 125.992 90.8219 126.039 90.4929 126.039H89.5961V125.609H89.5922Z" fill="white"/>
<path d="M94.2566 123.531V128.707H93.3755V123.531H94.2566Z" fill="white"/>
<path d="M96.2851 123.531V127.922H98.345V128.707H95.408V123.531H96.2812H96.2851Z" fill="white"/>
<path d="M99.8604 123.531V128.707H98.9792V123.531H99.8604Z" fill="white"/>
<path d="M100.498 123.531H104.117V124.335H102.746V128.707H101.865V124.335H100.502V123.531H100.498Z" fill="white"/>
<path d="M105.174 126.899L105.159 127.09L104.438 128.711H103.451L105.985 123.246L108.519 128.711H107.532L106.827 127.137L106.804 126.922L105.981 125L105.167 126.903L105.174 126.899ZM104.799 126.637H107.207L107.375 127.375H104.634L104.799 126.637Z" fill="white"/>
<path d="M108.088 123.531H111.706V124.335H110.335V128.707H109.454V124.335H108.092V123.531H108.088Z" fill="white"/>
<path d="M113.226 123.531V128.707H112.344V123.531H113.226Z" fill="white"/>
<path d="M114.286 125.047C114.42 124.722 114.607 124.437 114.854 124.199C115.097 123.961 115.387 123.773 115.716 123.64C116.045 123.507 116.401 123.441 116.781 123.441C117.161 123.441 117.529 123.507 117.858 123.64C118.183 123.773 118.469 123.961 118.715 124.199C118.958 124.437 119.15 124.718 119.283 125.047C119.416 125.371 119.483 125.73 119.483 126.117C119.483 126.504 119.416 126.859 119.283 127.188C119.15 127.52 118.962 127.805 118.719 128.047C118.477 128.289 118.191 128.477 117.862 128.614C117.533 128.75 117.172 128.817 116.785 128.817C116.397 128.817 116.041 128.75 115.708 128.614C115.375 128.477 115.093 128.289 114.85 128.047C114.611 127.805 114.423 127.52 114.29 127.188C114.157 126.856 114.091 126.5 114.091 126.117C114.091 125.734 114.157 125.371 114.29 125.047H114.286ZM115.238 127.07C115.387 127.348 115.598 127.567 115.865 127.727C116.131 127.887 116.436 127.965 116.777 127.965C117.118 127.965 117.427 127.887 117.693 127.727C117.96 127.567 118.167 127.352 118.316 127.07C118.465 126.789 118.543 126.477 118.543 126.121C118.543 125.765 118.469 125.449 118.32 125.172C118.171 124.894 117.964 124.675 117.701 124.515C117.439 124.359 117.129 124.277 116.777 124.277C116.425 124.277 116.131 124.355 115.865 124.515C115.598 124.672 115.391 124.89 115.238 125.172C115.089 125.449 115.011 125.765 115.011 126.121C115.011 126.477 115.085 126.793 115.238 127.07Z" fill="white"/>
<path d="M124.974 123.531V128.965L121.187 125.23V128.707H120.326V123.273L124.112 127.008V123.531H124.974Z" fill="white"/>
<path d="M129.242 127.082C129.406 127.36 129.626 127.571 129.896 127.723C130.166 127.875 130.456 127.95 130.773 127.95C131.02 127.95 131.243 127.918 131.439 127.852C131.635 127.785 131.815 127.699 131.975 127.59C132.136 127.481 132.277 127.356 132.394 127.215V128.25C132.175 128.426 131.94 128.563 131.69 128.657C131.439 128.75 131.122 128.797 130.742 128.797C130.362 128.797 130.006 128.735 129.677 128.606C129.348 128.477 129.062 128.293 128.819 128.051C128.576 127.809 128.388 127.524 128.251 127.196C128.114 126.867 128.048 126.508 128.048 126.121C128.048 125.734 128.114 125.371 128.251 125.047C128.388 124.719 128.576 124.433 128.819 124.191C129.062 123.949 129.348 123.765 129.677 123.636C130.006 123.507 130.362 123.445 130.742 123.445C131.122 123.445 131.439 123.492 131.69 123.586C131.94 123.679 132.175 123.816 132.394 123.992V125.027C132.277 124.89 132.136 124.765 131.975 124.652C131.815 124.543 131.635 124.453 131.439 124.39C131.243 124.328 131.02 124.293 130.773 124.293C130.456 124.293 130.162 124.367 129.896 124.519C129.626 124.668 129.41 124.883 129.242 125.156C129.078 125.43 128.995 125.75 128.995 126.121C128.995 126.492 129.078 126.805 129.242 127.082Z" fill="white"/>
<path d="M134.345 123.531V127.922H136.405V128.707H133.468V123.531H134.341H134.345Z" fill="white"/>
<path d="M137.92 123.531V128.707H137.039V123.531H137.92Z" fill="white"/>
<path d="M143.723 123.531V128.965L139.936 125.23V128.707H139.075V123.273L142.862 127.008V123.531H143.723Z" fill="white"/>
<path d="M145.752 123.531V128.707H144.871V123.531H145.752Z" fill="white"/>
<path d="M147.804 127.082C147.969 127.36 148.188 127.571 148.458 127.723C148.729 127.875 149.018 127.95 149.336 127.95C149.582 127.95 149.806 127.918 150.001 127.852C150.197 127.785 150.377 127.699 150.538 127.59C150.698 127.481 150.839 127.356 150.957 127.215V128.25C150.738 128.426 150.503 128.563 150.252 128.657C150.001 128.75 149.684 128.797 149.304 128.797C148.924 128.797 148.568 128.735 148.239 128.606C147.91 128.477 147.624 128.293 147.382 128.051C147.139 127.809 146.951 127.524 146.814 127.196C146.677 126.867 146.61 126.508 146.61 126.121C146.61 125.734 146.677 125.371 146.814 125.047C146.951 124.719 147.139 124.433 147.382 124.191C147.624 123.949 147.91 123.765 148.239 123.636C148.568 123.507 148.924 123.445 149.304 123.445C149.684 123.445 150.001 123.492 150.252 123.586C150.503 123.679 150.738 123.816 150.957 123.992V125.027C150.839 124.89 150.698 124.765 150.538 124.652C150.377 124.543 150.197 124.453 150.001 124.39C149.806 124.328 149.582 124.293 149.336 124.293C149.018 124.293 148.725 124.367 148.458 124.519C148.188 124.668 147.973 124.883 147.804 125.156C147.64 125.43 147.558 125.75 147.558 126.121C147.558 126.492 147.64 126.805 147.804 127.082Z" fill="white"/>
<path d="M113.214 50.1071H113.218L113.214 50.1028V50.1071Z" fill="#EDD6A0"/>
<path d="M95.5952 50.3234C95.5616 50.2691 95.4735 50.1521 95.5658 50.2858C95.5742 50.2984 95.5826 50.3109 95.5952 50.3234Z" fill="#EDD6A0"/>
<path d="M96.0056 50.8219C95.9546 50.7711 95.9248 50.7414 95.9163 50.7329C95.9503 50.7753 95.9886 50.8219 96.0056 50.8219Z" fill="#EDD6A0"/>
<path d="M118.256 50.1825C118.256 50.1825 118.269 50.191 118.273 50.1953C118.299 50.2252 118.196 50.0884 118.261 50.1868L118.256 50.1825Z" fill="#EDD6A0"/>
<path d="M118.323 50.2068C118.357 50.2068 118.398 50.2068 118.419 50.2194C118.352 50.1734 118.315 50.1943 118.323 50.2068Z" fill="#EDD6A0"/>
<path d="M121.882 49.5231C119.727 46.531 115.232 48.541 113.766 48.5865C112.3 48.6321 110.641 45.1924 106.585 44.5501C100.6 43.6011 99.8603 46.9579 98.5905 45.8638C97.4418 44.8775 95.1026 44.3677 93.2647 46.1332C90.6999 48.599 92.116 53.1286 95.6289 53.9202C97.1285 54.26 97.9347 56.0171 98.1937 58.0271C98.5571 60.8037 98.6657 63.7254 97.3081 65.3085C96.6941 66.0254 94.9982 66.7299 95.4702 68.7274C96.0383 71.1435 99.3758 73.3441 99.3758 73.3441L103.916 74.5998C103.916 74.5998 104.606 74.2766 103.169 72.3744C101.732 70.4763 101.498 67.3723 103.628 67.3018C107.02 67.1858 108.971 74.0859 108.971 74.0859C108.971 74.0859 109.443 70.8203 110.236 70.1531C110.662 69.7925 112.016 69.892 112.479 70.2111C113.231 70.7291 111.915 75.0971 112.918 74.202C114.067 73.1742 115.119 71.3715 114.605 68.2923C113.185 59.8464 119.643 59.3905 121.828 55.2877C122.772 53.5099 123.035 51.1269 121.886 49.5314L121.882 49.5231ZM99.4301 70.5716C98.9873 70.323 98.7659 69.1958 98.9079 68.6404C99.1753 67.5712 99.7267 67.4635 100.265 67.3723C100.441 67.3433 101.585 67.2811 101.414 68.7109C101.322 69.4776 100.341 71.0855 99.4301 70.5716ZM100.579 65.9342C99.9522 66.7009 98.8369 67.5422 97.9013 67.3723C96.7442 67.1651 98.6699 65.669 99.1377 64.8402C99.9857 63.3358 99.8562 62.1091 99.8562 60.9239C99.8562 59.4403 98.5863 55.0764 99.7643 55.4204C100.286 55.5696 100.884 55.984 101.001 56.4647C101.368 57.9774 101.669 59.5232 101.761 61.0772C101.857 62.6645 101.631 64.6495 100.579 65.9384V65.9342ZM102.676 66.8377C102.55 66.7299 102.116 65.9674 102.074 65.8348C101.727 64.7241 103.181 63.8497 103.845 64.4631C103.946 64.5542 104.125 65.0515 104.167 65.1883C104.213 65.3043 104.25 65.4287 104.246 65.553C104.217 66.8294 103.073 67.2065 102.676 66.8377ZM107.279 51.4046C108.16 50.7208 109.522 51.8895 109.593 51.9599C110.015 52.3744 109.915 53.2115 109.635 53.5223C109.275 53.9201 108.102 53.9616 107.538 53.4974C107.103 53.1369 106.631 51.7693 107.279 51.4046ZM119.835 55.8265C119.259 56.4771 118.565 57.2562 117.805 57.6707C114.455 59.4941 113.645 61.2844 113.411 62.4614C113.106 63.9865 112.634 68.9512 113.44 71.0606C113.553 71.359 110.838 69.9956 110.792 69.7635C110.103 66.0006 111.276 60.8866 111.865 59.8795C112.671 58.5037 113.331 58.4664 116.539 56.1912C118.494 54.807 119.184 51.819 117.304 51.6698C116.652 51.616 113.954 53.4809 112.362 52.163C111.523 51.4668 110.437 49.2538 107.651 48.3628C103.014 46.8791 100.579 49.8091 100.6 49.8837C100.738 50.3603 100.909 50.928 100.391 51.0275C99.7476 51.1477 99.1084 50.899 98.649 50.4514C98.5404 50.3437 97.9681 49.3284 97.2246 48.8186C96.4811 48.3089 95.6749 48.1141 95.4451 48.5161C95.2154 48.9181 95.3825 49.6889 95.8461 50.2442C96.9197 51.5372 98.0809 51.616 98.39 51.6533C99.4635 51.7776 99.6097 53.456 98.344 53.3068C96.8111 53.1286 95.4911 52.7722 94.5304 51.5207C93.8453 50.6255 93.2898 49.6267 93.3817 48.4829C93.4318 47.8862 93.6072 47.3267 94.0249 46.8791C94.4886 46.3901 95.1277 46.1953 95.7877 46.2533C96.7233 46.3321 97.5671 46.9247 98.2814 47.4842C98.649 47.7743 98.9372 48.1265 99.2212 48.4871C100.174 47.0698 101.974 46.3487 103.699 46.0876C106.197 45.7105 108.365 46.1995 110.437 47.5961C111.076 48.0271 111.652 48.5244 112.174 49.0921C112.484 49.4237 113.077 50.1241 113.402 50.0909C113.557 50.0743 113.716 50.0495 113.866 50.0205C114.547 49.8878 115.211 49.6972 115.892 49.5729C117.367 49.2994 119.342 49.1336 120.52 50.5716C121.757 52.0884 120.988 54.5128 119.823 55.8265H119.835Z" fill="#F6E9D9"/>
<path d="M79.2542 24.6452C77.433 24.7032 75.9961 27.6497 76.1297 26.0127C76.3803 23.9531 77.763 22.2705 79.8933 22.3451C82.1823 22.428 84.8431 24.7695 84.7596 27.0364C84.676 29.3074 82.1865 30.8863 79.8974 30.8035C79.8849 30.8035 79.8724 30.8035 79.8599 30.8035C77.7045 30.3849 82.0528 30.215 82.458 28.1429C82.8507 26.1288 81.326 24.583 79.2584 24.6452H79.2542Z" fill="white"/>
<path d="M74.2462 40.2398C75.4534 40.2771 76.5895 39.0422 76.4475 38.0558C76.1008 35.6025 72.7048 37.0322 71.4684 35.6812C70.7207 34.8648 71.3347 33.7044 72.1409 34.4089C73.1977 35.3331 74.3965 35.3414 75.4074 35.3787C76.5853 35.4243 78.0473 35.9671 78.4233 36.9369C79.0749 38.6194 77.7299 40.1321 77.2662 40.5258C75.2403 42.2291 72.4041 41.2676 70.6372 39.6348C70.3364 39.3571 70.587 38.6899 70.9129 38.8971C71.6982 39.3903 72.3832 40.186 74.2462 40.2481V40.2398Z" fill="white"/>
<path d="M60.1445 30.128C61.147 32.4488 64.568 31.7525 63.2522 32.5607C62.9181 32.6891 62.5588 32.7803 62.1871 32.8259C59.9147 33.1118 57.467 31.537 57.1787 29.2826C56.8905 27.0281 59.1503 24.6576 61.4227 24.3717C63.695 24.0857 65.5454 26.1951 65.8337 28.4496C65.8337 28.4579 65.8337 28.4662 65.8337 28.4745C65.6373 29.1914 65.1444 26.7256 62.6758 26.8209C61.1804 26.8789 59.4594 28.5325 60.1486 30.128H60.1445Z" fill="white"/>
<path d="M78.1888 76.7257C78.995 74.9023 83.0384 64.3096 70.9875 60.3229C68.0008 59.3366 64.9348 57.5877 69.4545 53.4808C71.9524 51.2139 68.6901 46.2574 62.4829 48.918C58.3601 50.6876 58.7862 45.6772 52.2908 44.9644C40.4905 43.6714 34.3669 54.1066 39.5715 56.8998C43.3685 58.9387 38.8155 63.6424 38.8155 63.6424C37.9884 64.9147 36.28 65.5902 35.8247 66.6926C30.2316 80.2732 52.224 81.9101 56.2089 80.7373C57.2866 80.4224 60.5656 78.8393 59.9975 77.4924C58.0009 72.7431 58.7862 71.0357 59.5213 70.9652C60.244 70.8948 61.8187 71.1186 62.4745 72.0717C63.1304 73.0249 62.8588 74.7158 63.3517 76.821C64.6299 72.9876 68.5397 71.8024 69.5756 72.6271C70.7744 73.5761 70.8789 73.9574 70.4277 76.5599C70.2481 77.5836 65.9415 78.9387 65.6659 80.1488C65.4695 80.9984 71.5472 81.9309 71.4887 82.7597C71.3968 84.1356 71.4469 84.7158 70.7703 85.8471C70.3358 86.5724 63.2431 83.7336 63.5105 84.5003C64.3083 86.7962 65.7494 87.9193 65.8705 88.0104C68.2849 89.8339 77.1152 89.2081 78.5146 85.959C80.4319 81.5081 76.5054 80.5343 78.1888 76.7216V76.7257ZM48.5398 77.2769C47.5623 77.3929 46.5347 77.136 45.6492 76.734C43.6317 75.814 37.7002 72.5152 41.2758 64.7365C41.9901 63.1782 42.8338 65.0804 42.2616 66.2947C41.752 67.3681 41.6267 70.2897 42.4537 71.8811C43.4688 73.8413 45.5865 74.4091 46.1212 74.55C49.2123 75.3664 49.8472 77.1194 48.5398 77.2727V77.2769ZM55.3108 73.1658C52.8881 73.804 49.9558 73.6797 47.7962 72.2292C46.9023 71.6325 46.2382 70.7829 45.8288 69.78C43.8447 64.8857 46.9566 61.8604 47.0151 59.3075C47.036 58.4248 47.32 56.7133 45.1772 54.9644C44.0118 54.0154 41.351 54.0278 40.9625 53.5927C40.6534 53.2446 40.8247 52.7141 41.3009 52.5981C43.5356 52.0344 45.975 52.3784 47.6291 54.0817C48.828 55.3125 49.4713 56.9744 49.5799 58.6735C49.6342 59.4899 49.5548 60.3312 49.3376 61.1227C49.0327 62.2375 48.4771 63.2777 48.1471 64.3884C47.8798 65.2877 47.3702 68.5284 48.6901 70.0535C50.219 71.8148 51.9733 72.279 55.645 72.1712C56.5138 72.1463 56.0167 72.9793 55.3066 73.1658H55.3108ZM53.4938 66.3071C52.1571 64.7199 52.1696 62.0096 52.9341 60.1696C53.7569 58.1928 54.3501 56.6387 54.4503 54.4339C54.5213 52.8716 54.2916 51.9847 53.1346 51.0481C50.0769 48.5823 47.508 50.1405 46.0251 49.0382C45.6701 48.773 45.8748 48.1306 46.3635 48.0436C49.0201 47.5545 51.9775 47.5918 54.2958 49.1501C55.7912 50.1571 56.8605 51.6615 57.0944 53.4601C57.3785 55.6275 56.4637 57.7203 55.5364 59.6225C54.8263 61.0771 53.9032 62.9669 55.0393 64.4713C56.589 66.5226 62.2615 66.3734 61.3927 67.5587C61.2506 67.7535 59.8304 68.6611 58.0092 68.5036C56.188 68.3461 54.4462 67.4385 53.498 66.3113L53.4938 66.3071ZM77.3701 84.4132C75.081 83.6258 73.5188 83.0456 73.0008 79.7386C72.8087 78.5202 73.0802 76.6097 73.4519 75.4327C75.3358 69.5313 72.7669 67.7328 72.5121 67.6084C67.1362 65.01 64.2415 67.5463 61.6391 64.5044C60.5489 63.2321 56.9482 59.1956 63.6149 52.1256C64.3626 51.3299 65.9541 51.2387 66.2966 51.707C66.472 51.9433 65.812 52.8591 64.4211 54.2516C60.0936 58.5864 62.4161 63.4476 64.843 63.601C74.0409 64.1853 76.0961 66.7216 76.4386 69.5313C77.1027 74.9644 73.5021 77.3722 75.1228 80.8119C75.4026 81.4045 77.8671 83.2487 78.076 83.6217C78.1178 83.6963 78.7527 84.8898 77.3701 84.4132Z" fill="#A0D7E5"/>
<path d="M61.0377 64.3178C61.0377 64.3178 61.0463 64.3263 61.0549 64.3391C61.0463 64.3306 61.042 64.3221 61.0334 64.3135L61.0377 64.3178Z" fill="#A0D7E5"/>
<path d="M93.2077 75.7145C93.2077 75.7145 93.182 75.7188 93.1648 75.7273C93.1777 75.7273 93.1906 75.7188 93.2034 75.7188C93.2034 75.7188 93.2034 75.7188 93.2077 75.7188V75.7145Z" fill="#82A6A6"/>
<path d="M93.6617 75.42C93.6531 75.4243 93.6446 75.4328 93.636 75.4414C93.636 75.4414 93.6446 75.4328 93.6489 75.4328C93.6531 75.4328 93.6488 75.4328 93.6574 75.4243L93.6617 75.42Z" fill="#82A6A6"/>
<path d="M104.902 79.3407C104.43 79.3117 103.218 79.32 101.213 78.5036C100.019 78.0187 97.5959 77.7576 96.9192 77.1028C95.3778 77.9897 93.1723 78.5699 91.6728 76.734C91.3804 76.3776 90.8374 75.3747 91.6602 74.9188C92.0988 74.6743 92.7463 75.6606 94.0537 75.9466C94.6677 76.0792 95.1941 76.3486 96.1631 75.3995C96.184 75.1965 96.5224 74.9271 96.3386 74.7738C95.5784 74.1273 92.2325 72.7514 92.1824 68.7273C92.1699 67.5711 93.8574 63.2072 92.0613 60.5922C90.9794 59.0174 89.6887 58.7025 88.7321 58.6735C86.9568 58.6196 85.403 59.5313 84.5258 61.0688C84.1665 61.7029 83.4314 61.2304 83.1473 60.9735C82.2325 60.1488 81.8441 60.1364 81.1548 59.8711C81.0086 59.8131 79.4715 59.6391 80.2192 60.8202C83.2392 65.5902 82.6252 70.5093 82.2451 72.4115C80.4072 81.649 86.3428 84.4754 88.0095 85.1633C92.2826 86.9205 96.6143 86.6179 100.708 84.3635C101.176 84.1065 102.934 86.647 102.471 86.8997C97.3912 89.693 90.4948 89.751 85.3654 87.1401C81.2509 85.0473 79.2041 80.6627 79.2752 76.2077C79.2919 75.1426 80.3445 72.6561 80.4573 69.8338C80.5241 68.1016 80.1482 64.7282 78.8491 62.3162C78.4857 61.6449 77.1699 58.6859 77.2326 57.9938C77.3955 56.104 80.4949 57.194 81.3679 57.6954C82.1406 58.1388 82.9635 58.8434 83.6653 59.407C86.8148 55.7269 91.4138 56.6221 92.976 57.9814C95.5742 60.24 94.5299 66.2035 94.5257 66.763C94.484 71.9474 97.9175 73.3274 97.692 73.46C98.8323 73.0871 100.081 73.7377 100.081 73.7377C100.081 73.7377 95.7329 70.1115 95.9752 67.1815C96.2133 64.2516 98.2601 59.9623 93.5984 56.3858C89.3712 53.1409 83.2559 56.8417 83.2559 56.8417C83.2559 56.8417 79.7263 54.6743 76.6269 55.8305C75.3487 56.3071 74.2794 58.7895 76.9151 63.1409C77.4748 64.0651 78.657 67.1525 78.6611 69.6888C78.6653 73.4683 77.1866 75.1757 77.5876 79.1169C77.9844 83.0539 79.7054 86.937 85.6452 89.722C96.255 94.7033 104.196 86.821 104.196 86.821C102.278 86.1745 100.883 84.8856 101.397 83.5139C101.999 81.9142 104.363 80.0825 104.893 79.3324L104.902 79.3407ZM87.2367 62.8094C87.3161 62.0178 89.154 60.6295 89.8683 61.8189C90.3069 62.5524 89.4297 63.3606 89.0704 63.6589C88.5358 64.1024 87.1156 63.9946 87.2367 62.8094ZM100.39 79.0547C98.494 81.62 93.3729 82.9627 90.8875 81.8852C88.4188 80.8119 86.2217 78.6776 87.0278 74.4671C87.2283 73.4145 89.1331 74.2474 88.9994 75.1923C88.7488 76.9578 89.7973 78.8351 91.4263 79.4443C93.3144 80.1488 96.4806 80.0784 98.2434 77.8363C98.5692 78.1927 100.495 78.9055 100.39 79.0506V79.0547Z" fill="#FACA72"/>
<path d="M94.0454 47.5418C94.0454 47.5418 94.084 47.5589 94.1012 47.5589C94.084 47.5589 94.0669 47.5504 94.0454 47.5418Z" fill="#82A6A6"/>
<path d="M92.4375 48.1097C92.4459 48.2435 92.5046 48.2518 92.4375 48.1097V48.1097Z" fill="#82A6A6"/>
<path d="M99.2294 11.0437C108.056 10.8116 115.253 14.2389 119.2 20.6044C123.147 26.97 123.64 32.4486 123.147 36.0417C122.655 39.6347 122.287 41.1888 122.287 41.1888L102.45 28.9053L89.125 12.8879C89.125 12.8879 94.7515 11.1598 99.2252 11.0437H99.2294Z" fill="#F3A366"/>
<path d="M141.247 59.2994C140.069 55.0143 137.646 51.0317 134.438 47.9401C133.519 47.0532 132.976 46.6264 131.902 45.9384C130.403 44.9728 127.446 45.2505 127.441 45.9177C127.433 46.5228 131.848 48.8228 134.296 52.1465C135.507 53.7917 139.016 59.6102 139.275 63.398C139.73 70.0785 136.531 75.5945 134.985 77.5381C132.759 80.3396 128.548 81.7196 125.867 82.0222C114.321 83.3317 110.044 81.5249 108.398 81.5663C106.848 81.6036 106.334 85.0848 104.517 85.6359C103.644 85.9012 102.162 85.6566 102.182 84.6662C102.216 82.851 104.083 81.5124 105.223 80.4225C105.374 80.2775 106.184 79.5273 106.218 79.2953C106.297 78.7648 105.833 78.6322 103.114 78.4208C101.188 78.2716 96.9193 77.6873 97.4623 75.1138C97.5709 74.5957 98.5066 73.8705 99.7054 74.0694C101.289 74.3305 102.563 74.9356 103.895 75.8141C105.662 76.9787 106.827 76.7466 106.602 76.1415C106.23 75.1593 104.86 73.2281 104.229 72.3868C103.565 71.5 102.675 70.5758 102.675 69.3947C102.675 68.3504 103.899 67.8572 104.568 68.425C105.482 69.2041 105.9 70.5178 106.376 71.5953C106.715 72.3661 107.997 75.582 108.899 76.4813C109.584 77.1651 110.299 73.2489 110.353 72.0595C110.403 70.9861 111.121 70.5261 111.723 70.9488C112.717 71.6533 111.898 73.6674 111.322 74.9687C111.096 75.4784 110.942 75.8846 110.959 76.4606C110.996 78.0769 112.734 78.4208 113.302 78.4457C114.079 78.483 117.479 79.1668 121.192 77.9152C123.477 77.1444 125.783 75.5572 127.17 73.5804C128.222 72.0802 128.653 69.519 128.974 67.7287C128.974 67.708 129.062 67.3724 128.878 67.4262C127.989 67.6707 126.844 68.4043 126.522 69.7263C126.046 71.674 124.68 73.6467 122.166 75.2671C119.764 76.8129 117.283 76.8046 115.825 76.8833C114.772 76.9372 112.262 76.8833 113.164 75.0599C113.477 74.4258 113.816 73.6053 113.97 72.9132C114.125 72.2294 114.096 70.6877 113.051 69.95C112.111 69.2828 110.85 68.943 109.931 69.7014C109.48 70.0744 108.916 71.1063 108.916 73.3317C108.707 71.8315 107.308 68.628 106.184 67.7578C104.672 66.5849 102.182 65.9757 101.03 68.3462C100.445 69.5522 100.766 70.6338 101.393 71.5994C101.949 72.4614 102.583 73.2696 103.214 74.0777C102.629 73.8 102.032 73.5389 101.41 73.3607C100.416 73.0706 99.2919 72.88 98.2727 73.0085C96.8984 73.1784 95.6035 73.9368 95.4573 75.4867C95.3529 76.6057 96.1925 77.5671 97.0989 78.1142C98.2685 78.8228 99.6637 79.0964 101.009 79.2621C101.99 79.3864 102.993 79.3616 103.974 79.4942C103.933 79.4901 104.104 79.5149 104.104 79.5191C104.104 79.6765 103.824 79.921 103.72 80.0329C103.118 80.6836 102.425 81.243 101.848 81.9186C101.234 82.6314 100.549 83.5721 100.499 84.5419C100.457 85.3831 100.929 86.1664 101.627 86.6264C102.512 87.2107 103.611 87.0947 104.614 86.9579C105.695 86.8088 106.485 86.386 107.107 85.4743C107.567 84.7988 107.721 83.8498 108.314 83.2737C108.36 83.2281 108.778 83.2198 108.937 83.2654C109.538 83.4353 110.123 83.6467 110.733 83.7835C114.609 84.662 118.653 84.9065 122.613 84.6123C126.564 84.3181 130.733 83.5887 134.129 81.442C137.366 79.3989 139.53 75.8763 140.796 72.3537C142.299 68.168 142.445 63.5887 141.268 59.3077L141.247 59.2994Z" fill="white"/>
<path d="M70.4245 85.2174C70.4245 85.2174 70.4245 85.2087 70.4158 85.2174H70.4201C70.4201 85.2174 70.4201 85.2174 70.4245 85.2174Z" fill="white"/>
<path d="M72.884 83.6631C72.7253 82.1463 71.6267 81.1268 70.2733 80.5383C69.488 80.1943 68.6568 79.9581 67.8089 79.7799C69.935 78.7066 71.823 77.0945 71.8773 74.6328C71.9024 73.3854 71.351 72.1214 70.1438 71.6075C68.6359 70.9652 66.7604 71.7194 65.5908 72.7099C65.0645 73.1575 64.6175 73.6838 64.2165 74.2474C64.1539 73.5884 64.0453 72.9378 63.8615 72.3037C63.2851 70.3394 61.2884 69.0796 59.25 69.8089C57.2366 70.53 56.4973 72.7306 57.2199 74.6162C57.5123 75.3746 58.2266 76.3692 57.9509 77.2147C57.7253 77.9067 57.0779 79.2951 54.6218 79.7758C54.0579 79.8877 50.6995 80.4181 47.0905 79.5727C43.565 78.748 39.9059 77.0945 37.5917 74.2557C36.5516 72.9834 35.7831 71.4335 35.7455 69.7675C35.6995 67.8653 37.1949 65.5943 38.4272 64.1852C38.7613 63.804 35.7246 64.0443 35.1105 64.84C34.012 66.2697 33.3645 67.3763 33.1181 69.1749C32.9092 70.7165 33.2559 72.3037 33.966 73.6796C35.6745 76.9784 39.0412 79.1832 42.4497 80.472C45.9292 81.7899 50.5491 82.0965 54.2458 81.4873C55.996 81.1973 57.859 80.7165 59.0578 79.3738C59.6886 78.6693 60.2734 77.8487 60.2274 76.8665C60.1773 75.7973 59.7888 74.4463 59.4797 73.4475C59.2583 72.7347 59.1915 71.0356 60.5407 71.3547C60.9918 71.4625 61.3427 71.8562 61.5557 72.2582C61.986 73.058 62.0779 74.0692 62.1364 74.9602C62.199 75.8968 62.1865 76.8375 62.1614 77.7741C62.1364 78.777 63.7236 78.5988 64.1079 77.9772C64.8264 76.8168 65.4362 75.9755 66.2758 74.8939C66.6393 74.4256 67.057 74.0609 67.5081 73.7708C68.4354 73.1782 69.3502 73.3978 69.6259 73.6589C70.6409 74.6079 69.0495 76.5972 68.2266 77.3058C67.082 78.2963 65.7788 78.9759 64.3544 79.4318C63.9785 79.552 63.5649 79.8835 63.5524 80.3104C63.5399 80.7165 63.9241 80.99 64.3001 81.0273C65.7161 81.1599 67.1363 81.3547 68.4814 81.823C69.417 82.1463 70.3318 82.6353 70.6994 83.6133C70.9459 84.2764 70.3778 85.2669 69.488 85.1094C68.7946 84.9851 68.1347 84.6991 67.4789 84.4463C66.1631 83.9366 64.8139 83.2238 63.3895 83.0704C62.7337 83 61.6351 83.6755 62.1698 84.4132C63.0929 85.6813 64.6008 86.937 64.4129 88.4952C64.3377 89.1417 63.7403 89.2951 63.3769 89.2536C61.8774 89.0961 61.0879 87.1815 60.4321 85.9258C59.5841 84.3013 57.9592 83.7335 56.1923 83.7252C54.3419 83.7169 45.7371 84.5706 43.4564 84.5292C34.5926 84.3634 29.2375 81.6407 27.6711 80.501C25.946 79.2453 24.1248 77.8694 23.2267 75.9382C23.0011 75.4575 21.4473 75.1674 20.5659 74.8649C20.1858 74.7322 20.8249 75.9797 21.0505 76.4646C21.9569 78.4165 23.2309 80.1115 24.9017 81.4873C26.3804 82.7099 28.1139 83.605 29.8934 84.3178C31.5182 84.9685 33.2058 85.4741 34.885 85.9673C37.22 86.6552 39.6552 86.8127 42.0821 86.7836C44.555 86.7546 47.0194 86.4894 49.4714 86.191C51.4597 85.9465 53.448 85.4782 55.4488 85.387C56.1506 85.3539 56.9233 85.3953 57.529 85.7186C58.3728 86.1703 58.6777 87.1649 59.1205 87.9482C60.0186 89.5478 61.255 91.019 63.2391 91.1102C64.6426 91.1724 65.9124 90.3643 66.1714 88.9469C66.3803 87.8156 66.0002 86.651 65.4321 85.5777C65.9041 85.7808 66.3719 85.9838 66.8105 86.1454C68.1806 86.651 69.9433 87.2892 71.351 86.5806C72.412 86.046 73.0051 84.8193 72.8798 83.6631H72.884ZM63.849 89.4774C63.849 89.4774 63.8406 89.4815 63.8406 89.4857C63.8406 89.4857 63.8448 89.4857 63.849 89.4815V89.4774Z" fill="white"/>
<path d="M121.009 39.7133C121.581 35.9628 121.994 32.1584 121.013 28.4327C119.789 23.7829 116.439 19.1455 112.441 16.4435C106.514 12.4361 97.8759 12.2786 90.9419 13.7954C90.3279 13.1654 89.7013 12.5479 89.0414 11.9595C87.2912 10.4054 84.4424 7.30551 76.6312 5.57737C69.9604 4.10202 62.734 3.89481 56.4015 6.79162C51.0089 9.26158 46.836 14.7444 44.3506 20.0366C43.1267 22.6474 42.2871 25.4531 41.9739 28.3167C41.7107 30.7121 42.0365 33.124 41.1886 35.4323C40.3531 37.7075 37.9597 39.6594 36.268 41.3544C34.5637 43.0577 32.8051 44.7237 30.9505 46.2653C27.8511 48.8472 24.8311 51.5326 22.3749 54.7403C19.3632 58.6731 17.9514 63.3271 18.4401 68.3582C18.5696 69.7133 18.6281 70.824 19.2212 72.0507C19.6431 72.9251 20.7375 74.1228 22.6882 74.2596C23.2229 74.2969 22.2204 72.5687 22.2204 72.5687C21.3348 70.0697 21.0299 67.4174 21.4184 64.79C21.7734 62.4029 22.659 60.1278 23.8536 58.0349C26.0424 54.2057 29.1836 50.9897 32.5086 48.1178C33.5528 47.2185 34.6431 46.3689 35.6623 45.4448C37.8845 43.439 40.1902 41.4 42.0699 39.0627C43.4233 37.3801 44.2796 36.7129 44.5428 34.5621C44.6973 33.3064 44.6054 32.0424 44.689 30.7825C44.7767 29.4108 44.9939 28.0515 45.3155 26.7129C46.6647 21.0933 52.5294 10.8695 62.9345 8.66067C66.6312 7.87741 76.2051 8.78914 78.49 9.34446C80.754 9.89564 83.82 10.9358 85.6788 12.3117C89.5677 15.1878 100.712 29.5268 101.452 29.9827C102.822 30.8198 112.015 38.4576 114.76 40.0448C116.238 40.8986 118.628 42.4154 120.223 43.0204C122.926 44.0482 125.052 41.9719 125.131 41.9222C125.428 41.7357 120.984 39.8335 121 39.7092L121.009 39.7133ZM113.983 36.0208C111.347 34.1559 103.448 28.6938 103.206 28.5032C102.713 28.1178 96.0297 19.0129 93.419 16.2653C93.6571 16.228 99.2418 13.986 105.219 16.4187C109.112 18.0017 111.539 19.9951 114.108 23.2608C118.294 28.5819 119.442 32.6226 118.594 38.9881C117.011 38.0805 115.482 37.0817 113.987 36.025L113.983 36.0208Z" fill="white"/>
</svg>
