<svg width="240" height="47" viewBox="0 0 240 47" fill="none" xmlns="http://www.w3.org/2000/svg">
<path d="M23.3124 46.6248C36.1875 46.6248 46.6248 36.1875 46.6248 23.3124C46.6248 10.4373 36.1875 0 23.3124 0C10.4373 0 0 10.4373 0 23.3124C0 36.1875 10.4373 46.6248 23.3124 46.6248Z" fill="#7AA7A6"/>
<path d="M31.6614 14.7725C29.7982 14.8306 28.3251 17.8723 28.4579 16.1876C28.7152 14.0588 30.1343 12.3201 32.3129 12.399C34.6574 12.4861 37.3837 14.9012 37.3007 17.2457C37.2135 19.5902 34.6615 21.221 32.317 21.1339C32.3046 21.1339 32.2921 21.1339 32.2755 21.1339C30.0679 20.7023 34.5246 20.5239 34.9354 18.3868C35.3462 16.2498 33.7777 14.7103 31.6572 14.7767L31.6614 14.7725Z" fill="white"/>
<path d="M26.5284 30.8771C27.7649 30.9145 28.9268 29.6405 28.7857 28.6197C28.433 26.0885 24.9515 27.5657 23.6817 26.1673C22.9182 25.325 23.5448 24.1257 24.3706 24.8561C25.4536 25.8105 26.6819 25.8188 27.7151 25.8561C28.9227 25.9018 30.4207 26.462 30.8066 27.462C31.4747 29.2007 30.097 30.7651 29.6198 31.1676C27.545 32.927 24.6361 31.9311 22.8311 30.2464C22.524 29.9601 22.7813 29.2712 23.1132 29.4829C23.9183 29.9933 24.6195 30.8149 26.5284 30.8771Z" fill="white"/>
<path d="M12.0836 20.4367C13.1086 22.8311 16.615 22.1132 15.2664 22.9472C14.9219 23.0759 14.5568 23.1755 14.175 23.2211C11.8471 23.5157 9.33659 21.8891 9.04197 19.5653C8.74735 17.2374 11.0628 14.7891 13.3907 14.4945C15.7187 14.1999 17.615 16.3784 17.9097 18.7064C17.9097 18.7147 17.9097 18.723 17.9097 18.7313C17.7105 19.4699 17.2042 16.9262 14.673 17.0216C13.1418 17.0797 11.374 18.7894 12.0836 20.4367Z" fill="white"/>
<path d="M56.1274 10.2785C56.8909 11.8844 58.5508 13.4654 60.3102 13.9094C60.833 14.0422 61.5675 13.8555 61.9534 13.4696C62.302 13.1169 62.2149 12.7309 61.721 12.6023C60.4056 12.2703 59.0155 10.8429 58.4512 9.6561C58.057 8.82618 55.783 9.54821 56.1315 10.2785H56.1274Z" fill="#7AA7A6"/>
<path d="M55.339 15.9759C56.1233 17.4781 57.7291 18.4906 59.4014 18.6898C59.9409 18.7562 60.5343 18.6192 61.0198 18.3827C61.1733 18.308 61.8455 17.8764 61.3144 17.8142C59.8081 17.6358 58.3682 16.7063 57.6586 15.3535C57.3764 14.8099 55.1647 15.6481 55.339 15.9759Z" fill="#7AA7A6"/>
<path d="M55.1522 22.2377C56.2021 23.6153 57.7997 24.5282 59.5218 24.744C60.0571 24.8104 60.75 24.6652 61.165 24.3042C61.5011 24.0095 61.4721 23.661 60.9741 23.5987C59.4969 23.412 58.2146 22.5406 57.3225 21.3704C56.8992 20.8185 54.6626 21.5903 55.1564 22.2377H55.1522Z" fill="#7AA7A6"/>
<path d="M63.2191 11.3325C66.1819 11.6437 69.182 11.8761 72.1614 11.9259C73.1241 11.9425 74.5972 10.5026 73.0287 10.4777C70.0493 10.4321 67.0491 10.1955 64.0863 9.88432C63.1029 9.78058 61.6547 11.1707 63.2191 11.3325Z" fill="#7AA7A6"/>
<path d="M67.1819 6.20364C67.0616 13.3617 66.9786 20.5239 66.8582 27.6819C66.8416 28.6695 69.1696 28.2006 69.182 27.4039C69.3024 20.2459 69.3853 13.0837 69.5057 5.92561C69.5223 4.93801 67.1944 5.40691 67.1819 6.20364Z" fill="#7AA7A6"/>
<path d="M67.0325 15.8224C66.3312 17.752 64.5303 19.2914 62.5385 19.7355C62.2605 19.7977 61.3932 20.1006 61.5053 20.5156C61.6215 20.943 62.5468 20.7272 62.7917 20.6733C65.5262 20.0633 68.3521 18.196 69.3397 15.4697C69.5596 14.8638 67.2815 15.1377 67.0325 15.8182V15.8224Z" fill="#7AA7A6"/>
<path d="M67.6093 17.4075C69.6302 18.7479 71.705 19.9844 73.7881 21.221C74.5557 21.6775 76.6513 20.6027 75.6056 19.9803C73.5225 18.7437 71.4435 17.5071 69.4227 16.1668C68.6758 15.6689 66.5802 16.727 67.6052 17.4075H67.6093Z" fill="#7AA7A6"/>
<path d="M82.1038 8.90088C82.9421 9.96317 84.3986 10.4404 85.7015 10.2536C86.0252 10.208 86.9672 10.0088 87.0626 9.6146C87.158 9.20794 86.2991 9.35733 86.1331 9.38223C86.5024 9.32828 86.1248 9.30754 85.9464 9.24529C85.7098 9.1623 85.4858 9.04611 85.27 8.91747C84.9048 8.70169 84.5563 8.44027 84.2907 8.1C83.9463 7.66015 81.747 8.44027 82.1038 8.89258V8.90088Z" fill="#7AA7A6"/>
<path d="M82.0292 12.6729C83.4981 12.6065 84.9671 12.5691 86.4319 12.5069C86.9049 12.4861 87.6726 12.15 87.7183 11.6023C87.7722 11.0213 87.1041 10.8844 86.6601 10.901C85.1911 10.9674 83.7222 11.0047 82.2574 11.067C81.7843 11.0877 81.0167 11.4238 80.971 11.9716C80.9171 12.5525 81.5851 12.6895 82.0292 12.6729Z" fill="#7AA7A6"/>
<path d="M82.0831 15.1585C83.3985 15.1792 84.7181 15.2414 86.0335 15.2663C86.4858 15.2746 87.3157 15.0879 87.5772 14.673C87.8552 14.2289 87.3365 14.1501 86.9879 14.146C85.6725 14.1211 84.3529 14.0547 83.0375 14.0381C82.5852 14.0298 81.7553 14.2165 81.4939 14.6315C81.2158 15.0713 81.7345 15.1543 82.0831 15.1585Z" fill="#7AA7A6"/>
<path d="M82.3279 18.2458C83.5894 18.2997 84.8509 18.3287 86.1124 18.42C86.6269 18.4574 87.3821 18.2499 87.6353 17.7478C87.8842 17.2499 87.4195 16.9469 86.963 16.9137C85.7016 16.8224 84.4401 16.7934 83.1786 16.7395C82.6599 16.7187 81.913 16.9013 81.6557 17.4117C81.4109 17.9013 81.8673 18.2292 82.3279 18.2458Z" fill="#7AA7A6"/>
<path d="M81.2739 20.9554C81.3362 23.2585 81.332 25.5656 81.4648 27.8687C81.5022 28.5616 83.8342 28.101 83.7844 27.2462C83.6516 24.9474 83.6558 22.636 83.5935 20.333C83.5769 19.6566 81.249 20.0965 81.2739 20.9554Z" fill="#7AA7A6"/>
<path d="M86.2119 26.1383C86.6684 26.0387 86.0294 26.13 85.8758 26.1383C85.5231 26.159 85.1663 26.1673 84.8135 26.1798C84.1704 26.2005 83.5272 26.2088 82.884 26.242C82.4234 26.2628 81.6557 26.5781 81.5852 27.1051C81.5063 27.6736 82.2325 27.7566 82.6226 27.7359C83.9214 27.6736 85.3032 27.7981 86.5813 27.5201C86.9921 27.4288 87.6809 27.0346 87.5564 26.52C87.4236 25.9806 86.5896 26.0594 86.2119 26.1424V26.1383Z" fill="#7AA7A6"/>
<path d="M82.0084 21.3953C82.9172 21.4202 83.8218 21.3331 84.7305 21.3704C84.9214 21.3787 85.2658 21.3372 85.4484 21.4243C85.6808 21.5364 85.3198 21.1173 85.4152 21.3787C85.5148 21.6526 85.436 22.1173 85.4401 22.3953C85.4484 23.441 85.4401 24.4826 85.4069 25.5283C85.3945 25.9764 85.382 26.4288 85.3447 26.8769C85.3364 26.9723 85.27 27.2794 85.299 27.3749C85.3613 27.5782 84.9754 27.7898 85.4401 27.2711C84.4899 28.3251 86.7306 28.487 87.3448 27.8064C87.8593 27.2379 87.7182 26.13 87.7431 25.4328C87.7846 24.1216 87.8012 22.802 87.768 21.4907C87.7431 20.4865 87.5523 20.138 86.49 19.9471C85.2949 19.7313 84.0624 19.918 82.8591 19.889C82.3777 19.8765 81.5353 20.0384 81.3362 20.5612C81.1494 21.0509 81.498 21.3787 82.0042 21.3911L82.0084 21.3953Z" fill="#7AA7A6"/>
<path d="M90.4113 7.90497C92.0878 7.89252 93.8223 7.81368 95.478 7.52321C95.7768 7.46927 96.81 7.25349 96.8225 6.83438C96.839 6.39037 96.1627 6.45676 95.868 6.51071C94.4032 6.76798 92.8637 6.81778 91.3782 6.83023C90.9508 6.83023 90.0628 7.00036 89.8345 7.41532C89.5897 7.85103 90.042 7.90912 90.4113 7.90497Z" fill="#7AA7A6"/>
<path d="M91.9923 7.6311C91.789 10.2744 91.4114 12.9384 91.374 15.59C91.3657 16.1004 93.6854 15.7394 93.6937 14.9676C93.731 12.4031 94.0962 9.82624 94.2953 7.27009C94.3534 6.52316 92.0421 6.99621 91.9923 7.6311Z" fill="#7AA7A6"/>
<path d="M89.876 12.0463C90.8429 12.038 91.8097 11.9674 92.7766 11.9674C93.4156 11.9674 94.3742 11.9218 94.7601 12.5401C95.3203 13.4364 94.8514 15.2829 94.0671 15.9137C93.648 16.2498 94.4364 16.2913 94.6107 16.283C95.1377 16.2498 95.7519 16.0672 96.1668 15.7311C97.1088 14.9717 97.7478 12.843 96.9926 11.7807C96.5735 11.1873 95.673 11.1043 95.0091 11.0587C93.8057 10.9715 92.5857 11.1043 91.3782 11.1126C90.8636 11.1168 90.1541 11.2163 89.735 11.5525C89.4403 11.789 89.3532 12.0504 89.8677 12.0463H89.876Z" fill="#7AA7A6"/>
<path d="M89.5814 16.8432C92.2081 16.9469 94.8348 16.9677 97.4656 16.9054C98.7603 16.8764 99.2749 15.2373 97.6897 15.2747C95.258 15.3327 92.8305 15.312 90.403 15.2166C89.9009 15.1958 89.0876 15.3618 88.8884 15.9137C88.7058 16.4158 89.0544 16.8224 89.5856 16.8432H89.5814Z" fill="#7AA7A6"/>
<path d="M89.5316 19.279C89.4237 22.1464 89.3905 25.1963 89.8387 28.0346C89.9009 28.4413 92.2455 27.9516 92.1583 27.4122C91.7102 24.5739 91.7434 21.5198 91.8512 18.6566C91.8637 18.3744 89.5524 18.64 89.5316 19.279Z" fill="#7AA7A6"/>
<path d="M95.2788 26.1134C95.7975 25.9184 95.0423 26.0719 94.8224 26.0843C94.4157 26.1009 94.0049 26.1009 93.5982 26.0926C93.1999 26.0843 92.8015 26.0677 92.4073 26.0387C92.1625 26.0221 91.6894 25.9599 91.6811 25.9557C91.1458 25.7897 90.4113 25.964 90.0379 26.3956C89.6976 26.7898 89.8013 27.2753 90.3159 27.4371C91.2164 27.7151 92.2579 27.6736 93.1874 27.6819C94.2165 27.6902 95.2954 27.7317 96.2706 27.3666C96.6897 27.2089 97.1503 26.686 96.8391 26.2462C96.5029 25.769 95.7062 25.9516 95.2747 26.1134H95.2788Z" fill="#7AA7A6"/>
<path d="M90.9591 20.3869C91.7434 20.2625 92.5318 20.1753 93.3285 20.1629C93.648 20.1587 93.9717 20.1836 94.2912 20.1836C94.5568 20.1836 94.8804 20.4077 94.7145 20.1587C94.5111 19.8517 94.6066 20.7106 94.6149 20.8476C94.6356 21.3372 94.6522 21.831 94.6647 22.3207C94.6937 23.3207 94.7103 24.3208 94.702 25.325C94.6979 25.7814 94.6937 26.242 94.6605 26.6985C94.6398 27.0014 94.4198 27.5077 94.7062 27.213C93.7186 28.2463 95.9593 28.5119 96.6274 27.8147C97.1627 27.2545 97.0299 26.1258 97.0424 25.4287C97.0673 23.9722 97.0299 22.5074 96.976 21.0509C96.9428 20.1919 97.1544 19.2375 96.2913 18.8101C94.9634 18.1503 92.5733 18.5943 91.2039 18.8101C89.9798 19.0051 89.3864 20.6484 90.9674 20.3952L90.9591 20.3869Z" fill="#7AA7A6"/>
<path d="M105.873 9.6312C107.686 10.7848 110.62 10.3325 111.981 8.66435C112.886 7.5564 110.67 7.37382 110.072 8.10415C109.47 8.83863 108.466 8.87598 107.686 8.37802C106.918 7.88837 104.831 8.96312 105.873 9.62705V9.6312Z" fill="#7AA7A6"/>
<path d="M106.259 9.82209C106.458 13.1252 106.947 16.4282 106.993 19.7355C106.997 20.1172 109.325 19.7728 109.313 19.113C109.263 15.8058 108.777 12.5027 108.578 9.19965C108.553 8.78884 106.217 9.18305 106.259 9.82209Z" fill="#7AA7A6"/>
<path d="M107.557 14.0132C108.367 14.0671 109.172 14.1211 109.981 14.1709C110.541 14.2082 111.242 14.0132 111.491 13.4488C111.715 12.9384 111.288 12.4695 110.773 12.4363C109.964 12.3824 109.159 12.3284 108.35 12.2786C107.79 12.2413 107.089 12.4363 106.84 13.0007C106.615 13.5111 107.043 13.98 107.557 14.0132Z" fill="#7AA7A6"/>
<path d="M114.55 10.486C116.272 10.3408 115.276 13.8804 115.114 14.8265C114.964 15.673 114.798 16.5237 114.574 17.3536C114.467 17.752 114.33 18.1379 114.205 18.5321C114.11 18.8391 113.62 19.2915 114.072 19.0674C112.649 19.777 113.931 20.8559 115.06 20.2915C117.122 19.2624 117.334 15.5236 117.62 13.5567C117.761 12.5982 118.102 11.2952 117.84 10.3283C117.463 8.93822 116.006 8.82618 114.79 8.92992C113.541 9.03781 112.952 10.623 114.545 10.486H114.55Z" fill="#7AA7A6"/>
<path d="M112.429 16.1502H114.533C115.089 16.1502 115.703 16.0174 116.176 15.7104C116.521 15.4821 116.512 15.1917 116.039 15.1917H113.935C113.379 15.1917 112.765 15.3244 112.292 15.6315C111.948 15.8597 111.956 16.1502 112.429 16.1502Z" fill="#7AA7A6"/>
<path d="M107.533 19.167C109.74 19.4035 111.948 19.7438 114.176 19.7728C114.662 19.7811 115.438 19.6566 115.819 19.333C116.106 19.0881 116.218 18.8972 115.699 18.8889C113.608 18.8599 111.533 18.5362 109.454 18.3122C108.927 18.2541 108.309 18.3868 107.835 18.6275C107.694 18.6981 107.001 19.1089 107.533 19.167Z" fill="#7AA7A6"/>
<path d="M109.686 19.6898C109.603 22.5572 109.022 27.0636 105.449 27.3873C104.171 27.5035 103.64 29.1716 105.225 29.0264C110.238 28.5699 111.906 23.9183 112.035 19.4948C112.068 18.3205 109.715 18.6815 109.686 19.6898Z" fill="#7AA7A6"/>
<path d="M112.176 21.7895C112.168 23.6942 112.342 25.852 113.587 27.3956C114.84 28.9559 116.342 28.5865 118.126 28.5492C118.425 28.5409 119.703 28.3127 119.77 27.8562C119.857 27.2338 119.944 26.6155 120.031 25.993C120.118 25.3789 117.819 25.7939 117.736 26.3831C117.649 27.0055 117.562 27.6238 117.475 28.2463C118.023 28.0139 118.57 27.7857 119.118 27.5533C118.363 27.5699 117.475 27.8396 116.774 27.4827C116.126 27.1508 115.653 26.491 115.338 25.8686C114.608 24.4369 114.496 22.7439 114.5 21.1629C114.5 20.7397 112.18 21.0799 112.18 21.7854L112.176 21.7895Z" fill="#7AA7A6"/>
<path d="M132.301 7.13314C133.43 7.25763 134.559 7.37797 135.688 7.50246C136.173 7.5564 136.966 7.31158 137.219 6.85512C137.493 6.36132 136.982 6.17044 136.576 6.12894C135.447 6.00445 134.318 5.88412 133.189 5.75963C132.704 5.70568 131.911 5.95051 131.662 6.40696C131.389 6.90077 131.899 7.09165 132.306 7.13314H132.301Z" fill="#7AA7A6"/>
<path d="M130.384 9.17475C132.857 9.34488 135.335 9.49011 137.816 9.50256C138.31 9.50256 139.132 9.36563 139.335 8.81788C139.513 8.33238 139.173 7.94232 138.654 7.94232C136.173 7.92987 133.696 7.78463 131.223 7.6145C130.173 7.53981 128.816 9.06686 130.384 9.17475Z" fill="#7AA7A6"/>
<path d="M131.231 8.6187C131.492 9.61045 131.75 10.6064 132.011 11.5981C132.185 12.2662 134.513 11.6562 134.331 10.9757C134.069 9.98392 133.812 8.98801 133.55 7.99626C133.376 7.32818 131.048 7.93817 131.231 8.6187Z" fill="#7AA7A6"/>
<path d="M136.09 9.09175C135.953 9.39882 135.87 9.72664 135.766 10.0503C135.717 10.2038 135.667 10.3574 135.605 10.5068C135.571 10.5815 135.517 10.6603 135.497 10.735C135.538 10.5981 135.385 10.8553 135.559 10.6935C135.202 11.0172 134.941 11.5442 135.434 11.8927C135.874 12.2039 136.704 12.1127 137.098 11.7516C137.484 11.3989 137.746 11.0172 137.92 10.5234C138.057 10.1374 138.144 9.73494 138.31 9.35732C138.542 8.83448 138.094 8.44441 137.605 8.38217C137.073 8.31578 136.327 8.56475 136.094 9.09175H136.09Z" fill="#7AA7A6"/>
<path d="M127.513 11.6894C131.696 11.9218 135.87 12.2081 140.045 12.565C140.53 12.6065 142.684 11.7433 141.559 11.6437C137.385 11.2869 133.21 11.0006 129.027 10.7682C128.542 10.7433 126.392 11.6272 127.513 11.6894Z" fill="#7AA7A6"/>
<path d="M129.5 14.1086C129.608 16.5859 129.816 19.0632 129.924 21.5405C129.961 22.3497 132.289 21.8642 132.243 20.9181C132.135 18.4408 131.928 15.9635 131.82 13.4862C131.783 12.677 129.455 13.1625 129.5 14.1086Z" fill="#7AA7A6"/>
<path d="M131.646 14.453C131.43 14.4945 132.053 14.453 132.152 14.453C132.53 14.453 132.907 14.4613 133.285 14.4779C134.21 14.5111 135.14 14.5734 136.061 14.6896C136.447 14.7393 137.642 14.785 137.895 15.1004C138.244 15.5361 137.874 17.142 137.8 17.6607C137.675 18.5321 137.26 19.5363 137.252 20.4035C137.252 20.4741 137.094 20.7604 137.132 20.8144C136.941 20.5197 138.368 20.6733 137.92 20.3164C137.762 20.1919 137.065 20.2957 136.845 20.2832C135.065 20.1836 133.297 19.9388 131.521 19.835C130.517 19.777 129.098 21.2376 130.667 21.3289C132.961 21.4617 135.36 22.0219 137.659 21.7978C139.937 21.5737 139.957 18.8889 140.186 17.0673C140.285 16.2705 140.58 14.8763 140.053 14.1626C139.596 13.5401 138.505 13.4447 137.816 13.3285C135.75 12.9841 133.364 12.706 131.285 13.092C129.837 13.3617 130.231 14.7227 131.65 14.4613L131.646 14.453Z" fill="#7AA7A6"/>
<path d="M130.293 17.7603C132.911 18.1047 135.563 18.2043 138.181 18.5487C138.833 18.6358 140.887 17.5652 139.634 17.3992C137.015 17.0507 134.364 16.9552 131.741 16.6108C131.09 16.5237 129.036 17.5943 130.289 17.7603H130.293Z" fill="#7AA7A6"/>
<path d="M131.086 25.076C133.057 25.2046 135.032 25.1548 137.003 25.3374C138.186 25.4494 139.352 23.7274 137.787 23.5821C135.816 23.3954 133.841 23.4452 131.87 23.3207C131.322 23.2875 130.588 23.4742 130.364 24.0469C130.16 24.5573 130.55 25.0428 131.086 25.0801V25.076Z" fill="#7AA7A6"/>
<path d="M127.837 28.2214C131.92 28.3334 135.99 28.7027 140.069 28.8853C140.891 28.9227 142.555 27.7317 140.999 27.6653C136.92 27.4827 132.849 27.1176 128.766 27.0014C127.949 26.9806 126.28 28.1799 127.837 28.2214Z" fill="#7AA7A6"/>
<path d="M133.654 14.6232C133.642 19.0881 133.509 23.5655 133.264 28.0222C133.219 28.8646 135.538 28.3832 135.575 27.6944C135.829 23.1381 135.961 18.5653 135.974 14.0049C135.974 13.4032 133.654 13.8015 133.654 14.6273V14.6232Z" fill="#7AA7A6"/>
<path d="M150.543 14.0962C151.863 14.2124 153.186 14.2207 154.506 14.1294C154.954 14.1003 155.776 13.9675 156.054 13.5609C156.332 13.1584 155.809 13.1086 155.494 13.1293C154.336 13.2082 153.191 13.1957 152.033 13.0961C151.506 13.0505 150.817 13.2164 150.39 13.536C150.041 13.7974 150.066 14.0588 150.539 14.0962H150.543Z" fill="#7AA7A6"/>
<path d="M150.46 17.1544C151.917 17.088 153.369 17.0216 154.825 16.9552C155.24 16.9345 156.137 16.7851 156.377 16.395C156.626 15.9884 156.162 15.9801 155.826 15.9967C154.369 16.0631 152.917 16.1295 151.46 16.1959C151.045 16.2166 150.149 16.366 149.908 16.7561C149.659 17.1627 150.124 17.171 150.46 17.1544Z" fill="#7AA7A6"/>
<path d="M151.888 17.1503C152.124 20.6691 152.024 24.217 151.867 27.7359C151.821 28.7899 154.162 28.3666 154.199 27.491C154.361 23.8436 154.452 20.1753 154.207 16.5278C154.149 15.6606 151.821 16.171 151.888 17.1503Z" fill="#7AA7A6"/>
<path d="M158.149 5.75548C157.61 7.02941 156.842 8.20789 155.975 9.28264C155.614 9.73079 156.282 10.0047 156.622 10.0337C157.191 10.0752 157.797 9.82208 158.149 9.38223C159.108 8.19129 159.88 6.90077 160.477 5.49406C160.693 4.98366 159.722 4.90897 159.461 4.93801C158.925 4.99196 158.365 5.24923 158.149 5.75963V5.75548Z" fill="#7AA7A6"/>
<path d="M158.278 8.31578C160.137 8.29503 161.979 8.00871 163.838 7.98796C164.303 7.98381 165.137 7.83443 165.37 7.35722C165.594 6.89662 165.179 6.68499 164.743 6.68914C162.884 6.70989 161.042 6.99621 159.183 7.01696C158.718 7.02111 157.884 7.17049 157.651 7.64769C157.427 8.1083 157.842 8.31993 158.278 8.31578Z" fill="#7AA7A6"/>
<path d="M157.971 10.6893C157.925 13.1418 158.062 15.5983 157.925 18.0507C157.867 19.1338 160.212 18.7354 160.261 17.8183C160.398 15.3659 160.261 12.9135 160.307 10.457C160.328 9.36148 157.987 9.78059 157.971 10.6893Z" fill="#7AA7A6"/>
<path d="M159.004 11.1002C159.822 11.0753 160.635 11.0213 161.452 10.9674C161.867 10.9425 162.286 10.9093 162.701 10.901C162.917 10.8968 163.133 10.8968 163.353 10.901C163.697 10.9549 163.714 10.9259 163.407 10.818C163.984 11.5981 163.66 13.233 163.598 14.1294C163.564 14.5941 163.004 17.0714 163.32 17.3992C163.291 17.6856 163.444 17.6067 163.78 17.1586C163.635 17.171 163.494 17.1752 163.349 17.171C163.017 17.0714 162.523 17.1378 162.174 17.1129C161.456 17.0631 160.743 16.9843 160.021 16.976C159.568 16.9718 158.68 17.1254 158.494 17.6316C158.315 18.113 158.647 18.3868 159.145 18.391C160.905 18.4159 163.067 19.0342 164.735 18.2375C166.054 17.6109 165.776 15.7519 165.88 14.4987C165.975 13.3409 166.465 10.9134 165.594 9.92997C165.121 9.39468 164.224 9.47767 163.577 9.48597C162.34 9.50671 161.112 9.65195 159.88 9.68515C159.423 9.6976 158.543 9.82208 158.353 10.3408C158.178 10.8055 158.502 11.1168 159.004 11.1002Z" fill="#7AA7A6"/>
<path d="M159.751 15.0381H163.345C163.847 15.0381 164.565 14.6481 164.623 14.0962C164.685 13.4903 164.009 13.3326 163.548 13.3326H159.954C159.452 13.3326 158.734 13.7227 158.676 14.2746C158.614 14.8804 159.29 15.0381 159.751 15.0381Z" fill="#7AA7A6"/>
<path d="M158.203 19.4491C157.738 20.6857 156.983 21.5073 156.041 22.4036C155.672 22.7564 156.373 22.7605 156.577 22.7439C157.062 22.6983 157.763 22.553 158.133 22.2003C159.137 21.2418 159.988 20.3454 160.485 19.0259C160.627 18.6566 159.71 18.8142 159.564 18.8391C159.236 18.9014 158.344 19.0632 158.199 19.4533L158.203 19.4491Z" fill="#7AA7A6"/>
<path d="M159.29 20.7397C160.328 20.499 161.519 20.6816 162.581 20.6276C162.676 20.6235 163.108 20.5861 163.162 20.6484C163.013 20.4741 162.971 20.4699 162.896 20.6484C162.743 21.0343 162.527 21.3828 162.299 21.7314C161.042 23.6651 159.124 26.3001 156.958 27.2628C155.469 27.9268 156.859 28.3874 157.809 27.9641C160.743 26.657 163.552 23.5697 164.992 20.7231C165.531 19.6566 164.926 19.5695 163.913 19.5446C162.315 19.5072 160.61 19.4782 159.046 19.8433C157.668 20.167 157.904 21.0633 159.286 20.7397H159.29Z" fill="#7AA7A6"/>
<path d="M158.797 23.2336C160.361 25.7316 163.067 27.2421 165.822 28.101C166.316 28.2546 167.017 28.0886 167.453 27.8313C167.673 27.6985 168.237 27.2877 167.71 27.1259C165.17 26.3333 162.569 24.9266 161.12 22.6111C160.722 21.9762 158.548 22.8311 158.801 23.2336H158.797Z" fill="#7AA7A6"/>
<path d="M172.079 16.4324C173.482 16.2332 174.885 16.034 176.283 15.8348C176.669 15.7809 177.54 15.5568 177.607 15.0672C177.677 14.5651 176.93 14.5609 176.615 14.6066C175.212 14.8057 173.814 15.0049 172.411 15.2041C172.025 15.258 171.154 15.4821 171.088 15.9718C171.017 16.4739 171.764 16.478 172.079 16.4324Z" fill="#7AA7A6"/>
<path d="M173.636 16.2249C173.735 20.0882 173.735 23.9763 173.577 27.8355C173.528 29.014 175.885 28.6612 175.926 27.6446C176.084 23.7813 176.084 19.8973 175.984 16.034C175.955 14.8472 173.611 15.2207 173.636 16.2249Z" fill="#7AA7A6"/>
<path d="M179.262 16.4863C181.856 15.8058 179.387 18.9138 178.918 19.2997C178.237 19.8682 179.171 20.1878 179.681 20.0965C181.428 19.777 179.569 22.9597 179.329 23.2087C178.735 23.8187 177.968 24.2378 177.212 24.6154C175.768 25.3291 177.1 26.0304 178.117 25.5241C179.711 24.7357 181.412 23.8104 182.267 22.1671C183.283 20.2085 182.267 18.4408 180.009 18.8557C180.262 19.1213 180.516 19.3869 180.773 19.6525C181.698 18.8806 183.329 17.3287 182.619 15.951C181.968 14.6813 180.03 15.0921 178.964 15.3742C177.578 15.7394 177.864 16.8556 179.262 16.4905V16.4863Z" fill="#7AA7A6"/>
<path d="M177.615 22.7149C181.217 25.8686 186.271 27.8894 191.01 28.3334C191.985 28.4247 193.446 27.0387 191.877 26.8894C187.649 26.4951 182.985 24.5863 179.76 21.7688C179.092 21.1837 176.91 22.0966 177.615 22.7149Z" fill="#7AA7A6"/>
<path d="M183.669 8.56891C184.155 8.36558 185.462 8.39877 186.171 8.39877C186.927 8.39877 188.616 8.21619 189.259 8.70169C189.873 9.16645 189.62 10.5856 189.553 11.2495C189.462 12.1957 189.371 13.4073 188.865 14.2414C188.288 15.1958 190.62 15.0132 191.035 14.3244C191.769 13.1086 191.906 11.3823 191.939 9.99637C191.964 8.91747 191.96 7.88422 190.836 7.44852C189.595 6.97131 188.039 7.00866 186.732 7.02111C185.42 7.03356 183.964 7.02941 182.731 7.54396C181.242 8.1664 182.59 9.01291 183.665 8.56476L183.669 8.56891Z" fill="#7AA7A6"/>
<path d="M180.731 12.1085C184.59 12.15 188.445 12.2786 192.305 12.3201C193.628 12.3326 194.085 10.6437 192.512 10.6271C188.653 10.5856 184.798 10.457 180.939 10.4155C179.615 10.403 179.159 12.0919 180.731 12.1085Z" fill="#7AA7A6"/>
<path d="M183.08 14.7435H189.197C189.699 14.7435 190.441 14.6398 190.84 14.3036C191.126 14.063 191.23 13.8264 190.711 13.8264H184.595C184.093 13.8264 183.35 13.9302 182.951 14.2663C182.665 14.507 182.561 14.7435 183.08 14.7435Z" fill="#7AA7A6"/>
<path d="M183.292 17.7561H188.769C189.288 17.7561 189.997 17.6648 190.412 17.3162C190.703 17.0714 190.79 16.7809 190.267 16.7809H184.79C184.271 16.7809 183.561 16.8722 183.146 17.2208C182.856 17.4656 182.769 17.7561 183.292 17.7561Z" fill="#7AA7A6"/>
<path d="M183.458 20.9928C185.794 21.0882 188.151 21.0467 190.483 20.8393C191.583 20.7438 192.441 19.5072 190.823 19.6483C188.69 19.835 186.52 19.8475 184.383 19.7604C183.553 19.7272 181.897 20.9305 183.458 20.9928Z" fill="#7AA7A6"/>
<path d="M185.595 5.67249C185.591 12.4405 185.491 19.2043 185.487 25.9723C185.487 26.5906 187.806 26.1881 187.806 25.3499C187.811 18.5819 187.91 11.818 187.914 5.05005C187.914 4.43176 185.595 4.83427 185.595 5.67249Z" fill="#7AA7A6"/>
<path d="M199.566 9.98807C200.666 10.5939 201.712 10.984 202.99 10.9093C203.475 10.8802 204.239 10.7516 204.529 10.3034C204.807 9.87603 204.289 9.71419 203.932 9.73494C202.99 9.78889 202.247 9.39467 201.438 8.94652C200.857 8.627 198.707 9.51086 199.566 9.98392V9.98807Z" fill="#7AA7A6"/>
<path d="M199.081 13.1625C200.699 13.092 202.334 12.955 203.953 13.038C204.471 13.0629 205.197 12.9758 205.596 12.5982C205.886 12.3243 205.953 11.9757 205.421 11.9467C203.625 11.8554 201.832 11.9757 200.039 12.0546C199.604 12.0712 198.732 12.2122 198.496 12.6438C198.259 13.0754 198.699 13.1791 199.081 13.1625Z" fill="#7AA7A6"/>
<path d="M199.624 15.7643C201.01 15.7187 202.384 15.6025 203.774 15.6481C204.26 15.6647 205.04 15.4738 205.309 15.0215C205.583 14.5568 205.073 14.3742 204.687 14.3617C203.301 14.3161 201.923 14.4281 200.537 14.4779C200.039 14.4945 199.284 14.6315 199.002 15.1045C198.736 15.5527 199.226 15.7768 199.624 15.7643Z" fill="#7AA7A6"/>
<path d="M200.359 18.5404C201.488 18.503 202.616 18.4657 203.745 18.4325C204.239 18.4159 204.969 18.0632 205.027 17.5113C205.094 16.922 204.405 16.7644 203.961 16.781C202.832 16.8183 201.703 16.8556 200.575 16.8888C200.081 16.9054 199.351 17.2582 199.292 17.8101C199.226 18.3993 199.915 18.557 200.359 18.5404Z" fill="#7AA7A6"/>
<path d="M198.745 20.7895C198.807 23.0261 198.745 25.2669 198.782 27.5077C198.799 28.7525 201.156 28.433 201.139 27.3458C201.106 25.105 201.168 22.8684 201.102 20.6276C201.064 19.3786 198.716 19.7064 198.745 20.7895Z" fill="#7AA7A6"/>
<path d="M200.454 21.2542C200.932 21.2293 202.741 20.8102 203.147 21.1712C203.459 21.4492 203.355 22.7356 203.363 23.0842C203.392 24.6029 203.255 26.1175 203.222 27.6363C203.197 28.6861 205.533 28.2463 205.554 27.3832C205.596 25.3872 205.853 23.3622 205.629 21.3663C205.363 18.9719 202.463 19.7313 200.737 19.8226C199.529 19.8849 198.857 21.3331 200.459 21.2501L200.454 21.2542Z" fill="#7AA7A6"/>
<path d="M200.06 27.9724H203.936C204.438 27.9724 205.193 27.8147 205.467 27.3292C205.729 26.8645 205.247 26.6155 204.828 26.6155H200.952C200.45 26.6155 199.695 26.7732 199.421 27.2587C199.16 27.7234 199.641 27.9724 200.06 27.9724Z" fill="#7AA7A6"/>
<path d="M211.745 8.99217C210.218 10.8968 208.376 12.5027 206.372 13.8887C205.982 14.1584 206.098 14.2663 206.492 14.3451C206.94 14.4323 207.762 14.1626 208.135 13.9053C210.339 12.3824 212.347 10.6603 214.028 8.56476C214.273 8.25769 213.173 8.37388 213.111 8.38632C212.663 8.46517 212.044 8.61455 211.741 8.99217H211.745Z" fill="#7AA7A6"/>
<path d="M210.455 12.5359C211.999 13.1003 213.555 13.6065 215.123 14.0879C215.663 14.2539 216.389 14.0879 216.766 13.648C217.103 13.2538 217.003 12.7392 216.48 12.5774C214.912 12.0961 213.355 11.594 211.812 11.0255C210.87 10.6811 209.094 12.0338 210.459 12.5359H210.455Z" fill="#7AA7A6"/>
<path d="M211.671 15.395C210.779 16.6814 209.708 17.7437 208.347 18.5321C207.982 18.7437 207.712 19.1919 208.152 19.4657C208.608 19.7521 209.384 19.4948 209.799 19.2541C211.434 18.3122 212.766 17.0092 213.841 15.4655C214.16 15.0091 213.567 14.7767 213.202 14.7518C212.679 14.7186 211.982 14.9468 211.671 15.395Z" fill="#7AA7A6"/>
<path d="M212.629 18.4491C211.774 19.6525 210.26 21.1131 209.139 21.7107C207.749 22.4534 208.994 23.8104 210.193 23.1713C211.849 22.2875 213.513 20.7231 214.592 19.2002C215.455 17.9843 213.285 17.5237 212.629 18.4449V18.4491Z" fill="#7AA7A6"/>
<path d="M213.708 22.7854C212.472 24.1838 211.098 25.3001 209.509 26.2752C209.11 26.52 208.911 27.0346 209.347 27.3375C209.816 27.6653 210.571 27.4247 211.003 27.1591C212.733 26.1009 214.264 24.8519 215.613 23.329C216.555 22.2667 214.318 22.0966 213.708 22.7854Z" fill="#7AA7A6"/>
<path d="M222.663 10.7391C225.091 10.7765 227.779 10.0794 229.883 8.88013C230.315 8.6353 230.448 8.09171 230.037 7.78049C229.564 7.42362 228.817 7.69749 228.381 7.94647C227.049 8.70584 225.041 9.2038 223.505 9.1789C222.995 9.1706 222.215 9.32413 221.987 9.86358C221.779 10.3491 222.169 10.7308 222.667 10.7391H222.663Z" fill="#7AA7A6"/>
<path d="M222.58 10.3698C222.705 13.5152 222.825 16.6648 222.7 19.8102C222.605 22.1837 222.534 24.8934 221.277 26.9889C221.119 27.2504 223.219 27.1549 223.568 26.5781C224.734 24.6403 224.871 22.1215 224.991 19.9222C225.174 16.5361 225.037 13.1376 224.904 9.75154C224.887 9.36563 222.555 9.73079 222.584 10.374L222.58 10.3698Z" fill="#7AA7A6"/>
<path d="M223.987 13.3368C225.14 13.2953 226.31 13.2082 227.464 13.2496C227.622 13.2538 227.896 13.3368 228.049 13.287C227.759 13.3783 227.916 12.872 227.779 13.1708C227.717 13.3077 227.896 13.9551 227.908 14.0962C228.028 15.7104 227.954 17.3702 227.821 18.9844C227.725 20.1753 230.087 19.8475 230.174 18.806C230.327 16.8847 230.634 14.5153 230.12 12.6314C229.912 11.8761 229.402 11.6687 228.655 11.594C227.19 11.4446 225.663 11.5981 224.194 11.6521C222.883 11.7018 222.402 13.399 223.987 13.3409V13.3368Z" fill="#7AA7A6"/>
<path d="M223.908 19.6774C225.555 19.777 227.244 19.9388 228.887 19.7355C229.377 19.6732 230.12 19.391 230.17 18.8018C230.215 18.2416 229.568 17.9926 229.099 18.0507C227.647 18.2292 226.169 18.0922 224.717 18.0009C224.173 17.9677 223.447 18.1586 223.207 18.7105C222.983 19.2168 223.41 19.6442 223.912 19.6732L223.908 19.6774Z" fill="#7AA7A6"/>
<path d="M231.398 11.9757C233.713 12.0172 236.232 11.208 238.187 10.0047C238.635 9.72664 238.722 9.1208 238.307 8.78883C237.826 8.40292 237.095 8.6436 236.643 8.92577C235.216 9.80548 233.269 10.2827 231.597 10.2536C230.261 10.2287 229.825 11.9508 231.398 11.9757Z" fill="#7AA7A6"/>
<path d="M231.17 11.9508C231.813 15.4863 232.377 21.802 229.261 24.5075C228.779 24.9225 230.933 24.7025 231.361 24.3291C234.626 21.499 234.166 15.0298 233.489 11.3284C233.402 10.8553 231.062 11.3782 231.17 11.9508Z" fill="#7AA7A6"/>
<path d="M232.85 14.6896C234.921 14.6439 237.004 14.5111 239.041 14.1377C239.527 14.0505 240.125 13.5318 239.979 12.9924C239.817 12.3948 239.075 12.3782 238.593 12.4695C236.776 12.8056 234.884 12.8762 233.037 12.9135C231.688 12.9426 231.273 14.7228 232.85 14.6896Z" fill="#7AA7A6"/>
<path d="M235.245 14.5609C235.328 18.7686 235.477 22.9887 235.373 27.2006C235.352 28.1135 237.672 27.6238 237.689 26.8935C237.792 22.5779 237.647 18.2541 237.564 13.9426C237.552 13.2663 235.224 13.6978 235.245 14.5651V14.5609Z" fill="#7AA7A6"/>
<path d="M60.916 41.006H59.7998L60.6754 34.2879L63.2979 38.6283L65.9287 34.2879L66.8043 41.006H65.6881L65.2399 37.1137L63.2937 40.4127L61.3476 37.1137L60.9077 41.006H60.916Z" fill="#81A5A5"/>
<path d="M68.8957 34.6117V38.8609C68.8957 39.2551 68.9994 39.5747 69.2111 39.8153C69.4227 40.056 69.7339 40.1764 70.1489 40.1764C70.5638 40.1764 70.8668 40.056 71.0825 39.8153C71.2942 39.5747 71.4021 39.2551 71.4021 38.8609V34.6117H72.4809V38.9066C72.4809 39.2593 72.4228 39.5747 72.3108 39.8527C72.1988 40.1307 72.0369 40.3672 71.8295 40.5623C71.622 40.7573 71.3772 40.9067 71.0908 41.0104C70.8045 41.1142 70.4891 41.164 70.1489 41.164C69.8086 41.164 69.4932 41.1142 69.2069 41.0104C68.9206 40.9067 68.6716 40.7573 68.46 40.5623C68.2484 40.3672 68.0907 40.1307 67.9786 39.8527C67.8708 39.5747 67.8127 39.2593 67.8127 38.9066V34.6117H68.8915H68.8957Z" fill="#81A5A5"/>
<path d="M78.6099 34.6117L76.4355 38.3132V41.0104H75.34V38.3256L73.1739 34.6159H74.398L75.8878 37.3588L77.3775 34.6159H78.6099V34.6117Z" fill="#81A5A5"/>
<path d="M80.3818 34.6117V38.8609C80.3818 39.2551 80.4855 39.5747 80.6971 39.8153C80.9088 40.056 81.22 40.1764 81.6349 40.1764C82.0499 40.1764 82.3528 40.056 82.5686 39.8153C82.7802 39.5747 82.8881 39.2551 82.8881 38.8609V34.6117H83.967V38.9066C83.967 39.2593 83.9089 39.5747 83.7969 39.8527C83.6848 40.1307 83.523 40.3672 83.3155 40.5623C83.108 40.7573 82.8632 40.9067 82.5769 41.0104C82.2906 41.1142 81.9752 41.164 81.6349 41.164C81.2947 41.164 80.9793 41.1142 80.693 41.0104C80.4067 40.9067 80.1577 40.7573 79.9461 40.5623C79.7344 40.3672 79.5767 40.1307 79.4647 39.8527C79.3568 39.5747 79.2987 39.2593 79.2987 38.9066V34.6117H80.3776H80.3818Z" fill="#81A5A5"/>
<path d="M89.1665 34.6117V41.0104H88.0876V34.6117H89.1665ZM88.7266 34.6117H90.0171C90.4819 34.6117 90.8844 34.6906 91.2288 34.8524C91.5732 35.0143 91.8388 35.2425 92.0297 35.5371C92.2164 35.8317 92.3118 36.1844 92.3118 36.5911C92.3118 36.9978 92.2164 37.3546 92.0297 37.6534C91.8388 37.9522 91.5732 38.1804 91.2288 38.3422C90.8844 38.5041 90.4819 38.5829 90.0171 38.5829H88.7266V37.6327H90.0171C90.3906 37.6327 90.6893 37.5455 90.9134 37.3671C91.1375 37.1886 91.2495 36.9314 91.2495 36.5911C91.2495 36.2508 91.1375 35.9936 90.9134 35.8193C90.6893 35.645 90.3906 35.5579 90.0171 35.5579H88.7266V34.6076V34.6117Z" fill="#81A5A5"/>
<path d="M94.4281 34.6117V41.0104H93.37V34.6117H94.4281ZM94.0339 34.6117H97.2582V35.562H94.0339V34.6117ZM94.0339 37.114H97.0756V38.0476H94.0339V37.114ZM94.0339 40.056H97.2582V41.0063H94.0339V40.056Z" fill="#81A5A5"/>
<path d="M99.6815 34.6117V41.0104H98.586V34.6117H99.6815ZM99.2541 41.0063V39.9938H100.623C100.939 39.9938 101.233 39.9481 101.499 39.8568C101.769 39.7655 102.001 39.6286 102.196 39.446C102.395 39.2634 102.549 39.0352 102.661 38.7613C102.773 38.4875 102.831 38.1721 102.831 37.8111C102.831 37.4501 102.773 37.1347 102.661 36.8608C102.549 36.587 102.391 36.3587 102.196 36.1761C101.997 35.9936 101.765 35.8566 101.499 35.7653C101.229 35.674 100.939 35.6284 100.623 35.6284H99.2541V34.6159H100.653C101.304 34.6159 101.877 34.7487 102.37 35.0143C102.864 35.2798 103.25 35.6491 103.528 36.1305C103.806 36.6077 103.943 37.172 103.943 37.8152C103.943 38.4584 103.806 39.0228 103.528 39.5C103.25 39.9772 102.864 40.3506 102.37 40.6162C101.877 40.8818 101.304 41.0146 100.653 41.0146H99.2541V41.0063Z" fill="#81A5A5"/>
<path d="M106.08 34.6117V41.0104H104.993V34.6117H106.08Z" fill="#81A5A5"/>
<path d="M108.939 38.7696L108.923 39.0062L108.035 41.0063H106.819L109.943 34.2549L113.068 41.0063H111.852L110.985 39.0601L110.956 38.7945L109.943 36.4168L108.939 38.7655V38.7696ZM108.475 38.4501H111.446L111.657 39.363H108.275L108.475 38.4501Z" fill="#81A5A5"/>
<path d="M112.533 34.6117H116.994V35.6076H115.305V41.0104H114.218V35.6076H112.537V34.6117H112.533Z" fill="#81A5A5"/>
<path d="M118.857 34.6117V41.0104H117.778V34.6117H118.857ZM118.417 34.6117H119.749C120.214 34.6117 120.616 34.6947 120.961 34.8607C121.305 35.0267 121.571 35.2549 121.762 35.5496C121.952 35.8442 122.044 36.1927 122.044 36.5953C122.044 36.9978 121.948 37.3463 121.762 37.6451C121.575 37.9439 121.305 38.1762 120.961 38.3381C120.616 38.5041 120.214 38.5871 119.749 38.5871H118.417V37.699H119.707C119.952 37.699 120.164 37.6575 120.351 37.5704C120.537 37.4833 120.683 37.3629 120.786 37.2011C120.89 37.0393 120.94 36.8442 120.94 36.6201C120.94 36.3961 120.886 36.1927 120.786 36.0351C120.683 35.8774 120.537 35.7529 120.351 35.6699C120.164 35.5869 119.948 35.5413 119.707 35.5413H118.417V34.6076V34.6117ZM120.264 37.9563L122.43 41.0104H121.131L119.093 37.9563H120.264Z" fill="#81A5A5"/>
<path d="M124.301 34.6117V41.0104H123.214V34.6117H124.301Z" fill="#81A5A5"/>
<path d="M126.828 38.9979C127.031 39.3381 127.301 39.6037 127.633 39.7863C127.965 39.973 128.326 40.0643 128.716 40.0643C129.019 40.0643 129.293 40.0228 129.538 39.944C129.783 39.8651 130.003 39.7572 130.202 39.6203C130.401 39.4834 130.571 39.3298 130.716 39.1597V40.4378C130.447 40.6577 130.16 40.8237 129.849 40.9399C129.538 41.0561 129.148 41.1142 128.679 41.1142C128.21 41.1142 127.774 41.0353 127.368 40.8776C126.961 40.72 126.612 40.4917 126.314 40.193C126.015 39.8942 125.782 39.5415 125.612 39.139C125.446 38.7323 125.359 38.2924 125.359 37.8111C125.359 37.3297 125.442 36.8857 125.612 36.4791C125.778 36.0724 126.015 35.7238 126.314 35.4251C126.612 35.1263 126.965 34.8981 127.368 34.7404C127.774 34.5827 128.21 34.5039 128.679 34.5039C129.148 34.5039 129.538 34.562 129.849 34.6781C130.16 34.7943 130.451 34.9603 130.716 35.1802V36.4583C130.571 36.2882 130.397 36.1346 130.202 35.9977C130.003 35.8608 129.783 35.7529 129.538 35.674C129.293 35.5952 129.019 35.5537 128.716 35.5537C128.326 35.5537 127.965 35.645 127.633 35.8317C127.301 36.0185 127.031 36.2799 126.828 36.616C126.625 36.9521 126.521 37.3505 126.521 37.8069C126.521 38.2634 126.625 38.6535 126.828 38.9937V38.9979Z" fill="#81A5A5"/>
<path d="M135.862 34.6117V41.0104H134.783V34.6117H135.862ZM135.426 34.6117H136.758C137.223 34.6117 137.625 34.6947 137.97 34.8607C138.314 35.0267 138.58 35.2549 138.771 35.5496C138.962 35.8442 139.053 36.1927 139.053 36.5953C139.053 36.9978 138.957 37.3463 138.771 37.6451C138.584 37.9439 138.314 38.1762 137.97 38.3381C137.625 38.5041 137.223 38.5871 136.758 38.5871H135.426V37.699H136.712C136.957 37.699 137.169 37.6575 137.356 37.5704C137.542 37.4833 137.688 37.3629 137.791 37.2011C137.895 37.0393 137.945 36.8442 137.945 36.6201C137.945 36.3961 137.891 36.1927 137.791 36.0351C137.688 35.8774 137.542 35.7529 137.356 35.6699C137.169 35.5869 136.953 35.5413 136.712 35.5413H135.426V34.6076V34.6117ZM137.269 37.9563L139.435 41.0104H138.136L136.098 37.9563H137.269Z" fill="#81A5A5"/>
<path d="M141.281 34.6117V41.0104H140.223V34.6117H141.281ZM140.891 34.6117H144.115V35.562H140.891V34.6117ZM140.891 37.114H143.933V38.0476H140.891V37.114ZM140.891 40.056H144.115V41.0063H140.891V40.056Z" fill="#81A5A5"/>
<path d="M146.518 34.6117V41.0104H145.439V34.6117H146.518ZM145.871 37.0808H150.431V38.0767H145.871V37.0808ZM150.813 34.6117V41.0104H149.734V34.6117H150.813Z" fill="#81A5A5"/>
<path d="M153.676 38.7696L153.659 39.0062L152.771 41.0063H151.556L154.68 34.2549L157.805 41.0063H156.589L155.722 39.0601L155.693 38.7945L154.68 36.4168L153.676 38.7655V38.7696ZM153.207 38.4501H156.178L156.39 39.363H153.008L153.207 38.4501Z" fill="#81A5A5"/>
<path d="M159.369 37.1803H160.403C160.606 37.1803 160.78 37.1471 160.934 37.0808C161.087 37.0144 161.203 36.9189 161.291 36.7944C161.378 36.6699 161.419 36.5206 161.419 36.3421C161.419 36.0724 161.324 35.8649 161.137 35.7197C160.95 35.5745 160.705 35.4998 160.407 35.4998H159.631V40.1224H160.527C160.772 40.1224 160.988 40.0809 161.174 40.0021C161.361 39.9232 161.51 39.8029 161.623 39.6452C161.73 39.4875 161.789 39.2883 161.789 39.0518C161.789 38.8817 161.755 38.7323 161.693 38.5995C161.631 38.4667 161.54 38.3588 161.427 38.2717C161.315 38.1845 161.183 38.1182 161.029 38.0808C160.876 38.0393 160.71 38.0227 160.527 38.0227H159.378V37.4293H160.593C160.905 37.4293 161.195 37.4625 161.469 37.5289C161.743 37.5953 161.988 37.699 162.203 37.8401C162.419 37.9812 162.589 38.1596 162.71 38.3796C162.83 38.5995 162.892 38.8609 162.892 39.1638C162.892 39.583 162.793 39.9315 162.594 40.2054C162.394 40.4793 162.125 40.6826 161.78 40.8112C161.436 40.944 161.037 41.0063 160.589 41.0063H158.552V34.6076H160.481C160.884 34.6076 161.237 34.6657 161.548 34.7819C161.855 34.8981 162.096 35.0724 162.27 35.313C162.444 35.5537 162.531 35.8525 162.531 36.2176C162.531 36.533 162.444 36.8027 162.27 37.0268C162.096 37.2509 161.855 37.4169 161.548 37.5331C161.241 37.6492 160.884 37.7073 160.481 37.7073H159.378V37.1762L159.369 37.1803Z" fill="#81A5A5"/>
<path d="M165.116 34.6117V41.0104H164.029V34.6117H165.116Z" fill="#81A5A5"/>
<path d="M167.619 34.6117V40.0394H170.158V41.0063H166.54V34.6076H167.619V34.6117Z" fill="#81A5A5"/>
<path d="M172.026 34.6117V41.0104H170.938V34.6117H172.026Z" fill="#81A5A5"/>
<path d="M172.81 34.6117H177.271V35.6076H175.582V41.0104H174.495V35.6076H172.814V34.6117H172.81Z" fill="#81A5A5"/>
<path d="M178.578 38.7696L178.561 39.0062L177.673 41.0063H176.457L179.582 34.2549L182.707 41.0063H181.491L180.623 39.0601L180.594 38.7945L179.582 36.4168L178.578 38.7655V38.7696ZM178.113 38.4501H181.084L181.296 39.363H177.914L178.113 38.4501Z" fill="#81A5A5"/>
<path d="M182.167 34.6117H186.628V35.6076H184.939V41.0104H183.852V35.6076H182.171V34.6117H182.167Z" fill="#81A5A5"/>
<path d="M188.504 34.6117V41.0104H187.416V34.6117H188.504Z" fill="#81A5A5"/>
<path d="M189.811 36.4832C189.977 36.0807 190.209 35.7321 190.508 35.4375C190.811 35.1429 191.163 34.9105 191.566 34.7487C191.973 34.5827 192.408 34.4997 192.877 34.4997C193.346 34.4997 193.798 34.5827 194.201 34.7487C194.603 34.9147 194.956 35.1429 195.255 35.4375C195.558 35.7321 195.79 36.0807 195.952 36.4832C196.118 36.8857 196.201 37.3256 196.201 37.8069C196.201 38.2883 196.118 38.724 195.952 39.1307C195.786 39.5373 195.558 39.8942 195.259 40.1888C194.96 40.4876 194.608 40.7199 194.205 40.8859C193.798 41.0519 193.359 41.1391 192.877 41.1391C192.396 41.1391 191.96 41.0561 191.554 40.8859C191.147 40.7199 190.794 40.4876 190.5 40.1888C190.205 39.89 189.973 39.5373 189.811 39.1307C189.645 38.724 189.562 38.28 189.562 37.8069C189.562 37.3339 189.645 36.8857 189.811 36.4832ZM190.985 38.9854C191.172 39.3298 191.429 39.5996 191.757 39.7946C192.085 39.9896 192.462 40.0851 192.881 40.0851C193.3 40.0851 193.682 39.9896 194.01 39.7946C194.338 39.5996 194.591 39.3298 194.778 38.9854C194.964 38.641 195.056 38.2509 195.056 37.8111C195.056 37.3712 194.964 36.9812 194.782 36.6368C194.599 36.2923 194.346 36.0226 194.018 35.8276C193.691 35.6325 193.313 35.5371 192.881 35.5371C192.45 35.5371 192.085 35.6325 191.757 35.8276C191.429 36.0226 191.172 36.2923 190.985 36.6368C190.798 36.9812 190.707 37.3712 190.707 37.8111C190.707 38.2509 190.798 38.641 190.985 38.9854Z" fill="#81A5A5"/>
<path d="M202.986 34.6117V41.3299L198.317 36.7156V41.0104H197.259V34.2922L201.928 38.9066V34.6117H202.986Z" fill="#81A5A5"/>
<path d="M208.247 38.9979C208.451 39.3381 208.72 39.6037 209.052 39.7863C209.384 39.973 209.745 40.0643 210.135 40.0643C210.438 40.0643 210.712 40.0228 210.957 39.944C211.202 39.8651 211.422 39.7572 211.621 39.6203C211.82 39.4834 211.99 39.3298 212.136 39.1597V40.4378C211.866 40.6577 211.579 40.8237 211.268 40.9399C210.957 41.0561 210.567 41.1142 210.098 41.1142C209.629 41.1142 209.193 41.0353 208.787 40.8776C208.38 40.72 208.032 40.4917 207.733 40.193C207.434 39.8942 207.202 39.5415 207.032 39.139C206.866 38.7323 206.778 38.2924 206.778 37.8111C206.778 37.3297 206.861 36.8857 207.032 36.4791C207.197 36.0724 207.434 35.7238 207.733 35.4251C208.032 35.1263 208.384 34.8981 208.787 34.7404C209.193 34.5827 209.629 34.5039 210.098 34.5039C210.567 34.5039 210.957 34.562 211.268 34.6781C211.579 34.7943 211.87 34.9603 212.136 35.1802V36.4583C211.99 36.2882 211.816 36.1346 211.621 35.9977C211.422 35.8608 211.202 35.7529 210.957 35.674C210.712 35.5952 210.438 35.5537 210.135 35.5537C209.745 35.5537 209.384 35.645 209.052 35.8317C208.72 36.0185 208.451 36.2799 208.247 36.616C208.044 36.9521 207.94 37.3505 207.94 37.8069C207.94 38.2634 208.044 38.6535 208.247 38.9937V38.9979Z" fill="#81A5A5"/>
<path d="M214.538 34.6117V40.0394H217.078V41.0063H213.459V34.6076H214.538V34.6117Z" fill="#81A5A5"/>
<path d="M218.941 34.6117V41.0104H217.854V34.6117H218.941Z" fill="#81A5A5"/>
<path d="M226.099 34.6117V41.3299L221.431 36.7156V41.0104H220.372V34.2922L225.041 38.9066V34.6117H226.099Z" fill="#81A5A5"/>
<path d="M228.601 34.6117V41.0104H227.514V34.6117H228.601Z" fill="#81A5A5"/>
<path d="M231.128 38.9979C231.332 39.3381 231.601 39.6037 231.933 39.7863C232.265 39.973 232.626 40.0643 233.016 40.0643C233.319 40.0643 233.593 40.0228 233.838 39.944C234.083 39.8651 234.303 39.7572 234.502 39.6203C234.701 39.4834 234.871 39.3298 235.016 39.1597V40.4378C234.747 40.6577 234.46 40.8237 234.149 40.9399C233.838 41.0561 233.448 41.1142 232.979 41.1142C232.51 41.1142 232.074 41.0353 231.668 40.8776C231.261 40.72 230.912 40.4917 230.614 40.193C230.315 39.8942 230.082 39.5415 229.912 39.139C229.746 38.7323 229.659 38.2924 229.659 37.8111C229.659 37.3297 229.742 36.8857 229.912 36.4791C230.078 36.0724 230.315 35.7238 230.614 35.4251C230.912 35.1263 231.265 34.8981 231.668 34.7404C232.074 34.5827 232.51 34.5039 232.979 34.5039C233.448 34.5039 233.838 34.562 234.149 34.6781C234.46 34.7943 234.751 34.9603 235.016 35.1802V36.4583C234.871 36.2882 234.697 36.1346 234.502 35.9977C234.303 35.8608 234.083 35.7529 233.838 35.674C233.593 35.5952 233.319 35.5537 233.016 35.5537C232.626 35.5537 232.265 35.645 231.933 35.8317C231.601 36.0185 231.332 36.2799 231.128 36.616C230.925 36.9521 230.821 37.3505 230.821 37.8069C230.821 38.2634 230.925 38.6535 231.128 38.9937V38.9979Z" fill="#81A5A5"/>
</svg>
