<svg width="648" height="169" viewBox="0 0 648 169" fill="none" xmlns="http://www.w3.org/2000/svg">
<g clip-path="url(#clip0_1770_14782)">
<path d="M481.866 106.893C486.444 91.9242 505.386 86.9012 514.685 74.3169C518.664 68.9321 520.704 62.3553 524.363 56.7511C528.022 51.1468 534.344 46.3136 540.909 47.6123C543.554 48.1342 545.902 49.599 548.138 51.1053C555.664 56.1818 562.614 62.1003 568.817 68.7186C576.924 77.3651 583.881 87.2985 593.571 94.1185C609.707 105.475 632.219 107.337 645.094 122.294C646.333 123.735 647.496 125.348 647.869 127.21C648.806 131.895 644.329 136.201 639.644 137.143C634.995 138.086 613.521 138.33 588.524 136.651C570.264 135.424 551.939 137.001 533.662 136.094C522.904 135.56 512.141 135.02 501.383 134.487C490.928 133.965 477.626 131.047 476.013 120.704L481.866 106.893Z" fill="#F4E8DA"/>
<path d="M501.673 101.039C503.108 98.839 504.781 95.7612 507.094 94.326C509.644 92.7426 512.449 91.7641 514.916 89.9613C518.456 87.3697 521.356 84.0961 523.693 80.3955C526.183 76.44 527.868 72.0752 530.109 67.9892C531.384 65.6704 532.879 63.5058 534.83 61.7089C537.516 59.23 540.161 57.4212 543.666 59.2952C554.554 65.1248 562.211 76.7009 569.629 86.1717C577.155 95.773 584.835 105.784 597.265 108.82C600.462 109.603 603.765 109.947 606.938 110.818C610.11 111.69 613.01 113.208 615.78 114.928C622.167 118.902 627.866 123.936 633.571 128.805C634.698 129.772 637.716 128.123 636.228 126.848C630.76 122.181 625.304 117.389 619.255 113.487C614.416 110.368 609.547 108.535 603.913 107.48C596.103 106.015 589.639 103.417 583.922 97.7538C578.952 92.8316 574.724 87.1621 570.436 81.6587C566.267 76.3036 562.086 70.9188 557.276 66.1151C553.481 62.3256 548.594 57.3441 543.204 56.0394C538.649 54.9364 534.136 58.4116 531.171 61.5072C527.435 65.4035 525.46 70.4918 523.076 75.2361C520.514 80.354 517.323 85.0153 512.656 88.4431C510.088 90.3289 506.91 91.2244 504.401 93.0866C501.893 94.9487 500.102 98.074 498.405 100.677C497.385 102.237 500.884 102.267 501.685 101.045L501.673 101.039Z" fill="#7AA7A6"/>
<path d="M508.464 115.942C513.955 110.937 523.343 97.4276 530.086 94.3201C540.085 89.7063 550.332 117.793 559.756 123.486C571.195 130.401 608.64 166.606 597.728 168.059C588.85 169.245 553.754 166.902 513.161 166.736C485.626 166.623 470.646 166.618 457.551 165.746C450.933 165.307 466.82 151.845 482.708 146.881C489.718 144.693 492.22 138.466 496.277 131.658C499.918 125.538 505.285 118.842 508.458 115.948L508.464 115.942Z" fill="#7AA7A6"/>
<path d="M517.774 115.812C520.277 112.87 522.661 109.81 525.389 107.064C526.759 105.683 528.218 104.307 529.89 103.293C531.562 102.279 532.132 102.012 533.484 103.364C539.094 108.98 542.356 116.571 547.859 122.347C550.676 125.306 553.784 128.046 557.211 130.282C558.397 131.053 559.471 131.818 560.491 132.814C565.437 137.6 569.63 143.275 573.905 148.637C574.795 149.751 578.086 148.459 577.066 147.178C573.087 142.184 569.155 137.072 564.737 132.453C562.181 129.778 559.145 128.1 556.286 125.781C550.178 120.841 545.944 114.661 541.555 108.262C539.865 105.795 538.133 103.127 535.856 101.158C534.195 99.7227 532.713 99.7167 530.661 100.422C523.948 102.735 519.334 109.792 514.945 114.952C513.57 116.571 516.861 116.897 517.78 115.812H517.774Z" fill="#F4E8DA"/>
<path d="M558.884 143.406C559.002 143.489 558.759 143.317 558.931 143.442C559.079 143.548 559.228 143.655 559.376 143.768C559.892 144.147 560.396 144.539 560.9 144.936C562.46 146.158 563.972 147.445 565.413 148.803C566.854 150.161 568.414 151.72 569.552 153.452C569.76 153.766 569.956 154.164 570.264 154.686C570.667 155.368 571.106 156.032 571.587 156.66C572.316 157.609 573.14 158.481 574.054 159.252C574.878 159.952 575.768 160.557 576.621 161.215C576.989 161.494 577.357 161.784 577.683 162.11C577.772 162.199 577.944 162.33 577.95 162.413C577.938 162.294 577.458 161.345 577.665 162.027C577.861 162.662 578.27 163.35 578.721 163.842C579.059 164.21 579.225 164.162 579.065 163.64C578.401 161.458 576.865 159.809 575.08 158.487C573.188 157.087 571.504 155.717 570.323 153.648C567.957 149.479 564.257 146.122 560.556 143.145C559.583 142.362 558.593 141.597 557.573 140.874C557.3 140.678 557.775 141.894 557.798 141.941C558.065 142.463 558.397 143.074 558.884 143.418V143.406Z" fill="#F4E8DA"/>
<path d="M482.583 150.837C475.775 151.388 471.79 157.265 465.682 159.394C465.344 159.513 464.484 159.916 464.602 160.414C465.373 163.723 471.013 162.454 473.338 162.241C479.749 161.66 486.308 162.733 492.76 162.448C493.863 162.401 496.455 160.663 494.165 160.764C488.585 161.007 483.046 160.557 477.477 160.45C475.325 160.408 468.677 162.211 468.042 159.489L466.963 160.509C469.139 159.75 471.061 158.505 472.941 157.206C475.295 155.575 478.201 152.758 481.172 152.521C482.257 152.432 484.849 150.653 482.577 150.837H482.583Z" fill="#F4E8DA"/>
</g>
<g clip-path="url(#clip1_1770_14782)">
<path d="M317.954 80.2071C304.112 74.6227 278.198 56.0991 269.697 47.8591C261.57 39.9875 252.361 43.2193 250.698 42.9164C246.284 42.1025 242.113 41.3301 238.412 39.6251C233.006 37.1359 228.604 32.6327 224.653 28.1414C214.762 16.9013 213.597 16.0874 208.274 13.1051C205.844 11.7447 202.518 9.88519 196.392 5.69094C192.335 2.91656 186.869 -0.238033 180.507 0.0114829C176.615 0.160004 172.623 1.59769 168.316 4.39584C156.535 12.0477 152.008 20.3055 147.636 28.2959C143.953 35.021 140.471 41.3717 132.463 47.5324C128.584 50.5147 125.251 54.7505 121.93 59.7646C119.292 55.8555 113.72 48.2988 106.383 42.15C103.139 39.4291 99.616 38.0508 95.9148 38.0508C87.1402 38.0508 79.5656 45.8393 73.3158 53.4614C65.7056 62.7351 49.8732 82.0428 39.8451 88.5659C38.2886 89.5818 36.637 90.4907 34.8904 91.4591C31.6051 93.277 28.2069 95.1603 25.2009 97.8633C23.2226 99.6397 17.2401 104.351 11.3706 107.571C9.49918 108.598 7.57435 109.389 6.02972 110.024C2.95236 111.284 0.0532261 112.472 -0.000241621 115.799C-0.0180642 116.737 0.267097 119.054 3.20188 120.373C6.09507 121.674 9.30314 122.28 13.2894 122.28C15.9866 122.28 18.8144 122.013 21.8027 121.722C25.3434 121.383 28.9971 121.033 33.1319 121.033C34.4032 121.033 35.6686 121.068 36.8984 121.134C46.8671 121.686 55.7606 122.144 63.6679 122.144C72.4128 122.144 80.1537 121.603 89.5819 120.314C91.8751 121.449 95.4693 122.595 98.1011 122.827C108.806 123.771 117.468 123.76 127.49 123.736C137.946 123.718 276.79 125.132 321.234 125.162C330.192 125.162 333.894 119.381 334.054 119.191C341.961 110.018 355.952 95.5286 317.948 80.1952L317.954 80.2071Z" fill="#F4E8DA"/>
<path d="M194.284 56.1827C192.567 50.2181 196.987 46.9268 201.05 47.0753C205.423 47.2357 210.508 51.7389 210.354 56.1114C210.193 60.4839 205.435 63.5256 201.062 63.3652C201.038 63.3652 201.015 63.3652 200.985 63.3592C196.868 62.5572 205.559 61.9512 206.427 57.9828C207.253 54.1984 200.397 50.3012 199.096 56.8005C198.781 58.3808 195.317 59.765 194.284 56.1827Z" fill="#7AA7A6"/>
<path d="M190.262 81.5323C192.567 81.6036 194.735 79.2213 194.468 77.3262C193.808 72.6032 187.315 75.3598 184.951 72.7517C183.525 71.1774 184.695 68.9436 186.234 70.3041C188.254 72.0864 190.541 72.0982 192.472 72.1695C194.723 72.2527 197.516 73.2983 198.234 75.1637C199.482 78.4015 196.91 81.3184 196.024 82.0729C192.151 85.3523 186.733 83.4987 183.358 80.356C182.782 79.8214 183.263 78.5381 183.887 78.9302C185.39 79.8808 186.697 81.4135 190.256 81.5264L190.262 81.5323Z" fill="#7AA7A6"/>
<path d="M163.284 61.5295C163.991 65.6643 159.773 64.9455 158.246 62.4087C158.009 61.7671 157.837 61.0839 157.753 60.365C157.248 56.0223 160.332 51.3706 164.674 50.8656C169.017 50.3606 173.544 54.7272 174.049 59.0759C174.554 63.4187 170.455 66.9178 166.106 67.4228C166.088 67.4228 166.071 67.4228 166.059 67.4228C164.686 67.0366 168.019 65.6881 169.433 63.7751C170.318 62.575 171.803 59.4917 169.195 57.9828C164.704 55.3807 163.029 60.0324 163.284 61.5295Z" fill="#7AA7A6"/>
<path d="M181.523 117.296C161.003 115.71 140.561 115.431 119.999 115.348C116.316 115.33 112.639 115.276 108.961 115.128C107.12 115.057 105.278 114.956 103.436 114.837C102.527 114.777 101.624 114.712 100.715 114.641C100.21 114.599 99.6757 114.498 99.1707 114.516C98.2796 114.391 98.333 114.457 99.3252 114.718C100.092 115.181 100.294 115.14 99.9311 114.581C100.127 114.094 99.7291 112.668 99.8301 112.033C99.9311 111.355 100.133 110.684 100.347 110.031C100.751 108.801 101.268 107.423 101.993 106.335C103.436 104.161 105.551 102.272 107.203 100.234C109.419 97.5073 111.522 94.6913 113.536 91.81C120.029 82.5185 125.186 72.3418 131.839 63.1691C134.644 59.3016 137.875 56.4619 141.458 53.3548C145.729 49.6537 149.264 45.2931 152.193 40.4691C157.967 30.9638 162.316 21.4406 171.495 14.567C174.061 12.6421 176.841 10.747 179.889 9.67172C184.285 8.11521 188.105 8.95287 192.014 11.3827C196.197 13.9848 200.183 16.8542 204.466 19.2959C206.569 20.496 208.726 21.5772 210.574 23.1575C214.174 26.2408 217.215 30.0667 220.346 33.6015C224.915 38.7582 229.905 43.6178 236.137 46.7189C242.838 50.0517 250.217 50.9429 257.447 52.4815C258.392 52.6835 259.152 52.7548 258.867 51.7746C258.599 50.8597 255.95 50.1765 255.189 50.0161C247.526 48.3883 239.927 47.7229 233.565 42.6851C228.444 38.6334 224.428 33.3757 220.02 28.5993C217.958 26.3655 215.843 24.108 213.354 22.3317C211.114 20.7395 208.637 19.5157 206.272 18.1256C196.5 12.3807 185.943 2.46546 173.8 7.53895C162.506 12.256 155.383 22.6347 149.733 32.9242C146.989 37.9264 144.089 42.8276 140.21 47.0516C136.586 51.0023 132.059 53.8836 128.62 58.0244C121.241 66.9119 116.15 77.6114 109.71 87.1643C107.785 90.0218 105.783 92.82 103.68 95.5468C101.47 98.4044 98.5647 101.018 96.5686 103.995C95.1844 106.056 94.0259 109.116 94.1982 111.605C94.4834 115.71 99.6163 116.886 102.961 117.201C106.959 117.576 110.981 117.754 114.991 117.878C124.075 118.152 133.164 117.968 142.248 118.039C156.518 118.146 170.776 118.859 185.004 119.964C186.216 120.059 186.079 119.536 185.444 118.835C184.642 117.956 182.681 117.403 181.529 117.314L181.523 117.296Z" fill="#7AA7A6"/>
<path d="M103.65 45.3941C94.0141 37.3145 84.5503 46.4219 76.5777 56.147C68.6051 65.8722 52.6836 85.2572 42.1445 92.113C37.4691 95.1547 32.1639 97.2875 28.0172 101.012C25.6824 103.115 19.4445 107.963 13.3967 111.284C7.7232 114.397 2.25762 115.306 4.94288 116.518C12.9927 120.142 22.6526 116.114 37.1364 116.922C61.482 118.277 72.532 118.633 92.6536 115.615C92.6536 115.615 90.1704 107.815 94.424 102.141C106.793 85.6493 119.958 64.5534 119.958 64.5534C119.958 64.5534 113.375 53.5628 103.644 45.406L103.65 45.3941Z" fill="#7AA7A6"/>
<path d="M100.151 50.6042C96.3547 48.4417 91.7624 49.7071 88.4474 52.2261C83.6532 55.8678 79.6966 61.3334 76.2271 66.193C72.7576 71.0526 70.3397 76.2687 65.29 79.6847C61.476 82.263 57.3055 84.4315 55.2915 88.798C54.941 89.5525 58.256 89.2435 58.7075 88.2633C60.4363 84.5146 64.0068 82.5957 67.3099 80.4214C70.411 78.3777 72.8408 76.0964 74.8666 72.9656C77.3321 69.1575 79.75 65.3969 82.5779 61.8443C85.4295 58.2679 91.6852 48.8695 96.925 51.8518C97.8577 52.3805 100.804 50.9785 100.151 50.6042Z" fill="#F4E8DA"/>
<path d="M65.1714 91.5011C62.1831 91.8338 60.3652 93.5685 58.6186 95.8973C56.0641 99.3074 53.355 101.779 49.4578 103.585C44.9844 105.658 36.5246 106.912 35.2176 112.555C34.8552 114.118 38.3663 113.66 38.693 112.241C39.3168 109.538 43.0833 108.539 45.3824 107.66C47.6815 106.781 50.1173 105.896 52.357 104.731C54.4422 103.644 56.4086 102.355 58.1374 100.751C59.8662 99.1469 62.2544 94.115 64.8149 93.8299C66.6625 93.622 67.5299 91.2337 65.1714 91.4951V91.5011Z" fill="#F4E8DA"/>
<path d="M243.326 59.1115C247.841 60.3353 251.892 63.3652 256.52 64.0721C258.813 64.4226 261.077 63.8345 263.382 63.882C265.687 63.9296 267.624 64.7969 269.65 65.7772C276.666 69.1694 283.824 73.4884 289.848 78.4668C291.928 80.1897 296.431 76.3816 294.055 74.4152C287.888 69.312 280.587 65.0286 273.428 61.4997C271.741 60.668 270.012 59.8007 268.17 59.4026C265.592 58.8501 263.097 59.2779 260.507 59.3789C255.73 59.5749 251.031 55.7549 246.492 54.5252C243.944 53.836 240.141 58.2382 243.338 59.1056L243.326 59.1115Z" fill="#7AA7A6"/>
</g>
<defs>
<clipPath id="clip0_1770_14782">
<rect width="191.99" height="120.998" fill="white" transform="translate(456.009 47.3988)"/>
</clipPath>
<clipPath id="clip1_1770_14782">
<rect width="343.233" height="125.174" fill="white"/>
</clipPath>
</defs>
</svg>
