<svg width="202" height="59" viewBox="0 0 202 59" fill="none" xmlns="http://www.w3.org/2000/svg">
<path d="M0.535645 16.2776C0.535645 7.99332 7.25137 1.27759 15.5356 1.27759H185.536C193.82 1.27759 200.536 7.99332 200.536 16.2776V42.2776C200.536 50.5619 193.82 57.2776 185.536 57.2776H15.5356C7.25137 57.2776 0.535645 50.5619 0.535645 42.2776V16.2776Z" fill="#82A6A6"/>
<path d="M156.292 58.2079C145.559 58.0084 137.111 58.8901 124.029 58.7655C110.948 58.6408 108.989 58.1732 94.0071 58.2784C79.0264 58.3836 64.0371 58.0637 57.3666 58.2559C50.6964 58.4481 49.9924 57.867 40.52 57.9961C31.0482 58.1251 25.3074 58.0492 17.0236 57.8604C16.576 57.8502 16.0782 57.84 15.5356 57.8301C10.1636 58.4338 -0.217156 52.0409 0.181918 42.2776C0.196956 35.0824 0.169229 28.2579 0.0709626 24.3384C0.005171 21.7142 -0.00959581 18.9854 0.00519234 16.2776C-0.0935644 8.92256 5.79945 3.39414 10.1181 2.07295C12.006 1.38898 13.5954 1.22874 14.7925 1.20974C15.299 1.20449 15.5359 1.2485 15.5356 1.28435C15.5356 1.28437 15.5356 1.2844 15.5356 1.28442C15.5347 1.33236 15.1737 1.36799 14.5307 1.41518C11.4729 1.58199 6.54216 3.27594 3.52952 7.92345C1.44937 11.2252 1.09529 13.8726 1.04508 16.2776C1.03209 20.3076 0.939121 24.0533 1.03794 32.6875C1.07767 36.1581 1.12722 39.2856 1.17615 42.2776C1.33219 49.4302 6.68017 56.1792 15.5356 56.4475C17.3543 56.4583 19.2705 56.4759 21.3103 56.5015C37.8013 56.7089 41.5891 55.8411 64.8679 56.3329C88.1461 56.8247 90.5962 55.9171 113.794 55.7964C136.991 55.6757 166.274 56.1765 180.258 56.135C181.949 56.1299 183.711 56.124 185.536 56.1176C192.033 56.3653 199.443 50.3902 199.312 42.2776C199.305 34.7149 199.316 26.7107 199.366 18.5289C199.37 17.7849 199.374 17.0343 199.377 16.2776C199.661 9.39318 193.308 2.25125 185.536 2.4473C172.183 2.48794 158.217 2.54395 145.171 2.41654C123.289 2.20284 92.3522 1.93292 78.0597 1.75205C63.7679 1.57119 60.2843 1.53039 46.5277 1.64091C38.6202 1.70443 27.7269 1.64456 18.5256 1.41093C13.8949 1.29335 14.9442 1.12964 19.6051 1.05131C26.421 0.936771 32.016 1.01329 35.5279 0.808695C42.5454 0.399802 45.528 0.242945 54.387 0.480936C63.2457 0.718897 67.4199 0.17809 72.584 0.240335C77.7482 0.302611 77.6633 0.621602 103.921 0.375833C130.18 0.130056 144.575 0.067344 154.518 0.00834072C161.386 -0.0324069 173.413 0.0870229 185.536 0.131915C191.437 0.0747393 197.021 3.6435 199.625 8.37504C200.834 10.4837 201.717 13.2331 201.719 16.2776C201.74 23.9291 201.742 33.2582 201.75 42.2776C201.965 52.209 192.384 58.9881 185.536 58.5545C183.585 58.5671 181.833 58.5824 180.332 58.6009C167.051 58.7644 167.024 58.4074 156.292 58.2079Z" fill="#F4E8DA"/>
</svg>
