<svg width="162" height="48" preserveAspectRatio="none" viewBox="0 0 162 48" fill="none" xmlns="http://www.w3.org/2000/svg">
<path d="M1.33405 18.4069C1.33405 10.1227 8.04977 3.40692 16.334 3.40692H143.334C151.618 3.40692 158.334 10.1227 158.334 18.4069V28.4069C158.334 36.6912 151.618 43.4069 143.334 43.4069H16.334C8.04978 43.4069 1.33405 36.6912 1.33405 28.4069V18.4069Z" fill="#F4E8DA"/>
<path d="M121.187 45.8878C113.059 45.3558 106.661 47.7069 96.7536 47.3746C86.8467 47.0423 85.3629 45.7952 74.017 46.0758C62.6717 46.3563 51.3199 45.5033 46.2681 46.0157C41.2166 46.5282 40.6834 44.9787 33.5098 45.3228C26.5747 45.6555 22.2807 45.4775 16.334 45.0102C16.1071 44.9941 15.8796 44.9732 15.6516 44.9472C13.3322 44.7189 9.24919 43.7168 5.9095 40.6813C2.52238 37.7468 0.333618 32.861 0.398441 28.4069C0.382643 24.5024 0.291962 21.0258 0.0948936 18.7935C0.083546 18.665 0.0727677 18.5361 0.0625432 18.4069C-0.796028 10.3245 7.38813 3.98275 12.1017 3.4611C13.62 3.11735 14.8463 3.11155 15.7652 3.18845C16.1547 3.22286 16.3343 3.32679 16.334 3.42495C16.334 3.42501 16.334 3.42508 16.334 3.42514C16.3334 3.54923 16.0602 3.66487 15.582 3.70373C13.2773 3.86166 9.66837 4.95658 7.00596 7.96588C3.71537 12.1709 2.9151 13.9701 2.55981 18.4069C2.54133 20.1642 2.55983 22.2959 2.67351 25.1165C2.71951 26.258 2.77046 27.3505 2.82407 28.4069C3.51713 35.5417 8.26262 40.5799 16.334 41.2386C17.1804 41.2646 18.0549 41.2973 18.9617 41.3375C31.4508 41.8905 34.3194 39.5763 51.9491 40.8878C69.5783 42.1992 71.4338 39.7789 89.0019 39.4571C106.57 39.1353 128.747 40.4707 139.337 40.3599C140.618 40.3465 141.952 40.3307 143.334 40.3136C148.79 40.4724 155.154 35.3863 155.07 28.4069C155.081 25.1441 155.111 21.7996 155.17 18.4069C155.183 17.8075 155.153 17.209 155.08 16.6136C154.602 11.3925 149.366 6.32553 143.334 6.54512C133.755 6.65006 123.823 6.76438 114.511 6.44414C97.9387 5.87426 74.5093 5.15448 63.6852 4.67216C52.8616 4.18986 50.2235 4.08107 39.8052 4.37578C33.8166 4.54518 25.5668 4.3855 18.5984 3.7625C15.0914 3.44895 15.8861 3.01239 19.416 2.80351C24.5778 2.49808 28.8151 2.70213 31.4747 2.15654C36.7893 1.06616 39.048 0.647874 45.7573 1.28252C52.4662 1.91708 55.6274 0.474928 59.5383 0.640914C63.4493 0.806983 63.385 1.65762 83.2709 1.00224C103.157 0.346836 114.059 0.179604 121.589 0.0222623C126.46 -0.079504 134.759 0.193388 143.334 0.326767C149.013 0.336081 154.512 3.32001 157.698 7.44167C159.75 9.98766 161.518 13.9199 161.519 18.4069C161.538 21.5659 161.548 24.9632 161.557 28.4069C161.931 39.3679 150.922 47.3056 143.334 46.8121C141.857 46.8457 140.53 46.8863 139.393 46.9356C129.335 47.3718 129.315 46.4197 121.187 45.8878Z" fill="#F4E8DA"/>
</svg>
