<svg width="255" height="66" preserveAspectRatio="none" viewBox="0 0 255 66" fill="none" xmlns="http://www.w3.org/2000/svg">
<path d="M1.42847 18.4069C1.42847 10.1226 8.1442 3.40686 16.4285 3.40686H236.428C244.713 3.40686 251.428 10.1226 251.428 18.4069V46.4069C251.428 54.6911 244.713 61.4069 236.428 61.4069H16.4285C8.1442 61.4069 1.42847 54.6911 1.42847 46.4069V18.4069Z" fill="#82A6A6"/>
<path d="M200.93 63.8877C187.902 63.3558 177.646 65.7068 161.767 65.3745C145.888 65.0422 143.51 63.7951 125.324 64.0757C107.139 64.3562 88.9436 63.5033 80.8464 64.0156C72.7496 64.5282 71.8951 62.9786 60.3968 63.3228C48.8991 63.6669 41.9305 63.4646 31.8748 62.961C28.5324 62.7935 22.8879 62.6343 16.4285 62.5189C8.08539 62.776 0.107835 54.4623 0.483817 46.4069C0.45363 41.066 0.362603 36.3777 0.189315 33.2314C-0.0765271 28.4046 -0.0299635 23.2863 0.129824 18.4069C0.279013 11.146 5.64707 5.99717 9.78011 4.36836C12.0693 3.3775 14.0512 3.18259 15.5178 3.20475C16.1418 3.21798 16.4286 3.32787 16.4285 3.42489C16.4285 3.42495 16.4285 3.42502 16.4285 3.42508C16.4262 3.55079 15.9935 3.65757 15.2231 3.73342C11.5802 3.96486 5.64355 6.75416 3.54006 12.9277C2.83219 15.0018 2.68125 16.8187 2.72995 18.4069C2.96488 26.0264 2.41959 29.5122 2.76793 43.3661C2.79402 44.4037 2.82169 45.416 2.85055 46.4069C3.20726 54.3795 9.75369 59.4233 16.4285 59.2374C22.4369 59.1205 28.9501 59.1129 37.0784 59.3374C57.0965 59.8904 61.6945 57.5762 89.9522 58.8877C118.209 60.1991 121.183 57.7789 149.342 57.4571C177.502 57.1352 213.047 58.4706 230.022 58.3599C232.075 58.3465 234.213 58.3306 236.428 58.3136C242.116 58.4794 248.327 53.2496 248.181 46.4069C248.147 37.5509 248.149 28.1148 248.242 18.4069C248.261 16.8653 247.985 15.3236 247.415 13.877C245.843 9.70159 241.373 6.37541 236.428 6.45569C216.338 6.50952 194.142 6.88069 173.791 6.44407C147.228 5.8742 109.675 5.15442 92.3253 4.6721C74.9766 4.1898 70.7481 4.08101 54.0491 4.37572C44.4504 4.54512 31.2272 4.38544 20.0579 3.76243C14.4368 3.44889 15.7105 3.01233 21.3684 2.80345C29.6419 2.49801 36.4337 2.70206 40.6967 2.15648C49.2151 1.0661 52.8356 0.647813 63.5894 1.28245C74.3428 1.91702 79.4098 0.474867 85.6783 0.640853C91.9471 0.806922 91.844 1.65756 123.718 1.00218C155.593 0.346775 173.066 0.179543 185.137 0.0222013C196.077 -0.12041 217.808 0.47274 236.428 0.386638C238.733 0.375511 241.011 0.805434 243.084 1.60252C248.614 3.54397 254.677 9.9773 254.621 18.4069C254.649 27.2655 254.655 37.1146 254.679 46.4069C254.885 57.5966 244.327 65.1979 236.428 64.812C234.061 64.8457 231.934 64.8863 230.112 64.9356C213.991 65.3718 213.958 64.4196 200.93 63.8877Z" fill="#82A6A6"/>
</svg>
