<svg width="255" height="64" viewBox="0 0 255 64" fill="none" xmlns="http://www.w3.org/2000/svg">
<path d="M1.42859 18.4069C1.42859 10.1226 8.14432 3.40686 16.4286 3.40686H236.429C244.713 3.40686 251.429 10.1226 251.429 18.4069V44.4069C251.429 52.6911 244.713 59.4069 236.429 59.4069H16.4286C8.14432 59.4069 1.42859 52.6911 1.42859 44.4069V18.4069Z" fill="#F4A466"/>
<path d="M201.171 61.8877C188.231 61.3558 178.045 63.7068 162.273 63.3745C146.501 63.0422 144.139 61.7951 126.077 62.0757C108.015 62.3562 89.9433 61.5033 81.9009 62.0156C73.859 62.5282 73.0102 60.9786 61.5898 61.3228C50.1701 61.6669 43.2486 61.4646 33.2612 60.961C29.6866 60.7807 23.4611 60.6099 16.4286 60.4932C7.89015 60.7418 0.0953244 52.2434 0.472376 44.4069C0.433703 39.7906 0.344506 35.7676 0.189437 32.9712C-0.0734869 28.2298 -0.030826 23.2051 0.124725 18.4069C0.271027 11.1227 5.67801 5.96341 9.82227 4.34849C12.0991 3.37163 14.0672 3.18105 15.5241 3.20438C16.1438 3.21809 16.4288 3.32784 16.4286 3.42489C16.4286 3.42495 16.4286 3.42502 16.4286 3.42508C16.4264 3.55076 15.9966 3.65773 15.2314 3.73276C11.6122 3.96315 5.71809 6.71208 3.58408 12.8257C2.84353 14.9451 2.6877 16.7937 2.73493 18.4069C2.95735 25.8645 2.42217 29.3744 2.76805 43.0373C2.77973 43.4988 2.79173 43.9552 2.80401 44.4069C3.16609 52.5722 9.89696 57.495 16.4286 57.269C22.8139 57.1234 29.6795 57.094 38.4295 57.3374C58.3119 57.8904 62.8788 55.5762 90.9449 56.8877C119.01 58.1991 121.964 55.7789 149.933 55.4571C177.901 55.1352 213.206 56.4706 230.065 56.3599C232.105 56.3465 234.228 56.3306 236.429 56.3136C242.113 56.4793 248.326 51.2516 248.18 44.4069C248.149 36.1603 248.15 27.4098 248.227 18.4069C248.25 16.4478 247.79 14.4877 246.866 12.7278C245.016 9.10032 240.907 6.39575 236.429 6.45227C216.086 6.49048 193.442 6.8916 172.724 6.44407C146.342 5.8742 109.043 5.15442 91.8111 4.6721C74.58 4.1898 70.3801 4.08101 53.7943 4.37572C44.2606 4.54512 31.127 4.38544 20.0334 3.76243C14.4504 3.44889 15.7155 3.01233 21.335 2.80345C29.5525 2.49801 36.2982 2.70206 40.5324 2.15648C48.993 1.0661 52.589 0.647813 63.27 1.28245C73.9504 1.91702 78.9831 0.474867 85.2092 0.640853C91.4355 0.806922 91.3331 1.65756 122.991 1.00218C154.65 0.346775 172.005 0.179543 183.994 0.0222013C195.154 -0.124261 217.616 0.505303 236.429 0.378152C238.106 0.368227 239.762 0.586951 241.337 1.01208C247.472 2.42617 254.7 9.17864 254.627 18.4069C254.65 26.7166 254.656 35.7982 254.679 44.4069C254.886 55.5971 244.321 63.1989 236.429 62.812C234.077 62.8457 231.964 62.8863 230.155 62.9356C214.143 63.3718 214.11 62.4196 201.171 61.8877Z" fill="#F4A466"/>
</svg>
