<svg width="18" height="16" viewBox="0 0 18 16" fill="none" xmlns="http://www.w3.org/2000/svg">
<path d="M8.36133 0.566406C9.99616 0.319594 12.3157 0.734989 14.209 2.02148C16.0777 3.29146 17.5319 5.41016 17.499 8.61816C17.4918 9.3576 17.1348 10.1318 16.4932 10.9082C15.8545 11.681 14.9675 12.4157 13.9844 13.0645C12.006 14.3699 9.74719 15.2609 8.58301 15.4365C6.12854 15.8049 4.03089 14.5174 2.56152 12.7109C1.83003 11.8116 1.27138 10.8014 0.920898 9.84863C0.567014 8.88655 0.440508 8.02456 0.525391 7.41211V7.41113C0.82044 5.26204 2.71144 1.42517 8.3623 0.567383L8.36133 0.566406Z" fill="#F4E8DA" stroke="#F4A466"/>
</svg>
