<svg width="20" height="20" viewBox="0 0 20 20" fill="none" xmlns="http://www.w3.org/2000/svg">
<path fill-rule="evenodd" clip-rule="evenodd" d="M10 1.53846C5.32682 1.53846 1.53846 5.32682 1.53846 10C1.53846 14.6732 5.32682 18.4615 10 18.4615C14.6732 18.4615 18.4615 14.6732 18.4615 10C18.4615 5.32682 14.6732 1.53846 10 1.53846ZM0 10C0 4.47715 4.47715 0 10 0C15.5228 0 20 4.47715 20 10C20 15.5228 15.5228 20 10 20C4.47715 20 0 15.5228 0 10Z" fill="#F4A466"/>
<path fill-rule="evenodd" clip-rule="evenodd" d="M10.0002 5.64102C10.425 5.64102 10.7694 5.98541 10.7694 6.41025V10.5128C10.7694 10.9377 10.425 11.2821 10.0002 11.2821C9.57536 11.2821 9.23096 10.9377 9.23096 10.5128V6.41025C9.23096 5.98541 9.57536 5.64102 10.0002 5.64102Z" fill="#F4A466"/>
<path d="M11.0256 13.5897C11.0256 14.1562 10.5664 14.6154 9.99997 14.6154C9.43357 14.6154 8.97437 14.1562 8.97437 13.5897C8.97437 13.0233 9.43357 12.5641 9.99997 12.5641C10.5664 12.5641 11.0256 13.0233 11.0256 13.5897Z" fill="#F4A466"/>
</svg>
