<svg width="12" height="14" viewBox="0 0 12 14" fill="none" xmlns="http://www.w3.org/2000/svg">
<path d="M8.68801 0H3.31201C1.48801 0 0 1.49655 0 3.33104V10.669C0 11.4414 0.608001 12.0529 1.376 12.069V12.8575C1.376 13.4851 1.88801 14 2.51201 14C3.13601 14 3.648 13.4851 3.648 12.8575V12.069H8.272V12.8575C8.272 13.4851 8.78401 14 9.40801 14C10.032 14 10.544 13.4851 10.544 12.8575V12.069H10.608C11.376 12.069 12 11.4414 12 10.669V3.33104C12 1.49655 10.512 0 8.68801 0ZM3.56802 9.97701C2.89602 9.97701 2.352 9.42989 2.352 8.75403C2.352 8.07817 2.89602 7.53104 3.56802 7.53104C4.24002 7.53104 4.78401 8.07817 4.78401 8.75403C4.78401 9.42989 4.24002 9.97701 3.56802 9.97701ZM8.704 9.97701C8.032 9.97701 7.48801 9.42989 7.48801 8.75403C7.48801 8.07817 8.032 7.53104 8.704 7.53104C9.376 7.53104 9.92002 8.07817 9.92002 8.75403C9.92002 9.42989 9.376 9.97701 8.704 9.97701ZM9.93601 5.10115C9.93601 5.47126 9.63201 5.77701 9.26401 5.77701H3.00801C2.64001 5.77701 2.33601 5.47126 2.33601 5.10115V3.0092C2.33601 2.63909 2.64001 2.33333 3.00801 2.33333H9.26401C9.63201 2.33333 9.93601 2.63909 9.93601 3.0092V5.10115Z" fill="#998675"/>
</svg>
