<svg width="13" height="13" viewBox="0 0 13 13" fill="none" xmlns="http://www.w3.org/2000/svg">
<g clip-path="url(#clip0_2342_188)">
<path d="M7.81369 4.38357C7.53672 4.17021 7.16991 4.06369 6.71386 4.06369H5.66992V6.61163H6.71386C7.17022 6.61163 7.53672 6.50325 7.81369 6.28619C8.09034 6.06913 8.22898 5.75141 8.22898 5.3321C8.22898 4.9128 8.09034 4.59693 7.81369 4.38357Z" fill="#998675"/>
<path d="M6.49985 0C2.91013 0 0 2.91013 0 6.49985C0 10.0896 2.91013 12.9997 6.49985 12.9997C10.0896 12.9997 12.9997 10.0896 12.9997 6.49985C12.9997 2.91013 10.0899 0 6.49985 0ZM9.18303 6.63385C8.95114 7.00067 8.62354 7.28319 8.20084 7.48111C7.77814 7.67933 7.28226 7.77845 6.71382 7.77845H5.66988V10.7528H4.34558V2.89623H6.71382C7.28226 2.89623 7.77814 2.99565 8.20084 3.19357C8.62354 3.3918 8.95084 3.67247 9.18303 4.03527C9.41491 4.39838 9.53101 4.83035 9.53101 5.33147C9.53101 5.8326 9.41491 6.26704 9.18303 6.63354V6.63385Z" fill="#998675"/>
</g>
<defs>
<clipPath id="clip0_2342_188">
<rect width="13" height="13" fill="white"/>
</clipPath>
</defs>
</svg>
