<svg width="123" height="70" viewBox="0 0 123 70" fill="none" xmlns="http://www.w3.org/2000/svg">
<g clip-path="url(#clip0_79_1824)">
<path d="M61.9645 33.9646C56.7837 30.1543 49.0877 15.2387 45.467 11.9387C42.5072 9.23896 37.4406 1.9537 33.8028 0.274549C28.4105 -2.21381 22.8822 12.935 17.7986 16.0066C11.6263 19.7367 3.36657 32.2052 0.0981731 37.1649C-3.17023 42.1247 -11.7021 47.3371 -18.2122 57.1034C-18.2122 57.1034 -10.0448 57.9393 -2.05484 57.5651C24.2066 56.3307 43.5011 56.1533 57.0801 57.2929C74.71 58.7728 84.4205 58.5639 81.4923 54.0367C78.5082 49.4245 67.8379 38.2852 61.9621 33.9646H61.9645Z" fill="#82A6A6"/>
<path d="M0.331774 43.9374C4.66696 42.7321 7.66563 39.0093 9.8721 35.2962C12.2462 31.2988 14.132 26.8008 17.7697 23.739C18.7806 22.8885 19.8741 22.1376 20.8462 21.2385C21.8182 20.3394 22.5788 19.4232 23.3199 18.4099C24.8995 16.2447 26.2943 13.9313 27.7523 11.6811C28.5299 10.4807 29.3075 9.28268 30.0852 8.08224C30.4497 7.51847 30.802 6.94499 31.1835 6.3958C31.4678 5.98755 31.8226 5.54772 32.3524 5.49182C33.4653 5.37032 34.1263 6.62665 34.5856 7.42613C35.1664 8.4346 35.8614 9.30698 36.7167 10.0967C37.5721 10.8865 38.4153 11.5232 39.2099 12.2984C39.9487 13.0176 40.5319 13.8074 40.9912 14.7333C41.8295 16.427 42.3374 18.4026 43.7395 19.7513C44.1113 20.1085 44.5196 20.4001 44.9764 20.6382C45.2073 20.7573 45.5694 20.7087 45.6544 20.4293C45.7443 20.1279 45.4819 19.8533 45.2413 19.7294C43.6448 18.8983 43.03 16.8498 42.3398 15.28C41.9267 14.3372 41.4553 13.4356 40.7992 12.6361C40.0726 11.7516 39.1808 11.0177 38.3133 10.279C37.4992 9.58644 36.6633 8.86715 36.0582 7.97775C35.3729 6.96929 34.9185 5.77128 33.8833 5.04956C32.8481 4.32784 31.5772 4.21362 30.6586 5.13218C30.231 5.55987 29.9272 6.10905 29.5991 6.61207C29.2055 7.21958 28.8094 7.82952 28.4157 8.43703C26.8751 10.8136 25.3393 13.195 23.7938 15.5668C23.1109 16.6165 22.4111 17.659 21.6262 18.6359C20.8413 19.6128 19.8814 20.5508 18.8535 21.3648C17.8256 22.1789 16.8317 22.9201 15.918 23.8167C15.0675 24.6551 14.3093 25.5809 13.6192 26.553C12.2511 28.4824 11.143 30.5795 9.99846 32.6426C7.90377 36.4213 5.38382 40.5548 1.27949 42.4017C0.78862 42.6228 0.280742 42.8026 -0.236856 42.946C-0.912406 43.1331 -0.222275 44.0954 0.336633 43.9399L0.331774 43.9374Z" fill="#F4E8DA"/>
<path d="M5.56111 45.3372C7.97414 44.3604 9.89387 42.5962 11.4758 40.5646C12.2559 39.5635 12.9557 38.504 13.624 37.4275C13.9861 36.8443 14.3457 36.2368 14.8268 35.7386C15.308 35.2404 15.8669 34.9002 16.4331 34.5406C17.6481 33.7654 18.953 32.7642 18.9725 31.1847C18.9749 30.9028 18.4986 30.8664 18.3115 30.8955C18.0539 30.9368 17.7745 31.0851 17.7721 31.3742C17.7575 32.6281 16.5813 33.4301 15.636 34.0303C15.0844 34.3802 14.5182 34.7326 14.0419 35.1845C13.5657 35.6365 13.1647 36.1954 12.8051 36.7592C11.4977 38.8126 10.1879 40.8733 8.37753 42.5305C7.41766 43.4078 6.33386 44.1587 5.1237 44.6471C4.91472 44.7322 4.6377 44.9266 4.77864 45.1841C4.90986 45.4223 5.34484 45.4223 5.55868 45.3348L5.56111 45.3372Z" fill="#F4E8DA"/>
<path d="M42.8502 22.349C44.6508 24.6794 46.4515 27.0074 48.2522 29.3378C48.4028 29.5322 48.7455 29.7582 49.0055 29.7072C49.2776 29.6537 49.1731 29.3986 49.0516 29.243C47.251 26.9126 45.4503 24.5846 43.6497 22.2542C43.499 22.0598 43.1564 21.8338 42.8964 21.8849C42.6242 21.9383 42.7287 22.1935 42.8502 22.349Z" fill="#F4E8DA"/>
<path d="M89.9054 33.1505C74.6326 6.34966 72.2731 15.5182 63.8773 27.3646C58.9759 34.2781 47.771 46.9847 40.668 51.6067C37.5187 53.6552 33.9417 55.0938 31.1471 57.604C29.5724 59.0207 25.3685 62.2891 21.2909 64.5272C17.466 66.6243 13.7845 67.2391 15.5949 68.0532C21.0211 70.4954 27.5312 67.781 37.2951 68.3253C53.7051 69.2366 69.1578 68.7214 82.8656 68.3253C98.5855 67.8709 123 68.685 123 68.685C123 68.685 116.49 59.463 102.928 45.0845C98.0995 39.9668 91.7498 36.3849 89.9079 33.1481L89.9054 33.1505Z" fill="#82A6A6"/>
<path d="M76.4259 40.985C74.6204 41.0409 73.194 43.991 73.3228 42.3555C73.5731 40.2924 74.946 38.6084 77.0577 38.6862C79.3298 38.7688 81.9737 41.1114 81.8911 43.381C81.8085 45.6531 79.3347 47.2351 77.0626 47.15C77.0505 47.15 77.0359 47.1476 77.0237 47.1476C74.8853 46.7296 79.2035 46.5571 79.602 44.4843C79.9908 42.4698 78.4793 40.9194 76.4259 40.985Z" fill="white"/>
<path d="M71.4516 56.5907C72.6496 56.6296 73.7771 55.3903 73.6386 54.4037C73.296 51.9493 69.9231 53.3806 68.6935 52.0271C67.9523 51.2082 68.5598 50.049 69.3593 50.7538C70.4066 51.6796 71.5974 51.6869 72.601 51.7233C73.7723 51.7671 75.223 52.3114 75.5972 53.281C76.2436 54.965 74.9095 56.4814 74.4478 56.8702C72.4357 58.5736 69.6193 57.6113 67.8673 55.9783C67.5684 55.7013 67.8187 55.0331 68.1419 55.2396C68.9219 55.7329 69.6023 56.5324 71.4516 56.5907Z" fill="white"/>
<path d="M57.4546 46.4721C58.4485 48.7927 61.8481 48.0977 60.5383 48.9045C60.2054 49.0309 59.8507 49.1232 59.4789 49.1718C57.2238 49.4586 54.7913 47.8839 54.5046 45.6288C54.2178 43.3738 56.4632 40.9996 58.7183 40.7129C60.9733 40.4261 62.8104 42.5378 63.0996 44.7929C63.0996 44.8026 63.0996 44.8099 63.0996 44.8196C62.9052 45.5365 62.4168 43.07 59.9624 43.1648C58.4801 43.2207 56.7669 44.8755 57.4522 46.4745L57.4546 46.4721Z" fill="white"/>
<path d="M100.425 52.5836C102.656 53.4122 104.454 55.0087 106.068 56.7146C107.786 58.5274 109.334 60.4982 111.141 62.226C112.177 63.2174 113.297 64.1092 114.527 64.848L114.342 64.0874C109.832 63.509 105.3 63.1105 100.773 62.695C99.47 62.5759 98.1699 62.4568 96.8674 62.3377C96.6244 62.3159 96.5078 62.4641 96.6171 62.6925C96.7265 62.9209 97.0546 63.1664 97.317 63.1907C101.851 63.6062 106.388 63.9902 110.913 64.481C112.206 64.622 113.499 64.7726 114.791 64.9379C114.971 64.9622 115.117 64.8868 115.083 64.69C115.044 64.4592 114.787 64.2866 114.604 64.1773C112.524 62.9282 110.857 61.0984 109.263 59.2978C107.586 57.4048 105.946 55.4607 103.944 53.8982C102.819 53.0185 101.574 52.2944 100.233 51.7962C100.041 51.7258 99.7713 51.7501 99.8126 52.0125C99.854 52.275 100.199 52.4985 100.427 52.5836H100.425Z" fill="#F4E8DA"/>
<path d="M26.7583 65.2611C30.2769 63.4386 33.3971 60.9162 35.9316 57.8714C36.1188 57.6454 35.5015 56.6369 35.2998 56.8799C32.792 59.8932 29.6816 62.3815 26.2018 64.1822C25.9418 64.3158 26.4958 65.3972 26.7583 65.2636V65.2611Z" fill="#F4E8DA"/>
<path d="M32.5225 65.1979C37.4554 64.4665 42.437 64.0825 47.4259 64.0509C47.6956 64.0509 48.0358 63.8177 48.0504 63.5309C48.0674 63.2126 47.7369 63.1105 47.4818 63.113C42.4953 63.1445 37.5138 63.5285 32.5784 64.2599C32.3086 64.3012 31.9708 64.4665 31.9538 64.78C31.9393 65.0716 32.2673 65.2368 32.5225 65.1979Z" fill="#F4E8DA"/>
</g>
<defs>
<clipPath id="clip0_79_1824">
<rect width="141.209" height="69.0908" fill="white" transform="translate(-18.2095)"/>
</clipPath>
</defs>
</svg>
