<svg width="150" height="126" viewBox="0 0 150 126" fill="none" xmlns="http://www.w3.org/2000/svg">
<path d="M134.291 48.6282C131.483 45.0143 125.331 38.6149 118.776 36.5872C118.172 36.3997 121.274 26.1247 114.754 17.3811C110.411 11.5599 101.549 7.04357 93.059 7.77806C89.3231 8.10233 86.9148 9.41113 86.7346 9.24314C71.4347 -5.12238 52.5986 -0.0903456 44.606 6.59429C33.0146 16.2872 35.3642 28.5625 34.5849 31.2114C34.2168 32.4655 29.5802 37.7515 24.8888 42.174C19.6844 47.081 14.3782 52.3631 12.4985 58.407C10.0197 66.3614 13.2465 77.5155 22.6253 83.1296C30.708 87.9663 38.0702 85.3878 48.6278 84.4189C52.5164 84.0634 53.3309 86.7943 56.636 88.2163C64.7892 91.7286 72.0613 87.5287 74.5949 86.9271C75.7032 86.6653 79.02 91.0723 90.2551 90.2245C99.7358 89.5095 104.118 84.0282 104.443 83.5594C105.073 82.6413 110.716 85.8332 122.077 83.0202C141.183 78.289 140.752 56.9342 134.287 48.6204L134.291 48.6282Z" fill="#7AA7A6"/>
<path d="M106.138 47.2367H106.142L106.138 47.2333V47.2367Z" fill="#EDD6A0"/>
<path d="M89.6206 47.4409C89.5891 47.3898 89.5065 47.28 89.593 47.4055C89.6009 47.4173 89.6088 47.4291 89.6206 47.4409Z" fill="#EDD6A0"/>
<path d="M90.0057 47.9109C89.9578 47.8631 89.9299 47.8352 89.9219 47.8273C89.9538 47.8671 89.9897 47.9109 90.0057 47.9109Z" fill="#EDD6A0"/>
<path d="M110.865 47.3084C110.865 47.3084 110.877 47.3164 110.881 47.3204C110.906 47.3485 110.809 47.22 110.869 47.3124L110.865 47.3084Z" fill="#EDD6A0"/>
<path d="M110.928 47.331C110.959 47.331 110.998 47.331 111.018 47.3428C110.955 47.2996 110.92 47.3192 110.928 47.331Z" fill="#EDD6A0"/>
<path d="M114.265 46.6866C112.244 43.8659 108.03 45.7607 106.656 45.8037C105.281 45.8467 103.727 42.604 99.9241 41.9984C94.3125 41.1037 93.6193 44.2683 92.4289 43.2369C91.352 42.307 89.159 41.8265 87.4359 43.4908C85.0315 45.8154 86.359 50.0856 89.6524 50.8318C91.0583 51.1522 91.8141 52.8087 92.0569 54.7035C92.3976 57.3211 92.4994 60.0754 91.2267 61.5678C90.651 62.2437 89.0611 62.9079 89.5036 64.791C90.0362 67.0687 93.1651 69.1432 93.1651 69.1432L97.4218 70.327C97.4218 70.327 98.068 70.0223 96.7208 68.229C95.3737 66.4397 95.1544 63.5134 97.1516 63.447C100.331 63.3376 102.16 69.8425 102.16 69.8425C102.16 69.8425 102.603 66.764 103.347 66.1349C103.746 65.795 105.015 65.8888 105.45 66.1896C106.155 66.678 104.921 70.7958 105.861 69.952C106.938 68.9831 107.925 67.2836 107.443 64.3808C106.111 56.4186 112.166 55.9888 114.214 52.1211C115.099 50.445 115.345 48.1986 114.269 46.6944L114.265 46.6866ZM93.216 66.5295C92.8009 66.2951 92.5933 65.2325 92.7265 64.709C92.9771 63.701 93.494 63.5994 93.9992 63.5135C94.1637 63.4861 95.2367 63.4275 95.0761 64.7754C94.9899 65.4981 94.0697 67.014 93.216 66.5295ZM94.2929 62.1578C93.7055 62.8805 92.6599 63.6736 91.7827 63.5135C90.698 63.3181 92.5033 61.9077 92.9419 61.1264C93.7368 59.7082 93.6154 58.5518 93.6154 57.4344C93.6154 56.0357 92.425 51.9218 93.5293 52.2461C94.0188 52.3867 94.5788 52.7774 94.6884 53.2306C95.033 54.6566 95.315 56.1139 95.4011 57.5789C95.4912 59.0753 95.2797 60.9466 94.2929 62.1617V62.1578ZM96.2587 63.0095C96.1413 62.9079 95.734 62.189 95.6948 62.064C95.3698 61.017 96.7326 60.1926 97.3552 60.7708C97.4492 60.8568 97.6176 61.3256 97.6568 61.4545C97.6999 61.5639 97.7351 61.6811 97.7312 61.7983C97.7038 63.0017 96.6308 63.3572 96.2587 63.0095ZM100.574 48.4603C101.401 47.8157 102.677 48.9174 102.744 48.9839C103.139 49.3745 103.045 50.1637 102.783 50.4567C102.446 50.8318 101.346 50.8709 100.817 50.4333C100.41 50.0934 99.9672 48.8041 100.574 48.4603ZM112.346 52.6289C111.805 53.2423 111.155 53.9768 110.443 54.3675C107.302 56.0865 106.542 57.7743 106.323 58.8838C106.037 60.3215 105.595 65.002 106.35 66.9905C106.456 67.2718 103.911 65.9865 103.868 65.7677C103.221 62.2203 104.322 57.3992 104.874 56.4499C105.63 55.1528 106.249 55.1176 109.256 52.9727C111.089 51.6679 111.735 48.851 109.973 48.7104C109.362 48.6596 106.832 50.4177 105.34 49.1753C104.553 48.5189 103.535 46.4327 100.923 45.5927C96.5759 44.1941 94.2929 46.9562 94.3125 47.0265C94.4417 47.4758 94.6023 48.0111 94.1167 48.1048C93.5136 48.2181 92.9145 47.9837 92.4837 47.5618C92.3819 47.4602 91.8454 46.503 91.1483 46.0225C90.4513 45.5419 89.6955 45.3583 89.4801 45.7373C89.2647 46.1162 89.4214 46.8429 89.8561 47.3664C90.8625 48.5854 91.9511 48.6596 92.2409 48.6948C93.2473 48.812 93.3844 50.3942 92.1978 50.2536C90.7606 50.0856 89.5232 49.7496 88.6225 48.5697C87.9803 47.7259 87.4594 46.7843 87.5456 45.706C87.5926 45.1434 87.757 44.616 88.1486 44.1941C88.5833 43.733 89.1825 43.5494 89.8012 43.6041C90.6784 43.6783 91.4694 44.237 92.1391 44.7645C92.4837 45.0379 92.7539 45.37 93.0202 45.7099C93.913 44.3738 95.6009 43.694 97.2182 43.4478C99.56 43.0923 101.592 43.5533 103.535 44.8699C104.134 45.2762 104.674 45.7451 105.164 46.2803C105.454 46.5929 106.01 47.2531 106.315 47.2219C106.46 47.2062 106.609 47.1828 106.75 47.1555C107.388 47.0304 108.011 46.8507 108.649 46.7335C110.031 46.4757 111.884 46.3194 112.988 47.6751C114.147 49.105 113.427 51.3905 112.334 52.6289H112.346Z" fill="#F6E9D9"/>
<path d="M74.301 23.2336C72.5936 23.2882 71.2465 26.066 71.3719 24.5228C71.6068 22.5811 72.903 20.9949 74.9002 21.0652C77.0462 21.1434 79.5407 23.3508 79.4624 25.4878C79.384 27.6288 77.0501 29.1173 74.9041 29.0391C74.8923 29.0391 74.8806 29.0391 74.8689 29.0391C72.8482 28.6445 76.9248 28.4844 77.3046 26.5309C77.6727 24.6322 76.2434 23.1749 74.305 23.2336H74.301Z" fill="white"/>
<path d="M69.6059 37.935C70.7377 37.9702 71.8028 36.8059 71.6697 35.8761C71.3446 33.5633 68.1609 34.9111 67.0018 33.6375C66.3008 32.8678 66.8765 31.7739 67.6323 32.4381C68.623 33.3093 69.7469 33.3171 70.6946 33.3523C71.7989 33.3953 73.1695 33.907 73.522 34.8213C74.1329 36.4074 72.8719 37.8334 72.4372 38.2046C70.5379 39.8103 67.879 38.9039 66.2225 37.3646C65.9405 37.1029 66.1755 36.4739 66.4809 36.6692C67.2172 37.1341 67.8594 37.8842 69.6059 37.9428V37.935Z" fill="white"/>
<path d="M56.3853 28.4024C57.3251 30.5902 60.5324 29.9339 59.2988 30.6957C58.9855 30.8168 58.6488 30.9028 58.3002 30.9458C56.1699 31.2153 53.8751 29.7307 53.6049 27.6054C53.3347 25.4801 55.4533 23.2454 57.5836 22.9758C59.7139 22.7062 61.4487 24.6948 61.7189 26.8201C61.7189 26.8279 61.7189 26.8357 61.7189 26.8436C61.5349 27.5194 61.0728 25.1949 58.7584 25.2847C57.3565 25.3394 55.7431 26.8983 56.3892 28.4024H56.3853Z" fill="white"/>
<path d="M73.3023 72.3309C74.0581 70.6119 77.8488 60.6259 66.5511 56.8676C63.7511 55.9377 60.8767 54.289 65.1139 50.4173C67.4557 48.2803 64.3973 43.6077 58.5781 46.1159C54.7129 47.7841 55.1124 43.0607 49.0229 42.3887C37.9602 41.1698 32.2193 51.0073 37.0986 53.6405C40.6583 55.5627 36.3898 59.9969 36.3898 59.9969C35.6145 61.1964 34.0128 61.8332 33.586 62.8724C28.3424 75.6752 48.9603 77.2184 52.6962 76.1127C53.7065 75.8158 56.7806 74.3234 56.248 73.0537C54.3762 68.5764 55.1124 66.9668 55.8016 66.9004C56.4791 66.8339 57.9554 67.0449 58.5702 67.9435C59.185 68.8421 58.9305 70.4361 59.3926 72.4207C60.5909 68.8069 64.2563 67.6895 65.2275 68.467C66.3514 69.3617 66.4493 69.7211 66.0263 72.1746C65.8579 73.1396 61.8205 74.4171 61.5621 75.5579C61.378 76.3588 67.0758 77.2379 67.021 78.0193C66.9349 79.3164 66.9818 79.8633 66.3474 80.9299C65.9402 81.6136 59.2908 78.9374 59.5414 79.6601C60.2894 81.8245 61.6404 82.8833 61.754 82.9693C64.0174 84.6883 72.2959 84.0983 73.6078 81.0354C75.4052 76.8394 71.7242 75.9213 73.3023 72.327V72.3309ZM45.5064 72.8505C44.59 72.9599 43.6267 72.7177 42.7965 72.3387C40.905 71.4714 35.3443 68.3615 38.6964 61.0283C39.366 59.5594 40.1571 61.3526 39.6206 62.4973C39.1428 63.5092 39.0253 66.2635 39.8007 67.7638C40.7523 69.6117 42.7377 70.147 43.239 70.2798C46.1368 71.0494 46.7321 72.702 45.5064 72.8466V72.8505ZM51.8542 68.9749C49.5829 69.5766 46.8339 69.4593 44.8093 68.0919C43.9713 67.5294 43.3486 66.7285 42.9648 65.783C41.1047 61.169 44.0222 58.317 44.077 55.9104C44.0966 55.0782 44.3629 53.4647 42.3539 51.816C41.2614 50.9213 38.7669 50.933 38.4027 50.5228C38.1129 50.1946 38.2735 49.6946 38.7199 49.5852C40.815 49.0538 43.1019 49.3781 44.6527 50.9838C45.7766 52.1442 46.3796 53.7108 46.4815 55.3126C46.5324 56.0823 46.4579 56.8754 46.2543 57.6216C45.9684 58.6725 45.4476 59.6531 45.1383 60.7002C44.8876 61.548 44.4099 64.6031 45.6473 66.0408C47.0806 67.7013 48.7253 68.1388 52.1675 68.0372C52.982 68.0138 52.516 68.7991 51.8503 68.9749H51.8542ZM50.1508 62.5091C48.8976 61.0127 48.9094 58.4576 49.626 56.723C50.3975 54.8594 50.9535 53.3944 51.0475 51.3159C51.1141 49.843 50.8987 49.007 49.814 48.124C46.9475 45.7994 44.5391 47.2684 43.1489 46.2292C42.816 45.9792 43.0079 45.3736 43.4661 45.2915C45.9567 44.8305 48.7292 44.8657 50.9026 46.3347C52.3046 47.284 53.3071 48.7022 53.5264 50.3978C53.7927 52.4411 52.9351 54.414 52.0657 56.2073C51.4 57.5786 50.5345 59.3601 51.5997 60.7783C53.0525 62.7122 58.3705 62.5715 57.556 63.6889C57.4228 63.8725 56.0914 64.7281 54.384 64.5797C52.6766 64.4312 51.0436 63.5756 50.1547 62.513L50.1508 62.5091ZM72.5348 79.5781C70.3888 78.8358 68.9242 78.2888 68.4386 75.1712C68.2585 74.0225 68.513 72.2215 68.8615 71.1119C70.6277 65.5486 68.2193 63.853 67.9804 63.7358C62.9405 61.2862 60.2267 63.6772 57.787 60.8096C56.7649 59.6102 53.3893 55.8049 59.6393 49.1398C60.3403 48.3897 61.8323 48.3037 62.1534 48.7452C62.3178 48.9679 61.6991 49.8313 60.3951 51.144C56.3381 55.2306 58.5154 59.8133 60.7906 59.9579C69.4137 60.5087 71.3404 62.8997 71.6615 65.5486C72.2841 70.6705 68.9085 72.9404 70.4279 76.1831C70.6903 76.7417 73.0008 78.4803 73.1966 78.8319C73.2357 78.9022 73.831 80.0274 72.5348 79.5781Z" fill="#A0D7E5"/>
<path d="M57.2231 60.634C57.2231 60.634 57.2314 60.6422 57.2396 60.6545C57.2314 60.6463 57.2272 60.6381 57.219 60.6299L57.2231 60.634Z" fill="#A0D7E5"/>
<path d="M87.3818 71.3779C87.3818 71.3779 87.3576 71.3819 87.3416 71.39C87.3536 71.39 87.3657 71.3819 87.3778 71.3819C87.3778 71.3819 87.3778 71.3819 87.3818 71.3819V71.3779Z" fill="#7AA7A6"/>
<path d="M87.8082 71.1003C87.7999 71.1045 87.7917 71.1127 87.7834 71.1209C87.7834 71.1209 87.7917 71.1127 87.7958 71.1127C87.7999 71.1127 87.7958 71.1127 87.804 71.1045L87.8082 71.1003Z" fill="#7AA7A6"/>
<path d="M98.3455 74.7961C97.903 74.7687 96.7674 74.7765 94.8877 74.0069C93.7677 73.5498 91.4964 73.3037 90.862 72.6864C89.417 73.5224 87.3493 74.0694 85.9435 72.3387C85.6693 72.0027 85.1603 71.0572 85.9317 70.6275C86.3429 70.3969 86.9499 71.3268 88.1756 71.5964C88.7513 71.7214 89.2447 71.9753 90.1532 71.0807C90.1728 70.8892 90.49 70.6353 90.3177 70.4907C89.605 69.8813 86.4682 68.5842 86.4212 64.7906C86.4095 63.7006 87.9916 59.5867 86.3077 57.1214C85.2934 55.6368 84.0834 55.3399 83.1866 55.3126C81.5223 55.2618 80.0655 56.1213 79.2431 57.5707C78.9064 58.1685 78.2172 57.7231 77.9509 57.4809C77.0933 56.7034 76.7291 56.6917 76.0829 56.4417C75.9458 56.387 74.5048 56.2229 75.2057 57.3363C78.037 61.8331 77.4614 66.4706 77.105 68.2638C75.382 76.9722 80.9466 79.6367 82.5091 80.2852C86.5152 81.9417 90.5761 81.6565 94.4138 79.5312C94.8524 79.289 96.5011 81.6839 96.0664 81.9222C91.3045 84.5554 84.8392 84.6101 80.0303 82.1488C76.173 80.1758 74.2541 76.0424 74.3207 71.8425C74.3364 70.8384 75.3232 68.4943 75.4289 65.8338C75.4916 64.2007 75.1392 61.0205 73.9213 58.7467C73.5806 58.1138 72.347 55.3243 72.4058 54.6719C72.5585 52.8903 75.4642 53.9178 76.2826 54.3906C77.0071 54.8086 77.7786 55.4728 78.4364 56.0041C81.3891 52.5348 85.7007 53.3787 87.1653 54.6601C89.6011 56.7894 88.622 62.4113 88.6181 62.9388C88.579 67.8262 91.7979 69.1272 91.5865 69.2523C92.6555 68.9006 93.8264 69.514 93.8264 69.514C93.8264 69.514 89.7499 66.0955 89.977 63.3334C90.2002 60.5712 92.1191 56.5276 87.7488 53.156C83.7857 50.0969 78.0527 53.5857 78.0527 53.5857C78.0527 53.5857 74.7436 51.5425 71.8379 52.6325C70.6396 53.0818 69.6371 55.422 72.1082 59.5242C72.6329 60.3954 73.7411 63.306 73.7451 65.697C73.749 69.2601 72.3627 70.8697 72.7386 74.5851C73.1107 78.2966 74.724 81.9573 80.2926 84.5828C90.2393 89.2788 97.6837 81.848 97.6837 81.848C95.8863 81.2385 94.5783 80.0234 95.06 78.7303C95.6239 77.2222 97.8404 75.4954 98.3377 74.7883L98.3455 74.7961ZM81.7846 59.2116C81.859 58.4654 83.5821 57.1566 84.2518 58.2779C84.6629 58.9694 83.8406 59.7312 83.5038 60.0125C83.0025 60.4306 81.6711 60.329 81.7846 59.2116ZM94.1162 74.5265C92.3384 76.9449 87.5373 78.2107 85.2073 77.1949C82.8929 76.183 80.833 74.171 81.5888 70.2016C81.7768 69.2093 83.5625 69.9946 83.4372 70.8853C83.2023 72.5496 84.1852 74.3194 85.7124 74.8938C87.4825 75.5579 90.4508 75.4915 92.1034 73.3779C92.4088 73.7139 94.2141 74.3859 94.1162 74.5226V74.5265Z" fill="#FACA72"/>
<path d="M88.1677 44.8188C88.1677 44.8188 88.2039 44.8349 88.22 44.8349C88.2039 44.8349 88.1878 44.8269 88.1677 44.8188Z" fill="#7AA7A6"/>
<path d="M86.6602 45.3541C86.668 45.4797 86.7231 45.4876 86.6602 45.3541V45.3541Z" fill="#7AA7A6"/>
<path d="M93.0276 10.4113C101.302 10.1925 108.049 13.4235 111.75 19.4244C115.451 25.4254 115.913 30.5902 115.451 33.9775C114.989 37.3647 114.644 38.8298 114.644 38.8298L96.0468 27.2499L83.5547 12.1499C83.5547 12.1499 88.8296 10.5207 93.0236 10.4113H93.0276Z" fill="#F3A366"/>
<path d="M132.419 55.9028C131.315 51.8631 129.044 48.1086 126.036 45.1941C125.175 44.358 124.665 43.9556 123.659 43.3071C122.253 42.3968 119.481 42.6585 119.477 43.2876C119.469 43.858 123.608 46.0263 125.903 49.1596C127.039 50.7106 130.328 56.1958 130.571 59.7667C130.998 66.0645 127.998 71.2645 126.549 73.0969C124.462 75.7379 120.514 77.0389 118 77.3241C107.176 78.5587 103.166 76.8553 101.624 76.8943C100.171 76.9295 99.689 80.2113 97.9855 80.7309C97.1671 80.9809 95.7769 80.7504 95.7965 79.8167C95.8278 78.1055 97.5783 76.8435 98.6473 75.816C98.7883 75.6793 99.548 74.9721 99.5794 74.7534C99.6538 74.2533 99.2191 74.1283 96.6697 73.929C94.8645 73.7884 90.8623 73.2375 91.3714 70.8114C91.4732 70.323 92.3504 69.6393 93.4743 69.8268C94.9585 70.073 96.1528 70.6434 97.402 71.4716C99.0585 72.5694 100.151 72.3507 99.9396 71.7803C99.5911 70.8543 98.3066 69.0337 97.7153 68.2406C97.0927 67.4046 96.2586 66.5334 96.2586 65.4199C96.2586 64.4354 97.406 63.9704 98.0325 64.5057C98.8902 65.2402 99.2817 66.4787 99.7282 67.4944C100.045 68.2211 101.248 71.2528 102.093 72.1006C102.736 72.7453 103.405 69.0533 103.456 67.932C103.503 66.9201 104.177 66.4865 104.741 66.885C105.673 67.5491 104.905 69.4479 104.365 70.6746C104.153 71.1551 104.008 71.538 104.024 72.0811C104.059 73.6048 105.688 73.929 106.221 73.9525C106.949 73.9876 110.137 74.6323 113.618 73.4524C115.76 72.7257 117.922 71.2294 119.222 69.3658C120.209 67.9515 120.612 65.5371 120.914 63.8493C120.914 63.8298 120.996 63.5134 120.824 63.5641C119.99 63.7947 118.917 64.4862 118.615 65.7324C118.169 67.5687 116.888 69.4283 114.531 70.9559C112.279 72.4132 109.953 72.4053 108.586 72.4796C107.599 72.5304 105.246 72.4796 106.092 70.7606C106.385 70.1628 106.703 69.3893 106.847 68.7368C106.992 68.0922 106.965 66.6388 105.986 65.9434C105.105 65.3144 103.922 64.9941 103.061 65.709C102.638 66.0606 102.109 67.0334 102.109 69.1314C101.913 67.7171 100.601 64.6971 99.548 63.8767C98.1304 62.7711 95.7965 62.1967 94.7157 64.4315C94.1674 65.5684 94.4689 66.588 95.0563 67.4983C95.5772 68.311 96.1724 69.0728 96.7637 69.8346C96.2155 69.5729 95.6555 69.3267 95.072 69.1587C94.14 68.8853 93.0866 68.7056 92.1311 68.8267C90.8427 68.9869 89.6287 69.7018 89.4917 71.163C89.3938 72.2178 90.1809 73.1242 91.0307 73.6399C92.1272 74.308 93.4351 74.5659 94.6961 74.7221C95.6163 74.8393 96.5562 74.8159 97.4764 74.9409C97.4373 74.937 97.5978 74.9604 97.5978 74.9644C97.5978 75.1128 97.3355 75.3433 97.2376 75.4488C96.6737 76.0622 96.0236 76.5896 95.4832 77.2264C94.9075 77.8984 94.2653 78.7853 94.2183 79.6995C94.1792 80.4925 94.6217 81.2309 95.2756 81.6646C96.1058 82.2155 97.1358 82.1061 98.0756 81.9772C99.0899 81.8365 99.83 81.438 100.413 80.5785C100.844 79.9417 100.989 79.047 101.545 78.504C101.588 78.461 101.98 78.4532 102.129 78.4961C102.693 78.6563 103.241 78.8556 103.813 78.9845C107.447 79.8128 111.237 80.0433 114.95 79.7659C118.654 79.4885 122.563 78.8009 125.746 76.7771C128.781 74.851 130.81 71.5302 131.996 68.2094C133.406 64.2635 133.543 59.9464 132.439 55.9106L132.419 55.9028Z" fill="white"/>
<path d="M66.0236 80.3366C66.0236 80.3366 66.0236 80.3277 66.0146 80.3366H66.0191C66.0191 80.3366 66.0191 80.3366 66.0236 80.3366Z" fill="white"/>
<path d="M68.3294 78.8711C68.1806 77.4412 67.1507 76.4801 65.8819 75.9253C65.1457 75.601 64.3664 75.3784 63.5714 75.2104C65.5647 74.1985 67.3347 72.6787 67.3856 70.358C67.4091 69.1821 66.8922 67.9905 65.7605 67.506C64.3468 66.9005 62.5885 67.6115 61.492 68.5453C60.9986 68.9672 60.5796 69.4634 60.2036 69.9947C60.1449 69.3735 60.0431 68.7601 59.8708 68.1624C59.3304 66.3105 57.4585 65.1229 55.5475 65.8105C53.66 66.4903 52.9668 68.5648 53.6443 70.3424C53.9184 71.0574 54.5881 71.995 54.3296 72.792C54.1181 73.4445 53.5112 74.7533 51.2085 75.2065C50.6799 75.3119 47.5314 75.812 44.1479 75.015C40.8428 74.2376 37.4124 72.6787 35.2429 70.0025C34.2678 68.8031 33.5473 67.3419 33.512 65.7714C33.4689 63.9781 34.8709 61.8372 36.0261 60.5089C36.3394 60.1494 33.4924 60.376 32.9168 61.1261C31.8869 62.474 31.2799 63.5171 31.0488 65.2127C30.853 66.6661 31.1781 68.1624 31.8438 69.4595C33.4454 72.5693 36.6018 74.6478 39.7972 75.8628C43.0593 77.1052 47.3904 77.3943 50.8561 76.82C52.4969 76.5465 54.2435 76.0933 55.3674 74.8275C55.9587 74.1633 56.5069 73.3898 56.4638 72.4638C56.4168 71.4559 56.0527 70.1822 55.7629 69.2407C55.5553 68.5687 55.4927 66.9669 56.7575 67.2677C57.1805 67.3693 57.5094 67.7404 57.7091 68.1194C58.1125 68.8734 58.1986 69.8267 58.2535 70.6667C58.3122 71.5496 58.3005 72.4365 58.277 73.3194C58.2535 74.2649 59.7415 74.0969 60.1018 73.5109C60.7754 72.417 61.3471 71.6239 62.1342 70.6042C62.4749 70.1627 62.8665 69.8189 63.2895 69.5454C64.1588 68.9867 65.0164 69.1938 65.2749 69.4399C66.2265 70.3346 64.7345 72.2099 63.963 72.878C62.89 73.8117 61.6682 74.4524 60.3329 74.8822C59.9804 74.9955 59.5928 75.308 59.581 75.7104C59.5693 76.0933 59.9295 76.3512 60.282 76.3863C61.6095 76.5113 62.9409 76.695 64.2019 77.1364C65.0791 77.4412 65.9367 77.9022 66.2813 78.8242C66.5124 79.4493 65.9798 80.383 65.1457 80.2346C64.4956 80.1174 63.8769 79.8478 63.2621 79.6095C62.0285 79.1289 60.7636 78.457 59.4283 78.3124C58.8135 78.246 57.7836 78.8828 58.2848 79.5782C59.1502 80.7737 60.5639 81.9575 60.3877 83.4265C60.3172 84.0359 59.7572 84.1805 59.4165 84.1414C58.0107 83.993 57.2705 82.188 56.6557 81.0042C55.8608 79.4727 54.3374 78.9375 52.6809 78.9297C50.9461 78.9219 42.8791 79.7267 40.741 79.6876C32.4312 79.5313 27.4108 76.9645 25.9423 75.8902C24.325 74.7064 22.6176 73.4093 21.7757 71.5887C21.5642 71.1355 20.1074 70.862 19.2812 70.5768C18.9248 70.4518 19.524 71.6278 19.7354 72.0849C20.5852 73.925 21.7796 75.5229 23.346 76.82C24.7323 77.9725 26.3574 78.8164 28.0257 79.4884C29.549 80.1017 31.1311 80.5784 32.7053 81.0433C34.8944 81.6918 37.1774 81.8403 39.4526 81.8129C41.7709 81.7856 44.0814 81.5356 46.3801 81.2543C48.2441 81.0238 50.1081 80.5823 51.9839 80.4963C52.6418 80.4651 53.3663 80.5041 53.9341 80.8089C54.7251 81.2347 55.011 82.1724 55.4261 82.9108C56.268 84.4188 57.4272 85.8057 59.2873 85.8917C60.6031 85.9503 61.7935 85.1885 62.0363 83.8523C62.2321 82.7858 61.8758 81.6879 61.3432 80.6761C61.7857 80.8675 62.2243 81.0589 62.6355 81.2113C63.92 81.6879 65.5725 82.2896 66.8922 81.6215C67.8869 81.1175 68.443 79.9611 68.3255 78.8711H68.3294ZM59.859 84.3524C59.859 84.3524 59.8512 84.3563 59.8512 84.3602C59.8512 84.3602 59.8551 84.3602 59.859 84.3563V84.3524Z" fill="white"/>
<path d="M113.446 37.4388C113.982 33.9031 114.37 30.3166 113.45 26.8044C112.302 22.4209 109.162 18.0491 105.414 15.5018C99.8571 11.7239 91.7588 11.5754 85.2582 13.0053C84.6825 12.4115 84.0951 11.8294 83.4764 11.2746C81.8356 9.80954 79.1648 6.88721 71.8419 5.25806C65.588 3.86722 58.8132 3.67187 52.8765 6.40276C47.8209 8.73125 43.9088 13.9 41.5788 18.8891C40.4314 21.3504 39.6443 23.9953 39.3506 26.695C39.1039 28.9531 39.4093 31.2269 38.6144 33.403C37.8312 35.5479 35.5873 37.388 34.0013 38.9859C32.4036 40.5917 30.7549 42.1622 29.0162 43.6156C26.1105 46.0495 23.2792 48.5812 20.9766 51.6051C18.1531 55.3127 16.8295 59.7001 17.2877 64.443C17.4091 65.7206 17.4639 66.7676 18.02 67.924C18.4155 68.7484 19.4415 69.8775 21.2703 70.0064C21.7715 70.0415 20.8317 68.4124 20.8317 68.4124C20.0015 66.0565 19.7156 63.5561 20.0798 61.0792C20.4127 58.8289 21.2429 56.684 22.3629 54.711C24.4149 51.1011 27.3597 48.0694 30.4769 45.3619C31.4559 44.5141 32.478 43.7132 33.4335 42.842C35.5168 40.9511 37.6784 39.0289 39.4406 36.8254C40.7094 35.2393 41.5122 34.6103 41.7589 32.5826C41.9038 31.3988 41.8177 30.2072 41.896 29.0196C41.9782 27.7264 42.1819 26.4449 42.4834 25.183C43.7483 19.8853 49.2464 10.2471 59.0012 8.16476C62.4669 7.42636 71.4424 8.28587 73.5845 8.80939C75.707 9.329 78.5813 10.3096 80.324 11.6067C83.9698 14.3181 94.4178 27.8358 95.1109 28.2655C96.3953 29.0547 105.015 36.255 107.587 37.7514C108.974 38.5562 111.214 39.9861 112.71 40.5565C115.243 41.5254 117.236 39.5681 117.311 39.5212C117.589 39.3454 113.422 37.5521 113.438 37.4349L113.446 37.4388ZM106.859 33.9578C104.388 32.1997 96.9828 27.0505 96.7556 26.8708C96.2935 26.5074 90.0279 17.9241 87.5804 15.3338C87.8036 15.2987 93.0393 13.1851 98.6432 15.4784C102.293 16.9708 104.568 18.85 106.976 21.9286C110.9 26.945 111.977 30.7542 111.182 36.7551C109.698 35.8995 108.265 34.958 106.863 33.9617L106.859 33.9578Z" fill="white"/>
<path d="M0.848054 100.257C1.46679 101.558 2.81391 102.836 4.23935 103.195C4.66228 103.301 5.26141 103.152 5.57078 102.84C5.85665 102.554 5.78225 102.242 5.38282 102.14C4.31766 101.871 3.18984 100.718 2.73166 99.7571C2.41055 99.0852 0.5661 99.6712 0.848054 100.261V100.257Z" fill="#7AA7A6"/>
<path d="M0.20572 104.867C0.844032 106.082 2.14417 106.903 3.49911 107.063C3.93771 107.114 4.41937 107.004 4.81489 106.817C4.9402 106.758 5.48453 106.407 5.05376 106.356C3.83196 106.211 2.66109 105.457 2.08935 104.363C1.85831 103.926 0.0686588 104.602 0.20572 104.867Z" fill="#7AA7A6"/>
<path d="M0.0570487 109.934C0.910743 111.048 2.20694 111.786 3.60105 111.962C4.03573 112.017 4.59571 111.9 4.93248 111.607C5.2066 111.368 5.18313 111.087 4.77978 111.036C3.58147 110.884 2.53981 110.181 1.81534 109.235C1.47465 108.79 -0.342386 109.415 0.0570487 109.934Z" fill="#7AA7A6"/>
<path d="M6.60079 101.109C9.00523 101.359 11.4371 101.551 13.8533 101.59C14.6365 101.601 15.827 100.437 14.5582 100.418C12.142 100.378 9.7062 100.191 7.30567 99.937C6.5068 99.855 5.332 100.976 6.60079 101.109Z" fill="#7AA7A6"/>
<path d="M9.81564 96.9598C9.71774 102.754 9.65118 108.547 9.55328 114.341C9.54153 115.138 11.429 114.759 11.4408 114.115C11.5387 108.321 11.6053 102.527 11.7032 96.7332C11.7149 95.9362 9.82739 96.3151 9.81564 96.9598Z" fill="#7AA7A6"/>
<path d="M9.69405 104.743C9.12622 106.305 7.66163 107.552 6.04823 107.911C5.82501 107.962 5.11621 108.204 5.21019 108.544C5.30418 108.884 6.05213 108.716 6.25184 108.673C8.47223 108.181 10.7631 106.669 11.562 104.461C11.7382 103.973 9.89376 104.192 9.69013 104.746L9.69405 104.743Z" fill="#7AA7A6"/>
<path d="M10.1602 106.028C11.7971 107.11 13.485 108.114 15.1728 109.114C15.7954 109.485 17.495 108.614 16.6452 108.11C14.9535 107.11 13.2696 106.106 11.6327 105.023C11.0257 104.621 9.32613 105.477 10.1602 106.028Z" fill="#7AA7A6"/>
<path d="M21.9199 99.1435C22.5974 100.003 23.7801 100.39 24.8374 100.237C25.0998 100.198 25.8634 100.038 25.9417 99.7218C26.02 99.4053 25.323 99.5147 25.1859 99.5342C25.4874 99.4912 25.1781 99.4756 25.0371 99.4248C24.8452 99.3584 24.6651 99.2647 24.4888 99.1592C24.1912 98.9834 23.9093 98.7724 23.6939 98.4989C23.412 98.1434 21.6301 98.7724 21.9199 99.1435Z" fill="#7AA7A6"/>
<path d="M21.8574 102.195C23.0478 102.144 24.2383 102.113 25.4288 102.062C25.8125 102.046 26.4352 101.773 26.4743 101.331C26.5174 100.859 25.977 100.749 25.6167 100.765C24.4263 100.816 23.2358 100.847 22.0453 100.898C21.6615 100.913 21.0389 101.187 20.9997 101.628C20.9567 102.101 21.4971 102.211 21.8574 102.195Z" fill="#7AA7A6"/>
<path d="M21.9047 104.207C22.9737 104.223 24.0428 104.273 25.108 104.297C25.4761 104.305 26.1457 104.152 26.3611 103.816C26.5882 103.457 26.1653 103.394 25.8833 103.39C24.8143 103.371 23.7452 103.316 22.68 103.301C22.3119 103.297 21.6423 103.445 21.4269 103.781C21.1998 104.137 21.6227 104.203 21.9047 104.207Z" fill="#7AA7A6"/>
<path d="M22.1002 106.704C23.1223 106.746 24.1483 106.77 25.1704 106.844C25.5894 106.875 26.2003 106.704 26.4039 106.297C26.6076 105.895 26.2277 105.649 25.8596 105.621C24.8375 105.547 23.8115 105.524 22.7895 105.481C22.3665 105.461 21.7634 105.613 21.5559 106.028C21.3483 106.442 21.7282 106.688 22.1002 106.704Z" fill="#7AA7A6"/>
<path d="M21.2467 108.899C21.2976 110.763 21.2937 112.63 21.3995 114.494C21.4308 115.052 23.3222 114.681 23.2831 113.99C23.1773 112.126 23.1773 110.259 23.1303 108.395C23.1147 107.848 21.2272 108.204 21.2467 108.899Z" fill="#7AA7A6"/>
<path d="M25.2525 113.091C25.6246 113.009 25.1037 113.087 24.9823 113.091C24.6965 113.107 24.4067 113.115 24.1208 113.122C23.6 113.138 23.0752 113.146 22.5544 113.173C22.1824 113.193 21.5597 113.447 21.501 113.872C21.4383 114.33 22.0257 114.4 22.3429 114.384C23.3963 114.333 24.5163 114.435 25.5541 114.208C25.8869 114.134 26.4469 113.814 26.3451 113.4C26.2433 112.986 25.5619 113.025 25.2525 113.095V113.091Z" fill="#7AA7A6"/>
<path d="M21.8419 109.255C22.5781 109.274 23.3143 109.204 24.0505 109.235C24.2072 109.243 24.4852 109.208 24.634 109.278C24.822 109.368 24.5283 109.028 24.6066 109.243C24.685 109.458 24.6262 109.841 24.6262 110.067C24.634 110.911 24.6262 111.759 24.5988 112.603C24.587 112.966 24.5792 113.329 24.5518 113.693C24.544 113.767 24.4891 114.021 24.5126 114.095C24.5635 114.259 24.2503 114.431 24.6262 114.013C23.8587 114.865 25.6718 114.998 26.1691 114.447C26.5842 113.986 26.4746 113.091 26.4902 112.525C26.5255 111.462 26.5372 110.395 26.5098 109.337C26.4863 108.524 26.3336 108.243 25.4721 108.086C24.5048 107.911 23.5023 108.063 22.5272 108.04C22.1395 108.028 21.4542 108.161 21.2937 108.583C21.1409 108.981 21.4268 109.247 21.838 109.255H21.8419Z" fill="#7AA7A6"/>
<path d="M28.6597 98.3387C30.0225 98.327 31.4284 98.2645 32.7716 98.0301C33.0105 97.9871 33.8524 97.8113 33.8641 97.4714C33.8759 97.112 33.3276 97.1667 33.0888 97.2096C31.8983 97.4167 30.653 97.4597 29.4469 97.4675C29.1023 97.4675 28.3817 97.6042 28.1937 97.9402C27.994 98.2918 28.3621 98.3387 28.6637 98.3387H28.6597Z" fill="#7AA7A6"/>
<path d="M29.94 98.1164C29.7755 100.257 29.4701 102.41 29.4387 104.559C29.4309 104.969 31.3106 104.68 31.3224 104.055C31.3537 101.98 31.6513 99.894 31.8079 97.8234C31.8549 97.2217 29.9792 97.6046 29.94 98.1125V98.1164Z" fill="#7AA7A6"/>
<path d="M28.2251 101.687C29.0083 101.679 29.7954 101.624 30.5786 101.624C31.0956 101.624 31.8748 101.589 32.1881 102.085C32.6424 102.812 32.2625 104.304 31.6281 104.816C31.2874 105.09 31.9297 105.121 32.0706 105.113C32.4975 105.086 32.9948 104.937 33.3316 104.668C34.0952 104.054 34.6161 102.332 34.0012 101.468C33.6605 100.988 32.9282 100.921 32.3917 100.882C31.4166 100.812 30.4259 100.917 29.4469 100.925C29.0279 100.925 28.4522 101.011 28.1154 101.281C27.8766 101.472 27.8061 101.687 28.2251 101.683V101.687Z" fill="#7AA7A6"/>
<path d="M27.982 105.571C30.1123 105.653 32.2466 105.668 34.3769 105.621C35.4264 105.598 35.8454 104.27 34.557 104.301C32.5834 104.348 30.6175 104.332 28.6438 104.254C28.2366 104.238 27.5787 104.371 27.4142 104.82C27.2693 105.227 27.5473 105.555 27.9781 105.571H27.982Z" fill="#7AA7A6"/>
<path d="M27.9434 107.54C27.8533 109.86 27.8298 112.329 28.194 114.627C28.2449 114.955 30.1442 114.56 30.0776 114.123C29.7134 111.825 29.7408 109.352 29.827 107.036C29.8348 106.809 27.963 107.02 27.9434 107.54Z" fill="#7AA7A6"/>
<path d="M32.6069 113.072C33.0259 112.915 32.415 113.04 32.2388 113.048C31.9059 113.064 31.577 113.064 31.2441 113.056C30.923 113.048 30.598 113.036 30.2769 113.013C30.0772 112.997 29.6934 112.947 29.6895 112.947C29.2548 112.814 28.6595 112.954 28.358 113.302C28.0839 113.619 28.1661 114.013 28.5851 114.142C29.3135 114.365 30.1633 114.334 30.9152 114.341C31.7493 114.349 32.6226 114.38 33.4175 114.087C33.7582 113.962 34.1302 113.537 33.8796 113.181C33.6055 112.798 32.9632 112.943 32.6108 113.076L32.6069 113.072Z" fill="#7AA7A6"/>
<path d="M29.1021 108.438C29.7365 108.336 30.3787 108.266 31.0248 108.254C31.2872 108.25 31.5457 108.27 31.8041 108.27C32.0195 108.27 32.2819 108.454 32.1487 108.25C31.9843 108 32.0626 108.7 32.0665 108.805C32.0822 109.204 32.0978 109.602 32.1057 109.997C32.1292 110.805 32.1448 111.618 32.137 112.427C32.137 112.798 32.1331 113.169 32.1057 113.536C32.0861 113.782 31.9099 114.193 32.1409 113.95C31.3381 114.787 33.1552 115.001 33.6995 114.435C34.1342 113.982 34.0245 113.068 34.0363 112.501C34.0558 111.321 34.0245 110.137 33.9814 108.958C33.954 108.262 34.1263 107.492 33.4254 107.145C32.3485 106.61 30.41 106.969 29.2979 107.145C28.3071 107.305 27.8215 108.629 29.106 108.426L29.1021 108.438Z" fill="#7AA7A6"/>
<path d="M41.2026 99.7337C42.6751 100.667 45.0521 100.3 46.1603 98.9523C46.8966 98.0576 45.0952 97.9092 44.6135 98.4991C44.1318 99.0891 43.3095 99.1203 42.679 98.7218C42.0485 98.3233 40.3607 99.1984 41.2066 99.7337H41.2026Z" fill="#7AA7A6"/>
<path d="M41.5155 99.8862C41.68 102.558 42.0716 105.231 42.1107 107.911C42.1147 108.219 44.0022 107.942 43.9943 107.407C43.9552 104.731 43.5597 102.054 43.3991 99.3822C43.3795 99.0501 41.4842 99.3665 41.5155 99.8862Z" fill="#7AA7A6"/>
<path d="M42.5691 103.277C43.2231 103.32 43.8771 103.363 44.535 103.406C44.9892 103.437 45.557 103.277 45.7607 102.824C45.9447 102.414 45.5923 102.031 45.1772 102.004C44.5232 101.961 43.8692 101.918 43.2113 101.875C42.7571 101.843 42.1892 102.004 41.9856 102.457C41.8016 102.867 42.154 103.25 42.5691 103.277Z" fill="#7AA7A6"/>
<path d="M48.2393 100.425C49.6373 100.308 48.8306 103.172 48.6975 103.938C48.5761 104.625 48.4429 105.309 48.2589 105.981C48.1727 106.305 48.0591 106.614 47.9612 106.934C47.8829 107.184 47.4874 107.548 47.8555 107.368C46.7003 107.942 47.742 108.817 48.6583 108.36C50.3305 107.524 50.5028 104.5 50.7377 102.91C50.8513 102.137 51.1293 101.078 50.9178 100.3C50.6085 99.1752 49.4298 99.0853 48.4468 99.1674C47.4365 99.2533 46.9548 100.535 48.2471 100.425H48.2393Z" fill="#7AA7A6"/>
<path d="M46.5208 105.008H48.2282C48.6785 105.008 49.1798 104.902 49.5596 104.652C49.8377 104.469 49.8338 104.234 49.4461 104.234H47.7387C47.2883 104.234 46.7871 104.34 46.4072 104.59C46.1292 104.774 46.1331 105.008 46.5208 105.008Z" fill="#7AA7A6"/>
<path d="M42.5461 107.45C44.3396 107.641 46.1292 107.915 47.9345 107.942C48.33 107.946 48.9566 107.848 49.266 107.587C49.497 107.387 49.5871 107.235 49.1681 107.227C47.4724 107.204 45.7885 106.942 44.1007 106.758C43.6739 106.711 43.1726 106.817 42.7889 107.012C42.6753 107.071 42.1114 107.403 42.5422 107.45H42.5461Z" fill="#7AA7A6"/>
<path d="M44.2923 107.876C44.2257 110.196 43.7558 113.841 40.8541 114.103C39.8163 114.197 39.3855 115.545 40.6739 115.432C44.7427 115.064 46.0898 111.298 46.1955 107.719C46.2229 106.77 44.3158 107.059 44.2923 107.876Z" fill="#7AA7A6"/>
<path d="M46.3131 109.571C46.3091 111.114 46.4501 112.857 47.4565 114.111C48.4747 115.373 49.6887 115.076 51.1376 115.045C51.3804 115.041 52.4181 114.853 52.469 114.486L52.6805 112.978C52.751 112.482 50.887 112.818 50.8204 113.294L50.6089 114.802C51.0514 114.615 51.4979 114.427 51.9404 114.244C51.3295 114.255 50.605 114.474 50.0411 114.185C49.5164 113.915 49.1326 113.384 48.8741 112.876C48.2828 111.716 48.1928 110.349 48.1967 109.071C48.1967 108.727 46.317 109.005 46.3131 109.575V109.571Z" fill="#7AA7A6"/>
<path d="M62.635 97.7136C63.5514 97.8112 64.4677 97.9128 65.3801 98.0105C65.7757 98.0535 66.4179 97.8542 66.6215 97.487C66.8447 97.0846 66.4296 96.9322 66.1007 96.897L63.3555 96.6001C62.96 96.5572 62.3178 96.7564 62.1142 97.1236C61.891 97.526 62.3061 97.6784 62.635 97.7136Z" fill="#7AA7A6"/>
<path d="M61.084 99.3625C63.089 99.5031 65.0979 99.6203 67.1108 99.6281C67.5102 99.6281 68.1798 99.5148 68.3443 99.0733C68.4892 98.6827 68.2151 98.3662 67.7921 98.3623C65.7793 98.3545 63.7704 98.2334 61.7654 98.0966C60.9117 98.038 59.8152 99.2726 61.0879 99.3586L61.084 99.3625Z" fill="#7AA7A6"/>
<path d="M61.7696 98.9133C61.9811 99.7181 62.1887 100.523 62.4001 101.324C62.5411 101.863 64.4286 101.371 64.2837 100.82C64.0723 100.015 63.8647 99.2103 63.6533 98.4094C63.5123 97.8702 61.6248 98.3625 61.7696 98.9133Z" fill="#7AA7A6"/>
<path d="M65.713 99.2961C65.6033 99.5461 65.5329 99.8118 65.4506 100.07C65.4115 100.195 65.3684 100.32 65.3175 100.441C65.2901 100.503 65.247 100.562 65.2274 100.624C65.2627 100.515 65.1373 100.722 65.2783 100.593C64.9885 100.855 64.7771 101.281 65.1765 101.562C65.5329 101.812 66.2064 101.738 66.5275 101.449C66.8487 101.16 67.0523 100.855 67.1933 100.452C67.3029 100.14 67.3734 99.8118 67.5105 99.5109C67.6984 99.089 67.3342 98.7725 66.9348 98.7218C66.504 98.6671 65.901 98.8663 65.7091 99.2961H65.713Z" fill="#7AA7A6"/>
<path d="M58.7505 101.398C62.1418 101.585 65.5292 101.82 68.9165 102.109C69.3121 102.144 71.0586 101.445 70.1423 101.367C66.7588 101.078 63.3714 100.843 59.9762 100.656C59.5846 100.632 57.8381 101.351 58.7505 101.398Z" fill="#7AA7A6"/>
<path d="M60.3679 103.359C60.458 105.368 60.6225 107.368 60.7125 109.376C60.7399 110.028 62.6314 109.638 62.5961 108.872C62.5061 106.864 62.3416 104.864 62.2515 102.855C62.2241 102.203 60.3327 102.594 60.3679 103.359Z" fill="#7AA7A6"/>
<path d="M62.1067 103.636C61.9305 103.668 62.4396 103.636 62.5179 103.636C62.8233 103.636 63.1288 103.644 63.4382 103.656C64.19 103.683 64.9419 103.734 65.6899 103.828C66.0032 103.867 66.9743 103.902 67.178 104.16C67.4599 104.512 67.1584 105.813 67.0996 106.231C66.9978 106.934 66.6611 107.75 66.6532 108.45C66.6532 108.508 66.524 108.739 66.5553 108.782C66.4026 108.543 67.5578 108.668 67.1975 108.375C67.0722 108.274 66.5044 108.36 66.3243 108.348C64.8792 108.266 63.446 108.071 62.0049 107.985C61.1904 107.938 60.039 109.122 61.3118 109.196C63.1758 109.305 65.1181 109.758 66.9861 109.575C68.8344 109.395 68.854 107.223 69.0381 105.746C69.1203 105.101 69.3553 103.972 68.9284 103.394C68.5603 102.89 67.6753 102.812 67.1153 102.718C65.4392 102.441 63.5047 102.214 61.8169 102.527C60.6421 102.742 60.9632 103.847 62.1145 103.633L62.1067 103.636Z" fill="#7AA7A6"/>
<path d="M61.0099 106.309C63.1363 106.59 65.2862 106.668 67.4087 106.946C67.9373 107.016 69.6056 106.149 68.5874 106.016C66.461 105.735 64.3111 105.657 62.1886 105.379C61.6599 105.309 59.9917 106.176 61.0099 106.309Z" fill="#7AA7A6"/>
<path d="M61.6525 112.232C63.2542 112.333 64.8558 112.294 66.4536 112.443C67.413 112.532 68.3607 111.142 67.0919 111.02C65.4942 110.872 63.8925 110.911 62.2908 110.809C61.8444 110.782 61.2492 110.934 61.069 111.395C60.9046 111.81 61.2218 112.204 61.6564 112.232H61.6525Z" fill="#7AA7A6"/>
<path d="M59.0169 114.779C62.3298 114.869 65.631 115.166 68.9401 115.314C69.6058 115.345 70.9568 114.381 69.6919 114.326C66.3829 114.177 63.0817 113.88 59.7687 113.791C59.103 113.771 57.752 114.744 59.0169 114.779Z" fill="#7AA7A6"/>
<path d="M63.7355 103.773C63.7238 107.387 63.618 111.009 63.4183 114.615C63.3792 115.295 65.2628 114.904 65.2941 114.349C65.4977 110.661 65.6074 106.961 65.6191 103.269C65.6191 102.781 63.7394 103.105 63.7355 103.773Z" fill="#7AA7A6"/>
<path d="M77.4382 103.348C78.5072 103.441 79.5802 103.449 80.6532 103.375C81.0174 103.352 81.6831 103.242 81.9102 102.914C82.1374 102.586 81.7145 102.547 81.456 102.566C80.5162 102.629 79.5881 102.621 78.6482 102.539C78.2214 102.504 77.6614 102.637 77.3168 102.894C77.0348 103.105 77.0544 103.316 77.4382 103.348Z" fill="#7AA7A6"/>
<path d="M77.3676 105.821C78.5463 105.766 79.729 105.711 80.9077 105.657C81.2445 105.641 81.9729 105.52 82.1687 105.203C82.3645 104.887 81.9924 104.867 81.7183 104.879C80.5396 104.934 79.357 104.989 78.1782 105.043C77.8414 105.059 77.1131 105.18 76.9173 105.496C76.7215 105.813 77.0935 105.832 77.3676 105.821Z" fill="#7AA7A6"/>
<path d="M78.5268 105.817C78.7186 108.665 78.6364 111.537 78.5111 114.385C78.4719 115.236 80.3712 114.896 80.4025 114.185C80.5357 111.236 80.6101 108.263 80.4104 105.313C80.3634 104.61 78.4758 105.024 78.5268 105.817Z" fill="#7AA7A6"/>
<path d="M83.6058 96.5966C83.1672 97.628 82.5485 98.5812 81.8436 99.4486C81.5499 99.8119 82.0942 100.035 82.3683 100.054C82.8304 100.089 83.3199 99.8822 83.6058 99.5267C84.3851 98.5617 85.0116 97.5186 85.4933 96.3778C85.6656 95.9676 84.8824 95.905 84.667 95.9285C84.2324 95.9714 83.7781 96.1785 83.6058 96.5926V96.5966Z" fill="#7AA7A6"/>
<path d="M83.7072 98.6674C85.2149 98.6518 86.7108 98.4174 88.2184 98.4017C88.5944 98.3978 89.2719 98.2767 89.4637 97.8899C89.6556 97.5032 89.3071 97.343 88.9546 97.3469C87.447 97.3625 85.9511 97.5969 84.4434 97.6125C84.0675 97.6164 83.39 97.7376 83.1981 98.1243C83.014 98.4955 83.3547 98.6713 83.7072 98.6674Z" fill="#7AA7A6"/>
<path d="M83.4604 100.589C83.4252 102.574 83.5348 104.563 83.4252 106.543C83.3782 107.422 85.2814 107.094 85.3205 106.356C85.4302 104.371 85.3205 102.387 85.3558 100.402C85.3714 99.515 83.4722 99.8549 83.4604 100.589Z" fill="#7AA7A6"/>
<path d="M84.2986 100.921C84.9604 100.902 85.6222 100.859 86.284 100.816C86.6208 100.796 86.9614 100.769 87.2982 100.761C87.4744 100.757 87.6507 100.757 87.8269 100.761C88.1049 100.804 88.1206 100.781 87.8739 100.691C88.3399 101.32 88.0814 102.648 88.0305 103.371C88.0031 103.746 87.5488 105.75 87.8073 106.016C87.7838 106.25 87.9091 106.184 88.1833 105.821C88.0658 105.832 87.9483 105.836 87.8308 105.832C87.5606 105.75 87.1612 105.805 86.8792 105.785C86.2957 105.746 85.7162 105.68 85.1327 105.672C84.7646 105.668 84.044 105.793 83.8952 106.2C83.7464 106.606 84.0205 106.809 84.4239 106.813C85.8493 106.833 87.6037 107.333 88.9547 106.688C90.0238 106.18 89.7966 104.676 89.8828 103.664C89.9611 102.726 90.3566 100.765 89.6518 99.9682C89.268 99.5345 88.5396 99.6009 88.0149 99.6087C87.0124 99.6244 86.0177 99.7416 85.0152 99.7689C84.6432 99.7807 83.9304 99.8822 83.7777 100.296C83.6367 100.675 83.8991 100.921 84.3064 100.91L84.2986 100.921Z" fill="#7AA7A6"/>
<path d="M84.9019 104.11C85.8731 104.11 86.8443 104.11 87.8194 104.11C88.2267 104.11 88.8101 103.793 88.8571 103.348C88.908 102.855 88.3598 102.727 87.9878 102.727C87.0166 102.727 86.0454 102.727 85.0703 102.727C84.6631 102.727 84.0796 103.043 84.0326 103.488C83.9817 103.981 84.5299 104.11 84.9019 104.11Z" fill="#7AA7A6"/>
<path d="M83.6489 107.68C83.269 108.681 82.6581 109.345 81.8945 110.071C81.593 110.357 82.1647 110.361 82.3292 110.345C82.7208 110.31 83.2925 110.193 83.5901 109.903C84.4047 109.13 85.0939 108.399 85.5012 107.333C85.6147 107.032 84.8707 107.161 84.7571 107.18C84.4908 107.227 83.7663 107.364 83.6489 107.677V107.68Z" fill="#7AA7A6"/>
<path d="M84.5299 108.723C85.3718 108.528 86.3352 108.677 87.2006 108.634C87.2789 108.63 87.6275 108.598 87.6706 108.649C87.5492 108.509 87.5139 108.505 87.4552 108.649C87.3299 108.962 87.1536 109.243 86.9735 109.524C85.9514 111.087 84.4007 113.22 82.6424 114.002C81.4362 114.537 82.5601 114.912 83.3316 114.568C85.7125 113.513 87.9877 111.009 89.1586 108.708C89.5972 107.844 89.1038 107.774 88.2854 107.755C86.9892 107.723 85.6068 107.7 84.3341 107.997C83.2141 108.259 83.406 108.985 84.5299 108.723Z" fill="#7AA7A6"/>
<path d="M84.1301 110.739C85.3989 112.763 87.5958 113.982 89.8279 114.678C90.2273 114.803 90.7991 114.67 91.1515 114.459C91.3317 114.353 91.7859 114.021 91.3591 113.888C89.2992 113.248 87.1885 112.111 86.0137 110.235C85.6887 109.72 83.9265 110.411 84.1301 110.739Z" fill="#7AA7A6"/>
<path d="M94.9032 105.238C96.0389 105.078 97.1784 104.914 98.3141 104.754C98.6274 104.711 99.3323 104.527 99.3871 104.133C99.4419 103.738 98.8388 103.722 98.5804 103.758C97.4447 103.918 96.3052 104.082 95.1695 104.242C94.8562 104.285 94.1513 104.469 94.0965 104.863C94.0417 105.258 94.6448 105.273 94.9032 105.238Z" fill="#7AA7A6"/>
<path d="M96.1679 105.071C96.2502 108.196 96.2463 111.341 96.121 114.467C96.0818 115.42 97.9928 115.135 98.0241 114.314C98.1534 111.189 98.1534 108.044 98.0711 104.918C98.0476 103.957 96.1444 104.258 96.1679 105.071Z" fill="#7AA7A6"/>
<path d="M100.734 105.282C102.837 104.731 100.836 107.243 100.456 107.559C99.9041 108.016 100.664 108.278 101.075 108.204C102.493 107.946 100.985 110.521 100.789 110.72C100.307 111.212 99.6848 111.552 99.0739 111.857C97.9031 112.435 98.98 113.002 99.8102 112.595C101.102 111.958 102.485 111.208 103.174 109.88C104 108.294 103.174 106.864 101.341 107.2L101.96 107.845C102.712 107.219 104.032 105.965 103.46 104.848C102.931 103.82 101.361 104.153 100.495 104.379C99.3716 104.672 99.6026 105.579 100.738 105.282H100.734Z" fill="#7AA7A6"/>
<path d="M99.3949 110.321C102.316 112.873 106.416 114.51 110.258 114.869C111.049 114.943 112.232 113.818 110.963 113.701C107.532 113.381 103.75 111.837 101.134 109.556C100.589 109.083 98.8193 109.821 99.3949 110.321Z" fill="#7AA7A6"/>
<path d="M104.306 98.8743C104.702 98.7102 105.759 98.7375 106.335 98.7375C106.949 98.7375 108.316 98.5891 108.841 98.9837C109.366 99.3783 109.135 100.507 109.08 101.046C109.005 101.812 108.931 102.793 108.524 103.469C108.054 104.242 109.945 104.094 110.286 103.535C110.885 102.551 110.995 101.156 111.018 100.035C111.038 99.1595 111.034 98.3234 110.121 97.9757C109.115 97.5889 107.854 97.6202 106.793 97.628C105.732 97.6358 104.545 97.6358 103.546 98.0499C102.34 98.5539 103.433 99.2376 104.306 98.8743Z" fill="#7AA7A6"/>
<path d="M101.921 101.738C105.05 101.769 108.178 101.875 111.307 101.91C112.38 101.921 112.752 100.554 111.476 100.542C108.347 100.511 105.218 100.406 102.089 100.37C101.016 100.359 100.644 101.726 101.921 101.738Z" fill="#7AA7A6"/>
<path d="M103.828 103.871H108.789C109.197 103.871 109.8 103.785 110.121 103.516C110.352 103.32 110.438 103.129 110.019 103.129H105.057C104.65 103.129 104.047 103.215 103.726 103.484C103.495 103.68 103.409 103.871 103.828 103.871Z" fill="#7AA7A6"/>
<path d="M103.996 106.309H108.437C108.856 106.309 109.436 106.235 109.768 105.954C110.003 105.754 110.074 105.52 109.651 105.52H105.21C104.791 105.52 104.212 105.594 103.879 105.875C103.644 106.075 103.573 106.309 103.996 106.309Z" fill="#7AA7A6"/>
<path d="M104.134 108.93C106.029 109.008 107.94 108.973 109.831 108.809C110.72 108.731 111.421 107.731 110.109 107.844C108.379 107.997 106.62 108.004 104.885 107.934C104.212 107.907 102.869 108.879 104.134 108.93Z" fill="#7AA7A6"/>
<path d="M105.868 96.53C105.868 102.007 105.782 107.481 105.778 112.958C105.778 113.458 107.661 113.13 107.661 112.454C107.661 106.977 107.748 101.503 107.752 96.026C107.752 95.5259 105.868 95.8541 105.868 96.53Z" fill="#7AA7A6"/>
<path d="M117.201 100.023C118.094 100.515 118.944 100.828 119.978 100.769C120.373 100.746 120.992 100.644 121.227 100.281C121.462 99.9172 121.031 99.804 120.741 99.8196C119.978 99.8626 119.375 99.5422 118.717 99.1828C118.243 98.921 116.5 99.6398 117.201 100.023Z" fill="#7AA7A6"/>
<path d="M116.806 102.594C118.118 102.539 119.445 102.426 120.757 102.492C121.176 102.512 121.767 102.441 122.089 102.137C122.323 101.914 122.378 101.633 121.948 101.609C120.491 101.535 119.038 101.633 117.581 101.695C117.229 101.711 116.52 101.824 116.328 102.172C116.136 102.519 116.493 102.605 116.802 102.59L116.806 102.594Z" fill="#7AA7A6"/>
<path d="M117.248 104.699C118.372 104.66 119.488 104.571 120.612 104.606C121.007 104.617 121.638 104.465 121.857 104.098C122.08 103.723 121.665 103.574 121.352 103.566C120.228 103.531 119.112 103.621 117.988 103.66C117.585 103.676 116.97 103.785 116.743 104.168C116.528 104.531 116.927 104.711 117.248 104.699Z" fill="#7AA7A6"/>
<path d="M117.843 106.946C118.76 106.914 119.676 106.887 120.592 106.856C120.992 106.844 121.583 106.559 121.634 106.11C121.689 105.633 121.129 105.504 120.769 105.516C119.852 105.547 118.936 105.574 118.02 105.606C117.62 105.617 117.029 105.903 116.978 106.352C116.923 106.829 117.483 106.957 117.843 106.946Z" fill="#7AA7A6"/>
<path d="M116.536 108.763C116.587 110.575 116.536 112.384 116.563 114.197C116.579 115.205 118.486 114.943 118.474 114.068C118.447 112.255 118.498 110.446 118.447 108.634C118.419 107.626 116.512 107.887 116.536 108.763Z" fill="#7AA7A6"/>
<path d="M117.922 109.142C118.309 109.122 119.774 108.782 120.107 109.075C120.361 109.298 120.275 110.341 120.279 110.626C120.303 111.857 120.189 113.08 120.165 114.31C120.146 115.158 122.041 114.803 122.057 114.107C122.092 112.49 122.3 110.853 122.12 109.239C121.904 107.301 119.551 107.919 118.149 107.989C117.17 108.04 116.625 109.212 117.922 109.145V109.142Z" fill="#7AA7A6"/>
<path d="M117.601 114.576H120.746C121.153 114.576 121.768 114.447 121.987 114.056C122.206 113.665 121.807 113.478 121.47 113.478H118.325C117.918 113.478 117.303 113.607 117.084 113.998C116.865 114.388 117.264 114.576 117.601 114.576Z" fill="#7AA7A6"/>
<path d="M127.077 99.2179C125.836 100.757 124.344 102.058 122.719 103.18C122.402 103.398 122.496 103.484 122.817 103.547C123.181 103.617 123.847 103.398 124.148 103.191C125.934 101.957 127.563 100.566 128.93 98.8703C129.129 98.6202 128.237 98.7179 128.186 98.7257C127.822 98.7921 127.32 98.9132 127.077 99.2179Z" fill="#7AA7A6"/>
<path d="M126.032 102.082C127.281 102.539 128.546 102.949 129.818 103.336C130.257 103.469 130.844 103.336 131.15 102.98C131.42 102.66 131.342 102.242 130.919 102.113C129.646 101.726 128.381 101.316 127.132 100.859C126.368 100.578 124.927 101.676 126.032 102.082Z" fill="#7AA7A6"/>
<path d="M127.018 104.399C126.294 105.442 125.425 106.301 124.324 106.934C124.027 107.106 123.807 107.465 124.164 107.692C124.536 107.922 125.162 107.715 125.499 107.524C126.823 106.758 127.907 105.707 128.777 104.457C129.035 104.086 128.553 103.898 128.26 103.883C127.837 103.855 127.269 104.039 127.018 104.402V104.399Z" fill="#7AA7A6"/>
<path d="M127.797 106.871C127.104 107.844 125.875 109.028 124.966 109.512C123.838 110.11 124.849 111.212 125.82 110.696C127.163 109.981 128.514 108.715 129.387 107.485C130.088 106.5 128.326 106.129 127.797 106.875V106.871Z" fill="#7AA7A6"/>
<path d="M128.675 110.38C127.669 111.513 126.557 112.415 125.268 113.205C124.943 113.404 124.783 113.818 125.135 114.064C125.515 114.33 126.13 114.134 126.478 113.92C127.884 113.06 129.125 112.052 130.218 110.817C130.982 109.958 129.169 109.821 128.675 110.38Z" fill="#7AA7A6"/>
<path d="M135.935 100.628C137.905 100.66 140.086 100.093 141.794 99.1243C142.142 98.925 142.252 98.4875 141.915 98.2335C141.531 97.9444 140.924 98.1671 140.572 98.3702C139.491 98.9875 137.862 99.386 136.617 99.3665C136.202 99.3587 135.571 99.4837 135.383 99.9213C135.215 100.316 135.532 100.625 135.935 100.628Z" fill="#7AA7A6"/>
<path d="M135.869 100.332C135.97 102.875 136.068 105.426 135.966 107.973C135.888 109.896 135.833 112.087 134.811 113.783C134.682 113.994 136.385 113.92 136.667 113.451C137.611 111.88 137.725 109.845 137.823 108.063C137.971 105.325 137.862 102.57 137.752 99.8315C137.74 99.519 135.849 99.8159 135.869 100.336V100.332Z" fill="#7AA7A6"/>
<path d="M137.008 102.73C137.944 102.695 138.892 102.629 139.831 102.66C139.961 102.664 140.184 102.73 140.305 102.691C140.07 102.765 140.2 102.355 140.086 102.597C140.035 102.707 140.18 103.23 140.188 103.348C140.286 104.656 140.223 105.996 140.117 107.301C140.039 108.262 141.958 108.001 142.024 107.157C142.15 105.602 142.396 103.684 141.981 102.16C141.813 101.546 141.398 101.378 140.795 101.32C139.608 101.199 138.367 101.324 137.176 101.367C136.111 101.406 135.724 102.781 137.008 102.734V102.73Z" fill="#7AA7A6"/>
<path d="M136.949 107.86C138.285 107.942 139.655 108.071 140.991 107.907C141.39 107.856 141.989 107.63 142.028 107.153C142.068 106.676 141.539 106.5 141.159 106.547C139.98 106.692 138.786 106.579 137.603 106.508C137.161 106.481 136.573 106.637 136.378 107.083C136.198 107.493 136.542 107.837 136.949 107.864V107.86Z" fill="#7AA7A6"/>
<path d="M143.023 101.629C144.899 101.66 146.943 101.008 148.533 100.035C148.897 99.8121 148.968 99.3199 148.631 99.0503C148.239 98.7378 147.648 98.9331 147.28 99.1597C146.121 99.8708 144.543 100.258 143.188 100.234C142.103 100.215 141.751 101.605 143.027 101.629H143.023Z" fill="#7AA7A6"/>
<path d="M142.835 101.609C143.36 104.469 143.814 109.583 141.284 111.771C140.897 112.107 142.639 111.931 142.988 111.626C145.635 109.337 145.263 104.102 144.715 101.105C144.644 100.722 142.749 101.144 142.831 101.609H142.835Z" fill="#7AA7A6"/>
<path d="M144.202 103.828C145.882 103.793 147.57 103.684 149.223 103.383C149.614 103.313 150.1 102.895 149.982 102.457C149.853 101.973 149.246 101.961 148.858 102.031C147.382 102.301 145.847 102.359 144.351 102.391C143.258 102.414 142.922 103.856 144.202 103.828Z" fill="#7AA7A6"/>
<path d="M146.145 103.723C146.211 107.129 146.333 110.544 146.251 113.951C146.235 114.689 148.115 114.291 148.13 113.701C148.212 110.208 148.099 106.711 148.028 103.219C148.017 102.668 146.133 103.019 146.145 103.723Z" fill="#7AA7A6"/>
<path d="M4.73275 125.124H3.82812L4.54084 119.69L6.66724 123.202L8.80148 119.69L9.5142 125.124H8.6096L8.24541 121.975L6.66724 124.644L5.0891 121.975L4.73275 125.124Z" fill="#81A5A5"/>
<path d="M11.2065 119.948V123.386C11.2065 123.706 11.2927 123.964 11.4611 124.16C11.6334 124.355 11.884 124.453 12.2208 124.453C12.5576 124.453 12.8043 124.355 12.9766 124.16C13.1489 123.964 13.235 123.706 13.235 123.386V119.948H14.1083V123.425C14.1083 123.71 14.0613 123.968 13.9712 124.191C13.8812 124.414 13.7519 124.605 13.5835 124.765C13.4152 124.921 13.2154 125.043 12.9844 125.128C12.7533 125.214 12.4988 125.254 12.2208 125.254C11.9427 125.254 11.6882 125.211 11.4571 125.128C11.2261 125.046 11.0225 124.925 10.8541 124.765C10.6818 124.609 10.5525 124.417 10.4664 124.191C10.3802 123.964 10.3333 123.71 10.3333 123.425V119.948H11.2065Z" fill="#81A5A5"/>
<path d="M19.0852 119.948L17.3191 122.944V125.124H16.4302V122.948L14.6719 119.944H15.6666L16.8766 122.163L18.0867 119.944H19.0892L19.0852 119.948Z" fill="#81A5A5"/>
<path d="M20.5227 119.948V123.386C20.5227 123.706 20.6088 123.964 20.7772 124.16C20.9495 124.355 21.2002 124.453 21.5369 124.453C21.8737 124.453 22.1204 124.355 22.2927 124.16C22.465 123.964 22.5512 123.706 22.5512 123.386V119.948H23.4245V123.425C23.4245 123.71 23.3775 123.968 23.2874 124.191C23.1973 124.414 23.0681 124.605 22.8997 124.765C22.7313 124.921 22.5316 125.043 22.3006 125.128C22.0695 125.214 21.815 125.254 21.5369 125.254C21.2589 125.254 21.0044 125.211 20.7733 125.128C20.5423 125.046 20.3386 124.925 20.1703 124.765C19.9979 124.609 19.8687 124.417 19.7826 124.191C19.6964 123.964 19.6494 123.71 19.6494 123.425V119.948H20.5227Z" fill="#81A5A5"/>
<path d="M27.6457 119.948V125.125H26.7725V119.948H27.6457ZM27.2894 119.948H28.335C28.7109 119.948 29.0398 120.014 29.3179 120.143C29.5959 120.272 29.8152 120.46 29.9679 120.698C30.1207 120.936 30.199 121.222 30.199 121.554C30.199 121.886 30.1207 122.171 29.9679 122.413C29.8152 122.655 29.5998 122.839 29.3179 122.972C29.0359 123.105 28.7109 123.167 28.335 123.167H27.2894V122.398H28.335C28.6365 122.398 28.8793 122.327 29.0594 122.183C29.2435 122.038 29.3335 121.831 29.3335 121.554C29.3335 121.276 29.2435 121.069 29.0594 120.929C28.8754 120.788 28.6326 120.718 28.335 120.718H27.2894V119.948Z" fill="#81A5A5"/>
<path d="M31.9177 119.948V125.125H31.0562V119.948H31.9177ZM31.5966 119.948H34.2125V120.718H31.5966V119.948ZM31.5966 121.976H34.0637V122.73H31.5966V121.976ZM31.5966 124.355H34.2125V125.125H31.5966V124.355Z" fill="#81A5A5"/>
<path d="M36.1785 119.948V125.125H35.2896V119.948H36.1785ZM35.83 125.125V124.304H36.9421C37.2006 124.304 37.4355 124.269 37.6548 124.195C37.8741 124.121 38.0621 124.011 38.2227 123.863C38.3832 123.714 38.5085 123.531 38.6025 123.308C38.6965 123.085 38.7396 122.831 38.7396 122.538C38.7396 122.245 38.6926 121.991 38.6025 121.769C38.5124 121.546 38.3832 121.362 38.2227 121.214C38.0621 121.065 37.8741 120.956 37.6548 120.882C37.4355 120.808 37.2006 120.772 36.9421 120.772H35.83V119.952H36.9656C37.4943 119.952 37.9603 120.057 38.3597 120.272C38.7592 120.487 39.0724 120.788 39.2956 121.175C39.5189 121.562 39.6324 122.019 39.6324 122.538C39.6324 123.058 39.5189 123.515 39.2956 123.902C39.0724 124.289 38.7592 124.589 38.3597 124.804C37.9603 125.019 37.4943 125.125 36.9656 125.125H35.83Z" fill="#81A5A5"/>
<path d="M41.3672 119.948V125.125H40.4861V119.948H41.3672Z" fill="#81A5A5"/>
<path d="M43.6899 123.316L43.6742 123.507L42.9536 125.129H41.9668L44.5005 119.663L47.0341 125.129H46.0473L45.3424 123.554L45.3189 123.339L44.4966 121.417L43.682 123.32L43.6899 123.316ZM43.31 123.054H45.7184L45.8907 123.792H43.1494L43.3139 123.054H43.31Z" fill="#81A5A5"/>
<path d="M46.6035 119.948H50.2219V120.753H48.8513V125.125H47.9702V120.753H46.6074V119.948H46.6035Z" fill="#81A5A5"/>
<path d="M51.7329 119.948V125.124H50.8596V119.948H51.7329ZM51.3765 119.948H52.4574C52.8333 119.948 53.1583 120.014 53.4403 120.147C53.7183 120.28 53.9376 120.467 54.0903 120.706C54.2431 120.944 54.3214 121.225 54.3214 121.553C54.3214 121.882 54.2431 122.163 54.0903 122.405C53.9376 122.647 53.7222 122.835 53.4403 122.968C53.1622 123.101 52.8333 123.167 52.4574 123.167H51.3765V122.448H52.4221C52.6179 122.448 52.7941 122.413 52.9429 122.343C53.0918 122.272 53.2092 122.175 53.2954 122.042C53.3776 121.913 53.4207 121.757 53.4207 121.573C53.4207 121.389 53.3776 121.229 53.2954 121.1C53.2131 120.971 53.0957 120.874 52.9429 120.803C52.7902 120.733 52.6179 120.698 52.4221 120.698H51.3765V119.944V119.948ZM52.8725 122.655L54.6308 125.124H53.5773L51.9248 122.655H52.8725Z" fill="#81A5A5"/>
<path d="M56.1506 119.948V125.125H55.2695V119.948H56.1506Z" fill="#81A5A5"/>
<path d="M58.1988 123.499C58.3633 123.776 58.5825 123.987 58.8527 124.14C59.123 124.292 59.4167 124.366 59.7299 124.366C59.9766 124.366 60.1999 124.335 60.3957 124.269C60.5915 124.202 60.7716 124.116 60.9322 124.007C61.0927 123.898 61.2337 123.773 61.3512 123.632V124.667C61.1319 124.843 60.9008 124.98 60.6463 125.074C60.3957 125.167 60.0785 125.214 59.6986 125.214C59.3188 125.214 58.9624 125.152 58.6335 125.023C58.3045 124.894 58.0186 124.71 57.7758 124.468C57.533 124.226 57.3451 123.941 57.208 123.612C57.071 123.284 57.0044 122.925 57.0044 122.538C57.0044 122.151 57.071 121.788 57.208 121.464C57.3451 121.135 57.533 120.85 57.7758 120.608C58.0186 120.366 58.3045 120.182 58.6335 120.053C58.9624 119.924 59.3149 119.862 59.6986 119.862C60.0824 119.862 60.3957 119.909 60.6463 120.002C60.8969 120.096 61.1319 120.233 61.3512 120.409V121.444C61.2337 121.307 61.0927 121.182 60.9322 121.069C60.7716 120.96 60.5915 120.87 60.3957 120.807C60.1999 120.745 59.9766 120.71 59.7299 120.71C59.4127 120.71 59.119 120.784 58.8527 120.936C58.5825 121.085 58.3672 121.3 58.1988 121.573C58.0343 121.847 57.9521 122.167 57.9521 122.538C57.9521 122.909 58.0343 123.222 58.1988 123.499Z" fill="#81A5A5"/>
<path d="M65.5256 119.948V125.124H64.6523V119.948H65.5256ZM65.1732 119.948H66.254C66.6299 119.948 66.955 120.014 67.2369 120.147C67.5189 120.28 67.7343 120.467 67.887 120.706C68.0397 120.944 68.118 121.225 68.118 121.553C68.118 121.882 68.0397 122.163 67.887 122.405C67.7343 122.647 67.5189 122.835 67.2369 122.968C66.9589 123.101 66.6299 123.167 66.254 123.167H65.1732V122.448H66.2188C66.4146 122.448 66.5908 122.413 66.7396 122.343C66.8884 122.272 67.0059 122.175 67.092 122.042C67.1782 121.909 67.2174 121.757 67.2174 121.573C67.2174 121.389 67.1743 121.229 67.092 121.1C67.0098 120.971 66.8923 120.874 66.7396 120.803C66.5869 120.733 66.4146 120.698 66.2188 120.698H65.1732V119.944V119.948ZM66.6691 122.655L68.4274 125.124H67.374L65.7214 122.655H66.6691Z" fill="#81A5A5"/>
<path d="M69.9231 119.948V125.125H69.0615V119.948H69.9231ZM69.6019 119.948H72.2178V120.718H69.6019V119.948ZM69.6019 121.976H72.069V122.73H69.6019V121.976ZM69.6019 124.355H72.2178V125.125H69.6019V124.355Z" fill="#81A5A5"/>
<path d="M74.1719 119.948V125.125H73.2986V119.948H74.1719ZM73.6432 121.944H77.3438V122.749H73.6432V121.944ZM77.6532 119.948V125.125H76.7799V119.948H77.6532Z" fill="#81A5A5"/>
<path d="M79.9755 123.316L79.9598 123.507L79.2393 125.129H78.2524L80.7861 119.663L83.3198 125.129H82.3329L81.6281 123.554L81.6046 123.339L80.7822 121.417L79.9677 123.32L79.9755 123.316ZM79.5956 123.054H82.004L82.1724 123.792H79.4312L79.5956 123.054Z" fill="#81A5A5"/>
<path d="M84.5927 122.026H85.4307C85.5952 122.026 85.7362 121.999 85.8615 121.944C85.9868 121.89 86.0808 121.812 86.1513 121.71C86.2218 121.608 86.257 121.487 86.257 121.343C86.257 121.124 86.1787 120.96 86.026 120.839C85.8732 120.722 85.6735 120.663 85.4346 120.663H84.8042V124.406H85.5325C85.7284 124.406 85.9046 124.374 86.0573 124.308C86.21 124.246 86.3314 124.148 86.4215 124.019C86.5116 123.89 86.5546 123.73 86.5546 123.538C86.5546 123.402 86.5272 123.277 86.4763 123.171C86.4254 123.066 86.351 122.976 86.2609 122.905C86.1709 122.835 86.0612 122.78 85.9398 122.749C85.8184 122.718 85.6814 122.702 85.5325 122.702H84.6005V122.222H85.5874C85.838 122.222 86.0769 122.249 86.3001 122.304C86.5233 122.359 86.723 122.441 86.8953 122.554C87.0716 122.667 87.2086 122.812 87.3065 122.991C87.4044 123.167 87.4553 123.382 87.4553 123.628C87.4553 123.968 87.3731 124.249 87.2125 124.472C87.052 124.695 86.8327 124.859 86.5507 124.964C86.2727 125.07 85.9477 125.125 85.5835 125.125H83.9309V119.948H85.4934C85.8184 119.948 86.1082 119.995 86.3588 120.089C86.6095 120.182 86.8053 120.327 86.9462 120.518C87.0872 120.71 87.1577 120.956 87.1577 121.249C87.1577 121.507 87.0872 121.722 86.9462 121.905C86.8053 122.085 86.6095 122.222 86.3588 122.316C86.1082 122.409 85.8223 122.456 85.4934 122.456H84.5966V122.026H84.5927Z" fill="#81A5A5"/>
<path d="M89.2573 119.948V125.125H88.3762V119.948H89.2573Z" fill="#81A5A5"/>
<path d="M91.2851 119.948V124.339H93.345V125.125H90.408V119.948H91.2812H91.2851Z" fill="#81A5A5"/>
<path d="M94.8606 119.948V125.125H93.9795V119.948H94.8606Z" fill="#81A5A5"/>
<path d="M95.4985 119.948H99.1169V120.753H97.7463V125.125H96.8652V120.753H95.5025V119.948H95.4985Z" fill="#81A5A5"/>
<path d="M100.175 123.316L100.159 123.507L99.4385 125.129H98.4517L100.985 119.663L103.519 125.129H102.532L101.827 123.554L101.804 123.339L100.981 121.417L100.167 123.32L100.175 123.316ZM99.7988 123.054H102.207L102.376 123.792H99.6343L99.7988 123.054Z" fill="#81A5A5"/>
<path d="M103.087 119.948H106.706V120.753H105.335V125.125H104.454V120.753H103.091V119.948H103.087Z" fill="#81A5A5"/>
<path d="M108.226 119.948V125.125H107.345V119.948H108.226Z" fill="#81A5A5"/>
<path d="M109.287 121.464C109.42 121.139 109.608 120.854 109.854 120.616C110.097 120.378 110.387 120.19 110.716 120.057C111.045 119.924 111.401 119.858 111.781 119.858C112.161 119.858 112.529 119.924 112.858 120.057C113.183 120.19 113.469 120.378 113.716 120.616C113.958 120.854 114.15 121.135 114.283 121.464C114.417 121.788 114.483 122.147 114.483 122.534C114.483 122.921 114.417 123.276 114.283 123.605C114.15 123.937 113.962 124.222 113.72 124.464C113.477 124.706 113.191 124.894 112.862 125.031C112.533 125.167 112.173 125.234 111.785 125.234C111.397 125.234 111.041 125.167 110.708 125.031C110.375 124.894 110.093 124.706 109.851 124.464C109.612 124.222 109.424 123.937 109.291 123.605C109.157 123.273 109.091 122.917 109.091 122.534C109.091 122.151 109.157 121.788 109.291 121.464H109.287ZM110.238 123.487C110.387 123.765 110.598 123.984 110.865 124.144C111.131 124.304 111.437 124.382 111.777 124.382C112.118 124.382 112.427 124.304 112.694 124.144C112.96 123.984 113.167 123.769 113.316 123.487C113.465 123.206 113.543 122.894 113.543 122.538C113.543 122.182 113.469 121.866 113.32 121.589C113.171 121.311 112.964 121.092 112.701 120.932C112.439 120.776 112.13 120.694 111.777 120.694C111.425 120.694 111.131 120.772 110.865 120.932C110.598 121.089 110.391 121.307 110.238 121.589C110.089 121.866 110.011 122.182 110.011 122.538C110.011 122.894 110.085 123.21 110.238 123.487Z" fill="#81A5A5"/>
<path d="M119.974 119.948V125.382L116.187 121.647V125.124H115.326V119.69L119.113 123.425V119.948H119.974Z" fill="#81A5A5"/>
<path d="M124.242 123.499C124.406 123.776 124.626 123.987 124.896 124.14C125.166 124.292 125.456 124.366 125.773 124.366C126.02 124.366 126.243 124.335 126.439 124.269C126.634 124.202 126.815 124.116 126.975 124.007C127.136 123.898 127.277 123.773 127.394 123.632V124.667C127.175 124.843 126.94 124.98 126.689 125.074C126.439 125.167 126.121 125.214 125.742 125.214C125.362 125.214 125.005 125.152 124.676 125.023C124.347 124.894 124.062 124.71 123.819 124.468C123.576 124.226 123.388 123.941 123.251 123.612C123.114 123.284 123.047 122.925 123.047 122.538C123.047 122.151 123.114 121.788 123.251 121.464C123.388 121.135 123.576 120.85 123.819 120.608C124.062 120.366 124.347 120.182 124.676 120.053C125.005 119.924 125.362 119.862 125.742 119.862C126.121 119.862 126.439 119.909 126.689 120.002C126.94 120.096 127.175 120.233 127.394 120.409V121.444C127.277 121.307 127.136 121.182 126.975 121.069C126.815 120.96 126.634 120.87 126.439 120.807C126.243 120.745 126.02 120.71 125.773 120.71C125.456 120.71 125.162 120.784 124.896 120.936C124.626 121.085 124.41 121.3 124.242 121.573C124.077 121.847 123.995 122.167 123.995 122.538C123.995 122.909 124.077 123.222 124.242 123.499Z" fill="#81A5A5"/>
<path d="M129.345 119.948V124.339H131.405V125.125H128.468V119.948H129.341H129.345Z" fill="#81A5A5"/>
<path d="M132.92 119.948V125.125H132.039V119.948H132.92Z" fill="#81A5A5"/>
<path d="M138.724 119.948V125.382L134.937 121.647V125.124H134.076V119.69L137.862 123.425V119.948H138.724Z" fill="#81A5A5"/>
<path d="M140.752 119.948V125.125H139.871V119.948H140.752Z" fill="#81A5A5"/>
<path d="M142.805 123.499C142.969 123.776 143.189 123.987 143.459 124.14C143.729 124.292 144.019 124.366 144.336 124.366C144.583 124.366 144.806 124.335 145.002 124.269C145.197 124.202 145.378 124.116 145.538 124.007C145.699 123.898 145.84 123.773 145.957 123.632V124.667C145.738 124.843 145.503 124.98 145.252 125.074C145.002 125.167 144.684 125.214 144.305 125.214C143.925 125.214 143.568 125.152 143.239 125.023C142.91 124.894 142.625 124.71 142.382 124.468C142.139 124.226 141.951 123.941 141.814 123.612C141.677 123.284 141.61 122.925 141.61 122.538C141.61 122.151 141.677 121.788 141.814 121.464C141.951 121.135 142.139 120.85 142.382 120.608C142.625 120.366 142.91 120.182 143.239 120.053C143.568 119.924 143.925 119.862 144.305 119.862C144.684 119.862 145.002 119.909 145.252 120.002C145.503 120.096 145.738 120.233 145.957 120.409V121.444C145.84 121.307 145.699 121.182 145.538 121.069C145.378 120.96 145.197 120.87 145.002 120.807C144.806 120.745 144.583 120.71 144.336 120.71C144.019 120.71 143.725 120.784 143.459 120.936C143.189 121.085 142.973 121.3 142.805 121.573C142.64 121.847 142.558 122.167 142.558 122.538C142.558 122.909 142.64 123.222 142.805 123.499Z" fill="#81A5A5"/>
</svg>
