<svg width="330" height="302" viewBox="0 0 330 302" fill="none" xmlns="http://www.w3.org/2000/svg">
<path d="M319.381 14.397C315.886 16.2431 313.628 18.0434 305.652 22.2173C294.433 28.0883 272.326 36.4819 263.158 44.8871C260.373 47.4442 258.023 49.9898 256.006 52.6157C250.838 48.4188 242.277 42.3644 232.032 38.546C234.324 34.028 238.289 25.8981 239.252 22.0224C240.627 16.5068 239.584 5.76249 236.295 3.68701C234.289 2.42567 227.975 1.40513 226.84 3.49208C225.327 6.2785 231.172 10.9799 229.992 19.8551C229.144 26.2307 222.749 33.3171 220.629 35.5302C219.104 35.3009 217.557 35.1289 215.999 35.0371C210.83 34.7505 205.73 34.4982 202.338 34.567C200.516 28.5355 195.072 11.622 188.219 0.132316C187.715 -0.716224 177.596 2.7582 177.974 3.68701C184.609 20.0845 189.434 31.3104 191.623 36.3558C181.057 39.4977 170.112 46.4007 160.21 54.0949C155.053 49.5999 139.33 35.5073 138.711 30.1638C138.104 24.8202 144.476 22.309 144.246 20.8298C144.063 19.6602 141.198 18.5823 140.018 18.6855C138.906 18.7773 135.135 22.6989 133.359 25.256C131.583 27.8245 127.491 33.0534 131.262 36.1265C136.763 40.61 148.704 54.5994 153.128 59.8627C139.983 71.0542 129.635 82.3834 126.139 85.5023C118.839 92.0154 1.52073 188.222 0.0767447 193.061C-1.06928 196.89 10.9525 218.253 13.9322 215.593C33.4374 198.243 162.193 67.5798 171.258 61.8579C180.323 56.136 200.642 46.4007 209.489 47.0658C227.608 48.4418 242.953 56.4112 250.597 61.124C248.064 66.0318 246.185 71.3294 244.374 77.3609C240.432 90.5018 231.768 116.669 230.977 124.547C230.484 129.454 224.663 153.592 213.202 174.645C211.048 173.475 209.249 172.363 208.836 171.744C207.656 169.966 193.995 138.811 193.789 137.435C193.594 136.059 193.376 134.03 195.565 133.296C203.748 130.532 211.953 122.506 211.793 121.141C211.014 114.399 205.49 106.028 200.631 111.945C199.634 113.16 195.771 120.361 187.039 126.141C185.79 126.966 179.223 132.126 182.764 139.018C186.317 145.921 199.84 175.493 200.436 177.856C201.032 180.218 203.198 182.591 205.364 183.967C205.73 184.197 206.326 184.449 207.083 184.713C201.192 193.313 122.758 261.953 111.39 273.66C98.0502 287.397 96.8927 288.338 102.29 292.179C111.355 298.623 117.372 295.183 119.504 292.5C127.801 282.088 217.5 202.05 224.64 192.774C225.58 192.567 226.577 192.407 227.413 192.407C227.665 192.407 231.86 193.095 233.865 194.356C237.017 196.329 250.872 200.537 255.41 200.927C259.937 201.317 266.114 202.177 266.71 200.009C267.306 197.842 268.349 195.675 266.584 194.884C264.819 194.092 241.028 191.203 239.458 190.412C238.495 189.93 233.533 188.485 232.181 186.628C247.766 182.729 270.962 159.784 274.114 149.728C277.265 139.671 274.549 109.433 268.704 99.0331C266.424 94.9739 258.757 88.8621 255.708 86.2477C256.167 84.8602 255.777 84.8717 256.27 83.4498C258.952 83.7708 261.943 83.9428 263.295 83.358C266.057 82.177 274.595 75.6065 275.58 75.0102C276.566 74.414 281.356 85.1354 282.938 87.1077C284.519 89.08 287.671 84.9405 287.465 83.9543C287.27 82.9682 279.316 71.8569 279.316 71.8569L289.436 62.9128C289.436 62.9128 295.475 73.359 297.848 76.7188C300.208 80.0671 305.595 74.219 305.595 74.219C305.595 74.219 295.613 57.3285 295.613 55.9525C295.613 54.5765 311.027 56.5373 313.353 52.6615C313.961 51.641 311.646 46.2172 308.884 45.8273C306.122 45.4375 298.077 52.4437 294.96 51.3429C292.828 50.5975 290.628 46.0796 289.184 42.502C302.455 34.8078 319.118 29.6707 327.541 22.4237C331.747 19.729 326.361 10.7276 319.393 14.4084L319.381 14.397ZM257.37 99.9046C264.567 105.959 266.561 144.292 263.272 150.588C253.313 169.657 236.639 171.514 233.819 173.338C238.621 164.864 238.117 162.009 242.976 143.478C246.827 128.801 248.913 104.984 251.056 99.0446C251.663 97.3704 252.293 95.4899 252.947 93.4832C254.402 95.4669 255.674 98.4712 257.359 99.8931L257.37 99.9046ZM286.273 56.0672C285.528 59.2434 264.006 76.1799 261.84 76.9711C261.049 77.2577 259.834 77.1431 258.608 76.8793C259.685 74.07 260.843 71.3065 262.092 68.7494C266.435 59.9085 271.925 56.9616 277.196 51.469C278.675 49.9324 280.325 48.4991 282.101 47.146C284.05 50.265 286.594 54.6797 286.261 56.0786L286.273 56.0672Z" fill="white"/>
<path d="M106.13 102.072C106.13 102.072 101.248 78.6681 100.216 71.7193C99.185 64.7704 101.248 57.5693 104.846 53.7164C108.445 49.8521 121.303 28.2488 125.67 22.3319C130.036 16.4151 135.182 7.14994 135.182 7.14994L125.67 5.86566C125.67 5.86566 94.0508 52.1684 92.5037 59.1173C90.9565 66.0661 91.4722 70.1827 91.4722 70.1827L82.9917 61.6973C82.9917 61.6973 89.673 57.0647 89.9366 55.7805C90.2002 54.4962 88.3894 52.1799 86.5902 53.2119C84.7909 54.2439 78.1096 61.961 78.1096 61.961L91.7358 75.8473L98.4171 109.8L106.13 102.083V102.072Z" fill="white"/>
<path d="M258.929 54.7141C264.068 54.7141 268.235 50.5454 268.235 45.403C268.235 40.2607 264.068 36.092 258.929 36.092C253.79 36.092 249.623 40.2607 249.623 45.403C249.623 50.5454 253.79 54.7141 258.929 54.7141Z" fill="white"/>
<path d="M258.929 53.7738C263.549 53.7738 267.295 50.0261 267.295 45.4031C267.295 40.78 263.549 37.0323 258.929 37.0323C254.309 37.0323 250.563 40.78 250.563 45.4031C250.563 50.0261 254.309 53.7738 258.929 53.7738Z" fill="#998675"/>
<path d="M258.092 40.5755V50.2191H256.465V40.5755H258.092ZM257.428 40.5755H259.365C260.075 40.5755 260.682 40.7017 261.198 40.9425C261.714 41.1833 262.115 41.5273 262.401 41.9745C262.688 42.4217 262.837 42.9492 262.837 43.5684C262.837 44.1876 262.688 44.715 262.401 45.1622C262.115 45.6095 261.714 45.9535 261.198 46.2057C260.682 46.4465 260.075 46.5727 259.365 46.5727H257.428V45.1393H259.365C259.926 45.1393 260.373 45.0017 260.717 44.738C261.061 44.4742 261.221 44.0844 261.221 43.5684C261.221 43.0524 261.049 42.6625 260.717 42.4102C260.373 42.1465 259.926 42.0204 259.365 42.0204H257.428V40.587V40.5755Z" fill="white"/>
<path d="M125.706 90.4518L126.266 89.8946L127.408 91.0437L126.848 91.6009L125.706 90.4518ZM123.816 93.8417L129.735 87.9521L131.251 89.4771L130.69 90.0343L129.668 89.0058L124.848 93.8021L125.87 94.8306L125.331 95.3666L123.816 93.8417ZM126.994 92.3015L127.66 91.879C127.805 92.2802 127.95 92.7097 128.094 93.1675C128.239 93.6159 128.384 94.0737 128.529 94.5409C128.674 94.9987 128.807 95.44 128.928 95.8647C129.049 96.2894 129.157 96.6717 129.25 97.0114L128.549 97.4126C128.47 97.0682 128.37 96.6836 128.248 96.2589C128.127 95.8247 127.996 95.3764 127.856 94.9139C127.716 94.4514 127.571 93.9983 127.422 93.5547C127.272 93.1016 127.13 92.6838 126.994 92.3015ZM130.332 91.9147L131.005 91.4144C131.408 92.104 131.67 92.7743 131.791 93.4254C131.916 94.0718 131.919 94.7178 131.8 95.3635C131.68 95.9997 131.452 96.6451 131.116 97.2996C130.784 97.9588 130.362 98.6414 129.852 99.3472C129.79 99.3141 129.708 99.2879 129.604 99.2688C129.51 99.2496 129.411 99.2305 129.308 99.2113C129.213 99.1922 129.129 99.1825 129.053 99.1823C129.753 98.2789 130.286 97.4293 130.651 96.6334C131.011 95.8328 131.176 95.0481 131.145 94.2794C131.11 93.506 130.839 92.7178 130.332 91.9147ZM125.57 96.0039L131.865 89.7405L132.365 90.2441L126.07 96.5074L125.57 96.0039ZM128.714 96.7412L128.694 96.0126C129.176 95.7404 129.69 95.4731 130.238 95.2106C130.785 94.948 131.337 94.7044 131.894 94.4796C132.451 94.2454 132.986 94.0417 133.5 93.8687C134.015 93.6862 134.477 93.5508 134.887 93.4623L134.927 94.2971C134.531 94.3714 134.076 94.4904 133.562 94.654C133.057 94.8176 132.522 95.0118 131.955 95.2366C131.394 95.4566 130.835 95.6979 130.278 95.9604C129.726 96.2182 129.204 96.4785 128.714 96.7412ZM132.451 84.9112L136.91 80.4747L137.34 80.9073L132.881 85.3439L132.451 84.9112ZM135.595 88.117L140.103 83.6311L140.54 84.0709L136.032 88.5568L135.595 88.117ZM137.746 87.4582L137.691 86.8639C137.884 86.7748 138.094 86.6929 138.321 86.6181C138.552 86.5386 138.776 86.4708 138.993 86.4148C139.214 86.3542 139.405 86.3193 139.566 86.3103L139.634 86.9471C139.474 86.9561 139.286 86.9886 139.069 87.0446C138.852 87.0911 138.625 87.1518 138.389 87.2266C138.158 87.2966 137.944 87.3738 137.746 87.4582ZM137.85 88.0455L138.346 87.5518L139.305 88.5164C139.38 88.5921 139.441 88.6253 139.488 88.616C139.545 88.6067 139.63 88.5456 139.743 88.4328C139.772 88.4046 139.819 88.3575 139.885 88.2917C139.951 88.2259 140.027 88.1506 140.112 88.066C140.197 87.9814 140.277 87.9014 140.353 87.8262C140.429 87.7509 140.483 87.6969 140.516 87.664C140.577 87.6028 140.611 87.5416 140.616 87.4803C140.625 87.4238 140.595 87.3459 140.524 87.2467C140.459 87.1427 140.344 87.0033 140.179 86.8284C140.264 86.8192 140.365 86.7888 140.483 86.7373C140.601 86.6857 140.703 86.6318 140.788 86.5755C140.994 86.8212 141.138 87.0268 141.217 87.192C141.302 87.3526 141.325 87.4988 141.287 87.6307C141.249 87.7627 141.159 87.8992 141.017 88.0402C140.984 88.0731 140.925 88.1319 140.84 88.2166C140.755 88.3012 140.662 88.3929 140.563 88.4916C140.464 88.5904 140.372 88.6821 140.287 88.7667C140.206 88.8467 140.152 88.9007 140.124 88.9289C139.935 89.117 139.769 89.2439 139.628 89.3095C139.496 89.3752 139.366 89.3819 139.239 89.3296C139.112 89.2774 138.971 89.1733 138.816 89.0172L137.85 88.0455ZM137.098 88.8498L137.672 88.5472C137.869 88.859 138.04 89.1966 138.185 89.5601C138.33 89.9142 138.388 90.2703 138.359 90.6286L137.687 90.747C137.716 90.4359 137.672 90.1127 137.555 89.7776C137.434 89.4378 137.281 89.1285 137.098 88.8498ZM140.018 86.156L140.211 85.5695C140.475 85.5702 140.748 85.5898 141.031 85.6283C141.309 85.6621 141.577 85.71 141.836 85.772C142.095 85.8246 142.314 85.8889 142.493 85.9649L142.307 86.6151C142.129 86.5391 141.912 86.4678 141.658 86.4011C141.403 86.3343 141.133 86.2793 140.845 86.2361C140.558 86.1929 140.282 86.1662 140.018 86.156ZM136.782 83.2965L137.74 84.2611L138.499 83.5064L137.54 82.5418L136.782 83.2965ZM135.647 84.425L136.606 85.3896L137.35 84.649L136.392 83.6844L135.647 84.425ZM134.542 85.5253L135.5 86.49L136.216 85.7776L135.258 84.813L134.542 85.5253ZM133.707 85.5513L137.592 81.6861L139.354 83.4593L135.47 87.3245L133.707 85.5513ZM133.822 82.3475L134.411 81.8187C134.584 82.0313 134.758 82.2534 134.932 82.485C135.11 82.7118 135.282 82.9316 135.446 83.1442C135.61 83.3569 135.751 83.5459 135.869 83.7113L135.323 84.1553C135.201 83.9852 135.053 83.7939 134.879 83.5812C134.706 83.3591 134.527 83.1417 134.344 82.929C134.156 82.7115 133.982 82.5177 133.822 82.3475ZM132.935 86.3343L133.586 86.0249C133.731 86.4827 133.859 86.9663 133.971 87.4759C134.078 87.9808 134.161 88.4808 134.221 88.9761C134.286 89.4667 134.32 89.9266 134.323 90.3557C134.267 90.3366 134.189 90.3152 134.09 90.2914C133.991 90.2675 133.892 90.2484 133.793 90.2339C133.69 90.2148 133.602 90.2028 133.532 90.1978C133.542 89.8112 133.527 89.3986 133.486 88.9599C133.449 88.5166 133.382 88.0708 133.285 87.6225C133.192 87.1696 133.075 86.7402 132.935 86.3343ZM131.277 84.9221L131.95 84.6481C131.996 84.9783 132.026 85.3391 132.039 85.7305C132.056 86.1173 132.06 86.5039 132.049 86.8906C132.039 87.2772 132.014 87.6355 131.976 87.9655C131.915 87.9512 131.842 87.9392 131.757 87.9295C131.677 87.9151 131.594 87.9031 131.509 87.8934C131.425 87.8838 131.354 87.8789 131.297 87.8787C131.336 87.577 131.363 87.2494 131.378 86.8958C131.393 86.5421 131.394 86.1932 131.381 85.8489C131.363 85.5 131.328 85.191 131.277 84.9221ZM133.643 88.2672L133.645 87.7579L133.977 87.5962L137.784 91.4263L137.281 91.9271L133.643 88.2672ZM139.729 78.2899L142.132 75.8988L142.591 76.3598L140.187 78.7509L139.729 78.2899ZM141.979 75.1062L143.765 73.3288L144.238 73.804L142.451 75.5814L141.979 75.1062ZM143.804 77.0705L145.754 75.1309L146.233 75.6132L144.284 77.5529L143.804 77.0705ZM140.99 79.8424L143.663 77.1833L144.135 77.6585L141.463 80.3176L140.99 79.8424ZM139.784 76.4581L140.287 75.9573L142.853 78.5391L142.35 79.0399L139.784 76.4581ZM142.52 81.2967L145.101 78.7293L145.566 79.1974L142.986 81.7648L142.52 81.2967ZM142.688 79.3945L143.199 78.8866L145.786 81.4897L145.374 82.0968L142.688 79.3945ZM144.028 83.2106C144.25 82.933 144.505 82.6178 144.794 82.265C145.078 81.9074 145.378 81.5286 145.695 81.1287C146.007 80.7241 146.321 80.3218 146.638 79.9218L147.118 80.3759C146.664 80.9593 146.212 81.5404 145.763 82.1191C145.318 82.6932 144.925 83.2013 144.585 83.6436L144.028 83.2106ZM144.76 76.5144L145.285 75.9925L148.619 79.3474C148.774 79.5034 148.875 79.6428 148.922 79.7655C148.974 79.8836 148.966 80.0179 148.9 80.1686C148.838 80.3147 148.724 80.4794 148.559 80.6628C148.398 80.851 148.19 81.072 147.935 81.3259C147.85 81.2597 147.74 81.191 147.603 81.1199C147.476 81.0488 147.356 80.9943 147.243 80.9562C147.447 80.7634 147.624 80.5918 147.775 80.4414C147.936 80.2909 148.04 80.1875 148.087 80.131C148.139 80.0699 148.163 80.0228 148.158 79.9897C148.158 79.952 148.137 79.9119 148.095 79.8693L144.76 76.5144ZM138.125 78.1086L138.79 77.7992C138.87 78.1059 138.93 78.4409 138.971 78.8041C139.008 79.1626 139.026 79.521 139.025 79.8794C139.029 80.233 139.009 80.5725 138.966 80.8977C138.914 80.8834 138.846 80.8715 138.761 80.8618C138.676 80.8427 138.591 80.8283 138.506 80.8186C138.417 80.8042 138.341 80.7946 138.28 80.7897C138.319 80.5069 138.341 80.2075 138.346 79.8916C138.352 79.5663 138.336 79.2479 138.3 78.9366C138.263 78.6253 138.205 78.3493 138.125 78.1086ZM140.52 81.3547L140.515 80.4989L140.6 80.4567L144.688 84.5705L144.199 85.0572L140.52 81.3547ZM139.755 79.3226L140.392 79.0132C140.546 79.4427 140.672 79.8958 140.77 80.3723C140.863 80.8441 140.927 81.3111 140.964 81.7733C141 82.2355 141.006 82.6717 140.981 83.0819C140.925 83.0629 140.849 83.0438 140.755 83.0247C140.656 83.0008 140.557 82.9817 140.458 82.9672C140.355 82.9481 140.27 82.9384 140.204 82.9382C140.262 82.382 140.254 81.7831 140.181 81.1416C140.107 80.5001 139.965 79.8938 139.755 79.3226Z" fill="black"/>
<path d="M167.659 78.0375C172.799 78.0375 176.965 73.8688 176.965 68.7265C176.965 63.5841 172.799 59.4155 167.659 59.4155C162.52 59.4155 158.354 63.5841 158.354 68.7265C158.354 73.8688 162.52 78.0375 167.659 78.0375Z" fill="white"/>
<path d="M167.659 77.0972C172.28 77.0972 176.025 73.3495 176.025 68.7265C176.025 64.1034 172.28 60.3557 167.659 60.3557C163.039 60.3557 159.293 64.1034 159.293 68.7265C159.293 73.3495 163.039 77.0972 167.659 77.0972Z" fill="#998675"/>
<path d="M166.823 63.9104V73.554H165.196V63.9104H166.823ZM166.17 63.9104H168.106C168.817 63.9104 169.424 64.0366 169.94 64.2774C170.456 64.5182 170.857 64.8622 171.143 65.3094C171.43 65.7566 171.579 66.2841 171.579 66.9033C171.579 67.5225 171.43 68.0499 171.143 68.4971C170.857 68.9443 170.456 69.2883 169.94 69.5406C169.424 69.7814 168.817 69.9075 168.106 69.9075H166.17V68.4742H168.106C168.668 68.4742 169.115 68.3366 169.459 68.0729C169.803 67.8091 169.963 67.4193 169.963 66.9033C169.963 66.3873 169.791 65.9974 169.459 65.7451C169.115 65.4814 168.668 65.3552 168.106 65.3552H166.17V63.9219V63.9104Z" fill="white"/>
<path d="M51.506 78.9916L44.631 62.4916C44.5787 62.3664 44.4906 62.2594 44.3777 62.1842C44.2648 62.109 44.1322 62.0688 43.9965 62.0688C43.8608 62.0688 43.7282 62.109 43.6153 62.1842C43.5023 62.2594 43.4142 62.3664 43.362 62.4916L36.487 78.9916C36.4313 79.1252 36.4192 79.273 36.4524 79.4139C36.4857 79.5548 36.5625 79.6816 36.6721 79.7763C36.7816 79.8709 36.9182 79.9286 37.0624 79.941C37.2067 79.9535 37.3511 79.9201 37.4753 79.8456L44.3503 75.7206C44.4284 75.6745 44.4966 75.6134 44.551 75.5408C44.6053 75.4682 44.6448 75.3856 44.6671 75.2977C44.6894 75.2098 44.6941 75.1183 44.6809 75.0286C44.6677 74.9388 44.6369 74.8526 44.5902 74.7748C44.5435 74.697 44.4819 74.6293 44.409 74.5754C44.336 74.5216 44.2531 74.4827 44.165 74.461C44.0769 74.4394 43.9854 74.4353 43.8958 74.4492C43.8061 74.463 43.7201 74.4945 43.6427 74.5417L38.5599 77.5915L43.9965 64.5437L49.433 77.591L47.1003 76.1916C46.944 76.0993 46.7576 76.0726 46.5817 76.1172C46.4058 76.1618 46.2546 76.2742 46.1613 76.4298C46.0679 76.5854 46.0398 76.7716 46.0831 76.9478C46.1265 77.124 46.2378 77.276 46.3927 77.3705L50.5177 79.8455C50.6418 79.92 50.7863 79.9534 50.9305 79.9409C51.0747 79.9284 51.2114 79.8708 51.3209 79.7761C51.4304 79.6815 51.5073 79.5547 51.5405 79.4138C51.5737 79.2729 51.5617 79.1252 51.506 78.9916Z" fill="#666666"/>
<path d="M46.6628 86.8062H48.5188V98.5662L40.3428 90.4862V98.0062H38.4868V86.2462L46.6628 94.3262V86.8062Z" fill="#666666"/>
<path d="M251.972 105.512C257.112 105.512 261.278 101.343 261.278 96.2008C261.278 91.0585 257.112 86.8898 251.972 86.8898C246.833 86.8898 242.667 91.0585 242.667 96.2008C242.667 101.343 246.833 105.512 251.972 105.512Z" fill="white"/>
<path d="M251.972 104.572C256.593 104.572 260.338 100.824 260.338 96.2008C260.338 91.5778 256.593 87.8301 251.972 87.8301C247.352 87.8301 243.606 91.5778 243.606 96.2008C243.606 100.824 247.352 104.572 251.972 104.572Z" fill="#998675"/>
<path d="M253.898 91.2128H250.047C248.741 91.2128 247.675 92.2792 247.675 93.5864V98.8153C247.675 99.3657 248.11 99.8014 248.66 99.8129V100.375C248.66 100.822 249.027 101.189 249.474 101.189C249.921 101.189 250.288 100.822 250.288 100.375V99.8129H253.6V100.375C253.6 100.822 253.966 101.189 254.413 101.189C254.86 101.189 255.227 100.822 255.227 100.375V99.8129H255.273C255.823 99.8129 256.27 99.3657 256.27 98.8153V93.5864C256.27 92.2792 255.204 91.2128 253.898 91.2128ZM250.23 98.3222C249.749 98.3222 249.359 97.9323 249.359 97.4507C249.359 96.9691 249.749 96.5792 250.23 96.5792C250.712 96.5792 251.101 96.9691 251.101 97.4507C251.101 97.9323 250.712 98.3222 250.23 98.3222ZM253.909 98.3222C253.428 98.3222 253.038 97.9323 253.038 97.4507C253.038 96.9691 253.428 96.5792 253.909 96.5792C254.39 96.5792 254.78 96.9691 254.78 97.4507C254.78 97.9323 254.39 98.3222 253.909 98.3222ZM254.792 94.8478C254.792 95.1115 254.574 95.3294 254.31 95.3294H249.829C249.566 95.3294 249.348 95.1115 249.348 94.8478V93.3571C249.348 93.0934 249.566 92.8755 249.829 92.8755H254.31C254.574 92.8755 254.792 93.0934 254.792 93.3571V94.8478Z" fill="white"/>
<path d="M118.197 118.366C123.337 118.366 127.503 114.197 127.503 109.055C127.503 103.913 123.337 99.7441 118.197 99.7441C113.058 99.7441 108.892 103.913 108.892 109.055C108.892 114.197 113.058 118.366 118.197 118.366Z" fill="white"/>
<path d="M118.197 117.426C122.818 117.426 126.563 113.678 126.563 109.055C126.563 104.432 122.818 100.684 118.197 100.684C113.577 100.684 109.831 104.432 109.831 109.055C109.831 113.678 113.577 117.426 118.197 117.426Z" fill="#998675"/>
<path d="M117.361 104.228V113.871H115.733V104.228H117.361ZM116.696 104.228H118.633C119.343 104.228 119.951 104.354 120.466 104.595C120.982 104.835 121.383 105.179 121.67 105.627C121.956 106.074 122.105 106.601 122.105 107.22C122.105 107.84 121.956 108.367 121.67 108.814C121.383 109.262 120.982 109.606 120.466 109.858C119.951 110.099 119.343 110.225 118.633 110.225H116.696V108.791H118.633C119.194 108.791 119.641 108.654 119.985 108.39C120.329 108.126 120.489 107.736 120.489 107.22C120.489 106.704 120.317 106.315 119.985 106.062C119.641 105.799 119.194 105.672 118.633 105.672H116.696V104.239V104.228Z" fill="white"/>
<path d="M266.238 131.915L273.475 131.192L273.563 132.068L267.245 132.699L267.25 132.742L268.6 134.391L267.71 134.48L266.327 132.791L266.238 131.915ZM273.128 126.741C273.181 127.273 273.082 127.741 272.83 128.144C272.575 128.548 272.181 128.877 271.648 129.13C271.111 129.383 270.45 129.549 269.663 129.628C268.881 129.706 268.203 129.674 267.63 129.531C267.054 129.387 266.601 129.142 266.271 128.796C265.939 128.449 265.746 128.011 265.693 127.484C265.64 126.956 265.742 126.49 265.999 126.086C266.253 125.68 266.648 125.35 267.184 125.097C267.718 124.841 268.375 124.674 269.158 124.596C269.944 124.518 270.626 124.55 271.201 124.692C271.775 124.834 272.227 125.078 272.556 125.424C272.884 125.769 273.074 126.208 273.128 126.741ZM272.35 126.818C272.297 126.291 272.002 125.906 271.463 125.665C270.925 125.424 270.185 125.35 269.243 125.444C268.616 125.507 268.089 125.627 267.662 125.806C267.235 125.982 266.919 126.206 266.713 126.479C266.507 126.749 266.421 127.059 266.456 127.407C266.509 127.93 266.808 128.313 267.353 128.556C267.897 128.799 268.638 128.874 269.578 128.78C270.205 128.717 270.73 128.598 271.155 128.422C271.58 128.247 271.894 128.024 272.098 127.753C272.302 127.481 272.386 127.169 272.35 126.818ZM272.638 122.86L265.91 120.264L265.853 120.269L266.228 124L265.451 124.078L264.985 119.442L265.805 119.36L272.545 121.942L272.638 122.86ZM264.881 117.784L264.094 109.953L264.761 109.886L265.548 117.717L264.881 117.784ZM266.954 118.21L266.043 109.145L266.72 109.078L267.631 118.142L266.954 118.21ZM263.503 115.972L263.428 115.225L266.96 114.872L267.035 115.619L263.503 115.972ZM263.187 112.828L263.112 112.081L266.644 111.728L266.719 112.475L263.187 112.828ZM266.972 115.484L267.117 114.726C267.795 115.007 268.42 115.393 268.992 115.885C269.563 116.371 270.052 116.895 270.456 117.458C270.414 117.502 270.363 117.564 270.304 117.644C270.238 117.717 270.172 117.794 270.106 117.874C270.041 117.955 269.988 118.027 269.947 118.091C269.595 117.517 269.161 116.998 268.645 116.533C268.129 116.069 267.572 115.719 266.972 115.484ZM266.642 111.909C266.968 111.683 267.274 111.397 267.562 111.054C267.849 110.71 268.103 110.34 268.324 109.942C268.538 109.539 268.698 109.131 268.804 108.719C268.863 108.773 268.936 108.833 269.023 108.898C269.103 108.957 269.185 109.012 269.271 109.064C269.357 109.116 269.435 109.161 269.506 109.201C269.367 109.617 269.171 110.032 268.918 110.446C268.658 110.86 268.358 111.245 268.019 111.601C267.679 111.957 267.318 112.264 266.935 112.523L266.642 111.909ZM268.305 115.954L268.231 115.218L271.286 114.912C271.412 114.9 271.509 114.867 271.578 114.813C271.639 114.753 271.675 114.652 271.688 114.511C271.7 114.369 271.693 114.162 271.666 113.89C271.658 113.81 271.644 113.677 271.626 113.492C271.606 113.299 271.585 113.084 271.561 112.845C271.536 112.599 271.511 112.354 271.487 112.109C271.461 111.857 271.439 111.631 271.419 111.432C271.398 111.226 271.382 111.071 271.372 110.964C271.349 110.739 271.305 110.572 271.241 110.465C271.17 110.358 271.05 110.293 270.88 110.27C270.703 110.241 270.447 110.229 270.113 110.236C270.163 110.137 270.208 110.019 270.248 109.881C270.281 109.743 270.305 109.62 270.321 109.512C270.736 109.51 271.065 109.545 271.306 109.614C271.541 109.685 271.712 109.818 271.819 110.015C271.932 110.205 272.007 110.489 272.045 110.867C272.051 110.92 272.061 111.023 272.076 111.175C272.091 111.321 272.109 111.497 272.129 111.703C272.15 111.908 272.172 112.124 272.194 112.349C272.217 112.575 272.239 112.791 272.259 112.996C272.28 113.202 272.298 113.378 272.312 113.524C272.327 113.669 272.337 113.769 272.342 113.822C272.386 114.26 272.388 114.608 272.347 114.867C272.312 115.125 272.217 115.312 272.062 115.428C271.906 115.544 271.672 115.618 271.36 115.649L268.305 115.954ZM268.264 115.546L267.838 111.307L270.177 111.074L270.603 115.312L269.966 115.376L269.612 111.854L268.537 111.961L268.891 115.483L268.264 115.546Z" fill="black"/>
<path d="M100.652 106.613C100.652 106.613 40.8407 151.826 46.4104 170.31C49.2525 179.736 75.9892 207.405 92.8586 227.828C112.65 251.793 122.735 268.122 122.735 268.122L138.321 251.22C138.321 251.22 80.7223 188.004 66.2136 166.721C61.343 159.566 108.662 115.259 108.662 115.259L100.652 106.601V106.613Z" fill="white"/>
<path d="M124.455 239.145L123.618 235.361C132.133 233.469 150.836 218.677 153.025 210.742C155.008 203.541 154.331 197.349 150.996 192.35C146.263 185.252 137.531 182.419 133.577 181.915C133.29 181.88 133.015 181.846 132.729 181.823C131.571 181.697 130.265 181.559 129.004 181.032C128.271 180.722 126.563 180 110.072 157.835C101.374 146.15 92.7556 134.03 90.4407 130.257L93.7527 128.227C99.2077 137.126 127.228 174.932 130.62 177.5C131.331 177.775 132.213 177.867 133.13 177.97C133.439 178.005 133.76 178.039 134.07 178.073C138.975 178.693 148.739 181.961 154.228 190.205C158.205 196.179 159.064 203.438 156.761 211.774C155.019 218.104 146.596 225.5 143.055 228.378C136.144 234.008 129.016 238.136 124.455 239.145Z" fill="white"/>
<path d="M274.526 156.871C274.526 156.871 250.058 182.224 244.856 183.956C239.653 185.687 242.472 187.855 242.472 187.855L254.379 190.458L271.489 192.407L287.293 191.971L294.226 159.474L274.526 156.871Z" fill="white"/>
<path d="M175.122 222.686L175.682 222.129L176.824 223.278L176.264 223.835L175.122 222.686ZM173.232 226.076L179.151 220.187L180.667 221.712L180.107 222.269L179.085 221.24L174.264 226.037L175.286 227.065L174.748 227.601L173.232 226.076ZM176.41 224.536L177.076 224.114C177.221 224.515 177.366 224.944 177.511 225.402C177.656 225.851 177.8 226.308 177.945 226.776C178.09 227.233 178.223 227.675 178.344 228.099C178.466 228.524 178.573 228.906 178.666 229.246L177.965 229.647C177.886 229.303 177.786 228.918 177.665 228.494C177.543 228.059 177.413 227.611 177.273 227.149C177.132 226.686 176.988 226.233 176.838 225.789C176.689 225.336 176.546 224.918 176.41 224.536ZM179.748 224.149L180.421 223.649C180.824 224.339 181.086 225.009 181.207 225.66C181.333 226.306 181.335 226.952 181.216 227.598C181.096 228.234 180.868 228.88 180.532 229.534C180.2 230.193 179.779 230.876 179.268 231.582C179.207 231.549 179.124 231.523 179.021 231.503C178.926 231.484 178.827 231.465 178.724 231.446C178.63 231.427 178.545 231.417 178.469 231.417C179.169 230.514 179.702 229.664 180.067 228.868C180.428 228.067 180.592 227.283 180.561 226.514C180.526 225.741 180.255 224.952 179.748 224.149ZM174.986 228.238L181.281 221.975L181.782 222.479L175.487 228.742L174.986 228.238ZM178.13 228.976L178.111 228.247C178.592 227.975 179.107 227.708 179.654 227.445C180.201 227.183 180.753 226.939 181.31 226.714C181.867 226.48 182.402 226.276 182.917 226.103C183.431 225.921 183.893 225.785 184.303 225.697L184.343 226.532C183.947 226.606 183.492 226.725 182.978 226.889C182.473 227.052 181.938 227.246 181.372 227.471C180.81 227.691 180.251 227.933 179.694 228.195C179.142 228.453 178.621 228.713 178.13 228.976ZM183.082 219.957L188.363 214.703L188.765 215.107L183.484 220.362L183.082 219.957ZM182.669 218.549L186.752 214.486L189.001 216.748L184.861 220.868L184.473 220.477L188.11 216.859L186.637 215.377L183.057 218.939L182.669 218.549ZM183.827 216.38L184.338 215.872L189.047 220.61C189.211 220.776 189.307 220.92 189.335 221.043C189.373 221.165 189.353 221.302 189.278 221.453C189.202 221.604 189.069 221.778 188.88 221.975C188.696 222.177 188.457 222.424 188.164 222.716C188.089 222.668 187.988 222.614 187.861 222.552C187.743 222.491 187.63 222.448 187.522 222.424C187.678 222.278 187.822 222.14 187.954 222.008C188.096 221.876 188.214 221.759 188.309 221.655C188.413 221.552 188.486 221.479 188.528 221.437C188.59 221.375 188.621 221.321 188.621 221.274C188.621 221.227 188.593 221.175 188.536 221.118L183.827 216.38ZM184.972 221.504L184.995 220.917C185.184 220.861 185.389 220.812 185.611 220.771C185.828 220.724 186.037 220.685 186.24 220.652C186.448 220.615 186.627 220.597 186.778 220.597L186.769 221.241C186.623 221.236 186.446 221.247 186.238 221.275C186.031 221.302 185.816 221.337 185.595 221.379C185.369 221.416 185.161 221.458 184.972 221.504ZM189.036 216.954L189.75 216.878C189.688 217.25 189.606 217.641 189.506 218.051C189.401 218.457 189.294 218.822 189.185 219.147L188.605 219.173C188.677 218.961 188.741 218.723 188.798 218.46C188.856 218.186 188.906 217.92 188.949 217.661C188.992 217.392 189.021 217.156 189.036 216.954ZM187.067 218.377C187.787 218.733 188.54 218.904 189.327 218.893C190.114 218.881 190.878 218.67 191.619 218.262C191.61 218.366 191.614 218.493 191.632 218.644C191.656 218.791 191.686 218.916 191.723 219.019C190.921 219.404 190.098 219.583 189.255 219.557C188.411 219.522 187.58 219.3 186.761 218.892L187.067 218.377ZM186.077 223.368C186.238 223.048 186.428 222.657 186.646 222.195C186.864 221.724 187.084 221.246 187.307 220.761L187.794 221.067C187.614 221.5 187.434 221.933 187.253 222.367C187.078 222.795 186.909 223.189 186.748 223.546L186.077 223.368ZM182.452 215.407L182.997 214.864L183.9 215.772L183.354 216.315L182.452 215.407ZM180.711 218.437L186.347 212.83L186.819 213.305L181.184 218.912L180.711 218.437ZM180.456 218.691L180.966 218.183L183.053 220.283C183.33 220.562 183.622 220.874 183.927 221.219C184.237 221.559 184.54 221.925 184.836 222.317C185.127 222.705 185.387 223.109 185.617 223.529C185.847 223.94 186.022 224.353 186.144 224.768C186.078 224.768 186 224.775 185.91 224.789C185.821 224.803 185.731 224.822 185.642 224.845C185.552 224.868 185.477 224.892 185.415 224.915C185.308 224.514 185.147 224.124 184.931 223.747C184.715 223.369 184.471 223.005 184.199 222.655C183.926 222.296 183.647 221.963 183.36 221.656C183.074 221.339 182.801 221.05 182.543 220.79L180.456 218.691ZM195.562 213.86L197.901 211.532L198.367 212L196.027 214.328L195.562 213.86ZM190.883 208.457L192.755 206.595L193.22 207.063L191.349 208.925L190.883 208.457ZM193.538 212.234L196.324 209.462L198.847 212.002L198.344 212.502L196.279 210.424L194.492 212.202L196.579 214.301L196.083 214.795L193.538 212.234ZM192.563 206.785L192.663 206.687L192.741 206.567L193.222 206.384C193.522 206.951 193.742 207.527 193.882 208.112C194.017 208.692 194.088 209.27 194.096 209.845C194.099 210.416 194.046 210.972 193.936 211.514C193.83 212.051 193.683 212.56 193.493 213.041C193.399 213.012 193.281 212.988 193.14 212.969C192.999 212.94 192.876 212.93 192.772 212.939C192.971 212.506 193.124 212.04 193.229 211.54C193.334 211.041 193.389 210.525 193.396 209.992C193.397 209.454 193.34 208.924 193.223 208.4C193.102 207.871 192.913 207.364 192.655 206.878L192.563 206.785ZM190.285 207.599L190.915 207.226C191.126 207.647 191.306 208.083 191.456 208.536C191.61 208.985 191.726 209.428 191.805 209.867C191.884 210.296 191.926 210.707 191.929 211.098C191.868 211.093 191.79 211.095 191.696 211.105C191.602 211.114 191.505 211.125 191.406 211.139C191.307 211.144 191.227 211.153 191.166 211.167C191.2 210.615 191.138 210.028 190.98 209.405C190.816 208.777 190.585 208.176 190.285 207.599ZM191.165 208.769C191.518 208.926 191.914 209.054 192.352 209.154C192.79 209.245 193.251 209.303 193.737 209.328C194.222 209.343 194.719 209.309 195.229 209.226C195.738 209.133 196.24 208.976 196.736 208.756C196.735 208.822 196.74 208.902 196.749 208.997C196.758 209.091 196.772 209.185 196.791 209.28C196.809 209.374 196.828 209.459 196.847 209.535C196.323 209.736 195.797 209.873 195.269 209.947C194.746 210.017 194.237 210.034 193.742 210C193.242 209.961 192.769 209.891 192.322 209.791C191.874 209.681 191.469 209.553 191.107 209.405L191.165 208.769ZM189.821 214.339L190.274 213.887L192.826 216.455L192.372 216.906L189.821 214.339ZM187.927 211.483L189.168 212.731L190.507 211.398L189.267 210.15L187.927 211.483ZM186.987 211.487L189.291 209.195L191.462 211.38L189.158 213.672L186.987 211.487ZM189.932 212.436L190.414 211.957L193.636 215.198L193.153 215.678L189.932 212.436ZM191.955 217.209C192.144 216.936 192.357 216.616 192.593 216.249C192.825 215.877 193.072 215.482 193.332 215.063C193.592 214.644 193.853 214.225 194.113 213.806L194.635 214.232C194.27 214.839 193.906 215.442 193.541 216.04C193.177 216.637 192.85 217.169 192.561 217.635L191.955 217.209ZM191.35 213.523L192.548 212.331L193.02 212.806L191.822 213.998L191.35 213.523ZM195.156 204.784L200.253 199.712L200.824 200.287L195.727 205.358L195.156 204.784ZM198.741 209.582L205.036 203.319L205.628 203.915L199.333 210.178L198.741 209.582ZM206.692 197.552L209.428 194.829L209.908 195.312L207.171 198.034L206.692 197.552ZM203.141 198.49L205.033 196.607L205.527 197.103L203.634 198.986L203.141 198.49ZM204.494 199.852L206.451 197.905L206.944 198.401L204.988 200.348L204.494 199.852ZM204.51 194.052L206.169 192.401L206.634 192.869L204.976 194.52L204.51 194.052ZM209.322 194.935L209.421 194.836L209.499 194.716L209.973 194.513C210.4 195.292 210.659 196.068 210.752 196.842C210.844 197.606 210.802 198.353 210.625 199.084C210.449 199.814 210.176 200.518 209.806 201.196C209.74 201.168 209.66 201.139 209.566 201.111C209.477 201.087 209.385 201.065 209.291 201.046C209.201 201.032 209.121 201.022 209.05 201.017C209.41 200.415 209.678 199.776 209.855 199.103C210.035 198.424 210.096 197.738 210.037 197.045C209.978 196.352 209.77 195.679 209.413 195.027L209.322 194.935ZM207.902 197.251C208.73 197.631 209.592 197.798 210.487 197.753C211.383 197.699 212.258 197.426 213.112 196.933C213.112 197.009 213.114 197.096 213.119 197.195C213.133 197.294 213.149 197.391 213.167 197.485C213.191 197.584 213.212 197.671 213.23 197.747C212.31 198.23 211.371 198.477 210.415 198.489C209.458 198.491 208.509 198.278 207.568 197.851L207.902 197.251ZM201.595 197.432L202.268 197.087L208.048 202.903L207.538 203.411L201.595 197.432ZM205.406 202.429C205.614 202.146 205.853 201.819 206.123 201.448C206.397 201.071 206.686 200.671 206.988 200.248C207.291 199.824 207.592 199.403 207.89 198.984L208.397 199.452C208.118 199.852 207.837 200.259 207.553 200.674C207.264 201.083 206.99 201.474 206.729 201.845C206.469 202.217 206.233 202.556 206.02 202.862L205.406 202.429ZM204.262 194.299L204.758 193.805L205.773 194.826C205.961 195.015 206.14 195.237 206.309 195.493C206.478 195.748 206.597 196.033 206.667 196.349C206.737 196.666 206.726 197.019 206.636 197.41C206.575 197.396 206.499 197.386 206.41 197.381C206.32 197.376 206.228 197.378 206.134 197.388C206.04 197.387 205.964 197.397 205.908 197.415C205.993 197.067 206.013 196.765 205.967 196.51C205.916 196.251 205.824 196.026 205.693 195.837C205.561 195.639 205.418 195.462 205.263 195.306L204.262 194.299ZM203.044 194.932L203.872 194.856C203.772 195.144 203.644 195.45 203.487 195.775C203.331 196.1 203.16 196.424 202.976 196.749C202.791 197.074 202.606 197.385 202.422 197.681C202.351 197.639 202.257 197.596 202.139 197.553C202.026 197.506 201.928 197.473 201.843 197.453C202.013 197.171 202.179 196.879 202.34 196.578C202.496 196.272 202.636 195.977 202.76 195.695C202.888 195.408 202.983 195.153 203.044 194.932ZM205.878 192.69L206.382 192.19L208.123 193.942C208.189 194.008 208.245 194.06 208.292 194.098C208.334 194.131 208.37 194.147 208.398 194.147C208.436 194.138 208.481 194.108 208.533 194.056C208.556 194.032 208.587 194.002 208.625 193.964C208.667 193.922 208.705 193.884 208.738 193.851C208.766 193.823 208.792 193.793 208.816 193.76C208.84 193.727 208.856 193.701 208.866 193.682C208.88 193.63 208.852 193.55 208.782 193.441C208.735 193.384 208.662 193.302 208.563 193.193C208.46 193.08 208.34 192.95 208.204 192.803C208.293 192.799 208.395 192.778 208.508 192.74C208.626 192.698 208.732 192.654 208.826 192.607C208.953 192.753 209.08 192.904 209.207 193.06C209.334 193.207 209.416 193.318 209.453 193.394C209.528 193.545 209.537 193.696 209.48 193.846C209.466 193.908 209.431 193.976 209.374 194.051C209.322 194.122 209.267 194.185 209.211 194.242C209.163 194.289 209.1 194.352 209.019 194.432C208.944 194.507 208.887 194.564 208.849 194.601C208.783 194.667 208.703 194.728 208.608 194.785C208.514 194.841 208.422 194.871 208.332 194.876C208.233 194.88 208.134 194.856 208.036 194.804C207.937 194.743 207.786 194.61 207.584 194.407L205.878 192.69Z" fill="black"/>
<path d="M272.672 154.509C272.6 161.254 269.594 167.56 265.378 172.699C263.846 174.567 262.182 176.304 260.388 177.925C259.833 178.436 259.25 178.918 258.666 179.399C258.126 179.837 258.593 179.56 258.564 179.487C258.564 179.501 258.404 179.618 258.374 179.633L261.03 179.969C255.529 175.633 250.569 169.546 248.016 163.02C246.031 157.94 245.346 152.101 248.424 147.313C251.298 142.831 256.901 140.466 262.109 141.576C268.252 142.889 272.556 148.261 272.658 154.509C272.702 157.327 277.079 157.327 277.035 154.509C276.933 147.911 273.242 141.634 267.216 138.743C261.19 135.853 253.779 136.583 248.468 140.831C237.146 149.882 242.632 165.458 250.102 175.005C252.393 177.925 254.99 180.757 257.922 183.063C258.622 183.618 259.746 184.012 260.578 183.399C269.609 176.786 276.918 165.94 277.035 154.509C277.064 151.692 272.687 151.692 272.658 154.509H272.672Z" fill="white"/>
<path d="M274.861 154.509C274.861 170.319 259.483 181.516 259.483 181.516C259.483 181.516 244.106 169.472 244.106 154.509C244.106 146.013 250.992 139.123 259.483 139.123C267.975 139.123 274.861 146.013 274.861 154.509Z" fill="#F4A466"/>
<path d="M265.64 149.896C264.283 149.94 263.204 152.159 263.306 150.933C263.495 149.385 264.531 148.115 266.122 148.174C267.829 148.232 269.827 149.999 269.754 151.707C269.696 153.415 267.829 154.612 266.122 154.553C266.122 154.553 266.107 154.553 266.092 154.553C264.488 154.232 267.726 154.115 268.033 152.553C268.339 150.991 267.187 149.867 265.64 149.911V149.896Z" fill="white"/>
<path d="M261.89 161.648C262.795 161.677 263.641 160.743 263.539 159.998C263.277 158.144 260.738 159.225 259.819 158.203C259.264 157.59 259.717 156.714 260.315 157.239C261.103 157.94 261.993 157.94 262.751 157.969C263.627 157.998 264.721 158.407 265.013 159.137C265.494 160.407 264.487 161.546 264.152 161.838C262.635 163.122 260.519 162.393 259.191 161.166C258.973 160.962 259.148 160.451 259.396 160.612C259.979 160.991 260.49 161.59 261.89 161.633V161.648Z" fill="white"/>
<path d="M251.357 154.028C252.101 155.78 254.669 155.254 253.676 155.867C253.428 155.969 253.166 156.028 252.874 156.072C251.182 156.291 249.343 155.093 249.124 153.4C248.906 151.707 250.598 149.911 252.29 149.692C253.983 149.473 255.369 151.064 255.588 152.772C255.588 152.772 255.588 152.772 255.588 152.787C255.442 153.327 255.077 151.473 253.224 151.546C252.101 151.59 250.817 152.831 251.327 154.042L251.357 154.028Z" fill="white"/>
<mask id="path-28-outside-1_2342_123" maskUnits="userSpaceOnUse" x="240.997" y="181.006" width="38" height="18" fill="black">
<rect fill="white" x="240.997" y="181.006" width="38" height="18"/>
<path d="M244.326 195.987H242.997V183.006H244.326V195.987ZM247.5 189.886C247.225 189.565 246.824 189.405 246.274 189.405C245.885 189.405 245.541 189.485 245.254 189.657C244.956 189.829 244.727 190.047 244.567 190.334C244.406 190.62 244.326 190.953 244.326 191.32H243.89C243.89 190.712 244.005 190.173 244.246 189.691C244.475 189.221 244.796 188.843 245.197 188.568C245.598 188.292 246.068 188.155 246.607 188.155C247.145 188.155 247.604 188.269 247.993 188.487C248.383 188.705 248.692 189.038 248.91 189.485C249.128 189.932 249.231 190.483 249.231 191.148V195.975H247.902V191.32C247.902 190.689 247.764 190.207 247.489 189.886H247.5Z"/>
<path d="M252.807 195.643C252.256 195.299 251.832 194.84 251.523 194.232C251.214 193.636 251.065 192.936 251.065 192.157C251.065 191.377 251.225 190.655 251.534 190.058C251.855 189.462 252.291 188.992 252.864 188.659C253.437 188.327 254.102 188.155 254.846 188.155C255.591 188.155 256.245 188.315 256.783 188.625C257.322 188.946 257.734 189.393 258.021 189.978C258.307 190.563 258.456 191.262 258.456 192.076C258.456 192.157 258.456 192.237 258.456 192.317C258.456 192.398 258.456 192.455 258.456 192.478H251.924V191.343H257.414L256.886 192.111C256.886 192.111 256.955 191.973 256.99 191.859C257.024 191.744 257.035 191.641 257.035 191.572C257.035 191.113 256.944 190.723 256.76 190.391C256.577 190.058 256.325 189.795 256.004 189.611C255.683 189.428 255.305 189.324 254.869 189.324C254.365 189.324 253.918 189.428 253.563 189.645C253.208 189.863 252.921 190.173 252.726 190.574C252.531 190.976 252.428 191.48 252.417 192.065C252.417 192.661 252.509 193.177 252.703 193.602C252.898 194.026 253.173 194.347 253.54 194.565C253.907 194.783 254.354 194.897 254.869 194.897C255.385 194.897 255.855 194.783 256.245 194.553C256.634 194.324 256.978 193.98 257.265 193.51L258.342 194.198C257.941 194.84 257.436 195.322 256.841 195.654C256.245 195.987 255.523 196.147 254.697 196.147C253.987 196.147 253.357 195.975 252.807 195.643Z"/>
<path d="M261.642 195.987H260.313V188.327H261.642V195.987ZM263.465 189.496C263.316 189.439 263.132 189.405 262.914 189.405C262.582 189.405 262.319 189.485 262.135 189.657C261.94 189.829 261.814 190.047 261.746 190.333C261.677 190.62 261.642 190.953 261.642 191.32H261.046C261.046 190.712 261.15 190.173 261.367 189.691C261.585 189.21 261.86 188.843 262.204 188.568C262.548 188.292 262.903 188.155 263.247 188.155C263.522 188.155 263.785 188.189 264.026 188.258C264.267 188.327 264.484 188.476 264.679 188.682L263.946 189.783C263.763 189.645 263.602 189.554 263.465 189.496Z"/>
<path d="M266.845 195.643C266.295 195.299 265.871 194.84 265.562 194.232C265.252 193.636 265.103 192.936 265.103 192.157C265.103 191.377 265.264 190.655 265.573 190.058C265.894 189.462 266.33 188.992 266.903 188.659C267.476 188.327 268.14 188.155 268.885 188.155C269.63 188.155 270.283 188.315 270.822 188.625C271.361 188.946 271.773 189.393 272.06 189.978C272.346 190.563 272.495 191.262 272.495 192.076C272.495 192.157 272.495 192.237 272.495 192.317C272.495 192.398 272.495 192.455 272.495 192.478H265.963V191.343H271.452L270.925 192.111C270.925 192.111 270.994 191.973 271.028 191.859C271.063 191.744 271.074 191.641 271.074 191.572C271.074 191.113 270.982 190.723 270.799 190.391C270.616 190.058 270.364 189.795 270.043 189.611C269.722 189.428 269.344 189.324 268.908 189.324C268.404 189.324 267.957 189.428 267.602 189.645C267.246 189.863 266.96 190.173 266.765 190.574C266.57 190.976 266.467 191.48 266.456 192.065C266.456 192.661 266.547 193.177 266.742 193.602C266.937 194.026 267.212 194.347 267.579 194.565C267.945 194.783 268.392 194.897 268.908 194.897C269.424 194.897 269.894 194.783 270.283 194.553C270.673 194.324 271.017 193.98 271.303 193.51L272.381 194.198C271.979 194.84 271.475 195.322 270.879 195.654C270.283 195.987 269.561 196.147 268.736 196.147C268.026 196.147 267.395 195.975 266.845 195.643Z"/>
<path d="M274.948 194.668C275.131 194.496 275.349 194.404 275.589 194.404C275.83 194.404 276.059 194.496 276.243 194.668C276.426 194.84 276.506 195.058 276.506 195.322C276.506 195.585 276.415 195.78 276.243 195.964C276.071 196.147 275.853 196.239 275.589 196.239C275.326 196.239 275.131 196.147 274.948 195.964C274.764 195.78 274.673 195.562 274.673 195.322C274.673 195.081 274.764 194.851 274.948 194.668ZM276.415 184.336L276.082 192.661H275.085L274.753 184.336H276.415Z"/>
</mask>
<path d="M244.326 195.987H242.997V183.006H244.326V195.987ZM247.5 189.886C247.225 189.565 246.824 189.405 246.274 189.405C245.885 189.405 245.541 189.485 245.254 189.657C244.956 189.829 244.727 190.047 244.567 190.334C244.406 190.62 244.326 190.953 244.326 191.32H243.89C243.89 190.712 244.005 190.173 244.246 189.691C244.475 189.221 244.796 188.843 245.197 188.568C245.598 188.292 246.068 188.155 246.607 188.155C247.145 188.155 247.604 188.269 247.993 188.487C248.383 188.705 248.692 189.038 248.91 189.485C249.128 189.932 249.231 190.483 249.231 191.148V195.975H247.902V191.32C247.902 190.689 247.764 190.207 247.489 189.886H247.5Z" fill="#F4A466"/>
<path d="M252.807 195.643C252.256 195.299 251.832 194.84 251.523 194.232C251.214 193.636 251.065 192.936 251.065 192.157C251.065 191.377 251.225 190.655 251.534 190.058C251.855 189.462 252.291 188.992 252.864 188.659C253.437 188.327 254.102 188.155 254.846 188.155C255.591 188.155 256.245 188.315 256.783 188.625C257.322 188.946 257.734 189.393 258.021 189.978C258.307 190.563 258.456 191.262 258.456 192.076C258.456 192.157 258.456 192.237 258.456 192.317C258.456 192.398 258.456 192.455 258.456 192.478H251.924V191.343H257.414L256.886 192.111C256.886 192.111 256.955 191.973 256.99 191.859C257.024 191.744 257.035 191.641 257.035 191.572C257.035 191.113 256.944 190.723 256.76 190.391C256.577 190.058 256.325 189.795 256.004 189.611C255.683 189.428 255.305 189.324 254.869 189.324C254.365 189.324 253.918 189.428 253.563 189.645C253.208 189.863 252.921 190.173 252.726 190.574C252.531 190.976 252.428 191.48 252.417 192.065C252.417 192.661 252.509 193.177 252.703 193.602C252.898 194.026 253.173 194.347 253.54 194.565C253.907 194.783 254.354 194.897 254.869 194.897C255.385 194.897 255.855 194.783 256.245 194.553C256.634 194.324 256.978 193.98 257.265 193.51L258.342 194.198C257.941 194.84 257.436 195.322 256.841 195.654C256.245 195.987 255.523 196.147 254.697 196.147C253.987 196.147 253.357 195.975 252.807 195.643Z" fill="#F4A466"/>
<path d="M261.642 195.987H260.313V188.327H261.642V195.987ZM263.465 189.496C263.316 189.439 263.132 189.405 262.914 189.405C262.582 189.405 262.319 189.485 262.135 189.657C261.94 189.829 261.814 190.047 261.746 190.333C261.677 190.62 261.642 190.953 261.642 191.32H261.046C261.046 190.712 261.15 190.173 261.367 189.691C261.585 189.21 261.86 188.843 262.204 188.568C262.548 188.292 262.903 188.155 263.247 188.155C263.522 188.155 263.785 188.189 264.026 188.258C264.267 188.327 264.484 188.476 264.679 188.682L263.946 189.783C263.763 189.645 263.602 189.554 263.465 189.496Z" fill="#F4A466"/>
<path d="M266.845 195.643C266.295 195.299 265.871 194.84 265.562 194.232C265.252 193.636 265.103 192.936 265.103 192.157C265.103 191.377 265.264 190.655 265.573 190.058C265.894 189.462 266.33 188.992 266.903 188.659C267.476 188.327 268.14 188.155 268.885 188.155C269.63 188.155 270.283 188.315 270.822 188.625C271.361 188.946 271.773 189.393 272.06 189.978C272.346 190.563 272.495 191.262 272.495 192.076C272.495 192.157 272.495 192.237 272.495 192.317C272.495 192.398 272.495 192.455 272.495 192.478H265.963V191.343H271.452L270.925 192.111C270.925 192.111 270.994 191.973 271.028 191.859C271.063 191.744 271.074 191.641 271.074 191.572C271.074 191.113 270.982 190.723 270.799 190.391C270.616 190.058 270.364 189.795 270.043 189.611C269.722 189.428 269.344 189.324 268.908 189.324C268.404 189.324 267.957 189.428 267.602 189.645C267.246 189.863 266.96 190.173 266.765 190.574C266.57 190.976 266.467 191.48 266.456 192.065C266.456 192.661 266.547 193.177 266.742 193.602C266.937 194.026 267.212 194.347 267.579 194.565C267.945 194.783 268.392 194.897 268.908 194.897C269.424 194.897 269.894 194.783 270.283 194.553C270.673 194.324 271.017 193.98 271.303 193.51L272.381 194.198C271.979 194.84 271.475 195.322 270.879 195.654C270.283 195.987 269.561 196.147 268.736 196.147C268.026 196.147 267.395 195.975 266.845 195.643Z" fill="#F4A466"/>
<path d="M274.948 194.668C275.131 194.496 275.349 194.404 275.589 194.404C275.83 194.404 276.059 194.496 276.243 194.668C276.426 194.84 276.506 195.058 276.506 195.322C276.506 195.585 276.415 195.78 276.243 195.964C276.071 196.147 275.853 196.239 275.589 196.239C275.326 196.239 275.131 196.147 274.948 195.964C274.764 195.78 274.673 195.562 274.673 195.322C274.673 195.081 274.764 194.851 274.948 194.668ZM276.415 184.336L276.082 192.661H275.085L274.753 184.336H276.415Z" fill="#F4A466"/>
<path d="M244.326 195.987H242.997V183.006H244.326V195.987ZM247.5 189.886C247.225 189.565 246.824 189.405 246.274 189.405C245.885 189.405 245.541 189.485 245.254 189.657C244.956 189.829 244.727 190.047 244.567 190.334C244.406 190.62 244.326 190.953 244.326 191.32H243.89C243.89 190.712 244.005 190.173 244.246 189.691C244.475 189.221 244.796 188.843 245.197 188.568C245.598 188.292 246.068 188.155 246.607 188.155C247.145 188.155 247.604 188.269 247.993 188.487C248.383 188.705 248.692 189.038 248.91 189.485C249.128 189.932 249.231 190.483 249.231 191.148V195.975H247.902V191.32C247.902 190.689 247.764 190.207 247.489 189.886H247.5Z" stroke="white" stroke-width="4" mask="url(#path-28-outside-1_2342_123)"/>
<path d="M252.807 195.643C252.256 195.299 251.832 194.84 251.523 194.232C251.214 193.636 251.065 192.936 251.065 192.157C251.065 191.377 251.225 190.655 251.534 190.058C251.855 189.462 252.291 188.992 252.864 188.659C253.437 188.327 254.102 188.155 254.846 188.155C255.591 188.155 256.245 188.315 256.783 188.625C257.322 188.946 257.734 189.393 258.021 189.978C258.307 190.563 258.456 191.262 258.456 192.076C258.456 192.157 258.456 192.237 258.456 192.317C258.456 192.398 258.456 192.455 258.456 192.478H251.924V191.343H257.414L256.886 192.111C256.886 192.111 256.955 191.973 256.99 191.859C257.024 191.744 257.035 191.641 257.035 191.572C257.035 191.113 256.944 190.723 256.76 190.391C256.577 190.058 256.325 189.795 256.004 189.611C255.683 189.428 255.305 189.324 254.869 189.324C254.365 189.324 253.918 189.428 253.563 189.645C253.208 189.863 252.921 190.173 252.726 190.574C252.531 190.976 252.428 191.48 252.417 192.065C252.417 192.661 252.509 193.177 252.703 193.602C252.898 194.026 253.173 194.347 253.54 194.565C253.907 194.783 254.354 194.897 254.869 194.897C255.385 194.897 255.855 194.783 256.245 194.553C256.634 194.324 256.978 193.98 257.265 193.51L258.342 194.198C257.941 194.84 257.436 195.322 256.841 195.654C256.245 195.987 255.523 196.147 254.697 196.147C253.987 196.147 253.357 195.975 252.807 195.643Z" stroke="white" stroke-width="4" mask="url(#path-28-outside-1_2342_123)"/>
<path d="M261.642 195.987H260.313V188.327H261.642V195.987ZM263.465 189.496C263.316 189.439 263.132 189.405 262.914 189.405C262.582 189.405 262.319 189.485 262.135 189.657C261.94 189.829 261.814 190.047 261.746 190.333C261.677 190.62 261.642 190.953 261.642 191.32H261.046C261.046 190.712 261.15 190.173 261.367 189.691C261.585 189.21 261.86 188.843 262.204 188.568C262.548 188.292 262.903 188.155 263.247 188.155C263.522 188.155 263.785 188.189 264.026 188.258C264.267 188.327 264.484 188.476 264.679 188.682L263.946 189.783C263.763 189.645 263.602 189.554 263.465 189.496Z" stroke="white" stroke-width="4" mask="url(#path-28-outside-1_2342_123)"/>
<path d="M266.845 195.643C266.295 195.299 265.871 194.84 265.562 194.232C265.252 193.636 265.103 192.936 265.103 192.157C265.103 191.377 265.264 190.655 265.573 190.058C265.894 189.462 266.33 188.992 266.903 188.659C267.476 188.327 268.14 188.155 268.885 188.155C269.63 188.155 270.283 188.315 270.822 188.625C271.361 188.946 271.773 189.393 272.06 189.978C272.346 190.563 272.495 191.262 272.495 192.076C272.495 192.157 272.495 192.237 272.495 192.317C272.495 192.398 272.495 192.455 272.495 192.478H265.963V191.343H271.452L270.925 192.111C270.925 192.111 270.994 191.973 271.028 191.859C271.063 191.744 271.074 191.641 271.074 191.572C271.074 191.113 270.982 190.723 270.799 190.391C270.616 190.058 270.364 189.795 270.043 189.611C269.722 189.428 269.344 189.324 268.908 189.324C268.404 189.324 267.957 189.428 267.602 189.645C267.246 189.863 266.96 190.173 266.765 190.574C266.57 190.976 266.467 191.48 266.456 192.065C266.456 192.661 266.547 193.177 266.742 193.602C266.937 194.026 267.212 194.347 267.579 194.565C267.945 194.783 268.392 194.897 268.908 194.897C269.424 194.897 269.894 194.783 270.283 194.553C270.673 194.324 271.017 193.98 271.303 193.51L272.381 194.198C271.979 194.84 271.475 195.322 270.879 195.654C270.283 195.987 269.561 196.147 268.736 196.147C268.026 196.147 267.395 195.975 266.845 195.643Z" stroke="white" stroke-width="4" mask="url(#path-28-outside-1_2342_123)"/>
<path d="M274.948 194.668C275.131 194.496 275.349 194.404 275.589 194.404C275.83 194.404 276.059 194.496 276.243 194.668C276.426 194.84 276.506 195.058 276.506 195.322C276.506 195.585 276.415 195.78 276.243 195.964C276.071 196.147 275.853 196.239 275.589 196.239C275.326 196.239 275.131 196.147 274.948 195.964C274.764 195.78 274.673 195.562 274.673 195.322C274.673 195.081 274.764 194.851 274.948 194.668ZM276.415 184.336L276.082 192.661H275.085L274.753 184.336H276.415Z" stroke="white" stroke-width="4" mask="url(#path-28-outside-1_2342_123)"/>
<path d="M90.3775 204.757L90.9189 205.333L89.7398 206.444L89.1984 205.868L90.3775 204.757ZM87.0423 202.775L92.765 208.855L91.2002 210.33L90.6588 209.755L91.7141 208.76L87.0537 203.808L85.9984 204.803L85.4775 204.249L87.0423 202.775ZM88.4944 205.996L88.8984 206.673C88.4936 206.807 88.0606 206.94 87.5993 207.073C87.1474 207.205 86.6861 207.338 86.2153 207.47C85.754 207.602 85.3095 207.723 84.8819 207.833C84.4543 207.943 84.0695 208.04 83.7275 208.124L83.3457 207.412C83.692 207.342 84.079 207.252 84.5066 207.143C84.9436 207.033 85.3951 206.915 85.861 206.787C86.3269 206.659 86.7835 206.527 87.2308 206.389C87.6876 206.252 88.1088 206.121 88.4944 205.996ZM88.7899 209.345L89.2714 210.031C88.5715 210.416 87.8947 210.66 87.2409 210.763C86.5918 210.871 85.9463 210.856 85.3044 210.719C84.6721 210.582 84.0335 210.336 83.3888 209.982C82.7392 209.632 82.0688 209.192 81.3775 208.662C81.4123 208.602 81.4407 208.52 81.4626 208.417C81.4843 208.323 81.5061 208.225 81.5281 208.122C81.5497 208.028 81.5617 207.943 81.564 207.868C82.4475 208.593 83.2818 209.149 84.067 209.535C84.857 209.918 85.6365 210.104 86.4053 210.094C87.1789 210.079 87.9738 209.83 88.7899 209.345ZM84.8344 204.471L90.9203 210.937L90.4036 211.424L84.3176 204.957L84.8344 204.471ZM84.0121 207.595L84.7405 207.595C84.9993 208.084 85.2524 208.606 85.4998 209.161C85.7471 209.716 85.9755 210.274 86.1849 210.837C86.4038 211.401 86.5926 211.942 86.7515 212.461C86.9197 212.98 87.0425 213.446 87.1197 213.859L86.2846 213.876C86.2211 213.478 86.1147 213.019 85.9652 212.501C85.8155 211.991 85.6361 211.451 85.427 210.878C85.2224 210.311 84.9966 209.745 84.7495 209.181C84.507 208.622 84.2612 208.093 84.0121 207.595Z" fill="black"/>
<path d="M91.8774 211.946L93.4905 213.829L92.959 214.285L91.346 212.401L91.8774 211.946ZM93.3018 213.609L93.7767 214.164C93.7767 214.164 93.7615 214.177 93.7311 214.203C93.7058 214.224 93.6707 214.25 93.6259 214.28C93.5854 214.314 93.5525 214.343 93.5272 214.364C92.9517 214.84 92.4781 215.22 92.1064 215.503C91.7442 215.787 91.459 215.992 91.2507 216.118C91.0468 216.249 90.8856 216.317 90.7671 216.322C90.6442 216.322 90.5372 216.3 90.4461 216.255C90.3594 216.215 90.2629 216.148 90.1566 216.055C90.0598 215.963 89.942 215.835 89.8032 215.673C89.6695 215.507 89.5275 215.326 89.3772 215.13C89.4539 215.055 89.5273 214.961 89.5974 214.849C89.677 214.736 89.7352 214.625 89.7721 214.514C89.8993 214.704 90.0254 214.877 90.1504 215.033C90.2805 215.185 90.3715 215.291 90.4236 215.352C90.4713 215.408 90.5153 215.449 90.5558 215.476C90.6006 215.508 90.6538 215.524 90.7152 215.524C90.7911 215.52 90.9162 215.461 91.0904 215.347C91.2741 215.233 91.5322 215.043 91.8648 214.775C92.2068 214.508 92.6554 214.146 93.2107 213.687L93.3018 213.609ZM97.597 213.628L98.2389 213.671C98.3017 213.898 98.3537 214.143 98.3948 214.406C98.4454 214.67 98.4826 214.924 98.5064 215.167C98.5352 215.405 98.55 215.612 98.5507 215.787L97.8502 215.769C97.8589 215.594 97.8514 215.386 97.8276 215.143C97.8088 214.895 97.7789 214.64 97.7377 214.377C97.6966 214.114 97.6497 213.864 97.597 213.628ZM96.4761 216.486L96.8197 217.179C95.5502 217.705 94.3103 218 93.1002 218.063C91.89 218.125 90.7229 217.967 89.5989 217.587C89.6134 217.522 89.6293 217.438 89.6467 217.335C89.659 217.237 89.6717 217.134 89.6847 217.026C89.697 216.928 89.7061 216.841 89.7119 216.766C90.7759 217.188 91.8772 217.373 93.0158 217.318C94.1594 217.26 95.3129 216.982 96.4761 216.486ZM93.4728 210.657L98.5071 216.536L97.9529 217.011L92.9186 211.132L93.4728 210.657ZM93.1541 210.285L93.6614 210.877L91.5205 212.713C91.2522 212.943 90.9525 213.182 90.6214 213.431C90.2902 213.679 89.9388 213.915 89.5672 214.137C89.1956 214.359 88.8099 214.549 88.4101 214.707C88.0153 214.861 87.6181 214.956 87.2183 214.991C87.2328 214.926 87.2393 214.842 87.2379 214.738C87.2408 214.638 87.2369 214.536 87.226 214.432C87.2195 214.332 87.2069 214.25 87.1881 214.187C87.6841 214.131 88.1605 213.991 88.6174 213.766C89.0787 213.546 89.5099 213.286 89.9112 212.986C90.3219 212.686 90.6917 212.396 91.0207 212.114L93.1541 210.285ZM97.1429 212.345L97.6503 212.937C96.9424 213.535 96.296 214.133 95.711 214.731C95.126 215.329 94.6112 215.907 94.1665 216.464C93.7268 217.016 93.3728 217.53 93.1045 218.006C92.8456 218.483 92.6836 218.898 92.6184 219.253C92.5576 219.612 92.6096 219.888 92.7744 220.081C92.8698 220.192 93.0454 220.182 93.3014 220.05C93.5667 219.92 93.9611 219.647 94.4846 219.234C94.4802 219.352 94.4867 219.482 94.504 219.625C94.5257 219.774 94.5564 219.897 94.5961 219.994C94.1305 220.332 93.748 220.572 93.4487 220.714C93.1537 220.862 92.9061 220.916 92.7059 220.877C92.5049 220.847 92.3199 220.734 92.1508 220.536C91.934 220.283 91.8205 219.976 91.8105 219.616C91.8005 219.256 91.8808 218.858 92.0515 218.422C92.2266 217.991 92.4746 217.532 92.7957 217.046C93.1219 216.556 93.5062 216.046 93.9487 215.518C94.3956 214.994 94.8877 214.467 95.4249 213.936C95.9672 213.401 96.5399 212.87 97.1429 212.345Z" fill="black"/>
<path d="M100.572 218.515L102.648 221.195L102.135 221.593L100.058 218.913L100.572 218.515ZM103.453 221.14L104.996 223.132L104.467 223.543L102.924 221.551L103.453 221.14ZM101.28 222.711L102.964 224.885L102.427 225.302L100.743 223.128L101.28 222.711ZM98.8771 219.576L101.186 222.557L100.656 222.967L98.3477 219.987L98.8771 219.576ZM102.382 218.794L102.817 219.355L99.9407 221.586L99.5059 221.025L102.382 218.794ZM97.2465 220.917L99.4757 223.795L98.9542 224.199L96.725 221.321L97.2465 220.917ZM99.1126 221.317L99.5536 221.887L96.6535 224.136L96.102 223.652L99.1126 221.317ZM95.1628 222.179C95.4108 222.434 95.692 222.726 96.0065 223.056C96.3263 223.381 96.665 223.726 97.0227 224.09C97.3857 224.449 97.746 224.811 98.1037 225.175L97.5945 225.595C97.0716 225.073 96.5508 224.553 96.032 224.036C95.5173 223.524 95.0616 223.071 94.6648 222.679L95.1628 222.179ZM101.714 223.729L102.168 224.314L98.4299 227.213C98.2561 227.347 98.1054 227.43 97.9779 227.462C97.8545 227.498 97.7222 227.475 97.5808 227.39C97.4436 227.311 97.2942 227.178 97.1326 226.991C96.9657 226.808 96.7721 226.575 96.5516 226.29C96.6277 226.214 96.7094 226.113 96.7968 225.986C96.8829 225.869 96.9518 225.756 97.0034 225.649C97.1696 225.874 97.318 226.071 97.4487 226.24C97.5781 226.418 97.668 226.534 97.7181 226.588C97.7724 226.647 97.8162 226.676 97.8495 226.676C97.8869 226.68 97.9293 226.664 97.9767 226.628L101.714 223.729ZM100.949 216.944L101.174 217.643C100.86 217.684 100.521 217.703 100.155 217.699C99.7952 217.692 99.4375 217.665 99.0822 217.62C98.7309 217.581 98.3967 217.519 98.0794 217.436C98.0999 217.387 98.1202 217.32 98.1402 217.237C98.1696 217.155 98.1943 217.073 98.2143 216.99C98.2396 216.903 98.2584 216.829 98.2708 216.769C98.5466 216.842 98.8408 216.901 99.1535 216.945C99.4755 216.991 99.7932 217.014 100.106 217.016C100.42 217.017 100.701 216.994 100.949 216.944ZM97.435 218.923L98.2845 219.024L98.3159 219.113L93.7327 222.668L93.3102 222.122L97.435 218.923ZM99.5446 218.413L99.7732 219.084C99.3282 219.184 98.8634 219.254 98.3787 219.292C97.8993 219.327 97.4282 219.333 96.9652 219.313C96.5023 219.292 96.0689 219.244 95.6651 219.169C95.691 219.116 95.7191 219.043 95.7497 218.952C95.7855 218.857 95.8167 218.761 95.8431 218.664C95.8749 218.564 95.8949 218.481 95.9032 218.415C96.4478 218.541 97.0427 218.607 97.6881 218.613C98.3334 218.619 98.9523 218.552 99.5446 218.413Z" fill="black"/>
<path d="M165.253 258.432C163.064 263.099 167.545 268.512 170.96 272.376C174.375 276.24 178.558 279.348 182.18 283.017C188.139 289.049 192.872 296.846 200.688 300.149C205.387 302.132 210.658 302.213 215.735 301.8C236.318 300.114 256.144 290.379 270.08 275.128C272.509 272.479 274.824 269.544 275.718 266.058C277.437 259.396 273.334 252.24 267.49 248.617C261.645 244.993 254.459 244.26 247.583 244.397C236.799 244.615 226.141 246.748 215.678 249.328C209.318 250.887 202.877 252.63 196.345 252.24C190.706 251.896 185.217 249.97 179.578 250.039C173.94 250.108 167.041 254.671 165.276 258.421L165.253 258.432Z" fill="#82A6A6"/>
<path d="M205.577 260.596H206.367V262.216H205.577V260.596ZM201.847 261.666H210.197V263.816H209.407V262.366H202.607V263.816H201.847V261.666ZM205.187 262.816L205.957 262.986C205.777 263.373 205.577 263.779 205.357 264.206C205.143 264.626 204.923 265.053 204.697 265.486C204.477 265.913 204.26 266.319 204.047 266.706C203.833 267.093 203.64 267.439 203.467 267.746L202.687 267.536C202.873 267.236 203.073 266.893 203.287 266.506C203.507 266.113 203.73 265.703 203.957 265.276C204.183 264.849 204.4 264.426 204.607 264.006C204.82 263.579 205.013 263.183 205.187 262.816ZM207.827 264.896L208.657 265.016C208.457 265.789 208.17 266.449 207.797 266.996C207.43 267.543 206.977 268.003 206.437 268.376C205.903 268.743 205.287 269.039 204.587 269.266C203.887 269.499 203.107 269.686 202.247 269.826C202.227 269.759 202.187 269.683 202.127 269.596C202.073 269.516 202.017 269.433 201.957 269.346C201.903 269.266 201.85 269.199 201.797 269.146C202.93 268.999 203.907 268.773 204.727 268.466C205.547 268.153 206.217 267.713 206.737 267.146C207.257 266.573 207.62 265.823 207.827 264.896ZM201.567 264.436H210.447V265.146H201.567V264.436ZM203.277 267.176L203.777 266.646C204.31 266.793 204.863 266.966 205.437 267.166C206.01 267.366 206.573 267.583 207.127 267.816C207.687 268.043 208.21 268.276 208.697 268.516C209.19 268.749 209.613 268.979 209.967 269.206L209.407 269.826C209.073 269.599 208.667 269.363 208.187 269.116C207.713 268.876 207.197 268.636 206.637 268.396C206.083 268.156 205.517 267.933 204.937 267.726C204.363 267.519 203.81 267.336 203.277 267.176ZM213.147 264.276H220.597V264.846H213.147V264.276ZM213.847 262.986H219.607V266.176H213.767V265.626H218.897V263.536H213.847V262.986ZM216.197 262.266H216.917V268.946C216.917 269.179 216.883 269.349 216.817 269.456C216.757 269.569 216.647 269.653 216.487 269.706C216.327 269.759 216.11 269.789 215.837 269.796C215.563 269.809 215.22 269.816 214.807 269.816C214.787 269.729 214.753 269.619 214.707 269.486C214.667 269.359 214.617 269.249 214.557 269.156C214.77 269.163 214.97 269.166 215.157 269.166C215.35 269.173 215.517 269.173 215.657 269.166C215.803 269.166 215.907 269.166 215.967 269.166C216.053 269.166 216.113 269.149 216.147 269.116C216.18 269.083 216.197 269.026 216.197 268.946V262.266ZM213.397 266.706L213.827 266.306C214 266.399 214.18 266.509 214.367 266.636C214.553 266.756 214.73 266.876 214.897 266.996C215.07 267.116 215.21 267.229 215.317 267.336L214.857 267.786C214.757 267.679 214.623 267.563 214.457 267.436C214.29 267.309 214.113 267.183 213.927 267.056C213.74 266.923 213.563 266.806 213.397 266.706ZM219.487 266.346L220.047 266.796C219.74 267.016 219.407 267.236 219.047 267.456C218.687 267.669 218.353 267.853 218.047 268.006L217.617 267.616C217.817 267.516 218.03 267.393 218.257 267.246C218.49 267.093 218.713 266.939 218.927 266.786C219.147 266.626 219.333 266.479 219.487 266.346ZM217.087 265.966C217.347 266.726 217.76 267.379 218.327 267.926C218.893 268.473 219.583 268.863 220.397 269.096C220.317 269.163 220.23 269.256 220.137 269.376C220.05 269.496 219.983 269.606 219.937 269.706C219.097 269.413 218.387 268.959 217.807 268.346C217.233 267.726 216.8 266.983 216.507 266.116L217.087 265.966ZM212.867 268.806C213.207 268.693 213.617 268.549 214.097 268.376C214.583 268.196 215.077 268.013 215.577 267.826L215.707 268.386C215.273 268.566 214.84 268.746 214.407 268.926C213.98 269.106 213.583 269.266 213.217 269.406L212.867 268.806ZM215.907 260.606H216.677V261.886H215.907V260.606ZM212.537 261.526H220.487V262.196H212.537V261.526ZM212.177 261.526H212.897V264.486C212.897 264.879 212.883 265.306 212.857 265.766C212.837 266.226 212.793 266.699 212.727 267.186C212.66 267.666 212.56 268.136 212.427 268.596C212.3 269.049 212.133 269.466 211.927 269.846C211.88 269.799 211.82 269.749 211.747 269.696C211.673 269.643 211.597 269.593 211.517 269.546C211.437 269.499 211.367 269.463 211.307 269.436C211.513 269.076 211.673 268.686 211.787 268.266C211.9 267.846 211.983 267.416 212.037 266.976C212.097 266.529 212.133 266.096 212.147 265.676C212.167 265.249 212.177 264.853 212.177 264.486V261.526ZM222.057 261.716H229.967V262.396H222.057V261.716ZM221.527 265.876H225.527V266.536H221.527V265.876ZM225.957 265.876H230.517V266.536H225.957V265.876ZM225.577 260.586H226.327V264.996H225.577V260.586ZM223.337 264.666H224.047V269.816H223.337V264.666ZM227.687 264.666H228.397V269.816H227.687V264.666ZM225.327 261.876L225.947 262.126C225.667 262.533 225.323 262.916 224.917 263.276C224.51 263.629 224.067 263.946 223.587 264.226C223.107 264.506 222.627 264.733 222.147 264.906C222.093 264.819 222.02 264.719 221.927 264.606C221.833 264.486 221.75 264.393 221.677 264.326C222.143 264.179 222.61 263.983 223.077 263.736C223.543 263.489 223.973 263.206 224.367 262.886C224.76 262.566 225.08 262.229 225.327 261.876ZM226.537 261.876C226.81 262.223 227.15 262.553 227.557 262.866C227.97 263.173 228.42 263.446 228.907 263.686C229.4 263.919 229.893 264.106 230.387 264.246C230.333 264.293 230.273 264.353 230.207 264.426C230.147 264.499 230.09 264.576 230.037 264.656C229.983 264.729 229.937 264.799 229.897 264.866C229.397 264.693 228.9 264.469 228.407 264.196C227.913 263.923 227.453 263.609 227.027 263.256C226.607 262.896 226.253 262.516 225.967 262.116L226.537 261.876ZM227.497 266.036L228.047 266.206C227.88 266.633 227.67 267.049 227.417 267.456C227.163 267.863 226.883 268.233 226.577 268.566C226.277 268.893 225.963 269.163 225.637 269.376C225.583 269.296 225.51 269.199 225.417 269.086C225.33 268.979 225.247 268.896 225.167 268.836C225.487 268.649 225.793 268.409 226.087 268.116C226.387 267.823 226.657 267.496 226.897 267.136C227.143 266.776 227.343 266.409 227.497 266.036ZM228.567 266.096C228.733 266.436 228.937 266.776 229.177 267.116C229.417 267.456 229.677 267.769 229.957 268.056C230.243 268.343 230.52 268.576 230.787 268.756C230.707 268.823 230.613 268.913 230.507 269.026C230.407 269.139 230.323 269.246 230.257 269.346C229.99 269.126 229.72 268.853 229.447 268.526C229.173 268.193 228.917 267.833 228.677 267.446C228.437 267.053 228.237 266.663 228.077 266.276L228.567 266.096ZM223.257 266.076L223.787 266.276C223.627 266.663 223.433 267.049 223.207 267.436C222.987 267.816 222.74 268.166 222.467 268.486C222.2 268.799 221.917 269.056 221.617 269.256C221.583 269.156 221.533 269.043 221.467 268.916C221.4 268.783 221.337 268.669 221.277 268.576C221.537 268.403 221.793 268.183 222.047 267.916C222.3 267.649 222.53 267.359 222.737 267.046C222.95 266.726 223.123 266.403 223.257 266.076ZM223.947 266.706C224.02 266.753 224.13 266.829 224.277 266.936C224.43 267.036 224.59 267.146 224.757 267.266C224.93 267.386 225.087 267.499 225.227 267.606C225.367 267.706 225.467 267.779 225.527 267.826L225.087 268.396C225.007 268.316 224.9 268.213 224.767 268.086C224.633 267.959 224.487 267.829 224.327 267.696C224.173 267.563 224.023 267.439 223.877 267.326C223.737 267.206 223.623 267.109 223.537 267.036L223.947 266.706ZM235.937 262.756H240.397V263.476H235.937V262.756ZM237.737 260.596H238.487V269.786H237.737V260.596ZM237.687 263.066L238.267 263.256C238.14 263.729 237.987 264.209 237.807 264.696C237.627 265.176 237.423 265.643 237.197 266.096C236.97 266.549 236.727 266.966 236.467 267.346C236.213 267.726 235.95 268.053 235.677 268.326C235.63 268.219 235.56 268.103 235.467 267.976C235.38 267.843 235.3 267.733 235.227 267.646C235.48 267.399 235.73 267.103 235.977 266.756C236.23 266.409 236.467 266.033 236.687 265.626C236.907 265.219 237.103 264.799 237.277 264.366C237.45 263.926 237.587 263.493 237.687 263.066ZM238.567 263.066C238.713 263.633 238.897 264.203 239.117 264.776C239.343 265.343 239.59 265.866 239.857 266.346C240.13 266.826 240.413 267.226 240.707 267.546C240.613 267.606 240.51 267.696 240.397 267.816C240.283 267.929 240.193 268.033 240.127 268.126C239.84 267.766 239.563 267.323 239.297 266.796C239.03 266.263 238.787 265.686 238.567 265.066C238.353 264.446 238.173 263.829 238.027 263.216L238.567 263.066ZM231.537 262.756H235.497V263.476H231.537V262.756ZM233.337 260.596H234.067V269.786H233.337V260.596ZM233.287 263.186L233.797 263.366C233.697 263.779 233.57 264.203 233.417 264.636C233.27 265.063 233.103 265.483 232.917 265.896C232.73 266.309 232.533 266.693 232.327 267.046C232.127 267.399 231.917 267.699 231.697 267.946C231.657 267.846 231.593 267.729 231.507 267.596C231.427 267.456 231.353 267.343 231.287 267.256C231.493 267.023 231.693 266.753 231.887 266.446C232.087 266.133 232.277 265.796 232.457 265.436C232.637 265.069 232.797 264.696 232.937 264.316C233.077 263.929 233.193 263.553 233.287 263.186ZM234.057 263.676C234.117 263.729 234.203 263.819 234.317 263.946C234.43 264.066 234.557 264.206 234.697 264.366C234.837 264.519 234.973 264.676 235.107 264.836C235.247 264.989 235.37 265.129 235.477 265.256C235.583 265.383 235.66 265.476 235.707 265.536L235.207 266.186C235.133 266.053 235.027 265.889 234.887 265.696C234.753 265.503 234.607 265.303 234.447 265.096C234.287 264.883 234.133 264.683 233.987 264.496C233.847 264.309 233.73 264.163 233.637 264.056L234.057 263.676Z" fill="white"/>
<path d="M202.407 273.583H209.597V274.393H202.407V273.583ZM201.567 279.513H210.447V280.353H201.567V279.513ZM212.537 273.153V274.683H214.037V273.153H212.537ZM211.867 272.533H214.737V275.313H211.867V272.533ZM211.397 276.023H215.167V276.683H211.397V276.023ZM212.337 276.323H213.027C212.973 276.596 212.91 276.886 212.837 277.193C212.77 277.5 212.7 277.796 212.627 278.083C212.56 278.37 212.497 278.623 212.437 278.843L211.757 278.713C211.823 278.5 211.893 278.256 211.967 277.983C212.04 277.703 212.107 277.42 212.167 277.133C212.233 276.846 212.29 276.576 212.337 276.323ZM212.417 277.573H214.277V278.213H212.247L212.417 277.573ZM214.007 277.573H214.697C214.697 277.573 214.693 277.613 214.687 277.693C214.687 277.766 214.683 277.83 214.677 277.883C214.63 278.576 214.577 279.143 214.517 279.583C214.463 280.016 214.403 280.35 214.337 280.583C214.27 280.816 214.19 280.986 214.097 281.093C214.01 281.18 213.92 281.24 213.827 281.273C213.733 281.313 213.617 281.34 213.477 281.353C213.37 281.366 213.22 281.37 213.027 281.363C212.84 281.363 212.643 281.356 212.437 281.343C212.43 281.25 212.407 281.14 212.367 281.013C212.333 280.886 212.287 280.78 212.227 280.693C212.44 280.713 212.637 280.723 212.817 280.723C212.997 280.73 213.123 280.733 213.197 280.733C213.27 280.733 213.333 280.726 213.387 280.713C213.447 280.7 213.493 280.673 213.527 280.633C213.6 280.566 213.663 280.426 213.717 280.213C213.77 280 213.82 279.69 213.867 279.283C213.92 278.876 213.967 278.343 214.007 277.683V277.573ZM217.767 272.843H220.167V273.463H217.767V272.843ZM215.757 274.133H220.177V274.753H215.757V274.133ZM217.417 272.153H218.137V274.453H217.417V272.153ZM215.447 274.133H216.127V276.693C216.127 277.046 216.113 277.426 216.087 277.833C216.06 278.24 216.01 278.656 215.937 279.083C215.863 279.503 215.757 279.913 215.617 280.313C215.477 280.706 215.29 281.07 215.057 281.403C215.017 281.356 214.96 281.306 214.887 281.253C214.82 281.2 214.75 281.146 214.677 281.093C214.603 281.046 214.54 281.013 214.487 280.993C214.78 280.573 214.993 280.113 215.127 279.613C215.26 279.113 215.347 278.61 215.387 278.103C215.427 277.596 215.447 277.126 215.447 276.693V274.133ZM216.357 275.793L219.327 275.493L219.397 276.023L216.427 276.333L216.357 275.793ZM217.447 274.823H218.117V276.613C218.117 276.713 218.133 276.78 218.167 276.813C218.207 276.84 218.297 276.853 218.437 276.853C218.47 276.853 218.527 276.853 218.607 276.853C218.693 276.853 218.787 276.853 218.887 276.853C218.993 276.853 219.09 276.853 219.177 276.853C219.263 276.853 219.327 276.853 219.367 276.853C219.44 276.853 219.497 276.84 219.537 276.813C219.577 276.78 219.603 276.72 219.617 276.633C219.637 276.54 219.65 276.4 219.657 276.213C219.73 276.26 219.823 276.303 219.937 276.343C220.05 276.383 220.153 276.416 220.247 276.443C220.213 276.83 220.14 277.09 220.027 277.223C219.92 277.35 219.73 277.413 219.457 277.413C219.417 277.413 219.343 277.413 219.237 277.413C219.137 277.413 219.023 277.413 218.897 277.413C218.777 277.413 218.663 277.413 218.557 277.413C218.457 277.413 218.39 277.413 218.357 277.413C218.117 277.413 217.93 277.393 217.797 277.353C217.663 277.306 217.57 277.226 217.517 277.113C217.47 276.993 217.447 276.826 217.447 276.613V274.823ZM219.967 274.133H220.067L220.187 274.103L220.657 274.223C220.597 274.53 220.53 274.846 220.457 275.173C220.39 275.5 220.327 275.776 220.267 276.003L219.677 275.863C219.73 275.656 219.783 275.4 219.837 275.093C219.89 274.786 219.933 274.5 219.967 274.233V274.133ZM216.937 277.853H217.587C217.567 278.42 217.51 278.926 217.417 279.373C217.323 279.82 217.163 280.213 216.937 280.553C216.717 280.886 216.403 281.163 215.997 281.383C215.957 281.303 215.893 281.206 215.807 281.093C215.72 280.986 215.637 280.906 215.557 280.853C215.923 280.66 216.2 280.423 216.387 280.143C216.58 279.863 216.713 279.533 216.787 279.153C216.86 278.773 216.91 278.34 216.937 277.853ZM218.397 277.843H219.057V280.303C219.057 280.343 219.06 280.376 219.067 280.403C219.08 280.43 219.1 280.45 219.127 280.463C219.18 280.496 219.257 280.513 219.357 280.513C219.403 280.513 219.46 280.513 219.527 280.513C219.593 280.513 219.657 280.513 219.717 280.513C219.77 280.513 219.823 280.51 219.877 280.503C219.93 280.496 219.967 280.486 219.987 280.473C220.02 280.46 220.047 280.436 220.067 280.403C220.093 280.363 220.113 280.313 220.127 280.253C220.14 280.173 220.15 280.043 220.157 279.863C220.163 279.683 220.163 279.48 220.157 279.253C220.23 279.313 220.32 279.373 220.427 279.433C220.533 279.493 220.633 279.536 220.727 279.563C220.72 279.803 220.707 280.033 220.687 280.253C220.667 280.473 220.647 280.626 220.627 280.713C220.593 280.806 220.55 280.883 220.497 280.943C220.45 281.003 220.387 281.056 220.307 281.103C220.247 281.13 220.167 281.15 220.067 281.163C219.967 281.183 219.867 281.193 219.767 281.193C219.727 281.193 219.667 281.193 219.587 281.193C219.513 281.193 219.44 281.193 219.367 281.193C219.293 281.193 219.24 281.193 219.207 281.193C219.1 281.193 218.99 281.183 218.877 281.163C218.77 281.143 218.68 281.1 218.607 281.033C218.527 280.966 218.47 280.883 218.437 280.783C218.41 280.683 218.397 280.52 218.397 280.293V277.843ZM225.177 275.773L226.057 276.003C225.897 276.376 225.723 276.77 225.537 277.183C225.357 277.59 225.17 278 224.977 278.413C224.783 278.82 224.587 279.21 224.387 279.583C224.187 279.95 223.997 280.286 223.817 280.593L223.117 280.363C223.297 280.056 223.483 279.713 223.677 279.333C223.87 278.953 224.057 278.556 224.237 278.143C224.423 277.73 224.597 277.32 224.757 276.913C224.917 276.506 225.057 276.126 225.177 275.773ZM221.897 280.133C222.35 280.12 222.863 280.103 223.437 280.083C224.017 280.063 224.63 280.04 225.277 280.013C225.93 279.98 226.597 279.95 227.277 279.923C227.963 279.89 228.643 279.86 229.317 279.833L229.297 280.543C228.423 280.59 227.543 280.636 226.657 280.683C225.77 280.736 224.927 280.783 224.127 280.823C223.333 280.863 222.623 280.896 221.997 280.923L221.897 280.133ZM227.097 277.973L227.807 277.633C228.113 277.986 228.423 278.366 228.737 278.773C229.05 279.173 229.34 279.566 229.607 279.953C229.873 280.34 230.087 280.686 230.247 280.993L229.497 281.403C229.337 281.09 229.123 280.736 228.857 280.343C228.597 279.943 228.31 279.536 227.997 279.123C227.69 278.703 227.39 278.32 227.097 277.973ZM224.167 272.443L224.997 272.673C224.777 273.213 224.517 273.736 224.217 274.243C223.917 274.75 223.597 275.223 223.257 275.663C222.917 276.096 222.567 276.476 222.207 276.803C222.16 276.75 222.093 276.69 222.007 276.623C221.92 276.556 221.83 276.49 221.737 276.423C221.643 276.356 221.563 276.303 221.497 276.263C221.863 275.963 222.21 275.613 222.537 275.213C222.87 274.806 223.177 274.366 223.457 273.893C223.737 273.42 223.973 272.936 224.167 272.443ZM227.737 272.443C227.903 272.77 228.1 273.106 228.327 273.453C228.56 273.8 228.807 274.14 229.067 274.473C229.327 274.806 229.587 275.12 229.847 275.413C230.107 275.706 230.353 275.956 230.587 276.163C230.52 276.216 230.447 276.28 230.367 276.353C230.287 276.426 230.21 276.503 230.137 276.583C230.063 276.663 230 276.736 229.947 276.803C229.72 276.563 229.473 276.283 229.207 275.963C228.947 275.643 228.683 275.303 228.417 274.943C228.157 274.583 227.903 274.216 227.657 273.843C227.41 273.463 227.193 273.096 227.007 272.743L227.737 272.443ZM233.027 275.133H238.937V275.613H233.027V275.133ZM233.607 274.033H238.407V274.513H233.607V274.033ZM235.617 273.483H236.307V275.413H235.617V273.483ZM235.487 277.823H236.167V279.963H235.487V277.823ZM236.267 277.633C236.46 277.886 236.71 278.13 237.017 278.363C237.323 278.59 237.663 278.793 238.037 278.973C238.41 279.146 238.783 279.283 239.157 279.383C239.09 279.443 239.017 279.523 238.937 279.623C238.857 279.716 238.793 279.803 238.747 279.883C238.367 279.756 237.987 279.59 237.607 279.383C237.227 279.176 236.877 278.94 236.557 278.673C236.237 278.406 235.97 278.126 235.757 277.833L236.267 277.633ZM235.937 277.363L236.537 277.573C236.283 277.86 235.973 278.133 235.607 278.393C235.247 278.646 234.867 278.876 234.467 279.083C234.067 279.29 233.67 279.47 233.277 279.623C233.25 279.576 233.21 279.523 233.157 279.463C233.103 279.396 233.05 279.333 232.997 279.273C232.943 279.206 232.893 279.156 232.847 279.123C233.24 278.99 233.63 278.836 234.017 278.663C234.41 278.483 234.773 278.283 235.107 278.063C235.44 277.843 235.717 277.61 235.937 277.363ZM238.347 277.583L238.837 277.873C238.61 278.06 238.363 278.24 238.097 278.413C237.83 278.586 237.583 278.733 237.357 278.853L236.957 278.583C237.103 278.49 237.263 278.386 237.437 278.273C237.61 278.153 237.777 278.033 237.937 277.913C238.097 277.786 238.233 277.676 238.347 277.583ZM234.307 276.523V277.323H237.677V276.523H234.307ZM233.667 276.073H238.347V277.773H233.667V276.073ZM231.817 272.593H240.177V281.353H239.437V273.273H232.527V281.353H231.817V272.593ZM232.257 280.253H239.847V280.933H232.257V280.253Z" fill="white"/>
</svg>
