<svg width="337" height="151" viewBox="0 0 337 151" fill="none" xmlns="http://www.w3.org/2000/svg">
<path d="M13.4844 123.007C11.5935 129.072 0.378129 128.96 0.00581648 135.301C-0.207531 138.935 5.49847 139.553 8.85764 140.957C35.9402 152.277 64.9555 150.155 94.3138 149.7C125.023 149.223 155.135 150.084 185.844 150.539C270.129 151.796 282.005 148.701 327.569 140.957C344.031 138.158 334.313 123.274 332.535 119.548C330.753 115.822 327.511 113.04 324.357 110.371C303.712 92.9058 282.277 75.0022 256.37 67.2033C250.166 65.336 243.619 64.0035 238.311 60.2941C233.68 57.0526 230.404 52.278 226.932 47.8209C215.989 33.7854 205.731 24.938 188.534 20.3054C174.829 16.6169 162.07 18.0372 148.96 12.611C143.584 10.3845 129.533 -0.538984 123.743 0.0207657C112.888 1.06925 95.1672 31.4336 92.2221 33.5932C48.7955 65.4196 51.0837 79.5846 21.4535 116.795L13.4927 123.007H13.4844Z" fill="#F4E8DA"/>
<path d="M250.932 128.947C232.308 116.24 216.345 91.0719 198.302 85.4285C193.613 83.9623 188.676 83.0516 184.414 80.6121C179.933 78.0515 176.528 73.987 173.474 69.8307C163.171 55.8202 155.436 39.5081 141.987 28.4677C139.075 26.0783 135.716 23.8936 131.951 23.7098C129.132 23.572 126.371 24.5745 123.877 25.8987C106.893 34.8965 110.374 52.5954 89.8254 59.1203C79.2542 62.4788 58.4131 109.347 42.3619 123.938C42.3619 123.938 37.3377 130.313 42.3619 132.331C57.681 138.488 97.8657 133.266 137.624 131.633C182.761 129.774 234.22 138.129 251.865 135.125C260.692 133.621 254.433 131.336 250.932 128.947Z" fill="#7AA7A6"/>
<path d="M310.054 125.919C298.144 107.735 265.343 78.9121 247.761 76.7358C241.227 75.9295 234.517 76.4684 228.108 74.9688C217.415 72.4666 208.915 64.6844 199.716 58.7026C190.513 52.7166 186.589 54.8053 172.713 52.8253C168.095 52.1652 158.004 49.7926 178.783 69.1457C186.028 75.892 190.96 79.0416 204 82.4335C217.892 86.0468 238.323 116.708 257.7 124.632C264.356 127.355 268.882 127.247 280.583 128.596C314.957 132.565 310.054 125.919 310.054 125.919Z" fill="#7AA7A6"/>
<path d="M68.2479 101.198C71.4272 97.597 73.5439 93.2443 75.7276 89.0044C77.9113 84.7645 80.0238 80.8003 83.4918 77.7467C85.4955 75.9798 87.8758 74.7099 89.9968 73.0975C92.1177 71.4851 93.5944 69.4215 95.205 67.3496C95.9287 66.4181 96.6942 65.5033 97.6354 64.7848C98.5767 64.0663 99.7564 63.6068 100.886 63.1807C102.162 62.6962 103.446 62.2241 104.622 61.5182C105.797 60.8122 106.847 59.8139 107.755 58.757C108.822 57.5122 109.767 56.163 110.746 54.8513C111.783 53.4645 112.817 52.0734 113.854 50.6866C116.008 47.8001 118.163 44.9095 120.313 42.023C120.543 41.7139 120.656 41.2669 120.192 41.1291C119.727 40.9912 119.121 41.3672 118.866 41.7097C115.08 46.7851 111.327 51.8813 107.512 56.9316C106.722 57.98 105.902 59.0202 104.889 59.864C103.877 60.7078 102.735 61.1548 101.555 61.6017C100.375 62.0487 99.1038 62.5124 97.9575 63.1556C96.8113 63.7989 95.799 64.6887 94.9079 65.6662C93.2263 67.5083 91.9922 69.7348 90.1306 71.414C88.1226 73.227 85.6922 74.4968 83.5503 76.1385C79.7519 79.0375 77.1792 83.127 74.9662 87.2875C72.4897 91.9535 70.3437 96.891 66.8088 100.889C66.5495 101.185 66.4867 101.653 66.9301 101.783C67.3987 101.92 67.9676 101.528 68.2562 101.202L68.2479 101.198Z" fill="#F4E8DA"/>
<path d="M130.382 33.9985C130.717 33.2884 131.382 33.0837 132.072 33.1965C133.014 33.3511 133.771 34.1155 134.373 34.8006C134.976 35.4856 135.561 36.2877 136.235 36.9686C136.866 37.6118 137.544 38.2092 138.234 38.7898C141.309 41.3755 144.777 43.5728 147.588 46.4592C148.722 47.6247 149.471 48.9322 150.194 50.3942C151.085 52.1862 151.876 54.0284 152.742 55.8371C153.508 57.437 154.327 58.9826 155.457 60.3653C156.934 62.174 158.565 63.8532 160.218 65.4949C163.962 69.2126 168.04 72.7758 171.036 77.1619C171.337 77.6005 171.864 77.7593 172.374 77.5922C172.742 77.471 173.299 76.9656 172.993 76.5228C170.174 72.3915 166.484 68.9745 162.932 65.4907C161.205 63.7948 159.485 62.0821 157.904 60.2483C157.273 59.5173 156.653 58.7946 156.168 57.9926C155.683 57.1906 155.285 56.4052 154.888 55.5865C153.968 53.6984 153.148 51.7685 152.219 49.8846C151.458 48.339 150.621 46.8477 149.425 45.5945C146.534 42.5619 142.903 40.3145 139.724 37.6077C138.929 36.9268 138.147 36.225 137.444 35.448C136.615 34.529 135.934 33.5098 134.959 32.7287C133.984 31.9475 132.708 31.4504 131.391 31.5799C130.223 31.6969 129.023 32.29 128.5 33.3887C127.977 34.4873 129.943 34.9426 130.382 34.0152V33.9985Z" fill="#F4E8DA"/>
<path d="M159.23 76.3725C162.48 80.6542 165.957 85.1363 171.056 87.2876C173.742 88.4238 176.637 88.9334 179.49 89.4723C182.343 90.0112 185.166 90.6503 187.844 91.8491C190.923 93.2276 193.751 95.0949 196.507 97.0247C197.005 97.3756 198.716 96.252 198.181 95.876C195.754 94.18 193.278 92.53 190.613 91.2184C187.948 89.9067 185.204 89.0963 182.326 88.5199C179.448 87.9434 176.637 87.5508 173.918 86.5984C171.198 85.6459 169.036 84.2215 167.028 82.3585C164.785 80.2782 162.924 77.8262 161.083 75.3992C160.682 74.8687 158.9 75.9381 159.234 76.3767L159.23 76.3725Z" fill="#F4E8DA"/>
<path d="M191.057 102.309C193.274 104.297 196.077 105.066 198.925 105.688C201.452 106.236 204.347 106.687 206.313 108.516C206.577 108.763 207.137 109.151 207.48 108.825C207.823 108.5 207.405 107.881 207.167 107.66C204.991 105.638 202.184 104.849 199.348 104.231C196.821 103.679 193.91 103.249 191.91 101.457C191.642 101.219 191.086 100.818 190.743 101.148C190.417 101.461 190.814 102.092 191.057 102.313V102.309Z" fill="#F4E8DA"/>
<path d="M177.561 58.899C179.782 59.4713 182.041 59.7595 184.334 59.8514C186.204 59.9266 188.078 59.8514 189.948 59.9141C191.575 59.9642 193.223 60.1647 194.763 60.7203C196.545 61.3677 198.239 62.4037 199.845 63.3979C206.476 67.5083 212.115 73.0014 218.72 77.1535C221.895 79.1502 225.326 80.8003 228.986 81.6775C233.772 82.822 238.683 82.1495 243.527 82.726C245.974 83.0184 248.334 83.716 250.647 84.5389C252.145 85.0736 253.642 85.6166 255.073 86.3142C257.826 87.6551 260.444 89.2884 263.005 90.9593C265.941 92.8766 268.811 94.911 271.614 97.0205C273.998 98.8167 276.358 100.659 278.571 102.664C278.771 102.848 278.972 103.027 279.169 103.215C279.261 103.303 279.353 103.391 279.445 103.478C279.583 103.608 279.462 103.491 279.432 103.466C279.487 103.52 279.545 103.575 279.6 103.629C279.872 103.896 280.349 104.239 280.671 103.842C280.959 103.487 280.683 102.777 280.407 102.505C278.466 100.571 276.324 98.8376 274.166 97.1541C271.392 94.9903 268.543 92.9184 265.636 90.9384C262.729 88.9584 260.043 87.2207 257.106 85.6041C254.17 83.9875 250.76 82.6717 247.409 81.7109C244.97 81.0133 242.498 80.6958 239.963 80.6081C237.428 80.5204 234.826 80.6206 232.266 80.3825C228.354 80.0191 224.661 78.7283 221.222 76.8569C214.361 73.1225 208.701 67.6002 202.276 63.2183C200.644 62.1029 198.967 61.0503 197.222 60.1229C195.591 59.2541 193.93 58.5523 192.098 58.2557C188.354 57.65 184.522 58.1972 180.761 57.7043C179.561 57.5498 178.377 57.3117 177.205 57.0109C176.724 56.8898 176.557 57.4203 176.624 57.792C176.708 58.2682 177.072 58.7737 177.557 58.899H177.561Z" fill="#F4E8DA"/>
<path d="M189.948 67.1114C192.416 67.4957 194.436 68.9787 196.29 70.5911C198.256 72.3037 200.084 74.2086 202.289 75.6246C203.577 76.4517 204.953 77.095 206.459 77.4083C206.957 77.5128 207.58 77.2788 207.731 76.7608C207.882 76.2429 207.463 75.7834 206.978 75.6789C204.531 75.1651 202.523 73.582 200.678 71.9487C198.699 70.1984 196.834 68.3103 194.562 66.9235C193.311 66.159 191.918 65.6035 190.467 65.3779C189.965 65.2985 189.354 65.4865 189.195 66.0254C189.048 66.5224 189.454 67.0321 189.948 67.1073V67.1114Z" fill="#F4E8DA"/>
<path d="M260.658 102.146C266.08 104.89 268.088 111.24 272.359 115.221C273.514 116.298 274.848 117.176 276.341 117.706C276.68 117.827 277.291 117.464 277.575 117.309C277.659 117.263 278.37 116.846 278.124 116.754C272.401 114.715 270.117 108.261 266.239 104.118C265.139 102.944 263.884 101.92 262.44 101.194C262.148 101.043 261.457 101.457 261.206 101.59C261.106 101.645 260.416 102.025 260.658 102.146Z" fill="#F4E8DA"/>
<path d="M192.403 35.4939C205.133 41.5049 215.441 53.8361 220.703 67.0487C210.705 65.4112 204.794 58.2348 195.671 53.8361C187.346 49.8218 179.795 52.4367 168.743 50.1059C163.033 48.9028 160.531 45.5736 159.715 44.6671C157.021 41.6762 154.792 38.5307 152.553 35.1848C152.553 35.1848 168.902 24.3991 192.403 35.4939Z" fill="#F3A366"/>
<path d="M261.804 37.098C263.44 35.4772 262.16 33.8397 262.603 32.0101C262.896 30.8029 263.615 29.7794 263.996 29.1779C264.038 29.1111 264.088 29.0443 264.159 29.015C264.364 28.9315 264.586 29.1654 264.628 29.3868C265.494 33.9859 268.962 33.2215 268.309 36.0286C268.012 37.2985 267.016 38.0295 265.715 38.1339C264.414 38.2383 261.8 37.1063 261.8 37.1063L261.804 37.098Z" fill="#FACA72"/>
<path d="M286.377 35.1471C286.824 33.4804 283.85 33.4595 282.955 33.6183C282.16 33.7603 281.24 34.107 280.47 34.3743C278.935 30.2556 274.747 29.6081 273.003 30.289C270.095 31.421 269.903 34.0652 269.903 35.7487C269.903 37.8916 268.422 40.6569 264 39.646C257.629 38.1882 258.859 32.8664 254.007 30.4519C253.697 30.2974 253.4 30.3934 253.325 30.7318C252.116 36.1914 251.392 40.5316 256.132 44.3914C256.663 44.8258 256.09 46.2628 254.592 46.7557C253.095 47.2486 250.401 47.0105 251.932 48.7106C258.6 56.1169 269.288 54.9765 271.388 53.9322C276.149 51.5679 277.462 47.9545 278.399 44.2995C278.793 42.7706 281.809 40.0053 283.662 38.3427C284.181 37.879 286.218 35.7528 286.381 35.143L286.377 35.1471ZM274.346 35.7361C274.061 35.2474 273.4 33.9608 274.203 33.305C275.509 32.2398 277.019 34.579 276.78 35.5189C276.425 36.9225 274.768 36.463 274.346 35.7361Z" fill="#FACA72"/>
</svg>
