<svg width="248" height="176" viewBox="0 0 248 176" fill="none" xmlns="http://www.w3.org/2000/svg">
<path d="M43.7735 9.67015C35.3383 3.49518 24.9263 0.058629 14.4645 0.000452914C11.8594 -0.0120134 9.10868 0.224844 6.97386 1.71249C4.56022 3.39544 3.40334 6.34164 2.59185 9.17149C-4.12056 32.6247 4.26892 57.4742 4.75165 81.8625C5.04295 96.5353 2.4462 111.096 1.40584 125.731C0.365479 140.367 0.993858 155.605 7.30678 168.861C8.27639 170.893 9.4416 172.945 11.3142 174.196C13.241 175.48 15.6546 175.75 17.9601 175.946C27.8727 176.785 41.4847 167.635 51.4348 167.639C100.394 167.66 150.09 175.218 198.459 167.639C206.149 166.434 209.507 163.06 216.719 160.138C223.86 157.246 230.51 152.779 238.138 151.661C240.36 151.337 242.699 151.283 244.684 150.236C246.669 149.189 248.142 146.687 247.135 144.68C246.615 143.645 245.575 142.989 244.584 142.386C229.499 133.17 214.734 128.25 199.853 118.705C189.949 112.351 180.024 105.868 171.597 97.6614C163.777 90.0445 157.148 76.5934 149.083 69.2383C141.018 61.8831 130.598 56.0863 119.707 56.9548C115.883 57.2582 106.129 66.292 102.3 66.5206C88.7005 67.3268 86.9694 56.7803 72.3377 44.9498C61.7468 36.3896 58.451 15.6415 46.1955 9.69508L43.7694 9.6743L43.7735 9.67015Z" fill="#F4E8DA"/>
<path d="M185.183 142.432C189.595 146.837 227.768 148.615 222.928 143.359C221.013 139.656 190.635 126.695 187.044 124.572C169.973 114.483 160.077 102.012 151.854 93.2608C143.631 84.5094 138.438 65.2739 123.981 62.9926C117.36 61.9496 113.527 77.2582 107.606 81.7793C107.606 81.7793 118.409 95.6003 133.04 103.35C150.198 112.438 161.259 120.57 165.791 124.572C174.851 132.575 185.183 142.432 185.183 142.432Z" fill="#7AA7A6"/>
<path d="M117.423 81.3471C118.871 79.1489 120.319 76.9466 121.767 74.7483L123.911 71.4905C124.377 70.7799 124.984 69.4792 125.941 69.3463C126.757 69.2299 127.673 69.8657 128.272 70.3394C128.929 70.863 129.466 71.5237 129.907 72.2343C130.86 73.7635 131.401 75.5088 131.93 77.2167C132.496 79.0492 133.049 80.8859 133.952 82.5855C135.013 84.5884 136.437 86.3711 137.96 88.0415C139.591 89.8325 141.335 91.5279 143.045 93.2483C144.893 95.1058 146.74 96.9674 148.588 98.8249C152.77 103.034 156.952 107.24 161.131 111.449C161.451 111.773 161.996 111.786 162.421 111.715C162.57 111.69 163.432 111.437 163.124 111.129C159.187 107.165 155.246 103.205 151.31 99.2404C149.366 97.2832 147.419 95.326 145.475 93.3688C143.682 91.5654 141.855 89.791 140.132 87.921C138.542 86.1924 137.052 84.3474 135.945 82.2696C134.988 80.4703 134.439 78.5131 133.831 76.5809C133.278 74.8148 132.679 72.9989 131.601 71.4697C130.436 69.8158 128.638 68.565 126.574 68.4445C125.209 68.3614 123.877 68.7354 122.966 69.7867C122.055 70.8381 121.318 72.1927 120.531 73.3853C118.821 75.9866 117.107 78.5838 115.396 81.1851C115.159 81.5466 115.95 81.7003 116.145 81.7128C116.528 81.7461 117.173 81.7128 117.41 81.3471H117.423Z" fill="#F4E8DA"/>
<path d="M192.616 155.883C178.446 145.445 162.654 124.223 127.464 104.393C108.68 93.8051 95.3048 78.2513 92.9743 75.168C85.8167 65.7185 69.9865 62.4108 65.101 52.9032C59.4913 41.9744 53.3657 19.2027 35.4881 12.8947C28.6217 10.4721 21.3267 3.24996 12.4919 5.24041L19.4582 160.516C19.4582 160.516 62.833 156.536 107.256 159.473C159.865 162.951 198.255 160.034 192.616 155.879V155.883Z" fill="#7AA7A6"/>
<path d="M38.2886 26.8074C41.3223 28.2618 44.1729 30.1359 46.3785 32.704C48.4259 35.085 49.6868 37.9107 50.7605 40.9109C51.4887 42.943 52.0797 45.0165 52.8287 47.0402C53.5778 49.0639 54.3768 50.9671 55.2923 52.8661C56.9652 56.3359 58.9585 59.6769 61.3472 62.7062C65.2049 67.593 70.1071 71.5656 75.8998 73.9259C77.2481 74.4744 78.6588 74.8567 79.9905 75.4426C81.4428 76.0825 82.8078 76.9053 84.102 77.8195C87.0067 79.8723 89.5785 82.3697 92.0837 84.8837C94.5889 87.3978 97.2189 90.1902 99.9322 92.696C102.379 94.9565 105.009 97.1381 108.005 98.6382C108.675 98.9707 109.362 99.2657 110.065 99.5192C110.286 99.5981 109.899 98.8335 109.874 98.7878C109.724 98.5136 109.437 97.8736 109.108 97.7573C106.016 96.6561 103.307 94.6989 100.839 92.5754C98.0845 90.2068 95.5626 87.5848 93.02 84.9918C90.4773 82.3988 87.9347 79.8183 85.1132 77.5452C83.8357 76.5147 82.4999 75.5506 81.0808 74.7279C79.7325 73.9466 78.3342 73.3774 76.8652 72.8787C71.11 70.9215 66.0122 67.4309 62.0463 62.835C59.8033 60.2337 57.9431 57.3249 56.4159 54.2541C55.4837 52.3841 54.6639 50.4601 53.9315 48.5029C53.1991 46.5457 52.579 44.4306 51.8716 42.4069C50.6773 38.9911 49.1292 35.6793 46.9777 32.7539C45.0302 30.111 42.5583 27.9543 39.7202 26.3046C38.9461 25.8517 38.1513 25.4403 37.3398 25.0538C37.1317 24.9541 37.5104 25.7478 37.5312 25.7852C37.6977 26.0927 37.9557 26.6537 38.2969 26.8157L38.2886 26.8074Z" fill="#F4E8DA"/>
<path d="M35.563 38.5213C36.7365 39.1862 37.5979 40.0713 38.2763 41.2639C38.9546 42.4565 39.3458 43.7779 39.6537 45.0993C40.2738 47.7505 40.4402 50.5388 41.3724 53.1069C41.8676 54.4782 42.6125 55.6625 43.7527 56.585C44.0856 56.8551 44.7931 56.9756 45.1218 56.639C45.4922 56.2608 45.0927 55.8037 44.7931 55.5627C44.9387 55.6791 44.6474 55.4214 44.6141 55.3924C44.5143 55.2968 44.4227 55.197 44.3312 55.0932C44.4186 55.1929 44.2271 54.956 44.1938 54.9145C44.1023 54.7898 44.0149 54.6568 43.9358 54.5239C43.632 54.0294 43.4448 53.5847 43.2492 53.0196C42.8122 51.7605 42.5667 50.4432 42.3378 49.1384C41.8468 46.3585 41.4514 43.4829 40.0449 40.9855C39.2334 39.5436 38.0474 38.3177 36.5992 37.4991C36.2205 37.283 35.5921 37.0752 35.2301 37.4451C34.893 37.79 35.2134 38.326 35.5588 38.5213H35.563Z" fill="#F4E8DA"/>
</svg>
