<svg width="248" height="265" viewBox="0 0 248 265" fill="none" xmlns="http://www.w3.org/2000/svg">
<path d="M215.423 0.0181635C149.883 -1.24288 140.702 63.5749 125.618 64.8888C122.053 59.1642 110.44 64.2964 103.979 66.2613C97.5178 68.2203 91.9729 72.3847 85.7584 75.0299C81.8053 76.7133 77.5526 77.7984 73.9637 80.1562C70.3748 82.5141 67.4849 86.6492 68.2426 90.8722C68.6773 93.3004 70.2221 95.3533 71.4732 97.4766C79.4734 111.043 75.6554 128.985 66.6508 141.906C57.6404 154.828 44.3244 163.96 31.7133 173.409C19.1022 182.852 0.182627 192.008 0.000538576 207.751C-0.0758212 214.308 7.98306 218.537 14.3092 220.308C20.4708 222.033 28.1303 221.528 31.8954 226.696C36.2949 232.737 31.5899 241.4 33.5166 248.62C35.7662 257.049 45.8046 260.41 54.445 261.735C70.927 264.269 87.6733 264.357 104.349 264.439C142.441 264.627 180.538 264.809 218.63 264.996C225.714 265.032 233.356 264.891 239.042 260.674C248.023 254.011 247.952 240.802 247.001 229.669C244.364 198.83 241.732 167.99 239.095 137.15C235.459 94.5674 231.77 51.7094 220.439 10.4995L215.429 0.0240346L215.423 0.0181635Z" fill="#F4E8DA"/>
<path d="M218.677 130.797C198.189 130.979 188.397 135.936 175.404 151.748C162.411 167.561 136.473 199.105 119.303 210.261C111.691 215.205 103.045 218.678 96.2897 224.737C92.4835 228.156 82.3218 236.045 72.4655 241.447C63.2201 246.509 54.3212 247.993 58.6972 249.958C71.8135 255.852 87.5495 249.301 111.151 250.615C150.816 252.814 188.521 255.524 221.302 250.615L218.677 130.797Z" fill="#7AA7A6"/>
<path d="M100.578 238.303C104.267 235.37 107.985 232.426 112.102 230.103C114.17 228.936 116.331 227.945 118.587 227.182C120.842 226.42 123.163 225.874 125.453 225.229C127.744 224.584 130.147 223.833 132.343 222.772C134.317 221.81 136.15 220.584 137.853 219.206C141.277 216.437 144.068 212.982 146.488 209.334C149.225 205.205 151.463 200.771 153.801 196.413C154.946 194.284 156.062 192.102 157.413 190.096C158.03 189.181 158.758 188.313 159.621 187.615C160.485 186.917 161.478 186.424 162.453 185.943C164.414 184.981 166.271 183.996 167.962 182.6C169.489 181.339 170.811 179.849 172.003 178.271C174.453 175.016 176.374 171.415 178.518 167.96C183.046 160.646 189.331 154.546 196.891 150.399C197.825 149.889 198.776 149.408 199.74 148.956C201.144 148.294 199.793 145.695 198.377 146.358C190.5 150.053 183.569 155.795 178.523 162.887C176.121 166.265 174.189 169.937 171.957 173.427C169.86 176.694 167.357 179.873 163.968 181.879C161.983 183.052 159.786 183.814 157.953 185.245C156.121 186.676 154.952 188.688 153.824 190.647C151.322 194.993 149.131 199.516 146.605 203.85C144.332 207.756 141.759 211.499 138.54 214.695C135.345 217.874 131.603 220.214 127.321 221.646C122.71 223.182 117.906 224.009 113.483 226.086C109.06 228.162 105.23 230.977 101.453 233.922C100.537 234.637 99.6203 235.365 98.7098 236.086C98.1342 236.544 98.4221 237.599 98.8156 238.068C99.2973 238.637 99.9962 238.766 100.578 238.303Z" fill="#F4E8DA"/>
<path d="M169.343 198.976C169.907 197.92 170.758 197.146 171.651 196.366C172.544 195.586 173.49 194.735 174.359 193.861C176.162 192.043 177.819 190.067 179.293 187.973C180.767 185.879 182.007 183.568 183.293 181.315C184.503 179.198 185.801 177.087 187.61 175.427C189.419 173.767 191.599 172.629 194.019 172.805C194.729 172.858 195.563 172.482 195.781 171.755C195.986 171.069 195.44 170.465 194.759 170.418C189.284 170.025 184.908 173.89 182.124 178.213C180.644 180.506 179.451 182.964 178.001 185.269C176.55 187.574 174.94 189.662 173.108 191.609C172.056 192.729 170.934 193.779 169.777 194.788C168.62 195.797 167.551 196.777 166.84 198.096C165.971 199.721 168.626 200.319 169.343 198.982V198.976Z" fill="#F4E8DA"/>
<path d="M112.848 83.9028C112.883 83.8389 112.976 83.6994 112.877 83.8563C112.866 83.8737 112.86 83.8854 112.848 83.9028Z" fill="#998675"/>
<path d="M112.413 84.5012C112.466 84.4431 112.501 84.4082 112.506 84.3966C112.471 84.4489 112.431 84.5012 112.413 84.5012Z" fill="#998675"/>
<path d="M86.9042 85.1779C86.9042 85.1779 86.8921 85.1899 86.886 85.1899C86.8558 85.2262 86.9706 85.0571 86.9042 85.1779Z" fill="#998675"/>
<path d="M86.8271 85.2061C86.786 85.2061 86.7449 85.2061 86.7214 85.2237C86.7919 85.1709 86.8388 85.1885 86.8271 85.2061Z" fill="#998675"/>
<path d="M83.1442 91.2768C85.9049 95.8693 93.2824 95.9749 92.2428 105.799C90.8272 119.143 94.1988 122.78 95.5791 123.888C96.7833 124.856 103.885 116.292 109.994 110.656C111.274 109.477 113.676 107.911 114.17 105.09C114.581 102.755 112.596 102.051 111.844 101.265C110.187 99.5293 110.129 96.1568 110.364 92.9367C110.534 90.6023 111.344 88.5318 113.036 88.045C117.001 86.913 118.334 81.6049 115.245 78.9244C113.024 77.0064 110.381 77.7396 109.13 78.9479C107.744 80.291 106.681 76.4668 99.8964 77.9449C95.2972 78.942 93.6173 83.0125 91.9374 83.0477C90.2575 83.0888 84.9827 81.0535 82.7095 84.6431C81.4937 86.5552 81.9459 89.2885 83.1442 91.2709V91.2768ZM107.362 105.453C107.074 103.817 108.39 103.811 108.59 103.834C109.212 103.905 109.847 103.999 110.223 105.213C110.416 105.846 110.234 107.154 109.747 107.471C108.736 108.122 107.515 106.327 107.356 105.453H107.362ZM106.475 96.6788C106.481 94.8781 106.728 93.0833 107.051 91.3179C107.156 90.7606 107.814 90.2445 108.402 90.0392C109.729 89.57 108.554 94.6787 108.648 96.3855C108.725 97.7521 108.648 99.1774 109.723 100.855C110.311 101.782 112.607 103.383 111.303 103.694C110.24 103.946 108.913 103.049 108.143 102.204C106.857 100.785 106.469 98.5146 106.481 96.6788H106.475ZM103.92 101.999C103.908 101.858 103.943 101.711 103.985 101.576C104.026 101.418 104.202 100.837 104.308 100.72C105.024 99.9692 106.745 100.884 106.422 102.186C106.381 102.339 105.935 103.248 105.8 103.377C105.371 103.823 104.032 103.465 103.92 101.999ZM99.3853 88.3148C98.7686 88.8837 97.4235 88.9072 96.9889 88.479C96.6423 88.1388 96.4778 87.1828 96.936 86.6784C97.0124 86.5963 98.4925 85.1651 99.5498 85.8924C100.313 86.2737 99.8611 87.8808 99.3912 88.3207L99.3853 88.3148ZM84.3248 85.7692C85.576 84.039 87.855 84.1035 89.5584 84.3264C90.3455 84.4261 91.1209 84.6079 91.908 84.7135C92.0842 84.7369 92.2663 84.7545 92.4425 84.7663C92.8184 84.7839 93.4528 83.9393 93.7817 83.5346C94.3456 82.8483 94.9683 82.2383 95.6731 81.6987C97.958 79.9567 100.402 79.2529 103.286 79.5344C105.277 79.7279 107.38 80.4435 108.566 82.0154C108.872 81.5814 109.177 81.1591 109.582 80.8013C110.364 80.1092 111.292 79.376 112.355 79.2294C113.107 79.1238 113.853 79.3056 114.416 79.8394C114.927 80.3262 115.162 80.9597 115.256 81.6459C115.433 82.9598 114.863 84.1445 114.135 85.2179C113.118 86.7194 111.632 87.2121 109.888 87.5171C108.449 87.7693 108.507 85.8279 109.729 85.6167C110.082 85.5581 111.403 85.388 112.549 83.8337C113.042 83.1592 113.177 82.2442 112.901 81.816C112.613 81.3702 111.709 81.6342 110.88 82.2794C110.052 82.9246 109.477 84.1211 109.359 84.2501C108.86 84.7956 108.149 85.124 107.403 85.0243C106.804 84.9422 106.968 84.2794 107.092 83.7222C107.109 83.6343 104.137 80.4142 98.9272 82.4143C95.7964 83.6167 94.6922 86.2385 93.7759 87.0889C92.0372 88.7019 88.8301 86.7312 88.09 86.8309C85.9519 87.1241 86.9328 90.5202 89.2589 91.9924C93.0769 94.4089 93.8346 94.4089 94.8449 95.9456C95.4558 96.8782 96.6247 100.902 96.2664 104.931C95.444 114.099 95.7495 117.507 96.237 118.41C97.3178 120.386 95.1327 120.715 94.5982 119.307C94.4396 118.897 93.3706 117.753 93.6173 113.495C93.6525 112.861 93.999 107.506 94.0225 106.621C94.0872 103.881 93.582 100.327 93.2413 99.0132C92.9007 97.6759 91.8551 95.6641 87.9021 93.7754C87.0034 93.3473 86.1634 92.4909 85.4585 91.7812C84.0429 90.3442 83.0032 87.5934 84.3248 85.7751V85.7692Z" fill="#998675"/>
<path d="M209.467 10.2061C188.891 3.26157 167.786 20.4411 156.879 39.2043C145.971 57.9617 139.604 80.1209 123.404 94.5731C117.195 100.11 109.794 104.239 103.891 110.099C93.7409 120.164 88.9596 134.27 81.6467 146.546C73.3646 160.435 61.5582 172.201 47.6313 180.442C35.7134 187.498 27.9716 192.53 19.7835 203.692C15.1608 209.991 30.9321 209.364 117.7 206.091C117.7 206.091 145.895 179.245 151.798 168.77C157.701 158.294 181.302 132.756 190.483 128.176C199.664 123.595 209.473 10.2061 209.473 10.2061H209.467Z" fill="#7AA7A6"/>
<path d="M191.352 16.664C187.687 18.0365 184.85 20.8166 182.595 23.937C180.004 27.5207 177.99 31.515 175.846 35.3685C170.782 44.4657 165.713 53.5628 160.65 62.6599C158.107 67.229 155.557 71.7981 153.014 76.3672C151.751 78.6313 150.494 80.8953 149.231 83.1593C148.168 85.0655 147.111 86.9835 145.866 88.7841C144.62 90.5848 143.169 92.2447 141.407 93.5585C139.645 94.8724 137.707 95.8636 135.921 97.1129C132.315 99.6409 130.488 103.535 127.768 106.861C125.049 110.187 120.955 112.07 117.195 114.246C113.877 116.169 110.446 118.815 109.289 122.645C109.013 123.554 108.884 124.492 108.913 125.443C108.931 125.994 109.794 126.516 110.211 126.745C110.405 126.85 111.421 127.343 111.41 126.809C111.298 122.762 114.282 119.454 117.424 117.284C120.919 114.867 125.008 113.401 128.226 110.574C131.422 107.77 133.084 103.729 136.033 100.708C137.583 99.1189 139.492 98.0162 141.366 96.8548C143.24 95.6935 144.908 94.5029 146.353 92.9016C149.402 89.5349 151.405 85.2767 153.596 81.341C156.115 76.813 158.635 72.285 161.161 67.7628C166.201 58.7067 171.246 49.6565 176.286 40.6004C178.577 36.4888 180.756 32.2892 183.235 28.2891C185.261 25.0162 187.675 21.7316 191.024 19.6964C191.828 19.2095 192.674 18.8048 193.555 18.4705C194.06 18.2828 193.214 17.5203 193.05 17.3854C192.698 17.098 191.875 16.4704 191.358 16.664H191.352Z" fill="#F4E8DA"/>
<path d="M130.547 125.319C126.723 127.396 122.635 129.648 120.15 133.355C118.758 135.425 118.235 137.801 117.554 140.159C116.831 142.669 115.639 144.939 114.241 147.138C111.198 151.913 107.95 156.576 104.802 161.28C103.368 163.426 101.929 165.614 100.015 167.368C98.0997 169.122 95.8853 170.26 93.7648 171.614C89.1715 174.559 85.2301 178.448 82.1933 182.981C81.9466 183.351 84.4137 184.935 84.7074 184.495C87.3976 180.477 90.7985 176.958 94.7457 174.16C96.7839 172.717 99.0219 171.568 101.037 170.089C103.051 168.611 104.696 166.623 106.141 164.529C109.36 159.872 112.449 155.121 115.592 150.417C117.054 148.229 118.505 145.995 119.451 143.525C120.397 141.056 120.69 138.587 121.824 136.299C124.08 131.765 128.779 129.155 133.055 126.833C133.284 126.709 132.056 125.847 131.968 125.794C131.639 125.595 130.934 125.108 130.541 125.319H130.547Z" fill="#F4E8DA"/>
</svg>
