<svg width="215" height="149" viewBox="0 0 215 149" fill="none" xmlns="http://www.w3.org/2000/svg">
<path d="M56.4459 86.5811C60.5713 71.0826 71.5115 58.2911 83.4214 47.5273C95.3313 36.7634 108.559 27.4011 119.376 15.5459C125.521 8.81041 131.945 0.716092 141.042 0.0420118C148.157 -0.482273 154.833 3.9688 159.237 9.57544C163.641 15.1767 166.309 21.9068 169.62 28.2143C176.917 42.1293 187.562 54.2788 200.41 63.3467C207.214 68.1509 215.641 74.1213 214.42 82.3494C213.638 87.6404 208.837 91.4709 203.865 93.4664C198.894 95.4619 193.472 96.1895 188.575 98.3454C177.142 103.38 170.466 115.117 161.439 123.741C143.512 140.861 117.072 145.028 92.3418 146.97C66.1378 149.03 39.8053 149.522 13.5424 148.447C8.57586 148.243 2.62358 147.345 0.614478 142.803C-2.19826 136.452 5.21666 130.632 11.2707 127.213C28.2382 117.621 43.2824 104.664 55.2726 89.3149L56.4406 86.5811H56.4459Z" fill="#F4E8DA"/>
<path d="M193.536 77.2453C183.003 74.8379 173.059 43.3273 165.071 36.0622C158.545 30.1185 147.375 14.0797 139.355 10.3829C127.466 4.90468 115.278 38.2556 104.069 45.0178C90.4611 53.2298 72.2507 80.6799 65.0447 91.5989C57.8388 102.518 39.0283 113.993 24.6753 135.494C24.6753 135.494 38.1335 129.224 55.6261 131.466C72.0899 133.574 87.0109 127.876 99.2637 129.61C133.718 134.478 140.303 127.015 144.884 121.168C152.475 111.484 161.481 93.9957 181.813 88.6191C202.146 83.2425 193.531 77.2507 193.531 77.2507L193.536 77.2453Z" fill="#7AA7A6"/>
<path d="M64.766 106.407C74.4793 103.711 81.2674 95.6167 86.266 87.303C91.5218 78.5614 95.5936 68.6802 103.491 61.8806C105.698 59.9814 108.114 58.3336 110.284 56.3916C112.454 54.4496 114.184 52.3899 115.845 50.1537C119.354 45.4298 122.403 40.3421 125.607 35.4095C127.321 32.7667 129.036 30.1292 130.75 27.4864C131.575 26.2185 132.39 24.9345 133.225 23.6773C133.756 22.8855 134.361 21.8691 135.4 21.7621C137.967 21.4946 139.708 24.3032 140.79 26.1703C141.417 27.251 142.033 28.3263 142.805 29.3054C143.576 30.2844 144.46 31.1885 145.376 32.0445C147.155 33.719 149.105 35.2062 150.879 36.8861C152.55 38.4696 153.927 40.2672 154.977 42.3162C156.858 45.9915 157.902 50.3249 160.903 53.3208C161.62 54.0377 162.413 54.6422 163.319 55.113C163.887 55.4073 164.589 55.113 165.023 54.7064C165.323 54.4229 165.799 53.6151 165.226 53.3155C161.417 51.336 159.965 47.0187 158.368 43.3273C157.495 41.3104 156.536 39.3256 155.154 37.603C153.6 35.6717 151.688 34.0667 149.802 32.4618C147.916 30.8568 146.051 29.2572 144.61 27.251C143.094 25.1485 142.189 22.5271 140.04 20.9328C137.892 19.3386 134.956 19.3546 132.888 21.2271C131.891 22.1312 131.2 23.3135 130.471 24.4316C129.604 25.7691 128.73 27.1119 127.862 28.4494C124.455 33.6976 121.053 38.9511 117.64 44.1993C116.135 46.5105 114.608 48.8162 112.893 50.9829C111.179 53.1496 109.121 55.2093 106.893 56.9962C104.664 58.783 102.414 60.3933 100.389 62.3567C98.4759 64.2131 96.7561 66.2674 95.2024 68.4234C92.1379 72.6659 89.6627 77.2988 87.1339 81.8676C82.5853 90.085 77.2063 99.1904 68.2859 103.262C67.2465 103.738 66.175 104.134 65.0713 104.439C64.4927 104.599 63.7909 105.048 63.7105 105.701C63.6302 106.306 64.2409 106.552 64.7552 106.413L64.766 106.407Z" fill="#F4E8DA"/>
<path d="M77.3781 109.911C82.5375 107.825 86.6842 103.909 90.0488 99.5702C91.7739 97.3446 93.3223 94.9853 94.8117 92.5886C95.5939 91.3314 96.3869 90.0742 97.4102 88.9935C98.4335 87.9128 99.7032 87.1318 100.957 86.3346C103.582 84.6655 106.523 82.4453 106.561 79.0161C106.572 78.3313 106.122 77.7053 105.457 77.5074C104.916 77.3469 104.129 77.593 104.118 78.2724C104.086 81.0811 101.557 82.8305 99.4139 84.1894C98.1656 84.9811 96.9012 85.7729 95.8243 86.7947C94.7474 87.8165 93.917 89.0524 93.1241 90.2989C90.2524 94.8195 87.3272 99.3241 83.3358 102.967C81.1284 104.984 78.6157 106.637 75.8405 107.755C75.2083 108.012 75.3422 108.922 75.6529 109.355C76.0547 109.917 76.7352 110.163 77.3781 109.906V109.911Z" fill="#F4E8DA"/>
<path d="M159.183 58.7189C163.153 63.8494 167.123 68.9745 171.093 74.105C171.452 74.5705 172.159 74.9664 172.743 75.0359C173.252 75.1001 173.407 74.8326 173.091 74.426C169.121 69.2955 165.151 64.1704 161.181 59.0399C160.822 58.5744 160.115 58.1785 159.531 58.109C159.022 58.0448 158.867 58.3123 159.183 58.7189Z" fill="#F4E8DA"/>
</svg>
